<?xml version="1.0" encoding="UTF-8"?>
<svg id="Capa_2" data-name="Capa 2" xmlns="http://www.w3.org/2000/svg" viewBox="0 0 514.61 367.2">
  <defs>
    <style>
      .cls-1 {
        fill: #fffac6;
      }

      .cls-1, .cls-2, .cls-3, .cls-4, .cls-5, .cls-6, .cls-7 {
        fill-rule: evenodd;
      }

      .cls-2 {
        fill: #edc300;
      }

      .cls-3 {
        fill: #a4725d;
      }

      .cls-4 {
        fill: #0d131a;
      }

      .cls-5 {
        fill: #dcd8ac;
      }

      .cls-6 {
        fill: #815847;
      }

      .cls-7 {
        fill: #c6a400;
      }
    </style>
  </defs>
  <g id="Capa_1-2" data-name="Capa 1">
    <g id="Layer_2" data-name="Layer 2">
      <g id="Layer_1-2" data-name="Layer 1-2">
        <path class="cls-2" d="m502.82,61.16c10.84,34.02,13.59,70.1,8.04,105.37-4.89,30.66-17.88,59.46-37.64,83.41-19.7,23.63-45.49,41.43-74.56,51.48-32.88,11.31-68.01,14.51-102.4,9.33l58.48-81.56c36.21,2.08,70.95-14.56,92.02-44.08,18.63-25.26,30.71-54.75,35.15-85.83,2.65-15.52,4.99-27.35,7-35.39.81-5.78,2.95-11.29,6.27-16.09,1.21-.97,2.57,0,4.02,3.06,1.41,3.36,2.62,6.79,3.62,10.3Z"/>
        <path class="cls-7" d="m481.9,209.25c15.04-27.26,25.7-56.71,31.61-87.27,1.7,28.18-2.83,56.38-13.27,82.61-9.57,24.3-24.76,46-44.32,63.3-20.05,17.83-43.94,30.8-69.82,37.89-29.2,7.82-59.69,9.6-89.61,5.23l58.24-81.8c5.11.35,10.25.35,15.36,0l6.92-1.21c4.16,13.11,13.82,23.77,26.46,29.2,12.77,4.59,26.95,2.99,38.37-4.34,17.02-10.59,30.9-25.53,40.22-43.27l-.16-.32Z"/>
        <path class="cls-3" d="m495.9,127.92c9.03,2.3,15.84,9.71,17.37,18.9l-.88,8.93c-.72,6.52-1.37,11.1-1.85,13.84-1.43-6.43-5.11-12.13-10.38-16.09-9.43-7.07-21.92-8.55-32.74-3.86,1.64-3.83,3.06-7.75,4.26-11.74l1.85-5.95c6.18-5.28,14.75-6.79,22.36-3.94v-.08Z"/>
        <path class="cls-6" d="m513.27,148.36l-.88,8.04-1.85,13.11c-.43-1.49-1.05-2.93-1.85-4.26-1.33-2.39-2.92-4.63-4.75-6.68,2.49-6.47,4.4-13.14,5.71-19.95,1.65,3.03,2.87,6.28,3.62,9.65v.08Z"/>
        <path class="cls-2" d="m172.94,279.23c-2.97-5.59-4.8-11.71-5.39-18.02-1.85-10.3-1.61-16.65.72-18.98,3.7-3.7,16.81,1.05,39.49,14.16,5.16,2.96,9.85,6.67,13.92,11.02,5.7,4.82,8.71,12.11,8.04,19.55-1.4,6.43-7.01,11.08-13.59,11.26h-8.77c-2.23-.34-4.31-1.35-5.95-2.9-4.39-3.61-9.34-6.48-14.64-8.53-4.77-1.91-9.31-4.36-13.51-7.32l-.32-.24Z"/>
        <path class="cls-7" d="m172.94,279.23c-1.91-3.47-3.27-7.21-4.02-11.1-1.42-5.48-2.29-11.08-2.57-16.73,6.24,3.21,12.9,5.51,19.79,6.84,6.84,1.44,13.96.5,20.19-2.65l1.37.8c5.16,2.96,9.85,6.67,13.92,11.02,5.7,4.82,8.71,12.11,8.04,19.55-1.4,6.43-7.01,11.08-13.59,11.26h-8.77c-2.23-.34-4.31-1.35-5.95-2.9-4.39-3.61-9.34-6.48-14.64-8.53-4.77-1.91-9.31-4.36-13.51-7.32l-.24-.24Z"/>
        <path class="cls-2" d="m145.92,230.88c4.18-9.33,9.09-14.32,14.64-15.12,7.16-.97,12.15,8.04,15.12,25.74,2.99,15.2,4.37,30.68,4.1,46.17-.72,8.61-3.22,13.92-8.04,16.09-3.63,1.5-7.71,1.5-11.34,0l-9.65-4.91c-5.28-1.17-10.69-1.58-16.09-1.21-8.04,1.22-15.35,5.37-20.51,11.66-3.38,3.7-6.35,5.23-9.01,4.58s-4.18-2.9-5.47-6.84c-2.84-10.29-2.48-21.21,1.05-31.29,3.03-11.34,8.68-21.81,16.49-30.57,7.16-8.31,17.3-13.45,28.23-14.32h.48Z"/>
        <path class="cls-7" d="m133.85,267.32l13.19-2.25c4.35-1.09,8.39-3.15,11.82-6.03,2.59-2.04,4.45-4.86,5.31-8.04.38-2.37.51-4.77.4-7.16,1.8,1.72,4.63,1.72,6.43,0,1.9-1.7,3.3-3.9,4.02-6.35l.64,3.78c3.27,15.87,4.49,32.09,3.62,48.26-.88,8.04-3.3,12.95-7.16,14.72-3.86,1.77-10.7,0-20.99-5.39-5.45-.96-11.04-.96-16.49,0-7.72,1.12-14.81,4.9-20.03,10.7-5.79,6.35-10.22,6.52-13.35.48-3.17-7.8-3.9-16.39-2.09-24.61,9.53-9.25,21.6-15.47,34.67-17.86v-.24Z"/>
        <path class="cls-2" d="m67.09,185.11c3.7,1.53,8.61,3.78,14.8,6.6,4.38,2.78,7.79,6.86,9.73,11.66l8.04,14.48c2.9,3.54,5.14,7.57,6.6,11.9,2.15,8.81,2.91,17.9,2.25,26.95-.44,11.86.94,23.71,4.1,35.15,1.89,6.97,4.59,13.69,8.04,20.03,1.65,3.82,1.32,8.21-.88,11.74-2.9,5.25-6.29,10.2-10.14,14.8-3.34,3.18-7.36,5.57-11.74,7-6.02,2.55-12.45,4.02-18.98,4.34-2.73,0-3.94-.88-3.86-2.65.18-1.63,1.06-3.1,2.41-4.02,2.21-1.65,4.24-3.54,6.03-5.63,1.63-1.52,2.66-3.58,2.9-5.79-9.91-7.74-17.52-18.03-22.04-29.76-6.25-13.21-11.33-26.93-15.2-41.02-4.68-4.62-8.95-9.62-12.79-14.96-3.98-4.72-7.59-9.75-10.78-15.04-1.07-1.8-2.63-3.25-4.5-4.18-2.52-1.64-5.22-2.99-8.04-4.02-3.3-1.09-6.31-2.93-8.77-5.39-2.57-2.73-2.49-4.42,0-5.15,5.33-.81,10.76-.81,16.09,0,5.49.31,10.91,1.42,16.09,3.3,3.85,2.21,7.39,4.91,10.54,8.04,3.87,3.42,8.07,6.44,12.55,9.01l6.76-2.73c3-1.84,4.99-4.95,5.39-8.45-1.43-5.73-4.19-11.05-8.04-15.52-3.11-4.26-6.55-8.27-10.3-11.99-2.71-2.26-4.68-5.29-5.63-8.69,0-2.25,1.45-3.46,4.67-3.7,5.1.26,10.1,1.51,14.72,3.7Z"/>
        <path class="cls-7" d="m3.87,213.67l.56-1.13c.22-.46.59-.83,1.05-1.05,5.09-.79,10.27-.79,15.36,0,5.5.39,10.92,1.55,16.09,3.46,3.63,2,6.98,4.46,9.97,7.32,3.55,3.35,7.34,6.44,11.34,9.25-1.75,1.05-3.14,2.59-4.02,4.42-1.09,1.94-1.9,4.03-2.41,6.19-2.24-5.45-5.64-10.33-9.97-14.32-3.11-3.7-6.98-6.69-11.34-8.77-3.76-1.25-7.61-2.24-11.5-2.98-5-1.06-10.04-1.87-15.12-2.41Z"/>
        <path class="cls-7" d="m78.35,198.07c-5.45-5.89-11.61-11.07-18.34-15.44,4.06,1.02,8,2.47,11.74,4.34l10.14,4.58c4.38,2.78,7.79,6.86,9.73,11.66l8.04,14.48c2.79,3.33,5.04,7.07,6.68,11.1,1.87,6.72,2.58,13.71,2.09,20.67-.76,13.19.27,26.42,3.06,39.33,2.15,8.19,5.37,16.06,9.57,23.41,1.64,3.86,1.18,8.3-1.21,11.74-2.96,5.22-6.38,10.18-10.22,14.8-2.61,2.51-5.66,4.5-9.01,5.87-5.77,2.68-11.81,4.73-18.02,6.11,9.23-4.7,16.66-12.3,21.15-21.64,2.9-7.4,1.37-11.99-4.58-13.92-.88-9.89-3.54-27.19-8.04-51.64-2.93-13.2-4.3-26.7-4.1-40.22.8-9.26-2.39-18.42-8.77-25.18l.08-.08Z"/>
        <path class="cls-7" d="m324,295.15c-3.86-1.77-9.22-.08-16.09,5.07l-8.04,6.43c-2.1,1.85-4.39,3.46-6.84,4.83-3.43,1.64-7.38,1.81-10.94.48-2.62-.82-4.84-2.57-6.27-4.91l10.14-4.75,28.88-22.76,8.85,15.6h.32Z"/>
        <path class="cls-2" d="m251.37,304.4c1.19.76,1.94,2.05,2.01,3.46-.08,1.55-1.1,2.89-2.57,3.38-2.74,1.23-5.87,1.23-8.61,0-2.89-.85-5.35-2.74-6.92-5.31l5.71-2.73c1.89-.86,3.98-1.16,6.03-.88,1.62.21,3.13.92,4.34,2.01v.08Z"/>
        <path class="cls-2" d="m310.65,270.54c1.58-7.53,5.23-14.46,10.54-20.03,4.75-7.04,11.05-12.9,18.42-17.13,4.87-1.99,10.36-1.76,15.04.64,4.22,1.88,8,4.62,11.1,8.04l8.04,10.22c3.43,5.07,6.37,10.46,8.77,16.09,1.58,5.66,1.58,11.64,0,17.29-1.62,8.3-4.15,16.39-7.56,24.13-2.63,6.85-6.5,13.15-11.42,18.58-4.5,4.34-8.53,4.83-11.99,1.37-9.69-10.61-18.44-22.05-26.14-34.19-5.79-7.68-10.75-15.96-14.8-24.69v-.32Z"/>
        <path class="cls-7" d="m310.65,270.54c1.58-7.53,5.23-14.46,10.54-20.03,4.75-7.04,11.05-12.9,18.42-17.13,4.41-1.8,9.35-1.8,13.75,0,5.23,1.93,9.84,5.24,13.35,9.57-5.42,1.86-9.63,6.19-11.34,11.66-2.09,6.41-2.59,13.23-1.45,19.87.93,7.69,2.99,15.19,6.11,22.28,2.99,7,7.18,13.43,12.39,18.98-2.47,5.39-6.03,10.21-10.46,14.16-2.71,2.82-7.19,2.91-10.01.21-.07-.07-.14-.14-.21-.21-9.69-10.61-18.44-22.05-26.14-34.19-5.79-7.68-10.75-15.96-14.8-24.69l-.16-.48Z"/>
        <path class="cls-2" d="m416.67,188.9c6.35-.8,9.81,0,10.22,2.82.4,2.82-1.85,5.79-6.68,11.34-2.98,3.77-6.32,7.25-9.97,10.38-2.02,1.61-3.39,3.89-3.86,6.43-.71,4.17-.84,8.42-.4,12.63,2.03,3.45,4.4,6.68,7.08,9.65l2.57,2.25,7.56-8.85c3.75-4.56,8.2-8.5,13.19-11.66,4.83-1.97,9.99-3.01,15.2-3.06,4.26-.24,8.53-.24,12.79,0,4.99,0,7.32,1.77,6.84,4.42-.48,2.65-2.65,4.42-6.43,6.11s-7.24,3.14-9.09,4.02c-2.69,1.27-5.16,2.95-7.32,4.99-6.58,7.54-12.52,15.61-17.78,24.13-9.66,14.59-18.39,29.77-26.14,45.45-4.43,10.18-10.64,19.5-18.34,27.51-4.42,2.95-8.57,6.28-12.39,9.97.55,3.69,1.44,7.33,2.65,10.86,1.21,4.1,1.13,6.52,0,7.32-5.81-.03-11.46-1.95-16.09-5.47-7.73-6.66-13.07-15.68-15.2-25.66-1.08-3.7-.8-7.67.8-11.18,1.9-4.12,4.4-7.94,7.4-11.34,5.9-7.02,10.81-20.59,14.72-40.7l4.1-21.8c1.08-5.67,2.45-11.28,4.1-16.81,2.13-6.52,4.63-12.91,7.48-19.14,2.06-5.82,5.45-11.08,9.89-15.36,6.86-4.9,14.76-8.15,23.09-9.49v.24Z"/>
        <path class="cls-7" d="m420.77,194.69c3.22-1.45,4.91-1.77,4.99-.97s-1.69,5.39-6.11,10.38c-2.87,3.37-6.02,6.49-9.41,9.33-2.02,1.61-3.39,3.89-3.86,6.43-.71,4.17-.84,8.42-.4,12.63.93,2.86,2.73,5.37,5.15,7.16l5.15,4.26c.19,3.14.87,6.24,2.01,9.17,1.29,3.22,2.49,4.58,3.54,4.18,2.35-3.56,4.42-7.3,6.19-11.18,1.94-4.94,5.09-9.31,9.17-12.71,3.87-1.84,7.91-3.29,12.07-4.34,4.36-1.24,8.79-2.18,13.27-2.82,4.26-.56,6.52,0,6.84,1.05s-1.13,2.73-4.58,4.26c-3.46,1.53-7.24,3.14-9.09,4.02-2.69,1.27-5.16,2.95-7.32,4.99-7.3,8.27-13.84,17.18-19.55,26.62-8.8,13.93-16.86,28.33-24.13,43.11-4.76,10.59-11.29,20.3-19.3,28.72-2.23,2.16-4.68,4.07-7.32,5.71l-5.71,3.62c0-8.53-.56-14.4-.97-17.62-.75-5.36-2.52-8.04-5.31-8.04,7.13-10.45,11.95-22.29,14.16-34.75l3.46-20.03c1.69-9.17,3.62-17.94,5.87-26.22,2.57-11.58,4.18-18.34,4.83-20.27,2.02-7.11,6.35-13.33,12.31-17.7,4.56-3.04,9.35-5.73,14.32-8.04l-.24-.97Z"/>
        <path class="cls-2" d="m256.2,142.32c3.99-4.12,8.98-7.14,14.48-8.77,6.51-2.22,13.31-3.47,20.19-3.7,6.67-.34,13.36.42,19.79,2.25,5.36,1.23,10.1,4.34,13.35,8.77,5.19,8.78,8.56,18.52,9.89,28.64,2.08,15.23,3.4,30.56,3.94,45.93.49,9.63-1.16,19.24-4.83,28.15-3.59,9.2-8.73,17.72-15.2,25.18-6.16,7.23-13.54,13.33-21.8,18.02-7.34,4.27-15.64,6.62-24.13,6.84-16.39-.17-32.03-6.89-43.44-18.66-5.21-5.34-8.75-12.07-10.22-19.39-1.41-7.61-.1-15.46,3.7-22.2,7.77-16.47,13.99-33.62,18.58-51.24,3.15-14.01,8.59-27.41,16.09-39.66l-.4-.16Z"/>
        <path class="cls-7" d="m256.2,142.32c3.99-4.12,8.98-7.14,14.48-8.77,6.51-2.22,13.31-3.47,20.19-3.7,6.67-.34,13.36.42,19.79,2.25,5.36,1.23,10.1,4.34,13.35,8.77,5.19,8.78,8.56,18.52,9.89,28.64,2.08,15.23,3.4,30.56,3.94,45.93.72,18.06-5.33,35.73-16.97,49.55-9.8,14.1-24.52,24.02-41.26,27.83,2.72-12.34,4.07-24.93,4.02-37.56.2-13.75-1.12-27.48-3.94-40.94-1.89-11.27-6.47-21.92-13.35-31.05-5.57-7.46-15.2-10.67-24.13-8.04,2.41-8.04,4.58-14.72,6.43-19.3,1.74-4.85,4.21-9.4,7.32-13.51l.24-.08Z"/>
        <path class="cls-3" d="m256.2,142.32c3.99-4.12,8.98-7.14,14.48-8.77,6.51-2.22,13.31-3.47,20.19-3.7,6.67-.34,13.36.42,19.79,2.25,5.36,1.23,10.1,4.34,13.35,8.77,5.19,8.78,8.56,18.52,9.89,28.64,2.08,15.23,3.4,30.56,3.94,45.93.3,6.47-.35,12.95-1.93,19.22-16.57-12.63-34.89-22.79-54.38-30.16-16.99-4.57-35.11-1.79-49.95,7.64l12.23-40.22c2.51-10.41,6.78-20.31,12.63-29.28l-.24-.32Z"/>
        <path class="cls-6" d="m256.2,142.32c3.99-4.12,8.98-7.14,14.48-8.77,6.51-2.22,13.31-3.47,20.19-3.7,6.67-.34,13.36.42,19.79,2.25,5.36,1.23,10.1,4.34,13.35,8.77,5.19,8.78,8.56,18.52,9.89,28.64,2.08,15.23,3.4,30.56,3.94,45.93.3,6.47-.35,12.95-1.93,19.22-13.51-9.22-24.24-16.01-32.17-20.35-8.55-4.99-17.79-8.68-27.43-10.94-6.35-19.79-16.65-32.66-31.13-38.69,2.2-7.99,5.74-15.55,10.46-22.36h.56Z"/>
        <path class="cls-4" d="m256.2,142.32c3.99-4.12,8.98-7.14,14.48-8.77,6.51-2.22,13.31-3.47,20.19-3.7,6.67-.34,13.36.42,19.79,2.25,5.36,1.23,10.1,4.34,13.35,8.77,3.31,4.74,5.84,9.98,7.48,15.52,1.44,9.08,2.38,18.24,2.82,27.43l-8.04,8.85c-2.93,2.86-7.07,4.12-11.1,3.38-6.37-1.57-11.3-6.62-12.71-13.03-2.98-8.04-5.79-12.95-8.04-13.59-5.29-1.13-10.68-1.75-16.09-1.85-4.64-.52-9.33-.16-13.84,1.05-2.16,2.49-3.85,5.35-4.99,8.45-1.74,4.12-4.51,7.72-8.04,10.46-2.04,1.18-4.23,2.08-6.52,2.65l-6.52.88c2.16-9.83,4.98-19.51,8.45-28.96,1.61-4.58,2.9-8.04,3.86-10.3,1.44-3.42,3.37-6.62,5.71-9.49h-.24Z"/>
        <path class="cls-2" d="m235.12,177.07c1.88,1.8,2.54,4.54,1.69,7l-5.23,12.47c-2.09,5.24-3.84,10.62-5.23,16.09-.8,3.26-3.29,5.84-6.52,6.76l-10.7.16c-3.36-.61-6.48-2.14-9.01-4.42-2.24-1.74-3.17-4.69-2.33-7.4,2.25-6.6,4.1-11.9,5.71-16.09,2.25-5.63,4.75-11.42,7.64-17.29,1.28-2.42,3.78-3.93,6.52-3.94,3.19-.2,6.38.32,9.33,1.53,3.08.99,5.85,2.76,8.04,5.15h.08Z"/>
        <path class="cls-7" d="m235.28,177.07c1.81,1.81,2.41,4.51,1.53,6.92l-5.23,12.47c-2.09,5.24-3.84,10.62-5.23,16.09-.8,3.51-3.56,6.24-7.08,7,.87-13.49-3.54-26.79-12.31-37.08,1.3-2.79,2.8-5.48,4.5-8.04,1.61-2.27,4.22-3.61,7-3.62,3.19-.22,6.38.3,9.33,1.53,2.88.95,5.46,2.65,7.48,4.91v-.16Z"/>
        <path class="cls-3" d="m253.46,171.36c-.11,1.6-.61,3.14-1.45,4.5-2.43,4.24-5.86,7.83-9.97,10.46-5.35,2.78-11.71,2.78-17.05,0-6.34-2.19-12.19-5.61-17.21-10.05-3.51-2.24-7.7-3.15-11.82-2.57-3.82.08-7.61.71-11.26,1.85-2.98,1.05-4.83.64-5.63-1.21s0-7.24,3.38-14.4c2.9-6.22,7.58-11.45,13.43-15.04,5.89-3.47,12.55-5.44,19.39-5.71l38.21,32.17Z"/>
        <path class="cls-6" d="m253.46,171.36c-.11,1.6-.61,3.14-1.45,4.5-2.43,4.24-5.86,7.83-9.97,10.46-6.08,3.78-13.78,3.78-19.87,0-5.22-2.6-10.07-5.9-14.4-9.81-2.35-1.67-5.17-2.54-8.04-2.49,2.27-1.91,5.09-3.03,8.04-3.22l8.04-.72c6.03-1.61,8.85-9.33,8.04-23.33l29.36,24.53.24.08Z"/>
        <path class="cls-2" d="m258.85,267.88c.43,7.43-.75,14.87-3.46,21.8-3.16,7.54-10.27,12.69-18.42,13.35-6.86,2.17-14.35.62-19.79-4.1-3.15-3.26-5.66-7.08-7.4-11.26-2.23-5.59-3.46-11.52-3.62-17.54-.66-7.73-2.44-15.32-5.31-22.52-1.76-6.05-4.72-11.68-8.69-16.57-2.75-2.52-4.3-6.08-4.26-9.81.26-4.21,1.47-8.31,3.54-11.99,2.36-4.85,6.43-8.66,11.42-10.7,5.36-2.49,11.54-2.49,16.89,0,5.19,2.41,8.98,7.06,10.3,12.63,1.36,4.81,2.43,9.7,3.22,14.64,1.6,5.1,4.11,9.87,7.4,14.08,3.59,4.45,7.55,8.59,11.82,12.39,4.12,4.16,6.48,9.75,6.6,15.6h-.24Z"/>
        <path class="cls-7" d="m251.85,252.04c4.21,4.32,6.65,10.06,6.84,16.09.49,7.34-.64,14.7-3.3,21.56-1.67,4.24-4.7,7.8-8.61,10.14-3.78,2.34-8.04,3.77-12.47,4.18.37-2.26.53-4.55.48-6.84,1.2-10.26.69-20.64-1.53-30.73-1.94-11.3-5.01-22.38-9.17-33.06-3.25-8.92-7.68-17.36-13.19-25.1-4.91-6.52-9.17-9.01-12.63-7.56,3.02-2.24,6.57-3.65,10.3-4.1,3.91-.46,7.86.18,11.42,1.85,5.15,2.34,8.9,6.95,10.14,12.47,1.34,4.89,2.39,9.86,3.14,14.88,1.8,4.76,4.3,9.23,7.4,13.27,3.36,4.69,7.19,9.03,11.42,12.95h-.24Z"/>
        <path class="cls-7" d="m253.78,257.51c2.73,1.53,4.26,5.71,4.42,12.47.16,6.76-.56,10.05-2.09,10.38-3.6.07-7.18-.68-10.46-2.17-5.74-2.25-8.55-5.15-8.45-8.69-.14-4.56,2.24-8.82,6.19-11.1,3.02-2.22,7.03-2.56,10.38-.88Z"/>
        <path class="cls-2" d="m225.79,308.59c-3.12-2.46-3.98-6.84-2.01-10.3,1.2-2.76,3.83-4.62,6.84-4.83,1.93,0,4.26,2.01,7,6.11l6.35,10.7c1.69,2.82,0,4.02-5.47,3.46-4.71-.18-9.2-2-12.71-5.15Z"/>
        <path class="cls-2" d="m237.94,275.28c4.34,0,8.77,3.62,13.35,10.14,4.58,6.52,6.03,9.97,4.83,11.5-2.4,2.42-5.68,3.78-9.09,3.78-5.95.75-11.9-1.34-16.09-5.63-4.18-3.13-5.42-8.86-2.9-13.43,1.77-3.82,5.69-6.18,9.89-5.95v-.4Z"/>
        <path class="cls-7" d="m237.94,275.28c4.34,0,8.77,3.62,13.35,10.14,4.58,6.52,6.03,9.97,4.83,11.5-1.12,1.17-2.5,2.05-4.02,2.57-2.57.97-5.3,1.44-8.04,1.37-.76-8.99-3.51-17.7-8.04-25.5l1.93-.08Z"/>
        <path class="cls-2" d="m256.28,261.21l-4.99,17.21c-15.2-2.09-22.28-4.1-21.24-6.11,1.05-2.01,5.55-5.23,12.71-8.04,4.26-1.94,8.84-3.06,13.51-3.3v.24Z"/>
        <path class="cls-7" d="m253.14,272.15l-1.85,6.27c-14.8-2.01-21.88-4.02-21.24-6.11,7.55,2.15,15.54,2.15,23.09,0v-.16Z"/>
        <path class="cls-7" d="m258.45,301.1l18.66,5.15c-9.14,9.73-22.97,13.52-35.79,9.81,1.91-2.76,4.28-5.18,7-7.16,3.2-2.86,6.56-5.55,10.05-8.04l.08.24Z"/>
        <path class="cls-2" d="m229.49,304.08c-2.33-1.05-3.46-2.09-3.3-3.06s1.21-1.61,3.06-2.9l10.78-6.84c5.71-3.46,9.33-5.63,10.86-6.35l7.32,19.14c-5.14,2.4-10.83,3.4-16.49,2.9-4.22-.17-8.37-1.15-12.23-2.9Z"/>
        <path class="cls-7" d="m229.49,304.08c-3.14-1.37-4.1-2.82-2.98-4.26,9.69.74,19.31-2.13,27.03-8.04l4.67,12.23c-5.14,2.4-10.83,3.4-16.49,2.9-4.22-.17-8.37-1.15-12.23-2.9v.08Z"/>
        <path class="cls-2" d="m324.49,183.43l26.46-9.49c.7,30.41.27,46.76-1.29,49.07-1.45,2.01-5.95,1.85-13.51-.56-7.56-2.41-11.9-5.71-12.23-9.65-.34-5.89-.34-11.8,0-17.7,0,0,.56-11.66.56-11.66Z"/>
        <path class="cls-7" d="m341.78,199.35c-4.53-4.89-11.19-7.22-17.78-6.19l.48-9.73,26.46-9.49v18.66c0,11.66,0,20.03-.64,25.18-1.5-6.74-4.53-13.04-8.85-18.42h.32Z"/>
        <path class="cls-3" d="m351.67,127.2c6.53,2.98,12.51,7.03,17.7,11.99,7.18,6.59,12.2,15.2,14.4,24.69,2.53,7.04,2.39,14.77-.4,21.72-2.09,4.1-7.48,6.92-16.09,8.04-5.3,1.12-10.78,1.12-16.09,0v-20.43l-21.64,9.81c-5.45,1.92-11.51.96-16.09-2.57-7.17-3.9-12.37-10.65-14.32-18.58-3.11-8.21-2.12-17.41,2.65-24.77,6.38-5.98,14.33-10.03,22.92-11.66,8.54-2.54,17.68-2.17,25.98,1.05l.97.72Z"/>
        <path class="cls-6" d="m355.05,128.81c5.21,2.84,10.02,6.36,14.32,10.46,7.05,6.61,11.95,15.18,14.08,24.61,2.6,7.37,2.43,15.43-.48,22.68-2.09,4.1-7.4,6.76-16.09,8.04-5.15,1.04-10.45,1.04-15.6,0v-20.43l-21.64,9.81c-3.38,1.27-7.13,1.1-10.38-.48-4.69-1.94-8.76-5.14-11.74-9.25,6.98,2.27,14.5,2.27,21.48,0,8.27-2.69,16.33-5.97,24.13-9.81,6.96-2.44,11.37-9.3,10.7-16.65-1.07-7.03-4.11-13.61-8.77-18.98Z"/>
        <path class="cls-2" d="m251.61,278.1c.03-5.24,1.24-10.41,3.54-15.12,2.59-3.38,6.2-5.83,10.3-7,4.88-1.87,9.63-4.04,14.24-6.52,5.62-3.72,10.82-8.04,15.52-12.87,5.38-5.11,10.09-10.9,14-17.21,5.55-9.09,10.78-13.75,16.09-13.92,8.6-.73,17.03,2.64,22.76,9.09,4.64,5.25,7.48,11.84,8.12,18.82.27,5.29-2.07,10.37-6.27,13.59-6.68,5.31-11.9,9.65-15.6,13.19-8.04,8.04-14.72,14.96-20.99,20.91-8.86,8.95-18.94,16.61-29.92,22.76-5.64,3.4-12.49,4.17-18.74,2.09-4.81-2.25-8.62-6.21-10.7-11.1-2.16-5.38-2.96-11.21-2.33-16.97v.24Z"/>
        <path class="cls-7" d="m264.48,278.98l11.1-3.38c4.26-1.39,8.33-3.28,12.15-5.63,12.52-8.11,23.79-18,33.46-29.36,13.51-15.44,17.94-26.73,13.27-33.86,6.33,1.83,11.95,5.57,16.09,10.7,3.7,4.55,5.97,10.09,6.52,15.93.48,4.1-2.25,9.09-8.04,14.8l-14.48,12.47c-8.04,8.04-15.04,14.88-21.48,20.83-9.02,8.89-19.19,16.52-30.24,22.68-13.11,6.43-22.6,3.54-28.64-8.85-.71-1.68-1.25-3.44-1.61-5.23.48-4.83,4.58-8.45,12.15-10.86l-.24-.24Z"/>
        <path class="cls-2" d="m222.81,21.27l-34.02,45.77c-5.56-9.74-9.7-20.22-12.31-31.13-3.68-9.83-4.85-20.42-3.38-30.81,4.42-2.98,13.19-1.85,26.38,3.46,8.41,2.95,16.29,7.24,23.33,12.71Z"/>
        <path class="cls-7" d="m182.03,3.73c8.29,1.38,16.31,4.1,23.73,8.04,6.09,2.38,11.82,5.57,17.05,9.49l-6.92,9.25c-4.07-6.05-9.07-11.42-14.8-15.93-5.74-4.6-12.18-8.27-19.06-10.86Z"/>
        <path class="cls-1" d="m176.97,11.05c5.21,5.01,10.05,10.38,14.48,16.09,4.07,5.66,7.39,11.83,9.89,18.34l-8.28,17.37c-3.94-7.78-7.27-15.84-9.97-24.13-3.21-8.92-5.26-18.22-6.11-27.67Z"/>
        <path class="cls-2" d="m360.92,36.95c-3.19,11.54-8.27,22.46-15.04,32.34l-45.77-48.26c11.94-5.97,24.63-10.29,37.72-12.87,15.6-3.22,25.1-3.7,28.47-1.53.44,10.35-1.37,20.67-5.31,30.24l-.08.08Z"/>
        <path class="cls-1" d="m326.66,51.27c3.88-7.54,8.48-14.68,13.75-21.32,5.93-6.73,13.15-12.2,21.24-16.09-1.85,19.17-9.16,37.4-21.07,52.53l-13.92-15.12Z"/>
        <path class="cls-5" d="m361.97,13.62c-1.14,9.13-3.35,18.09-6.6,26.71-10.44.32-20.32,4.81-27.43,12.47l-1.29-1.37c3.88-7.54,8.48-14.68,13.75-21.32,5.93-6.73,13.15-12.2,21.24-16.09l.32-.4Z"/>
        <path class="cls-2" d="m298.02,13.95c3.03.92,5.93,2.25,8.61,3.94l11.1,9.01c5.86,5.1,11.25,10.73,16.09,16.81,7.42,9.3,12.89,19.99,16.09,31.45,3.03,10.03,4.74,20.41,5.07,30.89.8,6.94-2.97,13.6-9.33,16.49-3.27,1.51-6.7,2.67-10.22,3.46l-12.79,2.82c-8.1,2.47-15.94,5.73-23.41,9.73-7.79,3.65-14.96,8.51-21.24,14.4-4.14,4.7-8.63,9.08-13.43,13.11-4.74,3.96-10.92,5.77-17.05,4.99-4.58-.47-8.86-2.48-12.15-5.71-3.37-3.76-6.26-7.92-8.61-12.39-3.52-6.78-8.62-12.6-14.88-16.97-8.85-4.83-17.21-9.89-25.26-15.28-5.23-3.46-6.76-12.79-4.75-27.83,2.25-16.66,7.97-32.67,16.81-46.98,3.49-5.22,7.48-10.1,11.9-14.56,3.94-4.33,8.52-8.02,13.59-10.94,17.37-8.83,36.93-12.44,56.31-10.38,6.08.63,12.07,1.95,17.86,3.94h-.32Z"/>
        <path class="cls-1" d="m244.53,137.34c6.77-.84,13.61.91,19.14,4.91l9.49,5.71c2.09,1.13,4.1,2.39,6.03,3.78l-1.21,1.21c-4.14,4.7-8.63,9.08-13.43,13.11-4.74,3.96-10.92,5.77-17.05,4.99-4.27-.6-8.25-2.48-11.42-5.39-3.59-3.38-6.48-7.42-8.53-11.9,2.51-7.93,8.92-14.01,16.97-16.09v-.32Z"/>
        <path class="cls-7" d="m354.65,100.58v8.04c-.41,5.14-3.45,9.71-8.04,12.07-6.19,3.2-12.62,5.91-19.22,8.12l-16.49,4.99c-11.81,3.66-22.64,9.93-31.69,18.34l-6.76-4.18,1.45-1.85c5.86-6.56,13.15-11.68,21.32-14.96,8.66-3.92,17.52-7.38,26.54-10.38,7.81-2.1,15.44-4.79,22.84-8.04,6.52-3.38,9.89-7.4,10.05-11.9v-.24Z"/>
        <path class="cls-5" d="m277.99,152.94l-11.66,11.82c-4.04,3.6-9.1,5.84-14.48,6.43h0c4.22-2.3,7.86-5.55,10.62-9.49l10.38-14.16,6.76,4.18-1.21,1.21h-.4Z"/>
        <path class="cls-4" d="m296.66,309.39c13.13,1.84,26.4,2.54,39.66,2.09.08.63.4,1.2.88,1.61l1.37,1.37c-15.17.45-30.34-.38-45.37-2.49,0,0,3.46-2.57,3.46-2.57Z"/>
        <path class="cls-4" d="m356.02,227.26c7.79.17,15.59-.47,23.25-1.93l-.8,2.01-.56,2.17-10.46,1.05h-11.18v-3.3h-.24Z"/>
        <path class="cls-4" d="m501.53,61.56c-.85-3.77-2.41-7.34-4.58-10.54-1.53-1.69-2.57-1.37-3.14.88-1.21,4.1-2.57,9.97-4.18,17.78l-6.35,32.17c-4.51,24.44-12.87,48-24.77,69.82-11.47,21.41-29.4,38.66-51.24,49.31l1.45-4.18c7.22-3.82,13.99-8.43,20.19-13.75,6.52-5.66,12.42-12,17.62-18.9,10.54-14.19,18.69-30,24.13-46.81,4-12.64,7.36-25.47,10.05-38.45l6.35-29.92c2.41-11.34,3.86-17.78,4.42-19.22,1.53-3.78,3.46-4.83,5.87-3.3,3.64,3.62,6.06,8.29,6.92,13.35,10.11,34.13,12.86,70.02,8.04,105.29-4.21,32.77-17.72,63.64-38.93,88.96-8.52,9.8-18.16,18.57-28.72,26.14-10.66,7.62-22.09,14.09-34.11,19.3.84-1.84,1.52-3.75,2.01-5.71,22.47-9.97,42.46-24.78,58.56-43.36,20.64-24.77,33.8-54.9,37.97-86.87,5.03-34.14,2.42-68.98-7.64-101.99h.08Z"/>
        <path class="cls-4" d="m467.66,149c9.68-5.23,21.48-4.55,30.49,1.77,3.92,2.45,7.25,5.75,9.73,9.65,2.24,3.07,3.32,6.83,3.06,10.62l-1.05,2.41c-.34-10.14-6.66-19.11-16.09-22.84-4.38-2.05-9.16-3.07-14-2.98-4.71-.01-9.33,1.36-13.27,3.94,0,0,1.13-2.57,1.13-2.57Z"/>
        <path class="cls-4" d="m474.58,130.58c2.86-2.46,6.39-4,10.14-4.42,4.15-.56,8.37-.11,12.31,1.29,4.26,1.32,8.08,3.8,11.02,7.16,2.84,3.52,4.75,7.7,5.55,12.15l-.72,2.82c-.8-4.65-2.77-9.02-5.71-12.71-2.76-3.71-6.57-6.51-10.94-8.04-3.98-1.36-8.22-1.77-12.39-1.21-3.77.4-7.35,1.88-10.3,4.26l1.13-1.93-.08.64Z"/>
        <path class="cls-4" d="m201.98,251.07c1.1,1.19,1.58,2.83,1.29,4.42-8.61-5.33-17.85-9.57-27.51-12.63-.29-1-.29-2.06,0-3.06,4.04,1.14,8.02,2.51,11.9,4.1,5.06,1.89,9.91,4.29,14.48,7.16h-.16Z"/>
        <path class="cls-4" d="m180.18,285.1v-2.98l8.04,3.3c5.07,2.36,9.85,5.3,14.24,8.77,1.49,1.27,3.25,2.18,5.15,2.65,2.66.49,5.39.49,8.04,0,1.17.57,2.07,1.58,2.49,2.82h-11.02c-2.79-.8-5.37-2.2-7.56-4.1-2.86-2.29-5.96-4.26-9.25-5.87-3.26-1.8-6.65-3.36-10.14-4.67v.08Z"/>
        <path class="cls-4" d="m174.39,241.42c-2.49-16.09-6.6-24.13-12.07-24.61-3.15-.02-6.13,1.44-8.04,3.94-2.78,2.95-5.03,6.35-6.68,10.05h-2.57c1.97-4.94,4.93-9.43,8.69-13.19,2.22-2.66,5.55-4.11,9.01-3.94,6.76,1.05,11.5,10.14,14.4,27.43,1.93,11.99,3.22,21.72,3.78,29.12.66,6.88.66,13.8,0,20.67-.62,3.56-1.96,6.95-3.94,9.97-1.24,2.6-3.39,4.65-6.03,5.79-3.94.66-7.98-.17-11.34-2.33-3.92-2.36-8.18-4.09-12.63-5.15-4.92-.61-9.92-.14-14.64,1.37-5.23,1.55-10.03,4.3-14,8.04-.28-1.22-.8-2.36-1.53-3.38,4.48-3.73,9.81-6.3,15.52-7.48,5.08-1.43,10.41-1.7,15.6-.8,4.42,1.3,8.75,2.92,12.95,4.83,2.88,1.73,6.35,2.17,9.57,1.21,4.36-2.53,7.12-7.11,7.32-12.15,1.28-16.54.14-33.18-3.38-49.39Z"/>
        <path class="cls-4" d="m108.92,261.29v-5.15c3.75-6.29,8.38-12,13.75-16.97,5.72-5.32,13.05-8.58,20.83-9.25,5.2-.34,10.35,1.23,14.48,4.42,6.21,4.8,10.08,12.03,10.62,19.87v2.65c0,.08-.8-.72-1.21-2.49-3.7-12.95-10.94-20.19-22.6-20.99-8.06-.16-15.83,3.01-21.48,8.77-5.86,5.52-10.78,11.96-14.56,19.06l.16.08Z"/>
        <path class="cls-4" d="m5.47,210.13c5.72-.57,11.49-.57,17.21,0,5.73.26,11.38,1.46,16.73,3.54,3.56,2.52,6.9,5.35,9.97,8.45,3.19,3.27,6.63,6.28,10.3,9.01h.48l-3.06,1.69-10.54-8.85c-3.17-2.94-6.56-5.62-10.14-8.04-4.92-1.76-10.07-2.82-15.28-3.14-4.96-.74-10-.74-14.96,0-1.53,0-2.01,1.29-1.29,2.98s3.62,3.94,8.53,5.63c3.07,1,6.01,2.35,8.77,4.02,1.71,1.43,3.22,3.08,4.5,4.91l18.5,24.13,4.83,6.43,2.17,6.03c4.05,13.19,9.25,26,15.52,38.29,4.32,9.53,10.73,17.97,18.74,24.69-.03.98-.34,1.92-.88,2.73-9.46-6.34-16.84-15.32-21.24-25.82-6.21-12.5-11.22-25.56-14.96-39.01-.54-2.08-1.3-4.1-2.25-6.03-1.36-2.2-2.92-4.28-4.67-6.19-6.76-8.04-12.55-15.28-17.37-22.04-1.43-2.07-3.05-4.01-4.83-5.79-2.09-1.59-4.42-2.81-6.92-3.62-5.12-1.22-9.65-4.21-12.79-8.45-1.53-3.14,0-4.91,4.91-5.55Z"/>
        <path class="cls-4" d="m90.42,204.74c-2.15-4.47-5.26-8.43-9.09-11.58-4.18-2.71-8.66-4.92-13.35-6.6-3.76-1.67-7.66-2.99-11.66-3.94-3.3-.56-5.23,0-5.87,1.77-.64,1.77.64,4.83,4.18,8.45,4.59,4.73,8.84,9.79,12.71,15.12,2.01,2.72,3.71,5.66,5.07,8.77.45,2.85.61,5.73.48,8.61,0,4.18,0,6.27-.48,6.43s-1.05-1.85-1.61-5.87l-.8-5.15c-.26-1.69-.74-3.35-1.45-4.91-1.54-3-3.41-5.84-5.55-8.45-3.53-4.63-7.37-9.01-11.5-13.11-3.26-2.64-5.08-6.67-4.91-10.86.56-3.7,3.46-5.15,8.85-4.34,5.05.86,9.99,2.29,14.72,4.26,4.99,1.78,9.79,4.08,14.32,6.84,3.57,2.97,6.34,6.78,8.04,11.1,2.42,5.41,5.3,10.6,8.61,15.52l3.62,4.5c1.32,1.58,2.4,3.34,3.22,5.23,1.26,3.72,2.02,7.59,2.25,11.5v16.97c-.61,13.79,1.13,27.58,5.15,40.78,1.91,5.32,4.28,10.46,7.08,15.36,1.82,5.15,1.07,10.86-2.01,15.36-2.56,5.35-5.98,10.24-10.14,14.48-3.3,2.78-7.13,4.86-11.26,6.11-4.84,1.94-9.89,3.32-15.04,4.1-4.99.56-8.04,0-9.73-1.93-1.69-1.93,0-5.07,4.5-8.85,2.28-1.76,4.17-3.98,5.55-6.52,1.09-2.03,1.9-4.19,2.41-6.43.76-3.91,2.5-7.57,5.07-10.62,3.29-3.64,8.8-4.23,12.79-1.37,1.36.54,2.44,1.62,2.98,2.98,0,1.05,0,1.13-1.37,0-2.58-2.15-6.12-2.73-9.25-1.53-3.81,2-6.49,5.65-7.24,9.89-.74,2.77-1.73,5.46-2.98,8.04-2.26,3.19-4.97,6.04-8.04,8.45-1.34,1.13-1.82,2.17-1.45,3.14.48.97,1.85,1.45,4.18,1.29,5.56-.55,10.99-1.99,16.09-4.26,3.96-1.27,7.7-3.15,11.1-5.55,3.31-3.5,6.03-7.52,8.04-11.9,3.14-6.27,3.94-10.86,2.33-13.67-3.29-5.94-5.99-12.19-8.04-18.66-3.26-10.78-4.62-22.05-4.02-33.3,1.01-11.02.22-22.13-2.33-32.9-1.31-3.33-3.19-6.4-5.55-9.09-3.1-4.3-5.8-8.87-8.04-13.67h-.56Z"/>
        <path class="cls-4" d="m56.87,235.47c-2.26,2.52-3.91,5.51-4.83,8.77-.48,1.61-.88,2.25-1.21,1.93-.48-.48-.4-1.45,0-3.3.27-3.32,1.63-6.46,3.86-8.93,1.18-1.07,2.58-1.87,4.1-2.33l4.58-1.77c2.57-1.19,4.74-3.09,6.27-5.47.97-1.61,1.37-2.65,1.21-3.22.76,1.25,1.02,2.75.72,4.18,0,1.29-.64,2.65-2.17,4.26l-4.02,2.82-4.5.97c-1.51.36-2.9,1.1-4.02,2.17v-.08Z"/>
        <path class="cls-4" d="m301.96,303.52c3.47-3.09,7.28-5.79,11.34-8.04,3.33-2.22,7.52-2.7,11.26-1.29l.72,2.49c-3.82-1.43-8.08-1.04-11.58,1.05-3.58,2.42-6.97,5.11-10.14,8.04l-4.91,4.5c-1.33,1.26-2.81,2.34-4.42,3.22-3.94,1.77-8.45,1.77-12.39,0-2.9-1.11-5.36-3.15-7-5.79l2.41-1.29c1.23,2.06,3.18,3.61,5.47,4.34,3.27,1.14,6.86.94,9.97-.56,3.32-1.83,6.41-4.07,9.17-6.68h.08Z"/>
        <path class="cls-4" d="m356.74,233.38c4.05,2.08,7.75,4.8,10.94,8.04,1.65,1.85,3.13,3.84,4.42,5.95-.18,1.42-.65,2.79-1.37,4.02-1.33-2.89-3.04-5.59-5.07-8.04-2.08-2.92-4.84-5.3-8.04-6.92v-3.54l-.88.48Z"/>
        <path class="cls-4" d="m314.35,279.71l1.85-2.25c9.07,15.46,19.18,30.3,30.24,44.4-.43,1.18-.78,2.39-1.05,3.62-6.45-7.34-12.29-15.19-17.45-23.49l-13.59-22.2v-.08Z"/>
        <path class="cls-4" d="m413.29,187.53c4.33-1.45,9.05-1.19,13.19.72,3.86,2.65,0,9.81-11.5,21.64-1.59,1.56-3.05,3.25-4.34,5.07-1.37,1.97-2.27,4.23-2.65,6.6l-.88,6.19-.48,4.02c.98,2.18,2.23,4.23,3.7,6.11,1.31,1.38,2.83,2.55,4.5,3.46,1.48.8,2.63,2.12,3.22,3.7.8,2.2,1.28,4.5,1.45,6.84,0,2.17,0,3.22,0,2.98s-.88-.97-1.37-2.49l-2.25-6.19c-.74-1.43-1.89-2.61-3.3-3.38-2.94-1.68-5.21-4.32-6.43-7.48-.49,2.29-1.27,4.51-2.33,6.6-.97,1.69-1.29,1.69-1.13,0l2.57-23.25c2.99-5.51,7.01-10.39,11.82-14.4,6.81-6.92,9.49-11.26,8.04-13.03-1.29-1.37-4.67-1.53-10.3,0-6.99,1.69-13.61,4.63-19.55,8.69-4.58,4.2-8.04,9.48-10.05,15.36l-8.04,19.71c-1.7,4.72-3.04,9.56-4.02,14.48l-3.86,22.04c-2.11,16.26-8.28,31.72-17.94,44.96-2.95,3.63-4.84,8-5.47,12.63-.35,3-.08,6.04.8,8.93,1.97,6.37,5.32,12.22,9.81,17.13,3.47,3.51,7.63,6.25,12.23,8.04,3.38,1.21,5.55,1.61,6.52,1.05s.97-2.65,0-6.11c-1.22-2.96-2.24-6-3.06-9.09-.78-4.19-1.16-8.45-1.13-12.71l-1.05-6.43c0-1.99-.75-3.91-2.09-5.39-2.48-1.89-5.75-2.41-8.69-1.37h-2.25s0-.88,1.77-1.45c3.45-2.19,7.87-2.12,11.26.16,2.49,2.01,3.62,6.52,3.46,13.51-.26,3.4-.26,6.82,0,10.22.75,3.65,1.75,7.26,2.98,10.78,3.3,9.73.56,12.95-8.04,9.49-5.2-1.91-9.95-4.9-13.92-8.77-3.13-3.41-5.83-7.19-8.04-11.26-1.96-3.36-3.43-6.99-4.34-10.78-1.02-7.36,1.24-14.8,6.19-20.35,4.22-5.13,7.76-10.78,10.54-16.81,3.68-8.74,6.38-17.86,8.04-27.19,1.77-8.04,3.38-17.21,4.83-26.46.53-3.84,1.45-7.61,2.73-11.26,2.65-7.32,4.99-13.59,7-18.74,1.95-6.41,5.34-12.3,9.89-17.21,6.65-4.76,14.21-8.1,22.2-9.81l-.24.32Z"/>
        <path class="cls-4" d="m464.61,232.65c-5.07,2.33-8.04,3.86-9.25,4.42-1.94.97-3.73,2.22-5.31,3.7-7.58,8.65-14.29,18.03-20.03,27.99-8.79,14.08-16.85,28.6-24.13,43.52-3.88,8.68-8.91,16.8-14.96,24.13-5.29,4.8-11.09,9.01-17.29,12.55-.13-.53-.13-1.08,0-1.61v-1.37c5.67-3.37,10.79-7.57,15.2-12.47,5.9-7.23,10.82-15.21,14.64-23.73,7.27-15.25,15.5-30.02,24.61-44.24,5.77-9.62,12.45-18.67,19.95-27.03,1.65-1.53,3.55-2.76,5.63-3.62,1.45-.72,4.1-1.93,8.04-3.46,6.27-2.9,8.93-5.23,8.04-7.24-.88-2.01-3.3-2.49-7.48-2.49-8.77-.64-17.57.48-25.9,3.3-4.04,2.43-7.6,5.56-10.54,9.25-2.92,3.32-5.61,6.84-8.04,10.54l-2.49-2.25c2.95-4.22,6.24-8.2,9.81-11.9,3.17-3.59,6.89-6.66,11.02-9.09,4.07-1.73,8.45-2.61,12.87-2.57h14.8c4.99,0,8.04,1.37,8.85,4.5.8,3.14-1.45,6.43-7.56,9.25l-.48-.08Z"/>
        <path class="cls-4" d="m234.16,199.35l3.78-11.34,2.25-.48c-4.02,13.75-6.92,23.17-8.77,28.15l-1.45-4.99,4.18-11.34Z"/>
        <path class="cls-4" d="m311.21,218.09l-1.37,1.69c-13.4-10.3-29.92-15.72-46.81-15.36-11.26-.63-22.39,2.7-31.45,9.41v-2.73c9.75-7.2,21.8-10.55,33.86-9.41,16.76-.26,33.06,5.44,46.01,16.09l-.24.32Z"/>
        <path class="cls-4" d="m210.43,179l-8.04,19.14-3.62,2.09c.97-1.93,2.65-5.71,4.91-11.42l4.83-11.74,1.93,1.85v.08Z"/>
        <path class="cls-4" d="m235.04,188.9h1.53l-3.22,7.24c-1.86,4.11-3.47,8.33-4.83,12.63-.44-.61-.67-1.34-.64-2.09v-2.57l3.46-9.25,2.33-5.55,1.37-.4Z"/>
        <path class="cls-4" d="m241.32,185.11c2.69-1.12,5.01-2.99,6.68-5.39,1.9-2.57,3.32-5.45,4.18-8.53h3.14c-.99,7.51-5.71,14.02-12.55,17.29l-15.12.48c-7.54-2.46-14.58-6.28-20.75-11.26-2.37-1.63-5.17-2.52-8.04-2.57-4.69-.21-9.38.44-13.84,1.93h-6.43c-1.69-1.21-2.17-3.7-1.53-7.56,1.18-8.17,5.16-15.67,11.26-21.24,3.33-2.82,7.11-5.05,11.18-6.6,4.7-1.74,9.59-2.96,14.56-3.62l2.41,2.65c-5.21.22-10.33,1.47-15.04,3.7-3.82,1.64-7.33,3.93-10.38,6.76-2.53,2.32-4.68,5.04-6.35,8.04-1.78,3.02-2.98,6.35-3.54,9.81-1.45,4.83-.4,6.68,3.06,5.55,8.21-3.61,17.65-3.01,25.34,1.61,5.21,3.66,10.86,6.66,16.81,8.93,4.84,1.73,10.12,1.73,14.96,0Z"/>
        <path class="cls-4" d="m240.35,237.32c3.56,4.35,7.46,8.41,11.66,12.15,1.46,1.41,2.66,3.07,3.54,4.91.95,1.82,1.63,3.77,2.01,5.79l-3.62-2.41c-.14-1.23-.61-2.4-1.37-3.38-.63-1.08-1.42-2.05-2.33-2.9-4.92-4.19-9.29-8.97-13.03-14.24-2.34-3.41-4.15-7.15-5.39-11.1l-1.77-8.85c-.68-3.66-1.78-7.22-3.3-10.62-2.27-4.32-6.44-7.3-11.26-8.04-4.41-1.13-9.08-.67-13.19,1.29-3.17,1.94-5.91,4.51-8.04,7.56-2.75,3.29-4.63,7.22-5.47,11.42-.43,2.04-.17,4.16.72,6.03,1.03,2.08,2.36,4.01,3.94,5.71,3.63,5.3,6.35,11.18,8.04,17.37,2.56,7.24,4.32,14.74,5.23,22.36.55,7,2.38,13.85,5.39,20.19,2.24,4.29,5.64,7.85,9.81,10.3v3.38c-4.61-1.94-8.55-5.19-11.34-9.33-4.37-7.77-6.93-16.44-7.48-25.34-.86-7.32-2.53-14.53-4.99-21.48-1.56-5.78-4.15-11.23-7.64-16.09-2.07-2.24-3.78-4.79-5.07-7.56-1.09-2.54-1.32-5.36-.64-8.04,1.29-3.73,3.25-7.19,5.79-10.22,2.68-3.96,6.3-7.19,10.54-9.41,4.69-2.02,9.92-2.45,14.88-1.21,5.55,1.05,10.32,4.57,12.95,9.57,1.54,3.25,2.54,6.73,2.98,10.3l1.61,9.17c1.45,4.59,3.68,8.89,6.6,12.71h.24Z"/>
        <path class="cls-4" d="m243.89,259.2c-2.55,1.41-4.43,3.79-5.23,6.6l-1.93,1.21c.3-4.14,2.54-7.89,6.03-10.14,3.29-1.85,7.27-2,10.7-.4,1.68.89,2.99,2.34,3.7,4.1l-1.21,1.05c-.76-1.47-2.06-2.59-3.62-3.14-2.77-1.11-5.9-.84-8.45.72Z"/>
        <path class="cls-4" d="m225.63,309.79c-3.3-3.22-4.91-5.87-4.75-8.04.05-4.67,3.44-8.63,8.04-9.41l.97,2.09c-1.15.34-2.22.91-3.14,1.69-1.07.96-1.91,2.14-2.49,3.46-.96,2.91-.03,6.1,2.33,8.04,3.14,2.55,6.99,4.07,11.02,4.34,5.15.72,7.08,0,5.95-1.53l-2.65-4.58,2.09.4,2.17,3.14c.91,1.09.77,2.71-.32,3.63-.1.09-.21.17-.33.23-2.59,1.48-5.69,1.8-8.53.88-3.78-.49-7.31-2.11-10.14-4.67l-.24.32Z"/>
        <path class="cls-4" d="m244.21,277.78c2.51,1.73,4.83,3.73,6.92,5.95-.47.5-.7,1.17-.64,1.85-1.65-2.31-3.72-4.27-6.11-5.79-1.95-1.42-4.27-2.25-6.68-2.41-1.81-.09-3.61.3-5.23,1.13-1.86.85-3.33,2.37-4.1,4.26-1.71,4.23-.32,9.08,3.38,11.74l1.93,1.69-1.21.56h-.97c-3.06-2.06-5.28-5.14-6.27-8.69-.45-2.02-.26-4.13.56-6.03,1.47-3.33,4.48-5.73,8.04-6.43,3.27,1.17,6.67,1.9,10.14,2.17h.24Z"/>
        <path class="cls-4" d="m230.22,304.56h2.01c-.83,1.05-1.38,2.3-1.61,3.62-.25.95-.25,1.95,0,2.9l-1.53.48c-.21-1.01-.21-2.05,0-3.06.22-1.34.63-2.64,1.21-3.86l-.08-.08Z"/>
        <path class="cls-4" d="m247.67,281.64c-2.74.24-5.3,1.44-7.24,3.38-2.54,2.37-3.82,5.8-3.46,9.25l-1.29.4-1.29.48c-.79-4.26.82-8.61,4.18-11.34,2.19-2.12,5.02-3.45,8.04-3.78l1.29,1.61h-.24Z"/>
        <path class="cls-4" d="m240.43,264.02c5.27-2.68,11.06-4.16,16.97-4.34l-1.29,2.33c-5.11.24-10.13,1.44-14.8,3.54-7.32,2.82-10.94,5.07-10.86,6.92.08,1.85,3.06,2.57,9.01,3.7l11.5,1.37v2.65c-4.73-.09-9.42-.88-13.92-2.33-6.19-1.69-9.25-3.62-9.25-5.71s4.02-4.83,11.99-8.04l.64-.08Z"/>
        <path class="cls-4" d="m242.36,276.97c-1.33-1.9-1.99-4.2-1.85-6.52-.39-3.29,1.27-6.48,4.18-8.04h1.77c-2.52,1.88-3.91,4.91-3.7,8.04-.16,2.35.43,4.69,1.69,6.68l-2.09-.56v.4Z"/>
        <path class="cls-4" d="m250.49,305.77h4.67c-8.69,6.11-12.95,9.57-12.71,10.22,12.38,2.47,25.18-1.36,34.19-10.22h3.06c-6.2,6.28-14.17,10.51-22.84,12.15-5.27,1.43-10.82,1.43-16.09,0-1.77-.72-1.37-2.33,1.21-4.99,2.48-2.49,5.17-4.75,8.04-6.76l.48-.4Z"/>
        <path class="cls-4" d="m249.36,309.07l1.21-1.05c1.49,2.27,3.79,3.88,6.43,4.5,3.38,1.05,7,1.05,10.38,0l-.56,1.53h-10.94c-2.72-.78-5.05-2.56-6.52-4.99Z"/>
        <path class="cls-4" d="m251.85,282.44v3.14l-10.78,6.43-11.18,6.84c-1.13.8-1.61,1.61-1.53,2.33s.56,1.37,1.53,1.85c3.98,1.7,8.23,2.71,12.55,2.98,5.5.62,11.06-.27,16.09-2.57l2.9,1.05c-5.74,2.76-12.06,4.05-18.42,3.78-4.85-.31-9.58-1.6-13.92-3.78-1.77-.88-2.65-1.93-2.73-3.06s1.05-2.73,3.3-4.26l10.94-7.48c6.92-4.58,10.7-6.92,11.26-7.24Z"/>
        <path class="cls-4" d="m248.15,307.38c-2.52,0-4.93-1.69-7.24-5.07-2.53-3.3-2.53-7.88,0-11.18l2.17-1.21c-2.36,3.15-2.36,7.47,0,10.62,2.09,4.1,4.67,6.19,7.64,6.27l-2.25.56h-.32Z"/>
        <path class="cls-4" d="m324.97,205.79c-.56-.25-1.21-.25-1.77,0l-1.45.88c0-3.78,0-8.69.72-14.64l.72-8.04,2.65-.64-.48,7.64-.4,14.64v.16Z"/>
        <path class="cls-4" d="m349.99,193.8v-19.87l3.06-1.13v19.06c.13,9.32-.28,18.64-1.21,27.91-.48-1.42-1.28-2.72-2.33-3.78.32-5.04.48-12.44.48-22.2Z"/>
        <path class="cls-4" d="m303.01,136.85l4.67-1.13c-7.15,5.79-9.87,15.47-6.76,24.13,2.43,9.66,9.21,17.65,18.34,21.64,1.85,1.01,3.93,1.48,6.03,1.37,2.56-.23,5.03-1.02,7.24-2.33,14.88-8.04,24.61-11.74,29.2-11.02,5.63,1.06,10.72,4.04,14.4,8.45,4.34,4.75,5.71,8.04,4.1,9.49-.85.92-1.94,1.58-3.14,1.93-1.45,0-1.37,0,0-.56s1.21-3.62-2.17-8.04c-3.33-4.07-7.86-6.97-12.95-8.28-4.06-.22-8.1.7-11.66,2.65-2.41,1.13-8.77,4.18-19.06,9.41-1.95.98-4.09,1.56-6.27,1.69-2.31.04-4.59-.45-6.68-1.45-9.57-4.21-16.85-12.37-19.95-22.36-3.77-8.79-1.8-18.99,4.99-25.74l-.32.16Z"/>
        <path class="cls-4" d="m358.91,128.81c5.09,2.67,9.76,6.09,13.84,10.14,6.17,6.8,10.39,15.14,12.23,24.13,3.03,8.14,2.44,17.18-1.61,24.85-3.37,3.61-7.89,5.94-12.79,6.6-6.15,1.37-12.47,1.75-18.74,1.13v-2.49c5.39.55,10.83.17,16.09-1.13,4.69-.83,9.1-2.85,12.79-5.87,3.22-2.98,3.7-9.49,1.53-19.55-1.55-9.21-5.81-17.75-12.23-24.53-8.06-8.72-18.89-14.4-30.65-16.09l2.01-1.05,1.61-1.29c5.66.96,11.11,2.92,16.09,5.79l-.16-.64Z"/>
        <path class="cls-4" d="m338.24,209.25c-4.18-1.81-8.72-2.63-13.27-2.41-2.39,0-4.71.79-6.6,2.25-3.42,3.47-6.35,7.39-8.69,11.66-3.72,5.82-8.06,11.21-12.95,16.09-4.77,5.14-10.18,9.66-16.09,13.43-4.34,2.08-8.8,3.91-13.35,5.47-4.19.99-7.96,3.27-10.78,6.52-3.23,6.75-4.27,14.35-2.98,21.72.31,6.89,2.95,13.47,7.48,18.66,2.29,1.81,5.12,2.8,8.04,2.82,4.53.39,9.07-.5,13.11-2.57,10.93-6.53,20.96-14.45,29.84-23.57,16.41-15.71,27.13-25.47,32.17-29.28,3.22-2.3,6.14-5.01,8.69-8.04,1.66-2.5,2.52-5.44,2.49-8.45-.26-2.84-.99-5.61-2.17-8.2-1.41-3.47-3.39-6.68-5.87-9.49-2.51-2.84-5.61-5.09-9.09-6.6Zm-12.95-4.83c4.84-.12,9.65.73,14.16,2.49,3.39,1.07,6.52,2.85,9.17,5.23,2.72,2.83,4.95,6.09,6.6,9.65,2.13,3.98,3.18,8.44,3.06,12.95-.03,2.89-.96,5.7-2.65,8.04-3.53,4.27-7.58,8.08-12.07,11.34-4.75,3.86-15.52,14-32.17,30.41-8.26,9.16-18.13,16.74-29.12,22.36-3.97,1.5-8.26,2-12.47,1.45-3.67-.08-7.22-1.26-10.22-3.38-5.16-5.33-8.27-12.31-8.77-19.71-1.85-8.14-.83-16.66,2.9-24.13,2.72-3.55,6.59-6.05,10.94-7.08,4.77-1.52,9.43-3.4,13.92-5.63,4.85-3.07,9.36-6.66,13.43-10.7,7.29-7.49,13.69-15.81,19.06-24.77,1.56-2.74,3.73-5.08,6.35-6.84,2.41-1.5,5.2-2.28,8.04-2.25l-.16.56Z"/>
        <path class="cls-4" d="m193.78,4.86c11.12,3.36,21.5,8.82,30.57,16.09l-2.49,1.37c-8.08-6.58-17.45-11.4-27.51-14.16-12.39-3.62-19.14-4.5-20.35-2.25-1.21,2.25-.64,11.18,2.73,25.1,2.42,11.78,6.77,23.09,12.87,33.46l-1.69,2.33c-6.99-10.87-11.87-22.96-14.4-35.63-4.58-17.13-5.79-27.19-3.46-29.84,2.33-2.65,10.05-1.21,23.73,3.54Z"/>
        <path class="cls-4" d="m310.09,16.2l-4.75,1.61c-13.82-5.79-28.83-8.13-43.76-6.84-15.74,1.08-30.92,6.29-44,15.12-2.09,1.37-3.22,1.77-3.46,1.21s.64-1.61,3.06-3.06c13.05-9.27,28.36-14.83,44.32-16.09,16.7-1.76,33.57,1.02,48.83,8.04h-.24Z"/>
        <path class="cls-4" d="m368.81,3.97c2.01,2.01.88,10.78-3.46,26.22-3.27,13.94-9.29,27.1-17.7,38.69l-1.37-2.9c7.33-10.31,12.65-21.91,15.69-34.19,4.18-14.56,5.31-22.44,3.46-24.13-1.85-1.69-10.22-.97-24.13,1.61-13.79,2.54-27.27,6.53-40.22,11.9-2.82,1.21-4.26,1.37-4.18.56s1.05-1.61,2.9-2.49c13.39-6.19,27.49-10.71,41.99-13.43,16.09-3.38,24.85-3.94,27.03-1.85Z"/>
        <path class="cls-4" d="m358.27,14.11c1.79-1.19,3.82-1.96,5.95-2.25.7,0-.75,1.13-4.34,3.38-5.11,2.95-9.81,6.54-14,10.7-4.06,3.84-7.53,8.25-10.3,13.11-.47.75-.74,1.61-.8,2.49.06.72.31,1.42.72,2.01,12.9,17.48,20.34,38.39,21.4,60.09.58,5.24-.98,10.49-4.34,14.56-5.51,4.89-12.23,8.2-19.47,9.57-11.78,2.97-23.24,7.12-34.19,12.39-8.36,4.18-15.93,9.79-22.36,16.57-4.43,5.12-9.48,9.66-15.04,13.51-4.31,2.3-9.21,3.28-14.08,2.82-9.01-.43-16.01-6.62-20.99-18.58-2.41-4.99-5.97-9.35-10.38-12.71-10.06-7.64-20.84-14.29-32.17-19.87-2.08-1.15-3.67-3.01-4.5-5.23-1.08-2.99-1.6-6.15-1.53-9.33.14-6.79.95-13.56,2.41-20.19,1.46-7.55,3.53-14.98,6.19-22.2,1.35-2.94,2.88-5.78,4.58-8.53,1.87-3.49,3.94-6.88,6.19-10.14.58-.77,1.02-1.65,1.29-2.57,0-1.1-.27-2.18-.8-3.14-2.88-6.38-6.59-12.36-11.02-17.78-3.51-4.65-7.5-8.91-11.9-12.71-3.22-2.65-4.42-4.02-3.62-4.18s2.98,1.13,6.6,4.02c9.44,7.71,16.91,17.55,21.8,28.72.74,1.46,1.31,3,1.69,4.58-.13,1.49-.72,2.89-1.69,4.02-3.94,5.87-7.23,12.16-9.81,18.74-2.59,6.96-4.53,14.15-5.79,21.48-1.27,6.49-1.78,13.1-1.53,19.71-.01,2.73.42,5.45,1.29,8.04.83,1.94,2.35,3.52,4.26,4.42,10.2,5.28,19.96,11.36,29.2,18.18,5.07,3.89,9.18,8.9,11.99,14.64,2,4.49,4.72,8.61,8.04,12.23,2.91,2.91,6.76,4.71,10.86,5.07,4.44.62,8.96-.13,12.95-2.17,5.45-3.6,10.28-8.05,14.32-13.19,8.44-8.99,18.81-15.94,30.32-20.35,9.56-3.76,19.34-6.96,29.28-9.57,5.53-1.16,10.57-3.97,14.48-8.04,2.72-3.65,3.98-8.18,3.54-12.71-.6-20.67-7.16-40.73-18.9-57.75-1.01-1.19-1.68-2.64-1.93-4.18.42-1.96,1.21-3.81,2.33-5.47,2.95-4.81,6.61-9.15,10.86-12.87,3.83-3.67,8.17-6.79,12.87-9.25l.08-.08Z"/>
        <path class="cls-4" d="m203.51,104.68c-2.9-2.33-4.26-3.86-4.1-4.5s1.69,0,4.83,2.09c9.53,5.5,16.99,13.98,21.24,24.13.97,2.33,1.13,3.54.56,3.62s-1.53-.97-2.82-3.14c-5.19-8.52-11.86-16.04-19.71-22.2Z"/>
        <path class="cls-4" d="m282.9,113.69c-3.46,4.05-6.46,8.47-8.93,13.19-1.45,2.65-2.41,3.78-2.9,3.3s0-2.17,1.05-4.91c2.25-5.37,5.44-10.3,9.41-14.56,3.77-4.32,8.16-8.06,13.03-11.1,5.23-3.22,8.04-4.5,8.53-3.7s-1.93,2.9-7,6.35c-4.75,3.22-9.05,7.06-12.79,11.42h-.4Z"/>
        <path class="cls-4" d="m237.21,156.88v-1.21l1.05.72c.95,1.09,1.56,2.43,1.77,3.86,0,.72,0,1.05-.64,1.05-.52.09-1.05-.17-1.29-.64-.68-1.15-1.07-2.45-1.13-3.78h.24Z"/>
        <path class="cls-4" d="m259.09,156.88c.97-1.13,1.53-1.53,1.85-1.37s0,.8,0,2.09c-.17,1.15-.58,2.24-1.21,3.22-.29.7-1.03,1.1-1.77.97-.7,0-.94-.48-.72-1.45.3-1.28.91-2.47,1.77-3.46h.08Z"/>
      </g>
    </g>
  </g>
</svg>