<?xml version="1.0" encoding="UTF-8"?>
<svg id="Capa_2" data-name="Capa 2" xmlns="http://www.w3.org/2000/svg" viewBox="0 0 475.08 813.04">
  <defs>
    <style>
      .cls-1 {
        fill: #ebf5e6;
      }

      .cls-2 {
        fill: #7fb0d2;
      }

      .cls-3 {
        fill: #e0f2ef;
      }

      .cls-4 {
        fill: #fff;
      }

      .cls-5 {
        fill: #3d3d3d;
      }

      .cls-6 {
        fill: #ae3f48;
      }

      .cls-7 {
        fill: #182c31;
      }

      .cls-8 {
        fill: #dc422e;
      }

      .cls-9 {
        fill: #823819;
      }

      .cls-10 {
        fill: #2f3139;
      }

      .cls-11 {
        fill: #e0e4f3;
      }

      .cls-12 {
        fill: #c7cbe7;
      }

      .cls-13 {
        fill: #f9ab74;
      }

      .cls-14 {
        fill: #de6469;
      }

      .cls-15 {
        fill: #192a29;
      }

      .cls-16 {
        fill: #b7775f;
      }

      .cls-17 {
        fill: #a0c1ba;
      }

      .cls-18 {
        fill: #006fba;
      }

      .cls-19 {
        fill: #e0475f;
      }

      .cls-20 {
        fill: #777c7f;
      }

      .cls-21 {
        fill: #5c7baa;
      }

      .cls-22 {
        fill: #006358;
      }

      .cls-23 {
        fill: #727691;
      }

      .cls-24 {
        fill: #922625;
      }

      .cls-25 {
        fill: #fcb136;
      }

      .cls-26 {
        fill: #c3dd8b;
      }

      .cls-27 {
        fill: #384244;
      }

      .cls-28 {
        fill: #b87860;
      }

      .cls-29 {
        fill: #16413b;
      }

      .cls-30 {
        fill: #faac74;
      }

      .cls-31 {
        fill: #362124;
      }

      .cls-32 {
        fill: #004976;
      }

      .cls-33 {
        fill: #53576c;
      }

      .cls-34 {
        fill: #85a548;
      }

      .cls-35 {
        fill: #6aa151;
      }
    </style>
  </defs>
  <g id="Capa_1-2" data-name="Capa 1">
    <g>
      <path d="m146.1,138.96s13.32-31.7,17.44-36.57,23.07-13.69,42.01-14.07,30.01,3.38,43.7,12.57c13.69,9.19,20.44,17.82,21.57,24.38s1.31,19.13-.94,29.45-3.56,16.13-3.56,16.13c0,0,10.5,9,10.13,9.57s-10.5-1.13-9.19,0,9.2,9.75,9.2,9.75c0,0,8.99-7.13,9.74-7.13s3,1.69,3,1.69c0,0,21.38-21.76,24.57-25.32s6.94-7.5,7.69-8.82,9.38-16.13,19.13-26.07,12.19-10.13,20.26-19.88c8.06-9.75,8.82-11.07,8.82-11.07,0,0,1.13-.94,0-2.63s-1.44-1.74.5-2.65,7.75-3.91,7.94-8.04,0-6.75,2.81-9,5.25-1.5,5.25-1.5c0,0-1.31-6-.94-13.13s1.13-10.32,2.81-13.32,5.06-7.5,6-10.32,5.25-11.82,10.13-18.94,10.32-12.19,15.38-11.63,8.06,2.63,9,3.94,1.31,1.31,2.25,1.31,8.25-7.67,13.5-7.67,8.25,7.29,8.63,9.17l.38,1.88s2.44,1.31,5.25,2.63l2.81,1.31s-.75.75,3,.94,10.71,2.25,10.71,7.88-1.71,9.75-1.71,9.75c0,0,1.71,4.13,1.71,12.57s-1.9,10.5-1.9,12,.75,13.88-3.19,15-4.5-1.69-4.5-1.69c0,0-4.13,6.56-11.44,9s-9.75,2.44-9.75,2.44c0,0-.38,4.5-6.56,7.31s-9,1.31-9,2.06,2.81,6.75-1.13,9-7.88,1.5-10.32,5.63-4.13,8.82-7.88,9.94l-3.75,1.13s-27.76,32.45-39.39,48.39-18.57,18.76-21.01,21.57-41.07,47.08-42.76,49.14-3,3.94-3,3.94c0,0,1.31,11.44-1.5,21.01s-8.25,15-8.25,15l-27.57,18.76s-4.31,9.38-4.13,10.13,10.5,15.38,22.32,18.01,26.63,2.06,41.64,14.44,31.13,35.82,31.13,37.14,1.13,7.31-19.69,15.94-17.61,4.88-22.87,9.57-20.45,21.94-27.02,30.38-12.19,17.44-12.19,16.32-18.94-16.5-32.63-30.01l-13.69-13.5.19,9.57s4.13,4.13,4.13,5.81-1.13,6-.38,10.5,5.18,30.2,7.09,32.07,5.1,3.94,6.79,7.69.75,5.06,1.13,7.31,23.26,60.02,34.51,85.15,15.38,34.13,17.44,36.01,3.56,3.19,3.56,3.94-.38,3.56.56,5.25,19.32,28.51,28.51,46.7,17.25,34.7,18.76,36.57,3.94,4.13,5.06,5.63,2.06,4.5,2.06,4.5c0,0,.38-1.31,1.88.94s6.56,12.57,6.75,16.32-.56,6.19-.56,6.19c0,0,4.88,8.44,11.07,15s7.13,7.31,17.44,14.44,19.69,26.45,18.94,36.2-3.56,15.57-35.07,21.94-49.14-15.75-53.64-20.26-5.63-10.88-13.69-18.76-10.69-13.5-11.44-18.01-.94-10.88-1.88-13.69-2.81-5.81-2.81-5.81c0,0-4.13-.38-7.88-5.63s-9.57-14.25-8.63-16.32,2.25-1.13,1.69-3-14.07-27.38-25.88-48.01-13.32-21.19-16.5-25.13-10.13-17.82-12.75-25.13-6.19-18.57-27.2-60.2-24.76-55.89-25.32-56.83-.94-2.06-1.69-2.25-1.31,1.5-15,19.69-33.01,48.58-35.45,53.27-3.19,6-3.19,6c0,0,5.06,2.81,4.5,5.06s-6.75,9.57-6.75,9.57c0,0,3,.75,3,24.38s.19,49.14.19,49.14c0,0,3.38,3.75,2.81,8.06s-2.44,5.44-2.44,5.44c0,0,1.88,2.25,1.88,5.81s1.13,15.75-1.31,17.25-4.13,2.06-4.13,2.06c0,0,5.81,2.63,7.5,22.32s-1.69,26.45-1.69,26.45c0,0-23.82,8.25-27.2,8.25s-7.13.56-9.75.19-6-.38-9.57.38-5.63,3.56-18.76,3.75-49.12.19-51.75-14.82,22.87-24.01,30.75-31.88,12.75-16.5,12.75-16.5c0,0-3-1.5-3-6s-.75-12.38.38-15.38,2.44-3.38,2.44-3.38c0,0-5.25-4.5-4.5-8.06s4.88-9,4.13-21.01-4.88-53.27-5.06-61.52-.75-18.76,5.06-30.95c5.81-12.19,29.07-54.39,39.57-69.58,10.5-15.19,15-20.63,15.57-22.69s1.13-4.69,2.63-6.56,6-5.06,6.38-8.44.56-19.32.56-20.82,7.31-9,7.31-9c0,0-1.5-1.13-1.5-2.06s.19-3.38.19-3.38c0,0-14.25-.56-26.26,8.82s-19.51,26.26-19.51,26.26c0,0-6.56-6.75-8.06-30.95s21.01-60.02,19.13-59.08-21.94,18.01-28.51,18.76c-6.56.75-9.94.38-14.07-4.31s-8.25-11.82-9.19-19.69.75-36.39.75-36.39c0,0-2.81-1.31-2.63-2.25s4.5-5.25,3.56-7.69-4.88-8.82-3.94-12.94,6.56-8.25,6.56-8.25c0,0,.38-28.13,2.63-38.45s11.82-16.32,11.82-16.32l2.06.19s8.25-5.81,13.32-5.44,7.69,5.06,7.69,5.06c0,0,1.69.19,2.44-.19s5.81-2.25,8.06.94,2.81,8.82,2.25,11.25-2.44,4.31-3.19,5.06l-.75.75s3.19,3.19,3.94,5.81.94,6,.94,6c0,0,3.38-.94,4.31,4.5s-.19,10.32-4.69,14.07-6.38,4.13-7.13,4.31-2.06.19-2.06.19c0,0,.75,7.13-2.06,10.88s-5.06,6.94-5.06,6.94c0,0,.56.38,0,3.19s-3,5.63-3,8.25.19,6.38.19,6.38l6.75-3.94s-.94-6-1.13-9.38,1.5-3.38,1.5-3.38c0,0,20.26-8.82,24.94-12.19s6.38-9.75,6.38-9.75l4.88-.38s2.25-7.88,5.81-10.88,6.75-3.75,9.19-3.38,3.38.56,3.38.56c0,0,2.25-3,5.25-3.75s5.25-1.88,5.25-1.88c0,0-14.25-2.81-17.63-2.81h-3.38s.75-1.13,17.82-10.13,22.32-11.82,22.32-11.82c0,0-5.25-.19-6,.19l-.75.38s4.31-4.88,2.81-4.88-10.5.75-11.25,1.13,12.75-13.32,11.44-13.69-31.88-12.38-32.63-13.13,9.57-2.25,7.88-3.38-8.82-3-13.5-3.94-9.38-2.06-9.38-2.06c0,0,12.75-18.94,18.76-23.82s8.06-7.31,8.06-7.31c0,0-6,1.69-10.69,2.81-4.69,1.13-6.56,1.69-6.56,1.69,0,0,8.82-8.25,15.75-11.25s7.31-3.94,7.31-3.94c0,0-6.56-.56-10.88-.38s-6.56,0-6.56,0c0,0,12-5.63,18.38-7.31s9.19-2.63,9.19-2.63Z"/>
      <path class="cls-8" d="m148.91,138.58s7.87-21.01,12.94-30.01c5.07-9,12.94-11.6,29.45-15.94s28.51-1.5,28.51-1.5c0,0,7.31,3.75,6.75,13.69-.56,9.94-2.63,12.94-2.63,12.94,0,0-12.75-2.44-19.32-.56s-9.38,6-10.69,10.13-1.69,5.63-1.69,5.63c0,0-9.94-1.69-23.63.56s-19.69,5.06-19.69,5.06Z"/>
      <path class="cls-8" d="m194.48,132.77s1.31-6,2.44-6.56,18.01,1.5,25.69,4.31,15.02,8.06,15.02,8.06c0,0,1.53.23,1.19,2.27s-.02,4.43-1.29,4.77-13.52-7.26-23.22-9.76-19.83-3.1-19.83-3.1Z"/>
      <path class="cls-8" d="m226.59,118.22s2.37-9.36,2.03-15.15-4.94-11.57-4.94-11.57c0,0,10.21.85,24.68,11.4,14.47,10.55,19.74,15.83,20.94,27.57s-2.21,29.96-3.06,32.68-1.53,4.43-1.53,4.43c0,0-10.3-11.57-18.09-16.51s-7.74-4.26-7.74-4.26c0,0,3.45-10.55,0-18.55s-12.29-10.04-12.29-10.04Z"/>
      <path class="cls-24" d="m168.78,100.9s3.83,1.83,4.68,10.34,0,21.62,0,21.62c0,0-9.48.95-16.21,3.02s-8.35,2.71-8.35,2.71c0,0,4.57-12.93,8.75-21.47s4.76-10.94,7.94-13.58l3.18-2.64Z"/>
      <path class="cls-7" d="m197.81,124.34s15.32,1.02,24,4.09c8.68,3.06,17.07,9.19,17.07,9.19,0,0,2.5-10.57-9.07-15.66s-19.63-4.87-25.87-3.06-6.13,5.45-6.13,5.45Z"/>
      <path class="cls-7" d="m162.4,137.62s-8.51,8.17-7.32,9.87,3.6,0,3.6,0l-3.72,4.94-2.61,23.49s-5.11-16-6.64-16.51,0,4.94,0,4.94c0,0-4.6,2.72-5.62,4.6s-2.04,2.55-2.04,2.55c0,0-16.51,7.83-22.64,11.74s-9.36,6.98-9.36,6.98c0,0,8.34-13.96,15.15-19.91s13.02-12.09,13.02-12.09c0,0-3.32-.17-8.77,1.36s-8.51,2.89-8.51,2.89c0,0,8.34-5.62,17.28-9.87l8.94-4.26s-3.74-1.19-10.89-.85-8.17.34-8.17.34c0,0,11.06-3.57,23.66-6.98,12.6-3.4,14.64-3.23,14.64-3.23Z"/>
      <path class="cls-7" d="m204.11,135.87l-10.38,12.47,2.89,3.23,12.94-7.15.85.34-12.6,26.72s25.53-11.4,32.68-15.32,9.7-5.96,9.7-5.96c0,0-2.72-3.23-18.55-9.19s-17.53-5.15-17.53-5.15Z"/>
      <polygon class="cls-7" points="192.53 153.66 187.75 156.68 190.14 152.6 192.53 153.66"/>
      <path class="cls-7" d="m167.17,140.51s15.15,5.79,18.89,7.66,4.08,2.38,4.08,2.38l8.52,4.94s-1.87-2.89-8.52-7.66c-12.05-8.64-19.23-10.21-19.23-10.21l-3.74,2.89Z"/>
      <path class="cls-7" d="m223,163.92s18.04-5.02,22.13-4.85,9.53,3.4,9.53,3.4c0,0-8.19.17-17.12.51s-14.54.94-14.54.94Z"/>
      <path class="cls-7" d="m261.3,167.58s.85,5.11,0,7.49-8,23.66-8,23.66c0,0,9.19-10.04,10.55-10.55s2.04-.51,1.53.17l-2.55,3.4s3.06,2.21,1.19,5.45-3.23,6.81-3.23,6.81l14.47-11.74s-5.45-7.66-7.83-10.38-1.7-4.77-1.7-4.77l7.15,2.04-11.57-11.57Z"/>
      <path class="cls-30" d="m166.4,135.83l-4,4.13s2.85-.26,4-.77,3.19-2.94,4.85-2.55,9.96,4.34,14.43,6.89,6.85,4.09,6.85,4.09c0,0,4.17-6,6.13-8.04s3.23-3.74,3.23-3.74c0,0-9.7-2-20.94-1.62s-14.55,1.62-14.55,1.62Z"/>
      <path class="cls-30" d="m258.7,163.92s-1.15-.47-2.04,0c-.89.47-12.38-.08-12.38-.08l1.79,3.74c1.79,3.74,2.55,7.49.55,18.72s-4.76,11.62-4.76,11.62l-16.09-7.7s-.38-.98,1.91-12.09c2.3-11.11,4.09-11.23,4.6-13.02.51-1.79-8.17,0-11.62,0h-3.06s22.21-7.53,27.19-7.66c4.98-.13,11.87,4.04,11.87,4.04,0,0-1.02-.85-3.36-3.15-2.34-2.3-10.94-7.53-10.94-7.53,0,0-2.17,1.53-4.21,2.85-2.04,1.32-31.15,15.4-34.34,16.81-3.19,1.4-8.68,3.83-8.17,2.43.51-1.4,11.36-25.28,11.36-25.28l-9.19,4.98s.64.64,2.04,2.89c1.4,2.26,1.15,2.85,1.15,2.85,0,0-5.11-3.06-6.51-3.7-1.41-.64-5.49,2.68-5.49,2.68,0,0,0,2.55-.26,6.6-.26,4.04-4.72,16.89-4.72,16.89,0,0-1.79.26-4.09-.13-2.3-.38-16.09-1.02-16.09-1.02,0,0-.38-8.55,2.81-18.17,3.19-9.62,12.13-14.13,12.51-14.93.38-.81-14.55-5.66-14.55-5.66l-9.19,12.77s-1.28,14.26-1.66,20.89-3.7,19.79-3.32,24.64,6,12.26,8.68,14.68,24,23.23,31.01,25.15c7.01,1.91,11.75-2.94,11.75-2.94v-6.51s-6,8.04-11.11,7.66-8.68-10.21-11.11-20.94c-2.43-10.72-1.28-24.38-1.28-25.15s4.21-1.66,20.26,1.28c16.04,2.94,20.6,6.38,21.62,7.15,1.02.77-4.6,10.72-4.6,11.11s24.51,9.96,24.51,9.96l1.66-3.45h4.76s1.49-6.89,3.15-13.19c1.66-6.3,9.19-26.77,9.7-29.64.51-2.87-.77-10.45-.77-10.45Zm-67.28,18.81s-8.99.77-17.58,4.09-7.31,3.45-8.59,3.32c-1.28-.13,3.19-5.02,3.96-5.64.77-.62,1.19-2.49-6.81,1.3s-7.75,4.42-8.26,3.18c-.51-1.24,7.28-4.2,10.47-5.48,3.19-1.28,7.13-3.19,8.16-1.91,1.03,1.28-4.84,5.23-3.31,5.23s9.32-3.45,15.06-4.47c5.74-1.02,6.89-1.19,6.89-1.19v1.57Zm16.6,4.67c-1.17-.62.38-1.48,0-2.5-.38-1.02-.5-2.98,0-3.99.5-1,1.4-3.29,1.4-3.29l.64.26s1.66,2.55,1.66,4.85-2.53,5.29-3.7,4.67Zm32.17,15.24c-3.83,0-12.51.89-12.51,0s6.49-4.6,4.71-4.85c-1.78-.26-6.97.64-8.71,1.15-1.74.51-2,.13-1.87-.89,0,0,8.55-2.04,11.11-2.04s4.3,0,3.17,1.02c-1.13,1.02-5.6,3.83-4.06,3.83s9.7-.77,10.34,0c.64.77,1.66,1.79-2.17,1.79Z"/>
      <path class="cls-28" d="m152.36,184.49s5.62,14.96,13.02,27.34c7.4,12.38,14.56,20.65,14.56,20.65,0,0-19.79-15.8-23.75-21.87s-6.64-8.64-5.5-15.87,1.67-10.25,1.67-10.25Z"/>
      <path class="cls-28" d="m206.62,174.43c-1.15.38-6.64,5.74-7.28,8.04s2.94,4.47,4.47,4.85,3.96-.77,4.21-1.53-.77-3.5,0-4.88,1.4-3.29,1.4-3.29c0,0-1.02-3.19-1.4-3.19h-1.4Z"/>
      <path class="cls-6" d="m179.94,192.3s-1.02,8.55,0,8.94,11.36-5.35,20.42-1.72,13.79,10.14,13.79,10.14l4.31-8.68s-2.16-3.06-19.19-6.38-19.33-2.3-19.33-2.3Z"/>
      <path class="cls-14" d="m180.7,203.04s.26,17.09,4.21,24.62,6.89,10.65,12,4.82,4.98-6.22,4.98-6.22v-19.79l9.83,3.19s-5.42-8.91-15.51-9.57c-10.09-.67-15.51,2.95-15.51,2.95Z"/>
      <path class="cls-6" d="m181.4,213.25s6.36-3.07,11.13-1.54,9.36,3.96,9.36,3.96v-9.19l9.83,3.19s-5.04-8.15-14.28-9.45-16.74,2.82-16.74,2.82l.7,10.21Z"/>
      <path class="cls-4" d="m182.91,147.62s-9.38.31-14.09,13.14c-4.71,12.84-3.64,17.45-3.64,17.45,0,0,10.36.28,14.3,1.01s4.77.9,4.77.9c0,0,2.9-8.49,4.16-14.07s.59-8.74.59-8.74l-2.08.78s.28-2.97.83-3.46,0-2.69-.83-3.89-1.29-1.65-1.29-1.65c0,0,1.1,10.75-1.65,19.66-2.76,8.91-2.74,9.74-4.49,9.64s-3.04-7.55-1.75-16.91,5.18-13.4,5.18-13.4v-.47Z"/>
      <path class="cls-4" d="m183.61,150.2s1.65,3.77,0,8.54-4.32,5.05-3.67,1.19,2.3-10.01,3.67-9.74Z"/>
      <path class="cls-4" d="m225.8,188.95s1.13-8.6,2.43-13.31,4.15-7.62,4.15-7.62c0,0-3.46,10.47-3.29,16.07s2.65,10.69,6.14-1.54,2.31-18.63,2.31-18.63c0,0,4.85-1.5,6.87,3.28s2.3,12.21.55,20.2-3.49,9-3.49,9c0,0-6.52-3.4-9.64-4.78s-6.04-2.68-6.04-2.68Z"/>
      <path class="cls-4" d="m235.96,165.63s-1.83,1.71-3.02,5.86-.25,8.04,2.39,1.58.64-7.44.64-7.44Z"/>
      <path class="cls-30" d="m406.91,14.11s.69,6.19,2.29,6.08,4.59-5.04,4.59-5.04c0,0-1.03-2.18,0-2.18s.23,2.98,6.08,6.76,10.32,4.24,12.27,1.95,1.83-7.77-3.32-13.07-8.48-4.82-11.69-4.13-10.32,8.77-10.2,9.63Z"/>
      <path class="cls-30" d="m433.85,7.91s6.88-6.31,10.66-5.73,5.96,4.59,7.11,9.86-1.38,10.09-4.82,9.75-8.25-6.31-8.83-8.71-.92-4.47-1.83-4.93-2.29-.23-2.29-.23Z"/>
      <path class="cls-30" d="m462.86,17.43s5.81-.56,8.94,4.37,1.61,11.91-2.18,11.79-6.31-4.26-6.76-8.09-.92-7.27,0-8.07Z"/>
      <path class="cls-30" d="m394.75,37.38c2.87-.8,10.32-.8,14.79-1.26s10.2-2.29,11.81,1.26-1.83,12.73-13.3,14.22-18.2-3.27-18-7.57,4.7-6.65,4.7-6.65Z"/>
      <path class="cls-28" d="m416.93,17.41s4.54-.59,9.36,0,6.85,2.08,6.85,2.08c0,0-.43,4.51-6.05,3.58s-10.16-5.66-10.16-5.66Z"/>
      <path class="cls-28" d="m437.6,11.45s2.1,1.57,4.73,2.11,5.5,1.12,6.65,2.61,1.87,3,1.87,3c0,0-1.52,3.34-4.62,2.64s-6.12-4.67-7.04-6.29-1.59-4.06-1.59-4.06Z"/>
      <path class="cls-28" d="m462.36,20.76s2.9,7.11,4.62,9.74,2.64,3.1,2.64,3.1c0,0-4.66-.16-6.1-5.09s-1.16-7.75-1.16-7.75Z"/>
      <path class="cls-28" d="m396.02,50.56s.92-2.98,6.42-2.87,9.86-.8,13.41-2.06,4.78-2.08,4.78-2.08c0,0-2.12,6.34-11.54,7.88-9.41,1.54-13.08-.87-13.08-.87Z"/>
      <path class="cls-33" d="m467.22,53.32c-3.9-4.13-9.4-6.88-9.4-6.88,0,0,1.26-3.78-1.61-8.6-3.2-5.38-7.22-7.68-12.5-7.57-5.27.11-9.29,4.24-9.29,4.24,0,0-5.62-3.44-12.7-4.47-7.08-1.03-14.93-.8-15.84-.69-.91.11-2.99,5.16-2.99,5.16,0,0,7.45-1.49,15.94-.92,8.48.57,13.53,4.36,13.53,4.36,0,0-2.18,3.55-1.26,8.15.47,2.35,2.11,5.24,4.72,7.47s5.82,3.64,9.84,3.53c8.25-.23,10.55-6.65,10.55-6.65,0,0,1.72.34,5.62,3.67,3.9,3.32,7.8,8.83,7.8,8.83l2.06-3.67s-.57-1.83-4.47-5.96Zm-13.04-6.83c-2.41,5.48-8.85,7.52-12.82,5.9s-5.8-4.7-6.8-8.83c-.71-2.91,1.02-5.8,1.02-5.8,0,0,3.61-5.84,10.23-4.75,7.17,1.17,10.77,8,8.36,13.48Z"/>
      <path class="cls-4" d="m444.65,34.75s-1.49,0-2.63.49c-1.14.49-5.78,1.98-5.78,7.66s5.72,8.22,8.91,8.22,7.76-2.23,7.76-8.22-5.24-8.15-8.26-8.15Zm.8,13.84c-2.05,0-6.2-1.87-6.2-6.02s3.25-5.9,6.2-6.02c1.44-.06,6.02,1.08,6.02,6.38s-3.97,5.66-6.02,5.66Z"/>
      <ellipse class="cls-4" cx="446.24" cy="42.75" rx="3.9" ry="3.42" transform="translate(294.15 464.44) rotate(-75.64)"/>
      <path class="cls-4" d="m444.23,38.06s-2.09.06-3.17,2.53,0,4.45,0,4.45c0,0,.16-3.13,1.35-4.75s1.83-2.23,1.83-2.23Z"/>
      <path class="cls-10" d="m435.82,53.57s4.45-.48,8.84-.2,8.68.97,8.68.97c0,0-3.48,3.35-9.31,2.71s-8.2-3.48-8.2-3.48Z"/>
      <path class="cls-19" d="m405.89,27.18s9.74-.9,17.01.92,11.49,4.78,11.49,4.78c0,0,7.15-7.88,17.52-2.32,8,4.29,7.9,15.18,7.9,15.18,0,0,4.93,2.23,8.1,5.39s4.35,5.43,4.35,5.43c0,0,1.64-2.99,1.64-10.45s-2.21-10.86-2.21-10.86c0,0-3.26,1.04-5.71-.78s-4.99-5.91-5.27-9.64.45-7.68.45-7.68c0,0-2.55-1.96-4.54-2.78s-2.73-.81-2.73-.81c0,0,0,8.02-4.64,9.5s-9.45-2.69-11.18-5.92-2.18-6.32-3.09-7.14-2.64,0-2.64,0c0,0,1.52,1.18,2.03,5.18s.24,11-6.76,9.91-12.73-7.69-12.73-7.69c0,0-2.82,1.87-5.54,5.23s-3.47,4.53-3.47,4.53Z"/>
      <path class="cls-11" d="m423.17,36.19s6.82,2.18,6.82,2.82-3,12.09,6.73,17.54,16.86-.41,18.2-1.34,1.89-2.28,1.89-2.28c0,0,3.82,2.08,7.82,6.53s4.09,5.73,4.09,5.73c0,0-4.99,10.27-16.81,14s-22.74,2.09-26.87.64-5.31-2.36-5.68-3.09-1.55-6.64-5.18-11-6.27-7.36-6.73-9.64-.54-2.81-.54-2.81c0,0,11.72-1.66,15.17-8.24s1.09-8.86,1.09-8.86Z"/>
      <path class="cls-23" d="m411.23,62.19s4.48-3.19,12.66-5.64,9.95-2.09,9.95-2.09c0,0,4.43,4.19,10.38,4.37s11.2-4.02,11.2-4.02c0,0,5.65,2.74,8.38,5.02s4.91,5.36,4.91,5.36c0,0-4.44,11.57-20.94,15.1s-25.94-1.83-27.13-2.37-1.05-.51-1.28-1.18-2.01-6.54-3.59-8.77-4.53-5.77-4.53-5.77Z"/>
      <path class="cls-35" d="m405.33,15.61s.92,4.54,1.57,5.15,1.42,1.15,1.42,1.15c0,0-3.52,3.6-5.43,7.35s-2.03,5.5-2.03,5.5c0,0-2-.36-3.64,0s-2.7.49-2.7.49c0,0,2.23-4.23,5.05-9.81s5.76-9.81,5.76-9.81Z"/>
      <path class="cls-22" d="m388.53,46.1s-2.58,6.16-2.11,13.21,1.88,9.52,2.11,13.86.82,6.46.82,6.46c0,0,3.99,5.75,15.86,11.86,11.86,6.11,17.62,1.88,18.68,1.53s3.41-2.91,5.76-2.8,5.28-.37,8.16-2.01,4.59-4.7,4.59-4.7c0,0-5.12.7-13.46-.59s-9.4-3.17-9.4-3.17c0,0-.59,2.23-1.17,4.23s-1.53,2.23-2.23,2.23,1.64-3.99,1.29-7.17-1.41-7.28-5.52-12.33-5.12-7.16-6.02-9.57l-.91-2.41s-6.81.74-10.45-1.8-5.99-6.83-5.99-6.83Z"/>
      <path class="cls-35" d="m393.6,83.93s3.04-6.07,2.92-14.17-1.51-9.75-1.46-12.63.04-3.85.04-3.85c0,0-2-.92-3.92-3.45s-2.66-3.73-2.66-3.73c0,0-3.01,4.67-2.17,12.03s1.63,10.43,2.02,13.38.15,6.59.98,8.12,4.25,4.3,4.25,4.3Z"/>
      <path class="cls-26" d="m386.36,75.22s.79-1.04.56-2.55-3.71-1.62-4.4-.58-2.2,2.2-2.43,5.79-1.16,6.02-2.66,7.3-6.37,4.98-6.37,4.98c0,0,3.01,9.85,9.15,15.29s7.3,5.56,7.3,5.56l11.35-21.2s-6.6-3.73-10.66-8.35-4.3-8.28-3.24-9.02,1.41,0,1.41,1.39v1.39Z"/>
      <path class="cls-34" d="m420.63,96.19c-4.05.11-8.8.53-12.74-1.41s-12.64-7.2-14.02-8.25-11.49,20.82-11.49,20.82c0,0,1.17,1.47,5.11,3.67s8.08,3.48,15.39,4.29,7.66-.7,9.4-3.71,3.47-7.88,8.34-9.62,7.07-1.74,7.07-4.87.23-3.36-1.62-3.13-1.39,2.09-5.45,2.2Z"/>
      <path class="cls-30" d="m371.05,94.77s2.9,8.02,8.23,12.53l5.33,4.52s-33.71,30.47-38.12,36.38-35.45,46.6-40.78,51.8-15.99,15.48-18.88,17.75-9.38,4.13-9.38,4.13c0,0,1.39-11.93,3.13-19.58s3.59-10.16,3.59-10.16c0,0,17.73-17.42,22.82-22.98s10.2-11.42,9.62-10.11-1.51,6.68-.12,4.63,14.02-24.53,21.55-33.56,16.8-15.41,19-17.96,14.02-17.4,14.02-17.4Z"/>
      <path class="cls-28" d="m402.79,117.75s-13.52-1.97-18.19-5.92l-5.33-4.52s-10.77,12.86-26.07,27.57-16.91,19.62-20.74,26.61-28.15,35.49-32.44,40.24c-4.29,4.75-14.02,14.95-16.22,15.29s-5.38-2.57-5.38-2.57c0,0-1.1,4.66-.99,9.29s0,15.64,1.85,24.21,3.01,11.24,3.01,11.24c0,0,29.89-36.15,38-46.34s23.75-27.34,26.3-29.08,6.02-2.78,16.45-16.68,34.76-43.91,36.38-45.65,3.36-3.69,3.36-3.69Z"/>
      <path class="cls-30" d="m261.22,193.16c1.54.12,2.66,4.87-2.66,11.7s-6.95,6.14-7.99,5.79.93-6.19,4.52-10.68,4.63-6.93,6.14-6.81Z"/>
      <path class="cls-28" d="m146.29,165.63c-2.41-.38-8.8,6.55-6.49,17.62s8.47,13.05,9.1,12.75.88-3.89,0-4.82-4.44-1.32-4.51-5.53,7-10.84,2.13-11.23-.93,5.53-3.01,5.7-2.28-7.69,2.78-7.48,3.48,5.43,1.85,8.51-2.66,5.4-.7,7.02,3.14,1.51,2.96.7,1.67-8.86.63-12.36-2.67-10.54-4.75-10.87Z"/>
      <path class="cls-13" d="m139.75,174.43s3.65-3.05,6.2-2.94,4.51,2.94,4.51,2.94c0,0-.82-4.05-2-6.1s-2.24-5.22-5.73-.4-2.98,6.49-2.98,6.49Z"/>
      <path class="cls-30" d="m50.7,225.94s6.71-3.72,10.85-4.02,7.54,6.73,7.84,8.14.3,2.41-3.62,3.32-6.13,2.14-6.13,2.14c0,0-.3-2.54-3.52-6.16s-5.43-3.42-5.43-3.42Z"/>
      <path class="cls-30" d="m60.11,237.09s1.65.7,2.86,3.52.9,5.73.9,5.73c0,0,3.92-2.01,6.73-2.41s3.02-.9,2.91-2.21-.6-5.07-4.62-6.2-8.79,1.58-8.79,1.58Z"/>
      <path class="cls-30" d="m70.61,227.34s3.42-2.81,5.93-1.91,5.73,7.64,4.02,11.16-4.74,5.93-4.74,5.93c0,0-.85-4.52-2.28-6.23s-2.53-2.4-2.53-2.4c0,0,1.31-1.52,1.01-3.53s-1.41-3.02-1.41-3.02Z"/>
      <path class="cls-30" d="m64.88,247.44s6.07-2.01,8.66-2.61,4.7-.1,6.31,4.02,1.41,5.83.4,6.23-3.02.3-5.83,1.01-3.82,1.51-3.82,1.51c0,0,.1-3.13-2.31-6.49s-3.42-3.66-3.42-3.66Z"/>
      <path class="cls-30" d="m73.54,258.2s2.39,1.91,3.3,4.82.4,5.03.4,5.03c0,0,4.02-1.71,4.42-.8s3.62-.3,3.62-.3c0,0,1.01-3.52,0-6.63s-1.85-3.12-5.65-3.12-6.09,1.01-6.09,1.01Z"/>
      <path class="cls-16" d="m80.15,268.85c-2.61,1.21-7.3,5.78-6.03,7.34s6.73-3.82,8.64-5.43,2.6-3.91,2.73-4.84-1.37-.09-4.47-.89-3.89-.81-3.89-.81c0,0,.21.81.23,2.31s-.35,1.71-.35,1.71c0,0,1.67-.57,2.68-.84,1.08-.29,1.22-.5,1.95-.17s-1.51,1.61-1.51,1.61Z"/>
      <path class="cls-35" d="m46.28,226.94c-1.28.56-8.44,3.52-10.65,19.4s-2.31,42.11-2.31,42.11c0,0,6.03,4.02,8.84,6.03s5.73,3.52,8.95,3.32,4.52-1.31,4.52-1.31c0,0,7.84-10.45,8.34-12.36s2.11-12.86,3.52-14.88,4.86-4.12,6.05-4.12,1.59-.2,1.59-.2c0,0-1.41-4.02-2.61-5.03s-2.21-.9-4.22.2-3.82,1.41-4.12.7,2.61-2.31,3.72-2.51,1.61-3.13-1.61-7.19-4.12-2.66-7.24-1.35-5.33,3.22-5.93,2.01,5.54-3.82,6.99-4.12,2.05-1.51,1.65-4.02-2.31-6.13-4.12-5.53-4.62,3.22-6.33,4.42-4.02,1.11-2.11-1.11,7.74-4.52,8.24-5.13,0-3.42-4.42-6.53-6.07-3.1-6.73-2.81Z"/>
      <path class="cls-22" d="m57.74,296.19c3.42-.7,7.94-1.31,10.65-6.33s3.22-7.14,3.22-10.85.78-7.46,2.3-8.66,1.22-1.8,1.22-3.61v-1.81s-.8-1.71-3.82-.7-4.32,2.41-7.24,12.77-11.32,20.6-11.32,20.6c0,0,2.9-.98,4.98-1.41Z"/>
      <path class="cls-26" d="m31.31,282.92s-4.32,2.81-4.02,8.34,5.13,8.44,4.02,11.66-4.32,6.23-3.52,6.63,7.04,5.23,13.07,6.83,10.45,1.31,10.45,1.31c0,0,.48-4.92,1.45-6.63s3.98-6.33,3.48-7.64-2.63-4.12-3.48-4.12-6.33.3-10.98-2.41-11.29-6.99-11.18-10.25.7-3.72.7-3.72Z"/>
      <path class="cls-34" d="m62.06,296.99c-3.12.7-9.31,2.31-9.31,2.31,0,0,2.17,2.21,1.47,4.22s-3.52,6.23-4.02,8.64,0,5.55,0,5.55c0,0,3.92.18,7.44-1.53s4.52-3.12,4.42-4.02-.89-4.72,0-7.24,3.41-7.44,2.71-7.94-2.71,0-2.71,0Z"/>
      <path class="cls-30" d="m30,312.87s-.9,24.93-.7,33.97,3.42,13.07,6.53,17.09,5.93,6.43,7.74,6.43,2.81-1.81,3.62-3.12,3.72-6.33,4.02-16.38-1.15-22.82-1.23-25.53,0-5.93,0-5.93c0,0-5.71.65-11.54-1.69s-8.44-4.85-8.44-4.85Z"/>
      <path class="cls-28" d="m59.75,317s-4.74,1.91-6.99,2.21-3.86.27-3.86.27c0,0,.86,12.6,1.08,23.35s-.58,19.1-3.5,23.32-3.72,4.22-3.72,4.22c0,0,3.3,1.21,9.99-1.21s21.47-14.77,24.18-17.09,5.63-4.52,7.14-6.53,7.84-10.45,8.44-11.86-2.01-9.7-6.03-15.96-8.54-10.47-8.54-10.47c0,0-4.12,2.91-4.92,3.31s-2.41,1.31-2.41,1.31c0,0,1.91,4.02,2.81,8.74s-6.23,9.95-6.23,9.95c0,0,2.31,2.91,3.12,6.83s0,8.84-1.01,10.35-2.43,1.01-1.62-1.61,2.42-7.04-.7-12.16-6.53-7.84-6.63-10.75-.6-6.23-.6-6.23Z"/>
      <path class="cls-30" d="m62.06,316.19c1.01-.6,4.72-2.61,6.33-3.32s3.4-1.66,3.4-1.66c0,0,3.04,3.97,3.74,7.59s0,7.14-2.61,9.05-5.23,3.41-5.23,3.41c0,0-1.66-1.8-2.78-3.71s-2.64-4.72-2.84-7.34,0-4.02,0-4.02Z"/>
      <path class="cls-1" d="m118.78,251.11s22.46-11.77,27.39-14.12,10.66-5.74,13.01-6.54,7.19-.4,7.84.57-1.62,2.1-2.75,3.64-5.82,12.44-7.03,15.11-3.47,5.49-2.34,9.29,7.43,8.56,7.43,8.56c0,0-2.34,5.98-2.99,6.46s-4.91-13.88-13.25-18.1c-7.76-3.93-27.31-4.87-27.31-4.87Z"/>
      <path class="cls-12" d="m163.06,234.81c-1.39,1.93-8.24,16.56-9.13,19.96s-1.62,6.71,2.67,9.86,5.56,3.42,5.56,3.42c0,0,.78-3.26,3.02-8.27s3.05-7.27,3.05-13.82.03-16.56-1.81-15.36c-1.24.81-3.36,4.21-3.36,4.21Z"/>
      <path class="cls-1" d="m203.7,208.49s.48,11.54.4,20.1-.89,12.12-.89,12.12c0,0,8.65-5.49,13.41-7.51s15.75-3.18,15.75-3.18l5.9-8.13s-13.25-5.66-21.98-8.89c-8.73-3.23-12.6-4.51-12.6-4.51Z"/>
      <path class="cls-12" d="m194.25,253.39s5.74-4.69,7.27-8.48,2.01-6.21,2.01-6.21c0,0,7.84-5.96,17.54-8.19s12.02-1.46,12.02-1.46c0,0,.15,1.57-11.31,9.56-11.46,8-18.73,11.94-22.81,13.44s-4.72,1.34-4.72,1.34Z"/>
      <path class="cls-1" d="m244.9,219.62s-8.32,2.75-17.77,26.02c-9.45,23.27-2.02,39.83-.97,42.18s2.34,3.47,2.34,3.47l47.1-50.13s-.73-11.44,0-21.94,5.41-24.72,6.63-28.12,3.47-5.69,4.04-5.31.89,1.11,1.29.87,1.21-2.5-1.45-1.62-15.19,12.64-17.21,14.48-14.4,10.89-13.7,11.78,2.75,1.05,1.2,1.7-5.41.16-6.11.16-1.02.57-1.1.97-4.61,11.72-7.51,25.85-1.78,20.28-2.75,20.6-1.86-6.87.48-18.83,4.04-17.53,4.61-19.23.89-2.91.89-2.91Z"/>
      <path class="cls-12" d="m259.59,298.64s-7.01,14.87-7.98,16-2.1.65-4.2-.97-13.49-13.57-16.4-17.61-3.28-5.62-3.28-5.62c0,0,17.25-24.03,20.49-30.33s13.17-24.08,13.49-23.75.08,15.84.81,15.67,12.88-15.68,12.88-15.68c0,0,.13,9.38,3.61,19.88s9,19.58,9,19.58c0,0-26.06,18.32-30.14,21.23s-11.43,10.5-9.41,10.5,7.68-6.46,9.41-7.68l1.72-1.21Z"/>
      <path class="cls-12" d="m283.2,261.96l14.79-18.58s1.21,9.13-2.26,19.39-5.9,11.72-5.9,11.72l-6.63-12.52Z"/>
      <path class="cls-12" d="m70.79,300.83s.3,3.82.5,5.73.6,2.31.6,2.31l4.42-2.91s-2-2.91-3.36-3.92-2.16-1.21-2.16-1.21Z"/>
      <path class="cls-1" d="m103.05,276.47s-1.01,4.56-5.73,8.78-27.24,12.76-26.53,13.57,10.45,6.23,15.68,15.08,8.14,17.37,8.14,17.37c0,0,11.26-12.64,16.18-17.16s5.23-6.13,5.23-6.13c0,0-3.42-3.15-4.52-10.37s.1-9.63.9-9.63-.6,7.54,1.81,12.87,2.91,5.43,2.91,5.43c0,0,2.11-2.31,2.31-2.81s.1-20.81.7-25.03,3.22-14.27,3.22-15.38-5.23-2.91-9.75,2.61-4.72,8.84-4.72,8.84c0,0,8.24,0,8.74.4s2.01,1.73-2.91,1.57-11.66,0-11.66,0Z"/>
      <ellipse class="cls-25" cx="160.88" cy="297.57" rx="5.27" ry="2.44" transform="translate(-177.26 288.11) rotate(-60)"/>
      <ellipse class="cls-25" cx="189.32" cy="266.42" rx="2.44" ry="5.27" transform="translate(-62.46 58.02) rotate(-14.99)"/>
      <path class="cls-25" d="m236.08,365.39l-4.91,3.78s8.26,7.34,24.99,11.81,30.27,3.67,30.27,3.67v-4.59s-14.68.51-29.58-5.02-20.77-9.66-20.77-9.66Z"/>
      <path class="cls-25" d="m266.6,440.6s14.45-18.34,27.86-32.56,28.32-26.49,38.29-32.45,14.79-5.16,14.79-5.16l2.87,3.55s-5.85-1.15-14.22,4.13-31.76,25.11-45.98,42.77-18.92,23.96-18.92,23.96l-4.7-4.24Z"/>
      <path class="cls-32" d="m316.82,395.31s17.2-13.64,23.28-16.74,9.98-3.21,10.89-2.29-2.18,6.19-14.22,11.69-19.95,7.34-19.95,7.34Z"/>
      <g>
        <path class="cls-18" d="m158.48,278.37c-7.22-12.38-9.06-18.34-14.33-20.77-5.27-2.43-13.19,1.39-16.17,2.88-2.98,1.49-4.93,9.4-5.5,15.32-.57,5.92-1.03,22.98-1.03,22.98,0,0,.69-2.29,1.91-4.59,1.22-2.29,1.76.69,1.3,2.37s-.8,5.2-11.35,17.35c-10.55,12.15-26.83,29.35-36.35,46.66-7.74,14.08-10.87,26.95-11.77,31.26.21-.81.58-2.03,1.22-3.86,1.61-4.59,6.99-16.4,19.84-30.04s32.45-24.31,39.79-29.24,25.8-24.88,26.26-25.11,5.39,3.55,6.42,4.13c1.03.57,1.26.92,2.17-1.03.91-1.95,7.23-12.38,7.35-13.07s-2.52-2.87-9.75-15.25Zm5.78,21.28c-2.01,3.49-5.2,5.42-7.12,4.31-1.92-1.11-1.84-4.83.17-8.32s5.2-5.42,7.12-4.31c1.92,1.11,1.84,4.83-.17,8.32Z"/>
        <path class="cls-18" d="m64.9,393.37s.09-.54.29-1.53c-.32,1.23-.29,1.53-.29,1.53Z"/>
      </g>
      <path class="cls-18" d="m327.83,346.13c-10.89-9.63-17.08-13.41-31.07-16.97-13.99-3.55-18.57-3.78-23.85-6.31-5.27-2.52-11.52-9.75-11.52-9.75,0,0,3.04,10.78,5.22,19.26,2.18,8.48,2.98,15.02,2.18,15.02s-16.05-7.91-16.05-7.91c0,0-17.08-11.35-17.2-11.69-.11-.34-8.71-34.4-8.71-34.4,0,0-5.39-8.94-5.96-20.64-.57-11.69,2.06-22.29,5.16-29.37,3.1-7.09,4.24-9.15,4.24-9.15,0,0-15.82,13.18-26.14,17.83s-13.3,3.04-18.92,3.84c-5.62.8-8.03,3.03-8.03,3.03,0,0,8.03,16.92,10.32,34.11,2.29,17.2,5.04,37.38,5.62,47.12.57,9.75,1.49,23.99,9.75,35.62,8.26,11.62,20.52,24.29,26.94,30.63,6.42,6.34,35.54,32.94,35.54,32.94,0,0,16.17-20.75,30.38-35.08s26.37-24.62,32.91-28.48c6.54-3.86,12.61-7.07,14.79-7.3l2.18-.23s-6.88-12.5-17.77-22.13Zm-136.93-73.17c-2.18.58-4.75-1.93-5.73-5.61-.99-3.68-.02-7.14,2.16-7.72,2.18-.58,4.75,1.93,5.73,5.61.99,3.68.02,7.14-2.17,7.72Zm97.26,109.98c0,3.1,0,3.44-.8,3.67-.8.23-14.56.23-29.93-3.33-15.36-3.55-28.55-12.84-29.01-14.1s7.1-5.52,7.66-5.85c.75-.44,4.27,4.55,20.43,9.75,16.16,5.2,29.47,4.93,30.96,4.93s.69,1.83.69,4.93Z"/>
      <path class="cls-32" d="m110.63,341.62s-.15,27.81,0,33.43.44,7.8-.73,10.28-2.18,3.7,0,6.51,3.79,3.68,3.79,3.68v11s-15.87.21-27.52,9.1-18.48,23.72-18.48,23.72c0,0-7.01-15.35-4.53-32.94s12.67-33.6,19.81-41.61c7.14-8.01,16.46-15.87,20.68-18.64s6.99-4.53,6.99-4.53Z"/>
      <path class="cls-32" d="m265.92,347.04c-4.01-.92-28.36-6.65-29.83-9.4s-5.6-22.13-7.2-29.35-2.52-15.72-2.52-15.72c0,0,5.12,8.71,11.27,14.68s10.62,10.21,13.03,10.21,6.49-9.86,7.2-8.71,5.53,19.49,7.02,26.14,3.72,12.49,2.97,12.15-1.94,0-1.94,0Z"/>
      <path class="cls-28" d="m167.75,224.6s1.93,4.89,2.41,16.56-1.92,17.77-1.92,17.77c0,0,3.73,3.14,5.89,3.69s3.05,0,3.05,0c0,0-1.24-3.54-1.84-4.5s2.68-3.01,5.37-3.49,9.97-.6,10.72-.72,5.91-6.02,7.55-8.55,2.48-6.98,1.88-6.5-7.22,3.62-14.08.61-14.56-11.7-16.13-12.65-2.89-2.22-2.89-2.22Z"/>
      <path class="cls-29" d="m180.75,274.09s5.42,23.19,6.74,33.16,2.89,27.66,2.89,27.66c0,0-28.24,29.19-29.58,30.48s-4.48,2.26-6.64,2.38-9.03.72-11.67,1.44-7.34,2.77-9.15,3.01-3.37-2.41-4.09-6.26-2.53-15.77,0-21.9,10.47-20.46,11.43-21.9,5.9-9.28,5.9-9.28l6.26-6.85,7.34,5.19s10.71-16.86,10.35-17.95-9.44-14.56-9.78-16.25,1.35-4.71,1.71-3.98.24,5.06,7.94,4.82,10.35-3.77,10.35-3.77Z"/>
      <path class="cls-29" d="m179.94,272.12c-1.12,1.17-7.49,4.62-11.7,3.68s-4.34-6.48-4.34-6.48c0,0,4.72,2.83,7.94,2.77s8.1-1.73,8.1-1.73v1.77Z"/>
      <path class="cls-15" d="m168.23,258.36s-2.41,4.55-3.61,7.93-1.2,2.42-.72,3.02,4.57,2.53,7.94,2.77,7.46-.72,7.64-.84.45-.89.45-.89l-2.76-7.73s-2.87.47-4.81-.77-4.14-3.49-4.14-3.49Z"/>
      <path class="cls-15" d="m190.38,336.78s-14.68,17.5-22.63,24.6-23.71,20.88-27.8,23.32-5.05,2.84-5.9,1.98,7.94-5.68,13.12-9.65,11.99-10.58,11.99-10.58c0,0-8.14-.98-16.08.71s-9.75,3.7-10.71,3.23-3.85-11.66-2.65-18.64,5.9-16.73,10.71-25.4,6.14-13.49,6.14-13.49c0,0-10.83,10.72-16.37,15.05s-17.33,11.43-17.33,12.16.36,35.38,0,40.08-2.29,6.98-1.81,9.63,2.65,4.81,6.38,4.57,31.53-.32,52.35.02c20.82.34,49.71,4.19,49.71,4.19,0,0-19.74-18.71-24.31-33.19s-4.81-28.61-4.81-28.61Z"/>
      <path class="cls-31" d="m115.48,396s-.54,11.68-.54,13.35v1.67s2.81-1.73,4.32-2.49,3.46-1.41,3.46-1.41c0,0,.32-4.65.76-7.46s0-3.68,0-3.68h-8Z"/>
      <path class="cls-31" d="m129.43,408.22s4.32,1.84,6.05,3.24,2.49,1.84,2.49,1.84h4.86s-.11-6.49,0-11.13,0-6.16,0-6.16c0,0-12.43-.65-12.43,0s-.97,12.21-.97,12.21Z"/>
      <path class="cls-9" d="m122.51,411.68s.22-4.6.27-5.27-4.29,1.62-6.07,2.63-1.77,1.99-1.77,1.99c0,0,4.32.65,5.3.65h2.27Z"/>
      <path class="cls-9" d="m129.43,412.43s-.1-4.24,0-4.81,8.54,5.68,8.54,5.68c0,0-4.54-.43-5.95-.65s-2.59-.22-2.59-.22Z"/>
      <path class="cls-31" d="m174.18,415.78s1.08-6.88,1.3-11.28,0-7.85,0-7.85c0,0,18.27.76,19.24.86s1.84,1.62,1.41,5.3,0,12.54-1.95,12.97-12.54,0-15.46,0h-4.54Z"/>
      <path class="cls-31" d="m203.04,414.92l-.54-16.34s14.01,1.21,17.01,1.86,3.86,0,4.18,3.08.76,8.81-.97,9.78-9.84,1.3-12.65,1.62-7.03,0-7.03,0Z"/>
      <path class="cls-20" d="m171.8,415.98s1.08-6.89,1.19-12.46.65-7.51,0-7.51-17.08-.25-21.73-.29-6.49,0-6.49,0c0,0,9.94,7.21,10.05,7.8s-10.16,6.86-10.05,7.51-.54,3.35.76,3.24,26.27,1.71,26.27,1.71Z"/>
      <polygon class="cls-5" points="144.71 398.58 144.71 408.98 152.67 403.52 144.71 398.58"/>
      <path class="cls-2" d="m125.64,413.3c-.86-3.57-1.41-6.81-1.08-7.46s3.57,2.38,3.57,2.38c0,0-.22,4.54,0,5.08s-.32.65,4.54,1.3,11,1.47,12.04,1.38,4.93,2.19,4.93,2.19c0,0-2.81,3.35-2.59,6.05s1.44,3.57,1.64,7.67.45,10.92,0,11.46-7.8-.86-11.15-2.92-8.22-4.65-8.11-4.32-1.62.43.86,2.38,6.76,4.11,6.76,4.11c0,0,5.21,2.7,7.65,3.78s3.98,1.51,3.98,1.51c0,0-1.53,7.35-1.64,10.92s.65,6.27.65,6.27c0,0-8.43-1.73-10.16-2.38s-4-.65-5.08-1.19-7.86-5.08-7.99-3.68,4.42,2.92,6.36,4.86,4.54,2.92,4.54,2.92c0,0,3.35,6.05,3.68,6.49s1.95,3.46,1.95,3.46l.11,4.11-35.99,73.61-2.49,3.78s-1.51-.43-1.95,0,.11,1.73,1.95,3.89,7.89,10.27,10.38,12.43,3.13,2.16,3.13,2.92-.86,1.3-.86,1.3l-5.95-.54-4.32-2.7s3.68,6.27,4,6.7,1.19,3.24,1.19,3.24c0,0-1.08.76-.97,1.73s2.38,1.73,3.46,10.81-.22,34.48-.22,40.53-.22,23.35.11,23.89,2.81,2.7,2.7,5.19.22,5.95-4.43,6.92-9.08.76-16.21.86-26.37-1.62-33.08-1.95-12.32,1.19-14.27.76-6.16-6.38-6.16-9.19,3.57-5.19,3.78-15.67-3.57-43.13-3.24-44.43.43-6.38.43-6.38l10.59-23.46s-8.11.97-7.35.97-5.95-1.95-5.95-1.95c0,0-.22-6.7,5.08-20.32s21.29-40.86,29.51-54.15,16.64-25.51,20.54-31.24,5.95-7.89,6.16-9.08-.32-3.03,1.3-5.19,4.11-3.46,4.97-5.51,1.62-6.49,2.16-6.92,16.11-6.27,16.86-7.78.86-7.35.86-10.92-1.19-8.54-1.19-8.54Z"/>
      <path class="cls-2" d="m116.71,413.3c1.15-.11,6.07-.11,6.96,1.19s.89,16,.56,16.86-14.27,7.67-14.38,6.49-.65-13.73,0-14.92,6.85-9.62,6.85-9.62Z"/>
      <path class="cls-2" d="m151.58,419.03l9.62,4.22s.43,6.16.86,7.35.43,8.09.43,8.75v.65l-10.92,3.24v-.97s.65-8.65,0-11.57-1.73-2.7-1.95-6.05,1.95-5.62,1.95-5.62Z"/>
      <path class="cls-2" d="m163.8,424.97l.97,14.37s21.83-5.4,22.48-3.56-8.86,9.94-13.51,12.65-7.78,4.54-7.78,4.54c0,0,.19,4.76-.72,7.03s-2.74,7.03-2.74,7.03c0,0,9.3.86,11.67,1.51s3,.86,3,.86c0,0-3.34,3.57-3.87,4.22l-.53.65s11.13-4.97,15.78-6.38,13.3-3.13,15.46-3.35,3.24,1.41,0,2.05-9.08.22-23.89,6.92-15.89,9.4-15.89,9.4c0,0-1.08,4.11.43,4.65s2.81.65,4.54,4.11,13.94,31.35,18.16,40.32,18.38,37.08,18.38,37.08c0,0,12.97,24.97,17.08,33.4s12.65,18.27,16.97,21.08,16.11,15.13,16.11,15.13l25.51,52.97s13.08,16.65,13.3,17.29,21.4,10.59,21.4,10.59h7.13s15.89-1.62,23.02-8.54,6.49-11.78,3.57-14.7-2.27-1.08-6.92-10.27-14.16-28-23.78-44.64-17.62-29.51-18.16-29.08,1.3,4.54-.65,3.68-2.7-7.13-2.7-9.73-.32-3.68-2.16-5.73-15.02-28-19.78-39.99-22.05-51.88-26.81-65.5-7.46-17.94-7.24-20.21.76-5.62-3.13-8.32-4.86-5.51-5.4-8.43-1.19-5.95-1.19-5.95l-29.4-11.35s.43,6.16,3.46,9.08,10.38,3.68,13.08,4.97,3.46,2.49,4.32,2.27,0-4.43,1.08-4.43,1.08,2.7.97,4.65.38,3.78-1.43,3.03-5.7-3.78-11.32-5.51-10.59-4.65-11.89-10.48-.76-4.98-.76-4.98l-34.05-14.37h-2.16Z"/>
      <path class="cls-2" d="m150.5,448.97s-1.22,9.62-.88,12.32-.09,2.92.88,4.54,2.16.76,2.16.76l7.13.23s1.3-2.61,2.27-4.55,1.73-6.27,1.84-9.51-.65-5.73-.65-5.73c0,0-.62,1.62-4.26,1.84s-8.5.11-8.5.11Z"/>
      <path class="cls-2" d="m165.24,450.91s1.8-1.08,1.91-1.73,0-2.16,0-2.16h-1.91v3.89Z"/>
      <path class="cls-21" d="m223.98,415.98s2.62,3.05,3.16,3.81.43,1.62,0,4.43.22,10.65,1.08,13.76,3.98,15.58,3.98,15.58c0,0-16.19-6.43-20.19-8.16s-9.51-3.46-9.51-3.46c0,0-.43-1.51-.76-8.32s-.86-16.97-.86-16.97c0,0,13.3-.48,16.75-.67s6.35,0,6.35,0Z"/>
      <path class="cls-21" d="m200.87,397.84s.22,15.67,0,16.21-1.51-.68-1.84,1.01,1.06,21.09.97,22.91.04,2.79.04,2.79c0,0-15.12-6.82-22.87-9.63s-12.31-6.71-13.33-5.52.25-4.75,1.4-6.59,1.96-1.3,1.96-1.3c0,0,23.19.97,26.33.22s3.24-2.9,3.78-7.5.32-12.49.65-12.6,2.91-.54,2.92,0Z"/>
      <path class="cls-21" d="m125.53,395.71c-.22,1.04-1.09,10.3-1.07,10.81s.88-.32,2.26,1.06l1.37,1.39s.03-3.13.46-7.78,1.53-5.47.82-5.49-3.85.02-3.85.02Z"/>
      <path class="cls-21" d="m150.83,415.98s-8.05-.25-6.81-.09,4.97,2.38,5.62,2.27,1.19-2.19,1.19-2.19Z"/>
      <path class="cls-21" d="m153.21,416.43s-1.1,1.93-1.62,2.59,1.84,1.51,3.57,2.27,6.09,2.47,6.09,2.47c0,0,.61-1.95,1.26-3.67s2.05-2.59.97-2.7-10.26-.97-10.26-.97Z"/>
      <path class="cls-21" d="m148.99,445.62l-.52,3.35s-5.1-1.62-8.23-3.35-4.68-3.82-4.68-3.82c0,0,5.76,2.66,9.54,3.58s3.89.23,3.89.23Z"/>
      <path class="cls-21" d="m150.94,445.38s3.24-.41,6.81-1.39,5.72-1.62,5.72-1.62v5.51s-1.47,1.95-6.73,1.95h-6.34s.54-1.95.54-2.81v-1.64Z"/>
      <path class="cls-21" d="m165.24,441.8v5.76s1.95-.24,1.95.43-.49,1.84-.49,1.84c0,0,5.96-2.92,9.75-5.73s8.22-5.78,7.35-6.13-12.11,1.83-14.7,2.79-3.85,1.03-3.85,1.03Z"/>
      <path class="cls-21" d="m132.78,459.02s8.88,4.28,11.78,4.65l2.9.37s1.75,5.03,4.12,8.28,4.22,5.08,4.22,5.08c0,0-14.38-8.97-18.48-12.65s-4.54-5.73-4.54-5.73Z"/>
      <path class="cls-21" d="m162.5,482.15c-.11-.43-5.62-5.73-9.3-10.81s-3.57-6.92-3.57-6.92c0,0,.76.97,5.3,1.08s5.73-.43,5.73-.43c0,0-2.06,3.78-.76,7.24s2.38,7.13,2.59,7.89,0,1.95,0,1.95Z"/>
      <path class="cls-21" d="m164.45,479.67s8.25-5.08,10.13-6.81,3.82-3.35,3.82-3.35c0,0-1.84-1.38-8.22-2.69s-7.23-.94-7.23-.94c0,0-1.52,1.79-1.09,5.14s1.21,3.46,2.06,4.97.53,3.68.53,3.68Z"/>
      <path class="cls-21" d="m165.24,492.42c.18-1.08-1.55-3.03-2.74-3.78s-.65-2.92-1.41-3.57-14.48-12-18.38-14.59-8.17-5.22-7.98-5.13,1.17,3.3,2.89,6.65,3.66,3.4,1.3,10.16-25.83,52.1-28.1,57.07-8,15.46-8.32,16.21.22.86.11,1.62,9.73,12.97,9.73,12.97c0,0,29.83-47.56,34.7-54.69s12.17-17.08,14.73-19.56,3.47-3.35,3.47-3.35Z"/>
      <path class="cls-21" d="m102.41,572.25s3.78,2.97,8.32,4.16l4.54,1.19s-1.08,2.27-2.81,4.65-2.73,2.47-2.73,2.47c0,0-1.27-3.23-3.54-6.91s-3.78-5.57-3.78-5.57Z"/>
      <path class="cls-21" d="m39.38,572.25s2.7,1.68,6.59,1.35,8.22-1.35,8.22-1.35c0,0-4.54,12.92-7.4,18.97-2.86,6.05-4.82,9.31-4.82,9.31,0,0-1.29-6.71-1.72-13.31s-.87-14.97-.87-14.97Z"/>
      <path class="cls-21" d="m324.96,719.3c-.97.01-9.29.88-17.29-4.64s-12.11-10.27-22.92-29.83-26.7-46.48-29.4-51.13-6.92-5.62-9.94-7.67-13.28-8.55-21.51-23.13-25.68-48.83-25.68-48.83c0,0,16.6,36.29,18.44,40.83s10.59,29.4,17.08,37.51,16.86,25.19,22.59,35.35,16.75,31.35,19.24,36.32,4,7.24,5.19,8.22,14.48,6.81,23.46,7.89,20.75-.88,20.75-.88Z"/>
      <path class="cls-17" d="m326.91,721.14s-13.62,3.46-26.48.54-21.51-9.51-22.59-8.76-2.16.32,1.08,6.59,5.95,11.78,12,14.05,10.7,5.08,21.29,6.81,22.48-.32,24.43-.76,4.43-1.73,4.43-1.73c0,0-10.7-2.05-11.67-5.84s-.76-8.97-.76-9.51-1.73-1.41-1.73-1.41Z"/>
      <path class="cls-3" d="m354.04,702.34c-.23.59-.32,5.51-5.84,9.51s-14.16,8-17.08,8.65-4.22.65-4.22.65c0,0-1.3,8.32,1.51,12.54s11.21,4.9,11.21,4.9c0,0,6.3-1.65,11.82-5.98s10.59-9.05,10.48-12.14-3.03-9.8-4.65-12.93-2.97-5.88-3.24-5.19Z"/>
      <path class="cls-3" d="m56.36,674.24c-4.18.09-8.25.81-9.8,1.29s-3.47-.72-4.42,2.39,0,13.27.84,15.42,1.63,1.91,6.08,1.91,14.72-1.18,26.08,0,15.78,1.79,25.7,1.9,12.43-.12,13.51-2.39.6-6.52.72-9.06.48-10.9-2.27-10.9-10.64,2.39-22.95,1.55-22.71-2.22-27.01-2.12-6.45,0-6.45,0Z"/>
      <path class="cls-1" d="m44.71,698.6c-1.93,2.94-8.36,12.31-12.49,16.26s-14.14,9.37-14.14,9.37c0,0,10.84-3.03,18.74-12.81s12.77-14.23,12.77-14.23c0,0-3.21-.41-3.67,0s-1.19,1.42-1.19,1.42Z"/>
      <path class="cls-1" d="m46.82,702.18s3.12-3.49,3.86-4.32,1.75-1.47,2.48-1.47,3.12,2.76,2.66,2.89-4.22,1.61-5.6,2.07-3.4.83-3.4.83Z"/>
      <polygon class="cls-1" points="55.88 696.4 57.11 696.4 58.21 698.79 57.05 698.79 55.88 696.4"/>
      <polygon class="cls-1" points="58.95 696.4 63.72 696.4 60.14 697.96 58.95 698.33 58.95 696.4"/>
      <polygon class="cls-1" points="66.94 697 45.81 703.56 46.36 704.76 69.88 697.18 66.94 697"/>
      <path class="cls-1" d="m61.33,700.88s11.11-3.38,11.85-3.29,3.95,0,3.95,0l-11.3,11.02-4.5-7.73Z"/>
      <polygon class="cls-1" points="60.14 701.27 58.95 701.82 63.72 710.18 65.01 709.35 60.14 701.27"/>
      <polygon class="cls-1" points="57.84 702.18 61.98 708.61 52.15 704.11 57.84 702.18"/>
      <polygon class="cls-1" points="50.68 704.76 49.12 705.4 62.62 711.28 63.26 710.62 50.68 704.76"/>
      <polygon class="cls-1" points="47.65 705.72 55.88 709.35 50.59 710.18 47.65 705.72"/>
      <polygon class="cls-1" points="44.8 704.02 43.52 704.76 48.38 711.28 49.58 710.62 44.8 704.02"/>
      <path class="cls-1" d="m57.84,710.18s-5.88.83-10.19,1.93-10.29,3.4-10.29,3.4l1.47,1.01s4.96-2.11,11.48-3.58,8.27-1.65,8.27-1.65l-.73-1.1Z"/>
      <path class="cls-1" d="m52.79,713.34s4.78-1.15,6.15-1.15h2.39l-6.43,6.06s-1.38-2.94-1.75-3.67-.37-1.24-.37-1.24Z"/>
      <path class="cls-1" d="m51.35,713.34l-1.77.51s2.02,2.3,2.57,3.67.64,1.93.64,1.93c0,0,1.19.55,1.19,0s-2.63-6.11-2.63-6.11Z"/>
      <path class="cls-1" d="m47.97,714.22l-6.23,2.85s2.51.37,5.91,1.56,4.13,1.75,4.13,1.75c0,0-1.01-3.95-2.2-5.14s-1.61-1.01-1.61-1.01Z"/>
      <path class="cls-1" d="m33.83,716.51l-1.24.78s5.51.72,10.93,2.41,6.89,2.33,6.89,2.33l.95-.83s-7.56-2.67-11.33-3.91-6.2-.78-6.2-.78Z"/>
      <path class="cls-1" d="m35.62,714.21s4.13-4.03,5.33-5.22,2.11-2.85,2.11-2.85c0,0,3.63,4.13,3.77,5.14s-2.39.83-6.8,2.07-4.41.86-4.41.86Z"/>
      <path class="cls-1" d="m31.58,718.26s-4.5,4.68-9.46,5.97-6.8,1.29-7.53,1.75-6.15,4.32-4.68,4.5,7.35-.83,12.4,2.57,12.58,7.62,15.06,9.18,2.76,3.58,3.4-1.93,2.85-10.84,5.05-13.5,3.86-3.58,3.31-3.95-5.69-1.99-11.02-3.15-6.52-1.44-6.52-1.44Z"/>
      <path class="cls-1" d="m41.97,744.8c1.09.73,6.6,1.01,7.15.37s1.19-12.22,7.94-18.09,13.18-11.85,18.78-17.54,8.91-11.21,8.91-11.21c0,0-6.02-.37-6.32,0s-3.88,4.96-12.88,12.95-19.38,16.07-21.12,22.04-2.47,11.48-2.47,11.48Z"/>
      <path class="cls-1" d="m14.86,732.77c-4.68-.64-9.09-1.29-11.66,4.59s-1.1,12.58,4.96,15.25,19.01,5.6,30.58,5.97,18.11.09,24.62-1.93,9.36-3.67,17.72-3.03,8.73.28,19.84-2.85,15.25-4.61,15.52-5.24,1.75-9.18.55-8.9-11.94,5.14-30.68,7.9-33.65,3.21-39.55,2.66-9.12-1.84-14.17-5.42-10.47-6.7-13.04-7.81-4.68-1.19-4.68-1.19Z"/>
      <path class="cls-1" d="m67.3,744.89s5.97-5.42,8.91-8.45,6.34-7.53,12.58-7.26,12.49,10.38,12.4,10.75-7.81,1.1-17.82,2.85-10.1,1.56-12.95,2.11-3.12,0-3.12,0Z"/>
      <path class="cls-1" d="m93.48,699.8c-.8,1.87-1.19,11.48,2.39,14.88s6.61,3.95,9.09.55,2.39-5.65,4.96-7.28,3.86-.99,3.86-1.81-2.11-6.7-3.67-6.84-3.4-1.06-3.4,1.06,1.47,7.62-1.65,10.93-9.28,3.03-9.92-4.04,1.29-7.9.46-7.94-1.84-.14-2.11.51Z"/>
      <path class="cls-8" d="m98.35,699.29c1.65.05,6.06-.69,6.52.96s1.47,11.11-3.67,11.39-4.32-10.93-4.13-11.48,1.29-.87,1.29-.87Z"/>
      <path class="cls-27" d="m87.02,699.29c1.27-.09,4.65-.09,4.73.41s-1.43,9.93,1.19,14.56,8.96,5.82,11.49,4,3.38-5.61,5.16-7.64,3.15-3.24,4.19-2.6,3.01,7.15,3.68,13.24.43,12.93,0,13.27-13.22,5.07-14.1,4.82-7.13-12.51-14.56-12.17-15.02,8.71-18.92,13.18-5.17,5.27-5.59,5.17-13.18.95-13.35,0,.87-9.45,7.28-16.35,16.13-14.36,21.29-20.56,7.52-9.32,7.52-9.32Z"/>
      <path class="cls-8" d="m294.51,736.96c-.49.18.88,5.32,2.56,7.88s3.96,3.56,4.24.44-.64-5.23-3.08-6.69-3.4-1.74-3.72-1.62Z"/>
      <path class="cls-1" d="m302.07,739.76s1.72,4.92.56,7.46-3.97,1.94-4.74,1.26-1.13-.2-1.13-.2c0,0,1.38,4.08,4.61,3.56s3.67-5.32,3.55-7.52-1.16-3.96-1.8-4.56-1.04,0-1.04,0Z"/>
      <path class="cls-1" d="m297.88,755.35s5.26,5.56,9.9,10.07,11.27,14.87,14.19,18.43,15.27,12.27,22.07,15.23,10.67,4.08,16.23,3.48,8.52-1.88,13.27-5.76,9.91-7.4,14.31-9.64,11.67-3.92,15.55-3.84,6.2.44,5.2,8.2-9.04,11.23-17.95,14.31-14.51,5.28-27.07,5.2-25.67-6.56-32.58-12.39-8.44-9.44-13.95-16.79-7.84-10.07-10.27-13.07-5.8-6.32-7.08-8.32-1.82-5.12-1.82-5.12Z"/>
      <path class="cls-1" d="m311.66,759.91c-.48.24-.8,3.16-.84,4.52s.56,1.72,1.32,2.56,7.04,10.51,9.87,13.87,7.64,7.16,10.03,9.12,3.44,3,4.04,2.6-2.12-5.16-3.56-7.64-9.76-13.35-12.63-17.19-4.84-5.4-5.92-6.52-2.32-1.32-2.32-1.32Z"/>
      <path class="cls-27" d="m354.56,800.69s.52-6.16-1.48-13.59-9.24-18.07-17.11-26.55-11.75-13.31-13.47-15.43-1.76-2.32-1.76-2.32c0,0-5.28-.2-8.92-1s-6.88-2.69-6.9-2.31,1.1,4.7.74,7.54-2.08,5.08-4.04,5.4-3.72-.8-4.28-1.68-1.16-2.36-1.28-2,.32,4.52.28,4.96,1.84.92,3.4,2.32,10.19,10.79,10.51,10.19-.8-6.8,1.08-6.84,2.72.12,4.68,2.36,15.03,19.95,15.91,21.19,4.68,6.4,5.24,8.08,1.2,3.12,2.2,3.92,15.19,5.76,15.19,5.76Z"/>
      <path class="cls-1" d="m355.44,800.17c.12.36-.04.64,1.04.72s6.36.44,6.36,0-.4-13.11-2.8-20.83-7.08-15.19-14.19-22.43-14.03-15.15-14.47-15.27-8.48-.12-8.4.44,3.84,5.12,8.24,9.8,12.95,13.87,15.23,17.07,5.08,7.8,6.92,13.95,2.04,9.76,2.08,11.87,0,4.68,0,4.68Z"/>
      <path class="cls-1" d="m364.64,799.61c.64.44,1.44.08,2.4-.6s14.71-10.79,16.55-11.67,8.12-4.68,14.11-5.36,9,.04,9.32-.48-1.2-7.76-7.68-13.47-8.8-7.04-11.35-8.52-8.4-4.76-8.56-4.68-11.27,7.28-14.79,9.44-7.56,4.88-7.56,4.88c0,0,3.72,5.76,5,11.67s2.08,14.15,2.08,15.51.48,3.28.48,3.28Z"/>
      <path class="cls-1" d="m378.59,754.07c.04-.16-.92-.92-1.12-1.04s-12.6,7.88-15.54,9.52-6.37,4.28-6.37,4.28c0,0,.76,1.32,1,1.28s17.27-10.87,19.07-11.95,2.96-2.08,2.96-2.08Z"/>
      <path class="cls-1" d="m375.07,753.03s-17.91,11.48-17.99,11.4,5.6-11.15,5.76-11.15,12.49-.4,12.23-.24Z"/>
      <path class="cls-1" d="m354.04,764.43c.04-.32,11.31-22.59,11.59-22.79s1.32.35,1.24.66-10.87,22.57-11.31,22.81-1.52-.68-1.52-.68Z"/>
      <path class="cls-1" d="m363.56,750.99c-.12.2-.72,1.64-.72,1.64,0,0,12.31.08,12.51,0s.32-1.72,0-1.64-11.79,0-11.79,0Z"/>
      <path class="cls-1" d="m364.36,749.47h8.92s-5.48-5.24-5.64-5.44-3.28,5.44-3.28,5.44Z"/>
      <polygon class="cls-1" points="364.56 741.07 360.46 749.47 349.12 749.67 364.56 741.07"/>
      <path class="cls-1" d="m345.97,750.99c-.12.08-1.28,1.08-1.44,1.32s12.27.35,13.23.36,1.12.24,1.24,0,.64-1.68.64-1.68h-13.67Z"/>
      <path class="cls-1" d="m357.68,753.59s-13.04-.16-13.15.32,4.44,4.88,6.12,6.4,2.53,2.88,2.72,2.72,2.72-5.24,3.47-6.64.84-2.8.84-2.8Z"/>
      <path class="cls-1" d="m364.36,740.04l-21.45,11.84s-1.46-.77-1.22-1.21,15.47-8.45,17.67-9.6,4.04-2.11,4.48-1.95.52.92.52.92Z"/>
      <path class="cls-1" d="m355.56,741.59s-11.63,6.92-11.91,6.92,3-5.8,3.16-6.22,1.72-.46,4.8-.7,3.96,0,3.96,0Z"/>
      <path class="cls-1" d="m348.56,740.4s-.2-1.23.36-1.3,11.15,0,11.15,0c0,0-1.4,1.14-1.88,1.3s-9.64,0-9.64,0Z"/>
      <path class="cls-1" d="m341.07,749.47s7.65-12.19,7.65-12.35-.92-.73-1.52-.18-7.28,11.3-7.28,11.58,1.14.96,1.14.96Z"/>
      <path class="cls-1" d="m339.25,747.39s3.52-5.61,3.36-5.91-9.04-.23-9.16,0,3.88,4.9,4.58,5.26,1.22.64,1.22.64Z"/>
      <path class="cls-1" d="m341.07,740.04s3.21-2.2,3.45-1.96-.03,2.04-.25,2.24-3.2-.28-3.2-.28Z"/>
      <path class="cls-1" d="m349.84,737.48c.08-.28,6.92-7.28,7.44-7.28s5.8,7.08,5.36,7.28-12.79,0-12.79,0Z"/>
      <path class="cls-1" d="m397.3,763.51s-4.28-6.16-9.52-10.14-8.63-4.75-12.71-9.34-13.32-17.87-13.32-17.87c0,0-2.92,2.68-2.64,3.24s6.12,9.18,11.35,14.63,7.76,8.08,14.75,11.72,12.07,7.76,12.07,7.76Z"/>
    </g>
  </g>
</svg>