<?xml version="1.0" encoding="UTF-8"?>
<svg id="Capa_2" data-name="Capa 2" xmlns="http://www.w3.org/2000/svg" viewBox="0 0 375.02 374.44">
  <defs>
    <style>
      .cls-1 {
        fill: #fff;
      }

      .cls-2 {
        fill: #046459;
      }

      .cls-3 {
        fill: #dbdcdc;
      }

      .cls-4 {
        fill: #67ad45;
      }

      .cls-5 {
        fill: #f4c0d0;
      }

      .cls-6 {
        fill: #fffffe;
      }

      .cls-7 {
        fill: #69a198;
      }

      .cls-8 {
        fill: #11161c;
      }

      .cls-9 {
        fill: #67ae45;
      }

      .cls-10 {
        fill: #db4f57;
      }

      .cls-11 {
        fill: #7dbeb4;
      }

      .cls-12 {
        fill: #d61f43;
      }

      .cls-13 {
        fill: #7cbeb3;
      }

      .cls-14 {
        fill: #fffefe;
      }

      .cls-15 {
        fill: #589441;
      }

      .cls-16 {
        fill: #fefefe;
      }

      .cls-17 {
        fill: #fcfcfc;
      }
    </style>
  </defs>
  <g id="Capa_1-2" data-name="Capa 1">
    <g>
      <path class="cls-8" d="m224.82,374.44c-1.09-.43-1.95-1.31-2.34-2.42-.82-1.92-1.31-3.96-1.47-6.04-.04-.46.16-1.01-.47-1.32-.67-.33-1.01.12-1.42.47-1.13.86-2.39,1.55-3.73,2.04-3.06,1.31-6.34.92-9.51,1.28-1.46.17-1.67-.12-1.75-1.6-.1-2.16.45-4.21.96-6.27.29-1.17,1.07-2.37.91-3.44s-1.22-2.01-1.89-3.01c-1.65-2.48-3.08-5.09-4.55-7.76-2.4,2.25-5.26,3.42-8.25,4.31-.44.06-.84.27-1.13.59-1.06,1.32-2.37,2.41-3.85,3.23-2.56,1.56-5.13,3.1-8.05,3.93-1.67.47-2.39.09-2.89-1.57-.44-1.48-.58-3.03-.41-4.56.1-.94-.23-1.05-.98-.99-.32,0-.63.15-.82.41-.7.85-1.56,1.55-2.55,2.05-2.55,1.35-5.26,2.38-8.07,3.04-.88.25-1.79.4-2.7.43-.8.1-1.53-.44-1.68-1.23-.5-1.69-.64-3.47-.43-5.22.08-.7-.17-.86-.71-1.03-.39-.09-.8-.02-1.13.21-3.94,1.85-8.21,2.92-12.56,3.14-2.13.14-2.71-.66-2.5-2.8.23-2.37.8-4.69,1.68-6.89.43-1.07.17-1.58-.64-2.24-5.86-4.72-11-10.28-15.23-16.5-.31-.45-.76-.78-1.28-.95-6.99-2.48-13.74-5.6-20.16-9.31-.81-.47-.93-.2-1.06.53-.76,4.17-1.99,8.24-3.66,12.13-1.33,3.18-3.24,6.06-4.77,9.12-2.98,6.13-6.88,11.78-11.56,16.73-2.57,2.66-5.15,5.31-8.61,6.88-5.01,2.27-10.28,2.71-15.68,2.46-.4-.05-.8-.03-1.19.07-4.59,1.52-9.33,1.76-14.1,1.71-3.7-.03-4.51-1.3-3.17-4.76.1-.27.51-.64.14-.86-.37-.32-.9-.38-1.32-.15-1.84,1.09-3.94,1.65-6.07,1.63-2.64.11-5.28.09-7.91-.06-2.07-.15-2.6-.91-2.23-2.96.39-1.67.99-3.29,1.77-4.81.15-.33.61-.71.27-1.05-.39-.38-.83-.84-1.53-.62-3.75,1.15-7.62.81-11.45.91-1.17.03-1.37-.5-1.34-1.41.01-.29.05-.58.12-.87.89-3.67,2.5-7.12,4.74-10.15.45-.57.67-1.29.61-2.01-.35-5.67-.37-11.35-.05-17.02.39-7.86,1.4-15.68,3.01-23.39,3.35-16.23,9.29-31.81,17.58-46.16.46-.79.29-1.04-.44-1.44-6.94-3.71-13.56-8-19.78-12.82-4.84-3.84-9.31-8.06-12.71-13.28-1.97-3.02-3.55-6.23-4-9.86-.45-3.6-.72-7.22-.8-10.84-.14-6.01.21-12.02,1.06-17.96.75-5.18,2.12-10.22,3.32-15.3,4.14-17.77,11.01-34.79,20.36-50.46.23-.33.37-.71.41-1.11.83-12.6,3.56-25,8.11-36.78,1.61-4.03,3.56-7.87,6.75-10.93.98-.94,2.03-1.86,3.4-2.14,5.58-1.15,11.34-1.03,16.87.34,2.64.65,5.07,1.86,7.63,2.68,7.29,2.31,14.23,5.58,20.66,9.72.51.36,1.13.51,1.75.41,1.12-.16,2.25-.31,3.37-.46,9.01-1.2,18.1-1.64,27.18-1.33.79.03.97-.12.97-.9,0-3.04.39-6.07,1.15-9.01,2.09-8.16,7-14.42,13.52-19.41,13.51-10.35,28.84-15.67,45.88-15.99.51-.01,1.01-.11,1.49-.3,10.86-4.15,22.41-6.2,34.04-6.04,12.23.25,24.45-1.11,36.33-4.05,2.78-.7,5.68-1.14,8.2-2.63,6.06-3.49,10.67-9.03,13-15.63.42-1.17.82-2.35,1.34-3.47.61-1.33,1.26-1.56,2.66-1.16,1.4.44,2.69,1.19,3.76,2.19,3.69,3.26,6.47,7.43,8.06,12.1.67,2.08,1.16,4.22,1.46,6.39.13.75.43.9,1.11.54.67-.37,1.38-.68,2.1-.92,1.54-.51,2.29-.18,2.77,1.37.65,1.84.77,3.82.35,5.72-.22.57-.31,1.19-.26,1.8,2.64-1.37,5.36-2.55,8.16-3.55,6-2.3,12.41-3.3,18.82-2.94,1.79.06,3.58.29,5.32.69,1.69.44,2.17,1.47,1.46,3.07-.51,1.06-1.15,2.05-1.9,2.94-1.74,2.08-3.17,4.39-4.26,6.88-.79,1.85-1.36,3.79-1.7,5.78,2.04-1.11,4.09-1.32,6.21-1.27.88.03,1.09.45,1.02,1.13-.11.98-.27,1.95-.5,2.91-1.24,5.1-1.52,10.38-.83,15.58.61,3.9,1.66,7.71,3.13,11.37,5.07,13.44,11.43,26.35,19,38.55,7.71,12.39,14.2,25.35,18.31,39.4,3.57,12.2,5.06,24.58,2.98,37.21-2.19,13.28-7.51,25.09-16.92,34.86-5.78,6-12.41,10.8-20.41,13.47-2.03.68-4.12,1.15-6.29,1.64,2.52,2.96,4.86,6.06,7.01,9.3,4.87,7.39,8.89,15.22,11.36,23.73,1.99,7.16,3.1,14.54,3.31,21.97.2,5.49-.03,10.99-.69,16.45-.49,4.18-1.38,8.29-2.25,12.4-1.53,7.2-3.46,14.26-6.83,20.85-3.48,6.83-8.31,12.19-15.86,14.59-.54.12-1.04.37-1.46.72-1.43,1.26-3,2.35-4.7,3.22-2.78,1.54-5.71,2.63-8.94,2.61-1.66-.01-2.06-.38-2.22-2.05-.05-.52-.17-.62-.69-.61-1.8.06-3.59.07-5.39.05-.51,0-1.01.13-1.44.38-2.58,1.38-5.2,2.68-8.11,3.23-2.76.53-3.98-.42-3.9-3.26.03-1.14-.38-1.58-1.39-1.63-.82-.03-1.56-.74-2.42-.26-2.03,1.12-4.28,1.66-6.46,2.37-2.22.69-4.59.74-6.83.13-.82-.13-1.44-.8-1.52-1.62-.28-2-.07-4.05.62-5.95.56-1.7.27-2.68-1.2-3.64-.75-.49-.88-.42-1.28.29-3.48,6.14-7.96,11.21-14.95,13.45-.48.17-.84.56-.98,1.05-1.62,3.66-4.39,6.37-7.51,8.73-1.66,1.25-2.73.94-4-.74-1.05-1.41-1.91-2.95-2.54-4.59-.43-1.08-.97-1.45-2.14-1.41-.85.03-1.31.2-1.66.97-.4.83-.96,1.57-1.65,2.18-2.22,2.19-4.99,3.73-8.03,4.44h-.88Z"/>
      <path class="cls-13" d="m194.84,262.36c1.6-3.13,2.91-6.42,5.11-9.22.41-.31.81-.62,1.23-.92,2.92-1.98,5.5-4.41,7.67-7.2,1.14-1.53,2.24-3.09,2.76-4.96.14-.51.3-1.12-.26-1.51-.51-.35-.99-.02-1.42.24-.51.29-.99.63-1.43,1.01-.87.78-1.67,1.65-2.54,2.43-7.06,6.3-15.21,11.27-24.05,14.66-5.58,2.16-11.4,3.34-17.24,4.57-13.43,2.88-27.09,4.49-40.82,4.82-6.23.13-12.45-.08-18.67-.56-7.11-.55-14.18-1.62-21.13-3.2-22.33-5.03-42.38-14.96-60.75-28.44-4.89-3.59-9.32-7.7-12.84-12.71-1.99-2.84-3.68-5.86-4.18-9.33-.86-5.8-1.2-11.66-1-17.52.17-4.57.6-9.13,1.31-13.65.93-5.97,2.61-11.76,4.1-17.6,4.06-15.81,10.38-30.95,18.77-44.95,2.51-4.21,5.38-8.2,7.56-12.61.5-.94.87-1.94,1.1-2.97.1-.32.02-.68-.22-.92-.31-.22-.72-.22-1.03,0l-.67.37c-.34-.34-.54-.79-.56-1.27-.16-.86-.28-1.73-.36-2.6-.33-3.16-.61-6.32-.02-9.49,1.33-3.91,3.03-7.68,5.09-11.27.88-1.61,2-3.08,3.32-4.35.62-.57,1.25-1.14,2.15-1.24,3.83-.44,7.7-.33,11.49.35,2.75.49,5.31,1.59,8,2.27,5.86,1.45,11.51,3.62,16.84,6.46.32.17.76.24.88.69-2.3.49-4.56.91-6.79,1.47-3.44.86-6.9,1.67-10.12,3.22-.47.23-1.01.42-1.09,1.17.82-.08,1.58-.16,2.34-.24,3.13-.31,6.31-.4,9.39-.98,10.47-2,21.07-3.19,31.72-3.58,8.68-.33,17.38-.07,26.03.76,9.14.92,18.19,2.57,27.06,4.93,2.46.65,4.88,1.41,7.52,2.17-.85.82-1.54,1.48-2.21,2.15-.79.76-1.49,1.62-2.08,2.55-.26.43-.57.96-.16,1.42.35.41.87.22,1.34.08,1.53-.52,2.95-1.32,4.19-2.35,5.54-4.25,11.38-8.01,17.8-10.79,4.58-1.99,9.05-4.32,14.2-4.67,2.66-.18,5.11-.24,6.86,2.28,1.41,1.91,2.58,3.99,3.5,6.18.25.8.41,1.63.48,2.47.1,4.14.52,8.26.48,12.4-.05,5.97,0,11.95-.02,17.92,0,2.01-.16,4.03-.28,6.03-.24,3.73-.47,7.45-.81,11.17-.37,3.97-.65,7.95-1.02,11.93-.44,3.82-.53,7.67-.26,11.5.47,4.93,1.62,9.78,3.41,14.4,1.62,4.17,4.46,7.74,8.16,10.25.26.2.55.37.84.52,2.86,1.44,6.35.29,7.8-2.57.38-.69.48-1.56,1.24-2.02.74.42,1.18,0,1.49-.6.42-.9.65-1.87.71-2.86.43-5.14-.25-10.24-.57-15.35-.12-2.01-.34-4.02-.52-6.03,7.36,10.03,17.14,17.41,26.76,25.3-2.85.16-5.41.29-7.96.47-3.48.19-6.87,1.12-9.97,2.72-1.4.66-2.23,2.14-2.06,3.67.19,2.59.83,5.14,1.9,7.51,3.96,9.57,9.15,18.47,15.02,26.97,1.48,2.28,3.32,4.31,5.45,6,1.1.83,2.28,1.5,3.74,1.28,2.03-.31,4.04-.69,6.03-1.18,5.84-1.43,11.13-4.19,16.49-6.78,2.31-1.04,4.43-2.46,6.26-4.21,1.05-.95,1.5-2.4,1.16-3.78-.43-1.99-1.1-3.92-2-5.75.32.17.62.38.9.61,8.06,6.71,15.74,13.85,23.03,21.38,5.99,6.18,11.48,12.72,15.91,20.12,3.83,6.39,7.1,13.04,9.23,20.18,1.58,5.49,2.58,11.13,2.98,16.83.44,4.71.45,9.45.04,14.16-.23.46-.27.98-.49,1.45-1.78,3.75-4.12,7.21-6.96,10.25-5.46,5.96-12.49,10.26-20.29,12.42-6.95,1.98-14.02,3.17-21.26,3-2.34-.05-4.68-.18-7.02-.36-4.21-.35-8.36-1.2-12.36-2.54-.48-.07-.91-.31-1.23-.67.55-4.17,1.15-8.33,1.47-12.53.36-4.86.73-9.7.62-14.58-.23-9.37-1.75-18.67-4.5-27.63-.16-.48-.09-1.01.2-1.42,1.31-2.2,2.73-4.33,4.22-6.42,2-2.81,4.42-5.29,6.3-8.18.54-.83,1.11-1.66,1.23-2.67.09-.78-.24-1.12-1.04-.81-.88.38-1.68.9-2.37,1.56-3.64,3.25-6.92,6.88-9.78,10.83-.25.33-.39.77-.84.94-.11-.26-.2-.5-.3-.74-2.42-5.97-5.01-11.86-8.93-17.04-.71-1.03-1.6-1.92-2.63-2.63-.32-.27-.77-.32-1.14-.14-.45.26-.33.72-.26,1.09.12.57.27,1.13.47,1.68.87,2.6,2.31,4.95,3.43,7.45,3.23,7.23,5.96,14.61,7.67,22.34,1.14,4.77,1.84,9.63,2.1,14.53.13.76.1,1.53-.07,2.28-.95,6.86-2.55,13.62-4.79,20.18-2.11,6.25-4.77,12.31-7.95,18.09-3.45,6.24-7.15,12.28-12.45,17.19-3.49,3.25-7.37,6.04-11.56,8.32-.41.22-.82.52-1.34.26-.2-.3-.4-.6-.61-.9-2.35-3.36-7.44-4.96-10.62-.34-.83,1.16-1.48,2.43-1.94,3.78-.08.26-.04.63-.47.57-.38-.05-.38-.38-.4-.67-.28-3.38-1.92-6.11-4.28-8.41-2.11-2.07-4.63-2.07-6.89-.15-.19.16-.38.34-.6.54-.18-.26-.35-.48-.5-.72-5.67-8.81-9.79-18.52-12.16-28.73-1.51-6.64-2.49-13.38-2.92-20.17-.34-5.3-.3-10.62.11-15.91.44-5.81,1.54-11.52,2.69-17.22.4-1.71.51-3.48.34-5.23-.14-1.08-.58-1.3-1.52-.82-.27-.28-.29-.71-.06-1.01Z"/>
      <path class="cls-9" d="m339.32,188.19c-2.53,1.76-5.18,3.33-7.92,4.72-6.02,2.9-12.4,4.97-18.97,6.14-6.7,1.25-13.52,1.78-20.33,1.57-.51.02-1.02-.08-1.5-.28-.24-.16-.5-.3-.72-.49-9.6-7.82-19.22-15.63-28.84-23.43-9.76-7.89-18.58-16.88-26.29-26.79-.44-.57-.47-.8.17-1.23,3.14-2.11,6.08-4.49,8.78-7.13,4.03-3.93,7.82-8.1,10.45-13.1,4.46-8.46,7.83-17.44,10.05-26.74,2.23-9.35,4.21-18.75,6.88-27.99,2.02-6.96,4.07-13.89,7.94-20.13,3.33-5.49,7.38-10.51,12.04-14.93,4.92-4.58,10.87-7.52,17.21-9.68,5.07-1.72,10.43-2.48,15.78-2.25,2.27.09,2.64.89,1.44,2.84-.04.06-.07.13-.11.19-4.25,5.96-5.77,12.74-5.84,19.91-.08,8.87,1.72,17.47,4.42,25.86,4.17,12.83,9.08,25.41,14.72,37.66,5.05,10.96,7.93,22.79,8.5,34.85.5,9.75-.55,19.51-3.11,28.93-.97,3.55-1.92,7.12-3.65,10.42-.3.42-.67.78-1.09,1.08Z"/>
      <path class="cls-9" d="m231.59,140.55c-1.4-8.88-3.09-17.71-5.26-26.45-2.22-8.98-4.66-17.89-8.35-26.41-1.66-3.84-3.5-7.59-6.41-10.68-.86-.91-1.75-1.84-2.93-2.26-.6-.21-.4-1.03-1.21-1.04-2.97-.04-5.92-.06-8.86.57-2.99.65-5.71,1.97-8.51,3.15-5.7,2.33-11.08,5.37-16,9.06-.48.4-1.14.5-1.71.27-8.17-2.54-16.51-4.48-24.96-5.78-.55-.08-.75-.26-.63-.85.24-1.14.34-2.32.58-3.46,2.09-10,6.89-18.46,14.6-25.19,5.36-4.68,11.42-8.3,17.84-11.34,10.77-5.12,22.47-8,34.38-8.47,4.03-.17,8.06.02,12.09-.13,8.56-.32,17.07-1.46,25.42-3.4,4.16-.97,8.37-1.9,12.28-3.62,5.86-2.58,10.21-6.9,13.14-12.61.75-1.46,1.33-3.01,2.11-4.46.74-1.36,1.5-1.44,2.59-.3.82.89,1.59,1.82,2.3,2.8,3.32,4.39,4.94,9.39,5.49,14.82.56,5.6-1.11,10.36-4.96,14.44-5.43,5.68-9.88,12.22-13.16,19.36-4.63,10.19-7.75,20.89-10.28,31.75-2.28,9.82-5.23,19.4-9.41,28.59-2.94,6.46-6.25,12.68-11.26,17.83-2.56,2.72-5.37,5.19-8.4,7.37-.18-1.27-.33-2.42-.51-3.57Z"/>
      <path class="cls-7" d="m193.33,266.49c-3.14,9.1-4.61,18.5-4.97,28.09-.36,9.6.78,19.08,2.79,28.45.19.89.07,1.24-.88,1.43-5.67,1.16-11.41,1.89-17.19,2.17-9.3.34-18.61-.45-27.72-2.36-13.14-2.62-25.85-7.09-37.73-13.29-5.72-3-11.07-6.6-16.49-10.08-1.39-.95-2.89-1.73-4.47-2.31-.47-.16-1.05-.31-1.43.16-.43.53.03.99.31,1.37.88,1.13,1.89,2.15,3.03,3.02,3.31,2.66,6.8,5.06,10.33,7.42.56.37.84.68.72,1.46-.53,3.32-1.34,6.59-2.41,9.78-1.39,4.11-3.57,7.83-5.52,11.68-3.43,6.73-7.91,12.88-13.26,18.21-4.83,4.84-10.63,6.78-17.29,6.67-.36,0-.87.15-.98-.44-.45-2.46-1.95-4.38-3.28-6.38.28-.34.64-.6,1.06-.75,3.94-2.08,7.31-5.09,9.82-8.78,1.95-2.88,3.63-5.94,5.03-9.13,3.64-8.51,5.74-17.61,6.19-26.86.32-5.82-.05-11.67-1.09-17.4-.7-3.86-1.5-7.7-2.91-11.38-1.97-5.28-5.09-10.05-9.15-13.96-.45-.43-1.13-.76-1.04-1.56.28.07.57.11.84.21,3.45,1.2,6.93,2.29,10.45,3.26,12.84,3.55,26.08,5.47,39.41,5.72,4.25.08,8.5.05,12.75-.11,3.95-.15,7.9-.39,11.83-.77,6.52-.62,12.99-1.55,19.43-2.78,9.03-1.64,17.9-4.06,26.5-7.26,4.85-1.86,9.52-4.15,13.95-6.86-.05.25-.14.49-.25.71-1.77,2.61-3.03,5.49-4.45,8.28-.25.36-.37.8-.33,1.24-.67.96-1.2,2.01-1.57,3.12Z"/>
      <path class="cls-11" d="m54.55,348.76c-2.03-2.09-3.63-2.08-5.76-.08-1.58,1.58-3,3.31-4.23,5.18-.28.4-.39,1.23-1.13.9-.75-.33-1.81-.11-2.1-1.39-.5-1.95-1.2-3.84-2.1-5.64-.75-1.6-1.61-3.18-3.09-4.21-2.13-1.47-3.58-1.6-5.25.31-.83.98-1.59,2.01-2.27,3.09-.15.22-.21.65-.57.55-.34-.08-.3-.45-.29-.75.2-4.4-2.3-7.55-4.93-10.64-.21-.26-.49-.45-.81-.55-.71-.18-.77-.66-.78-1.25-.09-4.95.01-9.89.35-14.83.57-8.36,1.84-16.65,3.8-24.8,3.54-14.73,9.27-28.85,16.99-41.88.39-.66.65-.83,1.41-.42,3.37,1.83,6.86,3.45,10.36,5.01s7.12,2.83,10.65,4.32c.55.73,1.18,1.4,1.88,1.99,4.12,4.1,7.21,9.11,9.02,14.62,2.11,6.41,3.32,13.09,3.58,19.84.31,5.66-.03,11.34-1.02,16.92-1.45,7.91-3.62,15.53-7.58,22.62-2.09,3.75-4.37,7.26-7.69,10.01-1.86,1.53-3.78,3-6.1,3.82-.77-.93-1.49-1.91-2.33-2.77Z"/>
      <path class="cls-15" d="m349.97,177.81c2.03-2.46,3.84-5.09,5.42-7.86,3.63-6.48,5.3-13.47,5.59-20.82.12-5.1-.39-10.19-1.52-15.16-.11-.55-.4-1.14.07-1.68.08.07.15.16.21.25,4.72,10.57,8.28,21.47,9.51,33.06.87,7.32.55,14.74-.92,21.96-3.2,14.88-10.4,27.3-22.52,36.76-5.31,4.14-11.03,7.29-17.66,8.69-.7.24-1.47.02-1.94-.54-3.01-3.26-6.14-6.41-9.32-9.5-1.01-.98-2.05-1.94-3.13-2.95.55-.22.95-.38,1.36-.54,15.72-6.17,26.42-17.21,32.09-33.12.97-2.72,1.48-5.57,2.41-8.3.14-.05.26-.13.35-.25Z"/>
      <path class="cls-7" d="m346.26,306.38c-.6,5.01-1.53,9.98-2.79,14.87-1.69,6.98-3.66,13.87-7.24,20.17-2.28,4.02-5.1,7.52-9.49,9.44-.62.27-.94.28-1.42-.34-1.68-2.24-3.95-3.96-6.56-4.97-3.45-1.29-5.31-.86-7.22,2.9-.74,1.55-1.26,3.2-1.57,4.89-.52,2.42-.53,2.42-3.01,2.46-.05,0-.11-.07-.17-.12.13-.61.12-1.23-.02-1.84-.65-3.02-2.54-5.23-4.94-6.89-3.84-2.67-7.11-1.98-9.36,2.07-.89,1.72-1.56,3.55-2,5.44-.09.32.05.93-.66.69-.5-.17-1.16.06-1.21-.9-.24-4.52-2.92-7.66-6.24-10.26-2.36-1.85-4.89-1.34-6.75,1.02-.53.65-.99,1.36-1.36,2.12-.35.75-.68.7-1.16.19-.28-.29-.55-.59-.85-.86-.68-.61-.72-1.23-.41-2.12.91-2.58,1.68-5.21,2.49-7.83,1.1-3.52,1.75-7.15,2.61-10.73.07,0,.15.01.22.03,4.69,1.74,9.62,2.75,14.62,2.99,3.45.15,6.91.49,10.4.14,2.79-.28,5.59-.44,8.35-.97,6.4-1.23,12.67-2.84,18.36-6.21,5.24-3.09,9.78-7.23,13.33-12.16,1.69-2.32,2.91-4.89,4.32-7.37.03,1.39-.07,2.78-.29,4.15Z"/>
      <path class="cls-7" d="m212.92,88.31c2,4.63,3.69,9.38,5.06,14.23,4.94,16.6,8.57,33.56,10.87,50.73.93,7.11,1.6,14.25,2.17,21.39.19,2.35.29,4.75,1.51,6.89-.35.77-.66,1.54-1.04,2.3-.1.19-.21.38-.33.56-1.82,2.77-5.53,3.54-8.3,1.73-4.29-2.8-7.5-6.98-9.11-11.85-1.74-4.96-2.78-10.13-3.11-15.37-.12-2.21.18-4.36.12-6.55.02-.95.1-1.89.22-2.83.25-3.05.58-6.09.83-9.13.19-2.21.24-4.44.48-6.65.45-4.21.71-8.43.8-12.65.16-7.44.04-14.88.04-22.32,0-.33,0-.66-.03-.99-.2-3.42-.4-6.84-.6-10.26.14.25.29.5.41.76Z"/>
      <path class="cls-2" d="m247.63,188.37c.82-.32,1.65-.6,2.5-.82,4.84-1.34,9.87-.9,14.79-1.54.37,0,.72.15.96.42,5.92,4.64,11.87,9.26,17.78,13.92,1.26.99,2.86,1.68,3.65,3.09,1.69,2.96,2.95,6.14,3.73,9.46.61,2.67.42,3.29-1.96,4.71-6.26,3.74-12.77,6.98-19.93,8.69-4.23,1.01-3.42,1.2-6.58-2.02-.39-.44-.74-.9-1.06-1.4-5.43-7.73-9.74-16.08-13.51-24.72-1.01-2.31-1.87-4.68-2.05-6.81,0-2.09.16-2.37,1.68-2.98Z"/>
      <path class="cls-9" d="m349.95,176.47c2.69-11.32,3.41-23.01,2.13-34.58-.86-8.01-2.69-15.88-5.44-23.45-2.68-7.32-6.07-14.34-9.25-21.46-5.41-12.11-10.11-24.46-12.54-37.56-.75-4.3-1.01-8.67-.77-13.03.03-.75.5-.98,1.05-1.23.66-.32,1.42-.4,2.13-.21.09.02.15.32.14.49.02.95-.01,1.9-.1,2.85-.26,1.73-.84,3.43-.73,5.2.34,6.95,1.65,13.82,3.89,20.41,3.33,9.51,7.69,18.58,12.31,27.52,3.56,6.9,7.9,13.37,11.55,20.21,1.93,3.45,3.67,7,5.22,10.64.01.36.05.73.11,1.08.86,3.69,1.4,7.45,1.61,11.23.26,4.74-.16,9.5-1.23,14.13-1.68,7.28-5.12,13.63-9.87,19.33-.13.16-.36.67-.53,0,.11-.53.21-1.06.32-1.59Z"/>
      <path class="cls-9" d="m165.91,42.2c-1.96,1.24-3.82,2.63-5.57,4.16-2.41,2.14-4.88,4.21-6.98,6.67-6.4,7.38-10.35,16.57-11.29,26.29-.09.84-.46.84-1.06.76-4.28-.58-8.59-.94-12.9-1.08-.89-.02-1.11-.3-1.11-1.14.03-7.92,2.64-14.89,8.02-20.68,4.4-4.74,9.66-8.4,15.33-11.48,6.67-3.64,13.93-6.04,21.46-7.08-1.96,1.19-3.95,2.34-5.89,3.58Z"/>
      <path class="cls-7" d="m273.18,296.09c.21,4.21-.12,8.42-.33,12.63-.33,6.88-.79,13.74-2.03,20.53-1.13,6.21-2.76,12.27-5.76,17.88-2.52,4.71-5.81,8.7-10.7,11.16-.59.3-.85.3-1.27-.32-1.27-1.95-3.14-3.43-5.32-4.23-1.27-.5-2.66-.59-3.99-.27-3.58.93-5.95,4.21-6.18,8.53-.01.28.18.69-.36.77-.51.07-.64-.24-.7-.63-.28-1.59-.91-3.1-1.86-4.4.95-.22,1.71-.81,2.54-1.27,6.14-3.44,11.5-8.12,15.75-13.73,3.26-4.24,5.82-8.94,8.28-13.67,2.8-5.46,5.14-11.15,7.01-17,2.13-6.74,3.66-13.66,4.58-20.66.37,1.54.27,3.13.35,4.69Z"/>
      <path class="cls-15" d="m340.01,188.12c-2.54,5.41-5.84,10.43-9.8,14.91-5.2,5.93-11.32,10.57-18.73,13.43-.71.37-1.59.2-2.11-.4-3.63-3.36-7.44-6.51-11.28-9.61-2.51-2.02-5.1-3.93-7.48-6.1.29,0,.59-.03.88-.03,5.12.07,10.24.03,15.33-.67,4.55-.61,9.05-1.54,13.47-2.78,3.76-1.08,7.42-2.48,10.94-4.2,3.19-1.63,6.26-3.49,9.19-5.55-.13.34-.24.68-.4,1.01Z"/>
      <path class="cls-11" d="m182.42,331.52c.67.62,1.24,1.35,1.68,2.15,1.23,2.22,2.07,4.52,1.35,7.11-.14.51-.19,1.13-.96,1.1-1.4-.55-2.9-.79-4.4-.7-.17.02-.5-.01-.51-.08-.28-1.12-.86-.29-1.19-.13-.71.4-1.28,1-1.63,1.73-.82,1.6-1.31,3.34-1.47,5.13-.06.43.02.88-.64.93-.61.05-.87-.16-1.12-.73-1.32-3.19-3.83-5.74-6.99-7.12-2.78-1.2-4.51-.77-6,1.85-.38.66-.71,1.36-1.03,2.05-.28.61-.5,1.25-.8,2.02-1.05-3.34-1.39-4.3-3.16-5.98-1.41-1.37-2.98-2.57-4.68-3.56-2.19-1.23-3.65-1.04-5.38.78-.5.53-.75.41-1.21,0-2.1-1.82-4.09-3.78-5.95-5.86-1.66-1.83-3.18-3.78-4.57-5.82,3.86,1.06,7.57,1.81,11.28,2.61,7.48,1.63,15.1,2.51,22.75,2.63,4.4.07,8.78-.25,13.16-.61.61-.21,1.05.09,1.47.48Z"/>
      <path class="cls-7" d="m191.74,329.24c.79-.18.99.05,1.19.73,1.1,3.74,2.46,7.41,4.08,10.96.27.48.16,1.09-.27,1.43-1.63,1.76-3.69,2.82-5.88,3.71-.51.3-1.17.16-1.51-.33-1.38-1.56-3.02-2.87-4.85-3.86.92-.64.84-1.67.88-2.57.14-2.81-1.04-5.16-2.84-7.23-.42-.49-.83-1.05-1.6-1.04,3.62-.49,7.23-.99,10.79-1.8Z"/>
      <path class="cls-17" d="m241.1,361.57c.18-2.17,2.01-4.53,3.72-4.65,2.38-.17,5.85,2.74,5.02,5.72-.77,2.75-2.49,4.84-4.49,6.74-.77.73-1.32.61-1.99-.32-1.41-1.92-2.2-4.23-2.26-6.61,0-.29-.02-.59,0-.88Z"/>
      <path class="cls-1" d="m228.68,367.56c-.55,1.01-.85,2.2-1.88,2.89-.78.32-1.28-.06-1.58-.72-.36-.75-.67-1.53-.91-2.33-.93-3.26-.55-6.28,1.73-8.92.88-1.13,2.43-1.5,3.73-.88,1.45.61,2.26,1.78,2.85,3.16-1.29,2.28-2.68,4.5-3.94,6.8Z"/>
      <path class="cls-1" d="m215.69,358.5c-2.15,2.21-4.55,4.21-6.06,6.98-.15.25-.39.45-.66.54-1.49.11-1.93-.26-1.71-1.69.38-2.51.58-5.05,1.98-7.32.84-1.36,1.77-2.61,3.39-2.79,1.56-.17,2.47,1.03,3.26,2.22.28.29.48.64.59,1.03-.11.46-.49.71-.78,1.02Z"/>
      <path class="cls-7" d="m30.05,109.75c.25-2.7.68-5.39,1.28-8.04.91-4.4,2.22-8.7,3.91-12.87,0,4.48.04,8.95.94,13.36-2.35,2.26-4.12,4.98-6.12,7.54Z"/>
      <path class="cls-1" d="m282.42,350.73c-1.68,1.23-2.84,2.92-4.1,4.53-.88,1.12-1.48,2.43-2.44,3.49-1.57.05-2.02-.44-1.68-1.96.38-1.71.81-3.41,1.25-5.1.3-1.28.86-2.49,1.62-3.56,1.08-1.44,2.3-1.62,3.79-.6.8.63,1.5,1.38,2.09,2.22.14.5-.23.76-.53.98Z"/>
      <path class="cls-16" d="m319.52,351.96c-1.73,2.17-3.55,4.29-4.71,6.85-.17.37-.47.67-.84.83-1.11.25-1.21-.55-1.28-1.29-.06-1.28.03-2.56.25-3.83.14-1.61.65-3.16,1.49-4.53.45-.78,1.31-1.22,2.2-1.14,1.33.07,2.58.64,3.5,1.6.3.7-.27,1.08-.61,1.5Z"/>
      <path class="cls-1" d="m300.02,352.51c-1.78,2.25-3.45,4.56-4.53,7.24-.17.32-.38.62-.64.87-1.26.24-1.75.03-1.65-.95.28-2.7.4-5.44,1.58-7.99,1.44-3.11,4.27-2.67,6.02-.86.27.8-.4,1.21-.78,1.69Z"/>
      <path class="cls-14" d="m34,352.55c-1.87,1.12-3.58,2.48-5.1,4.04-.43.11-.89.08-1.3-.1.65-3.98,3.27-6.86,5.55-9.91.56-.75,1.28-.57,1.83.14.9,1.23,1.68,2.55,2.32,3.94-1.05.71-2.19,1.27-3.29,1.9Z"/>
      <path class="cls-1" d="m54.84,354.77c-3.02,1.66-5.78,3.73-8.22,6.16-.33.36-.84.49-1.31.34-.76-.42-.34-1-.17-1.5.68-1.77,1.57-3.44,2.66-4.99.72-1.14,1.59-2.19,2.58-3.1,1.24-1.1,2.01-1.02,2.95.34.58.84,1.09,1.71,1.64,2.57-.03.07-.07.13-.13.17Z"/>
      <path class="cls-1" d="m151.99,343.16c-.97.71-1.9,1.48-2.76,2.32-1.41,1.31-2.29,3.01-3.44,4.51-1.36.24-1.74-.06-1.49-1.38.3-1.64.69-3.27,1.12-4.89.27-1.14.78-2.21,1.49-3.13.88-1.08,1.65-1.28,2.87-.65,1.1.57,2.07,1.36,2.85,2.32.13.54-.33.68-.64.9Z"/>
      <path class="cls-1" d="m167.8,346.85c-1.37,1.16-2.6,2.48-3.64,3.95-.66.88-1.06,1.94-1.86,2.71-.91.32-1.41.09-1.35-.98.05-1.02.02-2.05.08-3.07.09-1.52.08-3.07,1-4.42,1.1-1.6,2.63-1.94,4.24-.85.74.53,1.4,1.16,1.98,1.86.12.41-.19.6-.43.8Z"/>
      <path class="cls-6" d="m184.31,346.67c-1.72,1.99-3.13,4.24-4.18,6.66-.1.24-.26.44-.45.61-1.38.53-1.76.31-1.75-1.11-.01-2.51.43-5.01,1.29-7.37.55-1.47,1.34-1.88,2.87-1.71,1.09.14,2.1.65,2.86,1.44.3.71-.32,1.07-.65,1.48Z"/>
      <path class="cls-3" d="m303.04,353.97c.42,1.15.29,2.16-.67,2.96-2.16,1.85-4.75,3.12-7.53,3.7.9-2.34,2.12-4.55,3.63-6.56.78-1.08,1.85-1.96,2.32-3.25,1.02.83,1.8,1.92,2.25,3.15Z"/>
      <path class="cls-3" d="m56.41,357.95c.2,1.02-.17,1.62-1.17,1.98-2.04.67-4.15,1.1-6.28,1.31-1.21.15-2.43.45-3.65.04.48,0,.93-.23,1.22-.61,1.07-1.14,2.26-2.17,3.53-3.08,1.54-1.14,3.04-2.37,4.91-2.98.78.96,1.28,2.12,1.44,3.35Z"/>
      <path class="cls-3" d="m284.22,352.23c.57,2.24.17,3.45-1.54,4.37-2.11,1.15-4.42,1.88-6.8,2.15,1.46-2.97,3.48-5.63,5.93-7.84.44-.32.82-.71,1.14-1.16.64.69,1.08,1.55,1.27,2.48Z"/>
      <path class="cls-3" d="m38.33,353.7c.22,1.51-.01,1.8-1.5,2.28-2.59.84-5.27.67-7.93.6.21-.34.43-.67.68-.98,1.47-1.67,3.38-2.75,5.27-3.83.78-.44,1.46-1.13,2.45-1.13.6.91.96,1.96,1.04,3.05Z"/>
      <path class="cls-3" d="m322.24,352.86c.58,1.34.53,1.87-.63,2.76-2.31,1.77-4.71,3.4-7.63,4.03.16-.19.31-.4.44-.62.96-2,2.15-3.88,3.57-5.59.76-.96,1.73-1.77,2.16-2.97.95.54,1.7,1.39,2.11,2.4Z"/>
      <path class="cls-3" d="m154.22,344.57c.45,1.21.27,2.08-.81,2.74-2.32,1.43-4.92,2.34-7.62,2.68.53-1.59,1.61-2.83,2.66-4.08,1.2-1.44,2.79-2.43,4.18-3.64.72.62,1.26,1.41,1.59,2.3Z"/>
      <path class="cls-3" d="m214.27,364.41c-1.7.73-3.48,1.26-5.3,1.61.16-.2.31-.4.44-.62,1.73-3.2,4.5-5.48,7.07-7.92,1.79,3.74.95,5.65-2.21,6.93Z"/>
      <path class="cls-3" d="m17.33,346.79c1.64-2.09,4-3.28,6.1-4.79.94,1.21,1.34,2.76,1.11,4.28,0,.94-.68,1.74-1.6,1.91-2.15.57-4.38.75-6.59.51-.27-.94.54-1.35.98-1.91Z"/>
      <path class="cls-16" d="m15.36,347.71c.58-2.58,2.11-4.63,3.66-6.66s2.86-1.88,4.15.36c.1.19.19.39.26.59,0,.48-.38.67-.72.89-.95.55-1.86,1.15-2.74,1.8-1.42,1.13-2.83,2.3-3.62,4.01-.99.33-1.21,0-.99-.99Z"/>
      <path class="cls-3" d="m185.15,351c-1.6,1.38-3.52,2.19-5.46,2.94.63-1.89,1.55-3.67,2.74-5.27.83-1.17,1.91-2.16,2.54-3.48,2.52,1.96,2.58,3.75.18,5.81Z"/>
      <path class="cls-3" d="m169.47,348.18c.24,1.09.36,2.23-.8,2.94-1.94,1.22-4.11,2.03-6.38,2.38.41-1.01.96-1.96,1.63-2.83,1.18-1.78,2.75-3.2,4.31-4.63.64.55,1.08,1.3,1.23,2.14Z"/>
      <path class="cls-3" d="m232.93,365.35c-1.29,2.6-3.5,4.1-6.13,5.11,1.15-2.07,2.25-4.18,3.47-6.21.72-1.2,1.2-2.58,2.35-3.49.79,1.48,1.09,3.02.31,4.59Z"/>
      <path class="cls-4" d="m293.31,29.89c.15-1.34.22-2.7.2-4.05.03-.96.78-1.32,1.54-1.39.92-.08.84.73.86,1.33.05,1.22-.44,2.37-.45,3.58-.02,1.92-1.01,3.09-2.83,3.79.26-1.13.5-2.19.67-3.26Z"/>
      <path class="cls-8" d="m142.08,217c-2.74-.23-5.42-.9-7.95-1.98-1.67-.71-2.93-2.14-3.42-3.89-1.74-5.86-1.69-11.71-.62-17.69,2.18-12.24,7.02-23.86,14.18-34.03,3.61-5.17,8.01-9.54,13.96-12.04,3.07-1.29,6.25-2.11,9.62-1.51,4.36.78,7.51,3.48,10.29,6.68,3.38,3.9,5.83,8.38,8.14,12.97,6.01,11.67,8.25,24.91,6.41,37.91-.34,2.49-1.14,4.56-3.29,6.02-2.02,1.33-4.19,2.4-6.48,3.18-9.87,3.5-20.1,4.81-30.52,4.89-3.45.06-6.89-.11-10.32-.52Z"/>
      <path class="cls-8" d="m92.21,243.58c-6.51-.21-13.02-.55-19.51-1.23-3.82-.4-7.67-.65-11.43-1.48-9.64-2.14-18.76-5.7-27.71-9.83-6.75-3.12-13.18-6.66-18.88-11.47-1.68-1.43-2.89-3.33-3.47-5.46-.73-2.7-.84-5.53-.31-8.27.09-.54.2-1.28.93-1.34.74-.05.87.67,1.09,1.2.35.97.53,1.99.53,3.02.1,3.15,1.52,6.12,3.93,8.16,1.45,1.18,2.99,2.24,4.61,3.17,5.4,3.4,11.18,6.04,17,8.63,10.59,4.72,21.3,8.84,33.07,9.61,6.83.45,13.66.99,20.51,1.17,6.31.16,12.61-.08,18.9-.42,3.21-.18,6.43-.48,9.63-.81,3.31-.33,6.62-.78,9.93-1.14,3.82-.41,7.65-.73,11.47-1.17,6.32-.73,12.64-1.53,18.92-2.58,5.45-.85,10.85-2.05,16.15-3.59,5.46-1.65,9.58-4.74,11.49-10.34.36-1,.82-1.96,1.37-2.86.39-.69.72-1.78,1.78-1.44,1.02.33.79,1.43.83,2.29,0,.04,0,.07,0,.11-.18,1.75-.53,3.47-1.03,5.15-1.42,4.7-3.95,8.45-8.87,10.14-1.79.62-3.55,1.34-5.38,1.86-11.31,3.23-22.93,4.64-34.56,5.91-5.68.62-11.38,1.01-17.06,1.61-9.14.96-18.33,1.43-27.53,1.42-2.13,0-4.26.06-6.38-.02Z"/>
      <path class="cls-8" d="m10.69,173.22c1.37-9.4,5.12-17.88,10.1-25.86,1.7-2.72,3.75-5.18,6.59-6.82,4.29-2.48,8.03-1.5,10.57,2.74,1.48,2.62,2.51,5.46,3.04,8.42,1.9,9.05,2.31,18.22,2.21,27.44-.05,4.4-.72,8.76-1.04,13.14-.3,3.29-1.29,6.47-2.91,9.34-1.3,2.44-3.27,3.05-5.77,2.78-1.93-.21-3.83-.63-5.66-1.24-4.49-1.46-8.93-3.07-12.76-5.95-1.91-1.44-3.5-3.15-3.96-5.61-.66-3.42-.97-6.9-.93-10.38-.05-2.68.12-5.35.53-8Z"/>
      <path class="cls-8" d="m226.63,281.43c.29-3.16.67-6.34,1.89-9.32.7-1.71,1.66-2.19,3.46-1.89.98.15,1.93.44,2.82.86,7.12,3.46,13.73,7.89,19.64,13.15,2.11,1.72,3.84,3.86,5.08,6.28.52,1.1.91,2.24.64,3.49-1.1,5.27-3.13,10.31-5.99,14.87-3.09,4.86-6.95,9.15-10.32,13.81-1.47,2.15-3.24,4.09-5.26,5.74-2.64,2.05-4.72,1.68-6.51-1.13-1.26-2.11-2.15-4.41-2.63-6.82-2.34-9.88-2.99-19.95-3.3-30.59.13-2.47.19-5.48.46-8.47Z"/>
      <path class="cls-8" d="m328.06,260.69c3.7,2.85,5.65,6.9,7.72,10.89.49,1.06.91,2.15,1.25,3.27,1.34,3.88.46,7.12-2.55,9.93-2.17,2.07-4.48,4-6.91,5.77-3.76,2.66-7.38,5.54-11.55,7.58-2.88,1.4-4.25,1.12-6.43-1.18-.35-.37-.68-.77-.99-1.18-3.26-4.45-5.55-9.44-7.84-14.42-1.71-3.72-3.32-7.48-4.09-11.53-.59-3.11.12-4.69,2.91-6.13,3.74-1.86,7.8-3.01,11.95-3.42,4.35-.5,8.77-.48,13.32-.69,1.2-.36,2.17.33,3.2,1.12Z"/>
      <path class="cls-8" d="m66.09,96.02c.37-1.2.92-1.63,2.16-1.56,5.09.21,10.11,1.23,14.87,3.02,6.56,2.56,12.48,6.33,18.5,9.91,3.05,1.77,5.83,3.97,8.24,6.54,2.98,3.24,2.98,5.41.09,8.73-.07.08-.15.16-.22.24-1.86,2.05-4.1,3.64-6.31,5.26-4.53,3.33-9.39,5.89-14.92,7.14-1.71.44-3.53.15-5.03-.79-1.86-1.19-3.46-2.74-4.71-4.56-4.68-6.48-8.08-13.62-10.69-21.15-1.23-3.33-1.97-6.82-2.2-10.37-.04-.81.04-1.62.23-2.4Z"/>
      <path class="cls-8" d="m58.28,151.33c.93-2.55,1.94-5.06,3.74-7.14,1.78-2.06,3.44-2.27,5.69-.76,1.76,1.18,3.07,2.81,4.33,4.48,1.56,2.08,2.86,4.33,4.24,6.54,2.51,3.91,4.41,8.18,5.65,12.66,1.05,4.02.56,5-3.09,6.97-2.43,1.28-5,2.26-7.66,2.94-3.67.98-7.28,2.19-11.06,2.7-3.22.43-4.96-.86-5.47-4.03-.17-1.1-.24-2.21-.21-3.32,0-5.71,1.82-15.48,3.85-21.04Z"/>
      <path class="cls-8" d="m108.91,147.67c.85-4.68,2.94-8.86,5.16-12.99.25-.41.53-.79.83-1.16.55-.87,1.68-1.18,2.59-.7,3.7,1.49,6.32,4.12,8.18,7.59.66,1.13.66,2.54,0,3.67-2.39,4.35-5.12,8.46-8.96,11.7-1.08.91-1.59.97-2.73.09-1.85-1.33-3.39-3.05-4.48-5.05-.4-.76-.65-1.59-.73-2.44.04-.22.08-.47.13-.72Z"/>
      <path class="cls-8" d="m130.1,155.67c.53-1.98,1.33-3.87,2.38-5.63,2.37-4.13,5.36-7.88,8.86-11.1,1.5-1.39,3.02-2.78,4.91-3.65.44-.2.97-.4,1.35-.05.44.41.19.95-.03,1.42-.52,1.09-1.2,2.1-2,3-4.34,4.98-8.24,10.26-11.05,16.28-.42.94-1.03,1.78-1.78,2.49-.62.55-1.3.84-2.1.46-.72-.34-.74-1.02-.73-1.69.01-.51.08-1.02.2-1.52Z"/>
      <path class="cls-8" d="m49.54,153.82c-.1.3-.29.56-.56.73-.64.42-1.49.24-1.91-.4-.45-.58-.73-1.28-.8-2.02-.29-2.21-.26-4.46-.78-6.64-.75-3.16-1.54-6.31-2.25-9.48-.12-.54-.55-1.39.16-1.69.72-.31,1.15.5,1.5,1.02,3.04,4.41,4.76,9.6,4.96,14.95-.06,1.43.12,2.52-.32,3.53Z"/>
      <path class="cls-8" d="m84.5,225.63c.4.07.95-.25,1.17.24.21.47-.13.91-.4,1.31-1,1.54-2.53,2.68-4.29,3.19-1.14.33-2.11.11-2.52-.68-.54-1.04.08-1.78.78-2.38,1.26-1.17,2.94-1.77,4.66-1.68.2-.01.4-.01.61,0Z"/>
      <path class="cls-8" d="m51.42,220.96c1.97.74,3.63,2.12,4.71,3.91.42.72.88,1.55,0,2.26-.81.66-1.63.35-2.42-.16-.54-.36-1.03-.78-1.46-1.27-.95-1.11-1.9-2.31-2.05-3.87-.03-1.1.2-1.29,1.2-.88Z"/>
      <path class="cls-8" d="m31.99,294.42c.54-2.73,1.19-5.44,2.83-7.77,1.53-2.17,3.62-2.56,5.8-1.08.56.36,1.07.78,1.52,1.25,4.38,4.69,7.95,10.08,10.54,15.95,1.16,2.7,2.15,5.56,2.04,8.48-.19,5.25-2.83,9.2-7.6,11.45-2.8,1.35-5.79,2.29-8.86,2.79-3.69.58-6.04-.94-6.94-4.54-.68-3.08-.98-6.23-.89-9.38.12-5.75.43-11.49,1.54-17.15Z"/>
      <path class="cls-12" d="m144.8,213.57c-2.57-.05-5.12-.2-7.55-1.16-1.17-.46-2.12-1.14-2.38-2.5-.41-2.01-.67-4.04-.76-6.09-.17-4.29.74-8.4,1.72-12.56,2.19-9.53,5.87-18.65,10.89-27.05,2.2-3.73,4.99-7.09,8.26-9.93,2.04-1.75,3.68-1.86,5.79-.19,1.5,1.25,2.69,2.83,3.48,4.61,3.68,7.59,4.81,15.76,5.3,24.05.21,4.47.01,8.94-.59,13.37-.73,5.87-2.81,11.09-6.63,15.62-.46.61-1.17,1-1.94,1.06-4.31.35-8.61.83-12.94.76-.88,0-1.76.01-2.64,0Z"/>
      <path class="cls-1" d="m167.96,210.86c2.63-3.3,4.46-7.16,5.34-11.28,1.58-7.23,2.04-14.66,1.36-22.04-.55-5.7-1.51-11.29-3.76-16.59-1.35-3.16-2.79-6.28-5.09-8.89-.66-.75-1.37-1.44-2.07-2.17.62-.26,1.3-.32,1.95-.18,2.76.28,5.32,1.57,7.19,3.62,3.36,3.58,6.16,7.65,8.31,12.07,5.53,11.81,7.99,24.2,6.89,37.27-.23,2.74-1.44,4.41-3.88,5.39-.3.12-.6.27-.9.4-2.86,1.1-5.83,1.9-8.85,2.39-2.39.45-4.79.8-7.46,1.24.45-.57.72-.9.98-1.24Z"/>
      <path class="cls-10" d="m33.02,154.42c-2.3,6.7-2.38,13.51-.94,20.38.3,1.78.91,3.49,1.82,5.04,1.2,1.89,2.92,1.92,4.18.1.3-.43.43-1.04,1.08-1.15.16,3.66.09,7.32-.19,10.97-.08,2.6-.54,5.17-1.35,7.64-.87,2.42-2.51,3.56-5.08,3.54-1.99-.02-3.75-.87-5.56-1.55-.63-.2-1.09-.73-1.19-1.38-.93-3.87-1.54-7.82-1.81-11.79-.24-3.87-.18-7.76.2-11.62.5-4.39,1.35-8.74,2.54-13,1.18-4.59,2.81-9,5.46-12.97.59-.98,1.44-1.77,2.46-2.29.43-.2.72-.23.92.32.49,1.14.85,2.33,1.05,3.56-1.94.76-2.95,2.31-3.6,4.18Z"/>
      <path class="cls-1" d="m29.59,146.58c-2.9,3.6-4.82,7.68-6.3,12.06-3.78,11.16-4.66,22.48-2.32,34.04.29,1.45.63,2.89.98,4.47-1.52-.67-2.95-1.52-4.26-2.55-1.14-.82-1.91-2.04-2.16-3.42-1.19-6.46-1.23-13.07-.14-19.54.77-4.58,2.37-8.9,3.93-13.22,1.34-3.76,3.23-7.29,5.62-10.48,1.24-1.65,2.62-3.15,4.52-4.08,1.12-.63,2.47-.76,3.69-.34-1.37.79-2.58,1.82-3.56,3.05Z"/>
      <path class="cls-5" d="m36.84,150.72c.85,3.24,1.16,6.58,1.49,9.89.39,3.9.54,7.83.68,11.75.08,2.14.45,4.28.16,6.44-.36.55-.69,1.12-1.07,1.65-1.08,1.52-2.86,1.58-4.06.13-.75-.95-1.29-2.05-1.6-3.22-.74-2.45-1.21-4.98-1.4-7.54-.4-5.35-.08-10.61,1.79-15.7.43-1.25,1.16-2.38,2.13-3.28.41-.49,1.05-.72,1.68-.6.09.15.16.31.22.48Z"/>
      <path class="cls-2" d="m230.59,281.42c.02-1.17.24-2.33.65-3.43,0-.01,0-.03.01-.04.34-1.09,1.51-1.7,2.61-1.36,1.88.48,3.67,1.29,5.27,2.39,4.02,2.6,7.88,5.45,11.55,8.53,1.78,1.35,3.37,2.94,4.72,4.73.48.68,1.08,1.36.75,2.39-1.13,3.68-2.7,7.2-4.68,10.5-3.19,5.17-6.7,10.12-10.34,14.98-1.18,1.57-2.37,3.18-4.06,4.28-1.13.74-1.71.58-2.34-.63-.15-.29-.27-.6-.37-.91-.99-3.21-1.67-6.51-2.03-9.85-.51-3.87-.84-7.76-1.18-11.65-.43-4.88-.56-9.78-.81-14.66-.15-1.76.21-3.5.26-5.26Z"/>
      <path class="cls-2" d="m322.27,263.26c1.44-.11,2.85.42,3.87,1.44.76.63,1.45,1.34,2.05,2.13,2.14,3.01,4.21,6.04,5.23,9.68.54,1.91.06,3.29-1.28,4.62-2.03,2.02-4.31,3.74-6.48,5.59-3.22,2.84-7.07,4.88-11.24,5.94-.85.28-1.79.04-2.4-.62-.81-.85-1.52-1.78-2.12-2.79-2.22-3.75-4.18-7.65-5.9-11.66-1.21-2.5-2.13-5.14-2.74-7.85-.18-.94.01-1.62.96-2.05,1.42-.68,2.87-1.29,4.34-1.83,2.12-.73,4.34-.96,6.49-1.48,2.57-.62,5.12-1.23,7.78-1.1.48,0,.95.04,1.43,0Z"/>
      <path class="cls-2" d="m77.77,99.82c6.08,2.07,11.82,4.92,17.44,8,3.47,1.9,6.86,3.92,9.8,6.61,2.84,2.6,3.29,5.45.04,8.13-1.36,1.12-2.86,2.03-4.25,3.09-3.45,2.67-7.41,4.61-11.63,5.69-2.31.59-4.09.06-5.56-1.72-.76-.88-1.48-1.81-2.15-2.77-4.58-6.94-7.92-14.49-10.94-22.2-.55-1.24-.92-2.54-1.1-3.89-.14-1.63.21-2.01,1.83-2.15.22-.02.44,0,.66,0,2.01.12,3.98.53,5.87,1.21Z"/>
      <path class="cls-2" d="m58.43,168.6c.55-4.56,1.44-9.08,2.68-13.5.61-2.18,1.23-4.37,2.55-6.27.73-1.06,1.51-1.18,2.63-.52,1.22.81,2.27,1.86,3.1,3.08,2.64,3.51,5,7.22,7.06,11.1,1.08,1.87,1.91,3.87,2.49,5.95.3,1.21-.18,1.9-1.03,2.52-.45.32-.93.59-1.43.81-2.18.95-4.42,1.73-6.72,2.34-2.93.9-5.93,1.55-8.97,1.94-1.33.16-2.2-.43-2.36-1.66-.1-.8.04-1.61-.2-2.36.29-1.16.07-2.31.21-3.43Z"/>
      <path class="cls-2" d="m111.7,147.97c.81-3.78,2.16-7.43,4.01-10.83.44-.85,1.02-.94,1.79-.45,1.57,1.01,3,2.22,4.24,3.62.79.9,1.07,1.82.4,3.06-1.54,2.82-3.44,5.43-5.66,7.76-1.58,1.68-1.65,1.66-3.15-.13-.67-.82-1.23-1.72-1.66-2.69.02-.19.02-.26.04-.34Z"/>
      <path class="cls-2" d="m34.12,307.54c.04-3.47.36-6.93.94-10.36.34-1.91.74-3.8,1.76-5.5,1.17-1.95,2.66-2.08,4.14-.38.12.14.21.3.32.44,1.79,2.32,3.16,4.93,4.87,7.3,1.92,2.72,3.36,5.76,4.26,8.97.85,2.89.24,5.52-1.32,7.93-2.44,3.78-6.28,5.37-10.51,6.06-2.22.36-3.16-.43-3.77-2.59-.79-2.81-.7-5.71-.87-8.59.04-1.1.15-2.2.17-3.29Z"/>
      <path class="cls-1" d="m162.52,183.88c-.64,3.16-1.36,6.31-3.32,8.97-1.45,1.96-3.64,2.12-5.41.44-1.16-1.18-2.01-2.63-2.46-4.22-2.42-7.24-2.42-14.6-1-22.01.55-2.85,1.3-5.64,3.1-8.01,1.75-2.3,4.18-2.29,5.95,0,.79,1.05,1.41,2.23,1.83,3.48,1.46,4.15,2.13,8.54,1.98,12.94-.1,2.82-.11,5.64-.67,8.42Z"/>
    </g>
  </g>
</svg>