<?xml version="1.0" encoding="UTF-8"?>
<svg id="Capa_2" data-name="Capa 2" xmlns="http://www.w3.org/2000/svg" viewBox="0 0 242.87 355">
  <defs>
    <style>
      .cls-1 {
        fill: #fff;
      }

      .cls-1, .cls-2, .cls-3, .cls-4, .cls-5, .cls-6, .cls-7, .cls-8, .cls-9 {
        fill-rule: evenodd;
      }

      .cls-2 {
        fill: #c9467c;
      }

      .cls-3 {
        fill: #e3c582;
      }

      .cls-4 {
        fill: #a6ada8;
      }

      .cls-5 {
        fill: #bfa56f;
      }

      .cls-6 {
        fill: #0d131a;
      }

      .cls-7 {
        fill: #cad3cc;
      }

      .cls-8 {
        fill: #e8528d;
      }

      .cls-9 {
        fill: #f3b3c9;
      }
    </style>
  </defs>
  <g id="Capa_1-2" data-name="Capa 1">
    <g id="Layer_2" data-name="Layer 2">
      <g id="Layer_1-2" data-name="Layer 1-2">
        <path class="cls-6" d="m222.37,216.22c-5.98-.49-11.58-3.12-15.78-7.4-2.93-3.22-4.52-7.44-4.47-11.79l-.89-11.87c-.8-2.27-2.08-4.35-3.74-6.1l-5.94-5.69c-1.95-1.95-2.85-3.33-2.6-4.23s1.71-1.3,4.64-1.38c18.38-.76,31.93,2.95,40.66,11.14,5.17,4.85,8.11,11.62,8.13,18.7.48,5.6-1.68,11.11-5.85,14.88-3.93,3.03-8.9,4.38-13.82,3.74h-.33Z"/>
        <path class="cls-7" d="m234,208.82c-3.19,2.94-7.47,4.39-11.79,3.98-4.88-.53-9.42-2.75-12.85-6.26-2.53-2.91-3.94-6.63-3.98-10.49l-.89-11.63c-1.45-3.95-4.02-7.4-7.4-9.92l-3.17-3.25c0-.65,1.38-.81,4.47-.65,11.82-.1,23.32,3.89,32.53,11.3,4.1,3.82,6.6,9.05,6.99,14.64.68,4.49-.79,9.04-3.98,12.28h.08Z"/>
        <path class="cls-4" d="m234,208.82c-3.19,2.94-7.47,4.39-11.79,3.98-4.88-.53-9.42-2.75-12.85-6.26-1.46-1.28-2.48-2.99-2.93-4.88,5.79,3.19,12.63,3.9,18.95,1.95,6.09-1.62,10.56-6.82,11.22-13.09,1.34,3.27,1.79,6.83,1.3,10.33-.35,3.07-1.72,5.94-3.9,8.13v-.16Z"/>
        <path class="cls-6" d="m211.4,256.96c-6.84-.38-13.17-3.74-17.32-9.19-4.18-5.44-6.34-12.17-6.1-19.03-.14-6.64,3.07-12.9,8.54-16.67,5.22-3.81,11.82-5.2,18.13-3.82,7.19,1.23,13.58,5.3,17.73,11.3,4.05,5.43,5.75,12.25,4.72,18.95-.5,6.49-3.99,12.38-9.43,15.94-4.97,2.7-10.71,3.59-16.26,2.52Z"/>
        <path class="cls-3" d="m214.57,211.91c5.7,1.43,10.7,4.86,14.07,9.68,3.49,4.67,5.11,10.46,4.55,16.26-.16,5.7-3.03,10.99-7.73,14.23-4.42,3.24-10.07,4.31-15.37,2.93-5.74-1.34-10.76-4.8-14.07-9.68-3.54-4.64-5.17-10.46-4.55-16.26.34-5.48,3.15-10.51,7.64-13.66,4.45-3.24,10.12-4.32,15.45-2.93v-.57Z"/>
        <path class="cls-5" d="m229.53,223.13c3.09,4.61,4.33,10.21,3.5,15.69-.4,5.33-3.18,10.2-7.56,13.25-4.42,3.24-10.07,4.31-15.37,2.93-5.74-1.34-10.76-4.8-14.07-9.68-2.62-3.62-4.2-7.9-4.55-12.36l.89,1.38c3.32,4.85,8.34,8.28,14.07,9.6,5.32,1.37,10.97.32,15.45-2.85,2.75-1.91,4.88-4.6,6.1-7.73,1.3-3.13,1.83-6.54,1.55-9.92v-.33Z"/>
        <path class="cls-6" d="m177.89,238.83c5.43-4.82,12.77-6.89,19.92-5.61,7.93.9,15.24,4.73,20.49,10.73,5.61,5.99,8.54,14,8.13,22.2.16,6.98-2.82,13.67-8.13,18.22-5.55,4.6-12.77,6.69-19.92,5.77-8.25-.57-15.91-4.47-21.22-10.82-5.49-6-8.41-13.91-8.13-22.04.07-7.09,3.21-13.79,8.62-18.38l.24-.08Z"/>
        <path class="cls-3" d="m180.41,241.67c4.79-4.25,11.24-6.13,17.56-5.12,13.96,2.43,24.21,14.45,24.4,28.62.25,11.9-9.2,21.75-21.1,21.99-1.32.03-2.64-.07-3.95-.28-6.89-.83-13.2-4.27-17.65-9.6-4.7-5.13-7.31-11.83-7.32-18.78-.09-6.47,2.72-12.64,7.64-16.83h.41Z"/>
        <path class="cls-5" d="m197.73,286.89c-6.89-.83-13.2-4.27-17.65-9.6-3.66-4.05-6.06-9.08-6.91-14.47l1.46,1.71c4.43,5.31,10.7,8.74,17.56,9.6,6.33,1.15,12.84-.68,17.65-4.96,2.94-2.52,5.11-5.82,6.26-9.51,1.23-3.75,1.54-7.74.89-11.63,4.07,5.11,6.12,11.53,5.77,18.05-.25,11.9-10.09,21.34-21.99,21.1-1.02-.02-2.05-.12-3.06-.28Z"/>
        <path class="cls-6" d="m142.44,264.77c5.98-6.58,14.3-10.58,23.18-11.14,9.88-.78,19.6,2.81,26.59,9.84,7.49,6.23,12.03,15.31,12.52,25.05.75,8.94-3.11,17.65-10.25,23.09-5.02,4.46-11.42,7.08-18.13,7.4-10.39.51-20.63-2.62-28.95-8.86-7.95-5.92-12.77-15.14-13.09-25.05-.28-7.62,2.67-15.01,8.13-20.33Z"/>
        <path class="cls-3" d="m151.95,306.89c-6.18-5.33-10.12-12.79-11.06-20.9-1.08-7.51,1.24-15.12,6.34-20.74,5.09-5.6,12.45-8.59,20-8.13,16.6.72,30.3,13.22,32.53,29.68,2.03,13.91-7.59,26.83-21.5,28.87-1.58.23-3.17.31-4.76.24-8.14-.11-15.95-3.27-21.87-8.86l.33-.16Z"/>
        <path class="cls-5" d="m200.34,290.14c.04,6.35-2.27,12.5-6.51,17.24-5.12,5.56-12.46,8.55-20,8.13-15.88-.64-29.29-12-32.53-27.57l5.29,5.94c5.92,5.59,13.73,8.75,21.87,8.86,7.52.37,14.81-2.61,19.92-8.13,5.74-6.14,8-14.76,6.02-22.93,3.89,5.37,6,11.83,6.02,18.46h-.08Z"/>
        <path class="cls-6" d="m107.96,338.69c-9.61-5.34-16.94-14.02-20.57-24.4-3.64-8.63-3.78-18.34-.41-27.08,3.46-10.19,11.18-18.38,21.14-22.44,11.65-4.89,24.78-4.89,36.43,0,11.75,3.89,21.28,12.62,26.18,23.99,4.22,9.36,4.22,20.08,0,29.44-5.04,11.7-15.72,20.02-28.3,22.04-11.27,3.31-23.31,2.76-34.23-1.55h-.24Z"/>
        <path class="cls-3" d="m112.03,266.56c10.04-3.55,21.05-3.17,30.82,1.06,9.93,3.72,18.07,11.07,22.77,20.57,4.84,8.65,5.47,19.04,1.71,28.22-3.63,9.18-11.18,16.25-20.57,19.27-10.06,3.59-21.11,3.22-30.9-1.06-9.99-3.71-18.21-11.06-23.01-20.57-8.7-16.23-2.59-36.44,13.64-45.13,1.78-.95,3.63-1.74,5.55-2.36Z"/>
        <path class="cls-5" d="m166.92,290.95c7.31,16.75-.35,36.26-17.11,43.57-1,.44-2.02.82-3.06,1.16-10.06,3.59-21.11,3.22-30.9-1.06-7.81-2.97-14.57-8.17-19.43-14.96-4.65-6.12-7.26-13.54-7.48-21.22,2.12,5.14,5.28,9.79,9.27,13.66,4.28,4.17,9.34,7.45,14.88,9.68,9.81,4.21,20.85,4.55,30.9.98,9.43-2.96,17-10.06,20.57-19.27,1.65-3.97,2.45-8.23,2.36-12.52Z"/>
        <path class="cls-6" d="m108.12,350.8c-13.58,1.01-26.97-3.71-36.92-13.01-7.42-6.85-11.64-16.49-11.63-26.59-.38-11.02,4.07-21.66,12.2-29.11,9.33-8.21,21.49-12.47,33.91-11.87,12.39-.41,24.48,3.82,33.91,11.87,8.22,6.53,13.06,16.42,13.17,26.92.07,10.8-4.34,21.13-12.2,28.54-8.63,8.56-20.37,13.26-32.53,13.01l.08.24Z"/>
        <path class="cls-3" d="m105.68,273.06c10.98-.24,21.64,3.68,29.84,10.98,14.55,12.07,16.56,33.66,4.49,48.21-1.35,1.63-2.86,3.13-4.49,4.49-8.24,7.21-18.89,11.07-29.84,10.82-10.93.27-21.56-3.59-29.76-10.82-14.55-12.07-16.56-33.66-4.49-48.21,1.35-1.63,2.86-3.13,4.49-4.49,8.17-7.3,18.81-11.23,29.76-10.98Z"/>
        <path class="cls-5" d="m139.92,288.35c5.29,6.12,8.18,13.95,8.13,22.04.05,10.19-4.49,19.87-12.36,26.35-8.28,7.25-19,11.11-30.01,10.82-9.61.21-19.03-2.63-26.92-8.13-7.27-5.13-12.42-12.73-14.47-21.39,4.03,4.76,9.09,8.54,14.8,11.06,6.04,2.81,12.62,4.25,19.27,4.23,10.96.24,21.62-3.65,29.84-10.9,7.92-6.45,12.49-16.13,12.44-26.35.01-2.5-.32-4.99-.98-7.4l.24-.33Z"/>
        <path class="cls-6" d="m142.44,247.12c8.42,7.15,13.25,17.66,13.17,28.7.28,11.07-4.55,21.66-13.09,28.7-9.14,7.51-20.7,11.44-32.53,11.06-12.72.65-25.21-3.53-34.97-11.71-8.27-7.02-12.95-17.37-12.77-28.22-.23-11.39,4.81-22.26,13.66-29.44,9.12-7.57,20.68-11.56,32.53-11.22,12.41-.41,24.5,3.92,33.83,12.12h.16Z"/>
        <path class="cls-3" d="m108.61,238.02c10.9-.24,21.49,3.69,29.6,10.98,7.89,6.39,12.44,16.03,12.36,26.18.05,10.19-4.49,19.87-12.36,26.35-8.15,7.33-18.8,11.26-29.76,10.98-10.98.24-21.64-3.68-29.84-10.98-14.51-11.99-16.55-33.46-4.56-47.97,1.37-1.66,2.9-3.19,4.56-4.56,8.21-7.29,18.87-11.22,29.84-10.98h.16Z"/>
        <path class="cls-5" d="m150.73,275.18c0,10.22-4.59,19.9-12.52,26.35-8.15,7.33-18.8,11.26-29.76,10.98-9.22-.03-18.21-2.87-25.78-8.13-7.03-4.63-12.27-11.51-14.88-19.52,4.04,4.47,8.97,8.04,14.47,10.49,5.96,2.66,12.42,4.02,18.95,3.98,10.93.26,21.55-3.67,29.68-10.98,7.89-6.47,12.46-16.14,12.44-26.35-.02-3.43-.57-6.83-1.63-10.08,5.71,6.24,8.87,14.39,8.86,22.85l.16.41Z"/>
        <path class="cls-6" d="m100.72,184.67c15.09-.32,29.7,5.32,40.66,15.69,8.93,7.25,14.36,17.95,14.96,29.44.12,13.58-5.85,26.5-16.26,35.21-10.78,9.64-24.82,14.81-39.28,14.47-13.58.26-26.82-4.26-37.41-12.77-10.87-8.11-17.22-20.92-17.08-34.48-.09-12.37,5.09-24.2,14.23-32.53,10.74-10.37,25.25-15.92,40.17-15.37v.33Z"/>
        <path class="cls-3" d="m51.36,232.24c-.03-11.94,5.28-23.28,14.47-30.9,9.72-8.47,22.24-13.02,35.13-12.77,12.84-.27,25.32,4.28,34.97,12.77,17.09,14.57,19.13,40.23,4.56,57.32-1.4,1.64-2.92,3.17-4.56,4.56-9.65,8.48-22.12,13.04-34.97,12.77-12.89.26-25.41-4.29-35.13-12.77-9.21-7.65-14.52-19.01-14.47-30.98Z"/>
        <path class="cls-5" d="m96.25,232.65l-26.1-1.3c-6.5-.93-12.67-3.44-17.97-7.32,2.33-10.25,8.38-19.26,17-25.29,9.2-6.77,20.37-10.34,31.79-10.16,8.45-.08,16.81,1.81,24.4,5.53,6.96,3.34,12.99,8.34,17.56,14.56-8.13,13.99-23.66,22.04-46.43,23.99h-.24Z"/>
        <path class="cls-5" d="m148.54,220.29c4.92,15.54-.06,32.52-12.6,42.94-9.65,8.48-22.12,13.04-34.97,12.77-10.14.05-20.1-2.77-28.7-8.13-7.97-4.85-14.23-12.07-17.89-20.65,4.63,4.77,10.16,8.58,16.26,11.22,6.69,2.83,13.88,4.27,21.14,4.23,12.63.54,25.15-2.68,35.94-9.27,11.24-7.68,18.69-19.77,20.49-33.26l.33.16Z"/>
        <path class="cls-6" d="m129.1,227.69c-.03-4.4,1.73-8.63,4.88-11.71,2.87-3.02,6.89-4.68,11.06-4.55,8.98-.19,16.41,6.94,16.6,15.92.09,4.5-1.68,8.83-4.89,11.98-2.78,3.1-6.73,4.9-10.9,4.96-8.7.54-16.19-6.06-16.73-14.76-.03-.5-.04-1-.02-1.5v-.33Z"/>
        <path class="cls-8" d="m145.04,241.43c-3.46.03-6.76-1.45-9.03-4.07-5-5.52-5-13.92,0-19.43,2.29-2.59,5.57-4.07,9.03-4.07,3.46-.03,6.76,1.45,9.03,4.07,5,5.52,5,13.92,0,19.43-2.27,2.61-5.57,4.1-9.03,4.07Z"/>
        <path class="cls-9" d="m142.03,223.13l-2.44,1.46c-.81.09-1.63-.15-2.28-.65-.5-.58-.68-1.37-.49-2.11.3-2.02,1.88-3.6,3.9-3.9l2.11.49c.49.65.67,1.48.49,2.28l-1.3,2.44Z"/>
        <path class="cls-2" d="m154.47,222.08c0-1.69-.3-3.37-.89-4.96,2.94,2.7,4.49,6.59,4.23,10.57.1,3.62-1.25,7.13-3.74,9.76-2.27,2.61-5.57,4.1-9.03,4.07-2.61.02-5.14-.87-7.16-2.52-2.18-1.55-3.83-3.74-4.72-6.26,4.9,4.56,12.56,4.29,17.12-.61.04-.04.08-.08.11-.13,2.61-2.64,4.07-6.21,4.07-9.92Z"/>
        <path class="cls-6" d="m130.08,286.89c.71-4.17,3.29-7.8,6.99-9.84,3.22-2.16,7.18-2.92,10.98-2.11,3.92.68,7.35,3.06,9.35,6.51,2.24,3.58,3,7.9,2.11,12.03-.83,3.58-3.01,6.7-6.1,8.7-3.46,2.33-7.73,3.13-11.79,2.2-4.07-.74-7.63-3.2-9.76-6.75-1.96-3.21-2.6-7.06-1.79-10.73Z"/>
        <path class="cls-8" d="m142.44,301.93c-3.09-.57-5.77-2.48-7.32-5.2-1.61-2.81-2.13-6.11-1.46-9.27.46-3.28,2.26-6.22,4.96-8.13,2.5-1.92,5.71-2.63,8.78-1.95,3.05.65,5.7,2.53,7.32,5.2,1.64,2.8,2.13,6.12,1.38,9.27-.46,3.28-2.25,6.23-4.96,8.13-2.51,1.82-5.66,2.53-8.7,1.95Z"/>
        <path class="cls-9" d="m143.09,285.26h-4.31c-.36-.66-.36-1.46,0-2.11.35-.81.95-1.5,1.71-1.95.69-.48,1.52-.7,2.36-.65.74-.05,1.45.29,1.87.89.37.6.37,1.35,0,1.95l-1.55,2.03-.08-.16Z"/>
        <path class="cls-2" d="m153.9,286.56v-4.64c2.11,2.91,2.85,6.59,2.03,10.08-.46,3.28-2.25,6.23-4.96,8.13-2.51,1.82-5.66,2.53-8.7,1.95-2.32-.52-4.42-1.74-6.02-3.5-1.55-1.82-2.53-4.05-2.85-6.42,1.58,2.26,3.97,3.83,6.67,4.39,2.99.66,6.13-.06,8.54-1.95,2.76-1.88,4.62-4.83,5.12-8.13l.16.08Z"/>
        <path class="cls-6" d="m130.97,333.4c2.37-2.5,5.66-3.91,9.11-3.9,3.63-.08,7.15,1.29,9.76,3.82,2.65,2.25,4.29,5.47,4.55,8.94.51,3.29-.54,6.63-2.85,9.03-2.53,2.64-6.12,3.98-9.76,3.66-3.51.08-6.9-1.23-9.43-3.66-2.52-2.32-4.13-5.46-4.55-8.86-.35-3.33.81-6.65,3.17-9.03Z"/>
        <path class="cls-8" d="m134.31,349.66c-2.05-1.74-3.31-4.23-3.5-6.91-.17-2.62.77-5.19,2.6-7.07,1.88-1.94,4.45-3.05,7.16-3.09,2.75-.22,5.46.72,7.48,2.6,2.09,1.71,3.35,4.22,3.5,6.91.24,2.63-.72,5.23-2.6,7.07-1.85,1.94-4.4,3.05-7.07,3.09-2.76.1-5.45-.83-7.56-2.6Z"/>
        <path class="cls-9" d="m141.63,338.04l-2.2-.65c-.59-.26-.99-.82-1.06-1.46-.08-.59.26-1.16.81-1.38.53-.49,1.25-.7,1.95-.57l2.2.65,1.06,1.3-.81,1.46s-1.95.65-1.95.65Z"/>
        <path class="cls-2" d="m151.38,340.8c.64,2.95-.28,6.02-2.44,8.13-1.85,1.94-4.4,3.05-7.07,3.09-2.76.1-5.45-.83-7.56-2.6-1.59-1.3-2.68-3.11-3.09-5.12-.61-1.85-.61-3.84,0-5.69.31,2.37,1.54,4.53,3.42,6.02,2.11,1.77,4.81,2.7,7.56,2.6,2.67-.04,5.21-1.19,6.99-3.17.96-.8,1.64-1.88,1.95-3.09l.24-.16Z"/>
        <path class="cls-6" d="m160.82,312.75c2.65-1.64,5.8-2.24,8.86-1.71,3.21.54,6.11,2.25,8.13,4.8,1.83,2.29,2.71,5.21,2.44,8.13-.15,3.17-1.85,6.06-4.55,7.73-6.04,3.73-13.95,1.86-17.68-4.18-1.23-1.99-1.89-4.29-1.92-6.63-.07-3.32,1.63-6.42,4.47-8.13h.24Z"/>
        <path class="cls-2" d="m172.77,314.53l2.93,2.36c1.49,1.79,2.14,4.13,1.79,6.42-.26,2.26-1.55,4.27-3.5,5.45-4.3,2.64-9.91,1.62-13.01-2.36l-.81-1.14c1.51.96,3.26,1.47,5.04,1.46,1.95.12,3.89-.39,5.53-1.46,1.75-1.06,2.99-2.79,3.42-4.8.4-1.98.06-4.04-.98-5.77l-.41-.16Z"/>
        <path class="cls-8" d="m170.74,325.27c-1.52.99-3.31,1.5-5.12,1.46-1.92.08-3.83-.43-5.45-1.46-1.05-1.7-1.38-3.75-.89-5.69.37-2.03,1.58-3.8,3.33-4.88,1.55-.92,3.32-1.4,5.12-1.38,1.77,0,3.51.48,5.04,1.38,1.03,1.74,1.38,3.79.98,5.77-.33,1.93-1.41,3.66-3.01,4.8Z"/>
        <path class="cls-9" d="m167.32,317.79l-1.79.65-1.63-.65c-.25-.4-.25-.9,0-1.3.22-.6.65-1.09,1.22-1.38.56-.43,1.25-.66,1.95-.65l1.46.49c.65.89,0,1.87-1.22,2.85Z"/>
        <path class="cls-6" d="m201.48,288.76c2.88.6,5.45,2.22,7.24,4.55,1.89,2.26,2.7,5.23,2.2,8.13-.37,2.57-1.94,4.8-4.23,6.02-2.81,1.68-6.15,2.23-9.35,1.55-2.77-.43-5.23-2.03-6.75-4.39-1.36-2.03-1.97-4.48-1.71-6.91.3-2.74,1.75-5.22,3.98-6.83,2.45-1.87,5.62-2.53,8.62-1.79v-.33Z"/>
        <path class="cls-2" d="m201.39,301.69c1.56-.97,2.67-2.52,3.09-4.31.4-1.76.08-3.6-.89-5.12,1,.52,1.89,1.24,2.6,2.11,1.34,1.58,1.96,3.64,1.71,5.69-.27,2.02-1.43,3.82-3.17,4.88-1.85,1.21-4.11,1.63-6.26,1.14-2.15-.39-4.09-1.54-5.45-3.25l-.81-1.06c2.77,1.9,6.42,1.9,9.19,0v-.08Z"/>
        <path class="cls-8" d="m201.39,301.69c-2.77,1.9-6.42,1.9-9.19,0-.91-1.57-1.17-3.44-.73-5.2.42-1.79,1.53-3.34,3.09-4.31,1.33-.86,2.89-1.31,4.47-1.3,1.61-.03,3.2.43,4.55,1.3.97,1.52,1.29,3.36.89,5.12-.42,1.79-1.53,3.34-3.09,4.31v.08Z"/>
        <path class="cls-9" d="m198.79,295.1c-1.55.81-2.52.81-3.01,0s0-1.55,1.06-2.44l1.63-.65,1.3.49c.73.89.41,1.79-.98,2.6Z"/>
        <path class="cls-6" d="m223.51,254.69c2.81.33,5.39,1.69,7.24,3.82,1.64,1.69,2.47,4,2.28,6.34-.15,2.58-1.67,4.88-3.98,6.02-2.42,1.52-5.36,1.99-8.13,1.3-2.47-.49-4.69-1.85-6.26-3.82-1.26-1.56-1.89-3.53-1.79-5.53.07-2.75,1.63-5.24,4.07-6.51,1.93-1.31,4.26-1.91,6.59-1.71v.08Z"/>
        <path class="cls-2" d="m228.39,259.24c2.48,2.54,2.43,6.61-.11,9.08-.22.21-.45.41-.7.59-1.58,1.12-3.53,1.59-5.45,1.3-1.97-.22-3.79-1.14-5.12-2.6l-.73-.89c2.61,1.37,5.77,1.12,8.13-.65,1.32-.98,2.2-2.44,2.44-4.07.25-1.6-.13-3.23-1.06-4.55.95.43,1.8,1.04,2.52,1.79h.08Z"/>
        <path class="cls-8" d="m217.82,257.94c1.14-.83,2.5-1.31,3.9-1.38l4.15.89c.93,1.32,1.31,2.96,1.06,4.55-.24,1.63-1.12,3.09-2.44,4.07-2.36,1.77-5.52,2.02-8.13.65-.95-1.38-1.3-3.08-.98-4.72.3-1.62,1.2-3.07,2.52-4.07h-.08Z"/>
        <path class="cls-9" d="m221.72,260.21h-2.76c-.57-.57,0-1.38.81-2.28h2.76c.57.81,0,1.63-.81,2.36v-.08Z"/>
        <path class="cls-6" d="m32.99,240.21c-.13-4.76,1.83-9.34,5.37-12.52,3-2.94,7.02-4.6,11.22-4.64,4.28-.03,8.36,1.78,11.22,4.96,3.04,3.07,4.74,7.22,4.72,11.55.16,4.37-1.46,8.62-4.47,11.79-3.03,3.23-7.28,5.03-11.71,4.96-3.53-.07-6.96-1.2-9.84-3.25-4.27-2.96-6.73-7.9-6.51-13.09v.24Z"/>
        <path class="cls-8" d="m49.33,253.55c-3.35-.06-6.51-1.54-8.7-4.07-5-5.52-5-13.92,0-19.43,2.29-2.59,5.57-4.07,9.03-4.07,3.44-.03,6.71,1.46,8.94,4.07,5.11,5.47,5.11,13.97,0,19.43-2.23,2.61-5.51,4.1-8.94,4.07h-.33Z"/>
        <path class="cls-9" d="m46.16,235.25l-2.44,1.3c-.78.13-1.58-.15-2.11-.73-.49-.62-.67-1.43-.49-2.2.08-.98.55-1.89,1.3-2.52.61-.74,1.49-1.2,2.44-1.3l2.11.57c.61.55.86,1.4.65,2.2l-1.46,2.44v.24Z"/>
        <path class="cls-2" d="m49.33,253.55c-2.66.02-5.24-.87-7.32-2.52-2.11-1.59-3.69-3.77-4.55-6.26,2.19,2.09,5.1,3.25,8.13,3.25,3.49.07,6.83-1.42,9.11-4.07,2.5-2.65,3.85-6.19,3.74-9.84l-.89-5.04c2.96,2.71,4.62,6.56,4.55,10.57.06,3.63-1.31,7.14-3.82,9.76-2.23,2.61-5.51,4.1-8.94,4.07v.08Z"/>
        <path class="cls-6" d="m53.88,299.98c-.7-4.13.4-8.36,3.01-11.63,2.21-3.54,5.81-5.99,9.92-6.75,3.69-.52,7.42.58,10.25,3.01,3.32,2.26,5.63,5.74,6.42,9.68.72,3.65-.07,7.43-2.2,10.49-2,3.48-5.47,5.87-9.43,6.51-4.1.93-8.41.11-11.87-2.28-3.15-2.11-5.35-5.39-6.1-9.11v.08Z"/>
        <path class="cls-8" d="m71.21,309c-3.04.62-6.21-.16-8.62-2.11-5.31-4-6.75-11.37-3.33-17.08,1.57-2.68,4.2-4.57,7.24-5.2,3.1-.66,6.32.12,8.78,2.11,2.7,1.91,4.5,4.85,4.96,8.13.68,3.19.06,6.53-1.71,9.27-1.59,2.68-4.25,4.55-7.32,5.12v-.24Z"/>
        <path class="cls-9" d="m65.51,293.15c-1.3,1.87-2.68,2.36-4.07,1.63-.69-.43-1.05-1.24-.89-2.03,0-.87.25-1.72.73-2.44.48-.72,1.16-1.28,1.95-1.63h2.11l.89,1.79-.73,2.36v.33Z"/>
        <path class="cls-2" d="m76.08,290.3c-.34-1.52-.92-2.97-1.71-4.31,6.04,3.73,7.9,11.65,4.17,17.68,0,.01-.02.03-.03.04-1.59,2.68-4.25,4.55-7.32,5.12l-6.75-.89c-2.16-1.02-3.97-2.66-5.2-4.72,2.42,1.52,5.34,2.01,8.13,1.38,3.09-.56,5.77-2.47,7.32-5.2,1.78-2.68,2.4-5.97,1.71-9.11h-.33Z"/>
        <path class="cls-6" d="m56.89,345.19c-.73-3.09-.11-6.34,1.71-8.94,2.01-3.12,5.27-5.22,8.94-5.77,3.57-.6,7.23.09,10.33,1.95,2.78,1.68,4.77,4.4,5.53,7.56.87,3.38.09,6.97-2.11,9.68-2.19,2.61-5.25,4.34-8.62,4.88-3.63.76-7.42.09-10.57-1.87-2.71-1.65-4.6-4.37-5.2-7.48Z"/>
        <path class="cls-8" d="m71.61,352.1c-2.81.56-5.72,0-8.13-1.55-2.29-1.46-3.9-3.77-4.47-6.42-.6-2.57-.04-5.28,1.55-7.4,1.53-2.21,3.92-3.69,6.59-4.07,2.82-.62,5.77-.03,8.13,1.63,2.27,1.42,3.86,3.72,4.39,6.34.67,2.52.16,5.21-1.38,7.32-1.58,2.21-3.98,3.71-6.67,4.15Z"/>
        <path class="cls-9" d="m66.41,339.58l-1.38,1.3h-2.11c-.52-.3-.83-.86-.81-1.46-.05-.71.18-1.41.65-1.95l1.71-1.3h1.79l.89,1.38-.73,1.95v.08Z"/>
        <path class="cls-2" d="m78.28,347.96c-1.58,2.21-3.98,3.71-6.67,4.15l-6.1-.73c-1.91-.75-3.53-2.09-4.64-3.82,2.14,1.23,4.65,1.66,7.07,1.22,2.65-.37,5.01-1.85,6.51-4.07,1.57-2.16,2.1-4.89,1.46-7.48l-1.46-3.82c2.69,1.4,4.61,3.94,5.2,6.91.67,2.52.16,5.21-1.38,7.32v.33Z"/>
        <path class="cls-6" d="m171.14,125.31c4.41,20.6-.11,42.11-12.44,59.2-12.86,17.97-32.13,30.31-53.83,34.48-22.87,5.85-47.13,2.33-67.41-9.76-18.36-10.67-31.35-28.59-35.78-49.36-4.24-19.36-.36-39.61,10.73-56.03,13.43-20.39,34.72-34.29,58.79-38.38,22.59-5.3,46.36-1.19,65.87,11.38,17.86,10.59,30.28,28.38,34.07,48.79v-.33Z"/>
        <path class="cls-3" d="m132.93,79.53c17.53,10.19,29.71,27.54,33.34,47.49,4.03,20.02-.87,40.81-13.42,56.92-12.55,17.21-31.3,28.88-52.29,32.53-20.84,4.5-42.6.67-60.66-10.65C6.22,186.1-5.11,142.81,14.61,109.13c1.61-2.75,3.4-5.38,5.37-7.89,12.49-17.28,31.27-28.96,52.29-32.53,20.84-4.48,42.6-.66,60.66,10.65v.16Z"/>
        <path class="cls-5" d="m126.5,76.03c10.05,4.9,18.89,11.99,25.86,20.74,7.04,8.79,11.82,19.18,13.91,30.25,4.03,20.02-.87,40.81-13.42,56.92-12.55,17.21-31.3,28.88-52.29,32.53-12.97,2.54-26.34,2.1-39.11-1.3-12.08-3.15-23.23-9.15-32.53-17.48,16.79,8.52,35.97,11.07,54.4,7.24,20.98-3.68,39.71-15.34,52.29-32.53,12.57-16.1,17.45-36.91,13.34-56.92-2.86-15.3-10.83-29.18-22.61-39.36l.16-.08Z"/>
        <path class="cls-6" d="m47.14,161.09c-1.34-8.5,1.13-17.15,6.75-23.66,6.93-8.73,16.88-14.53,27.89-16.26,10.69-2.37,21.88-.84,31.55,4.31,8.35,3.8,14.39,11.35,16.26,20.33,1.54,8.99-1.13,18.19-7.24,24.96-7.13,8.24-16.9,13.73-27.65,15.53-9.58,1.82-19.48.77-28.46-3.01-9.9-3.42-17.2-11.9-19.11-22.2Z"/>
        <path class="cls-8" d="m93.89,182.56c-9.36,2.08-19.15.78-27.65-3.66-12.95-5.69-18.83-20.81-13.14-33.76,1.22-2.77,2.91-5.3,5.01-7.47,6.36-7.16,14.96-11.95,24.4-13.58,9.35-2.01,19.11-.74,27.65,3.58,12.94,5.62,18.87,20.65,13.25,33.59-1.23,2.83-2.97,5.42-5.12,7.64-6.29,7.23-14.93,12.01-24.4,13.5v.16Z"/>
        <path class="cls-9" d="m74.05,144.5c-2.31,1.25-4.94,1.79-7.56,1.55-1.56.01-3.04-.71-3.98-1.95-.7-1.74-.28-3.73,1.06-5.04,1.47-2.02,3.43-3.65,5.69-4.72,2.32-1.23,4.95-1.77,7.56-1.55,2.22,0,3.61.73,4.15,2.2.72,1.59.47,3.46-.65,4.8-1.61,2.12-3.78,3.75-6.26,4.72Z"/>
        <path class="cls-2" d="m93.89,182.56l-20.33-.65c-5.85-1.47-11.17-4.54-15.37-8.86,7.93,3.24,16.65,4.07,25.05,2.36,9.48-1.51,18.12-6.32,24.4-13.58,5.69-6.08,8.19-14.48,6.75-22.69-.93-4.74-3.25-9.1-6.67-12.52,4.38,1.82,8.3,4.6,11.47,8.13,2.97,3.28,5.02,7.3,5.94,11.63,1.42,8.22-1.11,16.62-6.83,22.69-6.29,7.23-14.93,12.01-24.4,13.5Z"/>
        <path class="cls-6" d="m121.95,119.21c-2.43.43-4.94-.09-6.99-1.46-2.14-1.28-3.58-3.46-3.9-5.94-.57-2.45-.07-5.02,1.38-7.07,1.34-2.11,3.54-3.54,6.02-3.9,2.45-.57,5.02-.07,7.07,1.38,2.04,1.41,3.45,3.58,3.9,6.02.98,5.07-2.33,9.98-7.4,10.96-.03,0-.06.01-.08.02Z"/>
        <path class="cls-1" d="m117.64,110.59l-2.76-.65c-.82-.46-1.39-1.27-1.55-2.2-.07-.97.16-1.93.65-2.76l2.2-1.55c.97-.1,1.94.13,2.76.65.84.44,1.42,1.26,1.55,2.2l-.65,2.76-2.2,1.55Z"/>
        <path class="cls-6" d="m32.91,126.61c-.49-2.42,0-4.94,1.38-6.99,1.41-2.19,3.75-3.63,6.34-3.9,2.45-.57,5.02-.07,7.07,1.38,2.08,1.39,3.52,3.56,3.98,6.02,1,5.07-2.3,9.98-7.37,10.98-2.47.49-5.03-.04-7.11-1.47-2.08-1.39-3.52-3.56-3.98-6.02h-.33Z"/>
        <path class="cls-1" d="m39.9,125.72l-2.6-.49c-.8-.56-1.35-1.4-1.55-2.36-.16-.95,0-1.93.49-2.76.56-.8,1.4-1.35,2.36-1.55.97-.07,1.93.16,2.76.65.78.49,1.31,1.29,1.46,2.2.18.96-.03,1.95-.57,2.76-.52.84-1.38,1.4-2.36,1.55Z"/>
        <path class="cls-6" d="m86.74,31.14l18.95,32.53c1.16,2.02,1.86,4.27,2.03,6.59-.07,1.93-.96,3.73-2.44,4.96-8.02,6.02-17.57,9.66-27.57,10.49-9.66,1.97-19.68,1.24-28.95-2.11-2.01-.61-3.63-2.11-4.39-4.07-.6-2.95-.6-5.99,0-8.94,1.52-11.32,3.83-22.51,6.91-33.5,2.35-10.09,5.31-20.03,8.86-29.76,1.79-4.88,3.17-7.32,4.15-7.32,1.06,0,3.09,1.71,6.02,5.61l16.26,25.53h.16Z"/>
        <path class="cls-7" d="m63.15,9.27l1.87-3.66c.49,0,1.55.89,3.09,3.25,8.13,11.55,18.78,30.09,32.53,55.46,1.34,1.89,1.97,4.19,1.79,6.51,0,1.46-1.87,3.01-4.55,4.72-6.43,3.77-13.58,6.15-20.98,6.99l-21.14-.65c-2.3-.36-4.48-1.28-6.34-2.68-.87-1.62-1.1-3.5-.65-5.29,1.15-9.4,2.78-18.74,4.88-27.97,3.25-13.42,6.1-25.53,9.51-36.67Z"/>
        <path class="cls-4" d="m100.56,64.32c1.34,1.89,1.97,4.19,1.79,6.51,0,1.46-1.87,3.01-4.55,4.72-6.43,3.77-13.58,6.15-20.98,6.99l-21.14-.65c-2.3-.36-4.48-1.28-6.34-2.68-.84-1.63-1.04-3.51-.57-5.29v-4.39c3.31,2.68,7.45,4.12,11.71,4.07,5.83.51,11.7-.07,17.32-1.71,14.96-4.55,18.54-14.2,10.73-28.95,0,0,12.03,21.39,12.03,21.39Z"/>
        <path class="cls-6" d="m234.33,227.69c2.52.33,4.81,1.61,6.42,3.58,1.39,1.53,2.15,3.54,2.11,5.61-.13,2.35-1.53,4.44-3.66,5.45-2.15,1.3-4.7,1.73-7.16,1.22-2.26-.45-4.29-1.66-5.77-3.42-1.08-1.42-1.62-3.18-1.55-4.96.05-2.43,1.38-4.65,3.5-5.85,1.78-1.23,3.94-1.81,6.1-1.63Z"/>
        <path class="cls-2" d="m233.03,241.27c-1.8-.14-3.47-.98-4.64-2.36l-.73-.73c2.33,1.42,5.31,1.19,7.4-.57,1.21-.86,2-2.19,2.2-3.66.32-1.45-.01-2.96-.89-4.15l2.2,1.71c2.21,2.24,2.18,5.84-.06,8.05-.21.21-.44.4-.68.57-1.42,1-3.17,1.41-4.88,1.14h.08Z"/>
        <path class="cls-8" d="m235.14,237.61c-2.09,1.76-5.07,1.99-7.4.57-.87-1.23-1.22-2.75-.98-4.23.27-1.46,1.08-2.77,2.28-3.66,2.16-1.6,5.05-1.79,7.4-.49.88,1.19,1.21,2.7.89,4.15-.19,1.47-.99,2.8-2.2,3.66Z"/>
        <path class="cls-9" d="m232.7,232.4h-2.52c-.57-.57,0-1.3.81-2.03l1.3-.57h1.06c.57.65,0,1.3-.65,2.11v.49Z"/>
      </g>
    </g>
  </g>
</svg>