<?xml version="1.0" encoding="UTF-8"?>
<svg id="Capa_2" data-name="Capa 2" xmlns="http://www.w3.org/2000/svg" viewBox="0 0 381.34 430.17">
  <defs>
    <style>
      .cls-1 {
        fill: #261912;
      }

      .cls-1, .cls-2, .cls-3, .cls-4, .cls-5, .cls-6, .cls-7, .cls-8, .cls-9, .cls-10, .cls-11, .cls-12, .cls-13, .cls-14, .cls-15, .cls-16, .cls-17, .cls-18, .cls-19, .cls-20, .cls-21, .cls-22, .cls-23, .cls-24, .cls-25, .cls-26, .cls-27, .cls-28, .cls-29, .cls-30, .cls-31, .cls-32, .cls-33, .cls-34, .cls-35 {
        fill-rule: evenodd;
      }

      .cls-2 {
        fill: #dfede9;
      }

      .cls-3 {
        fill: #b24952;
      }

      .cls-4 {
        fill: #fff;
      }

      .cls-5 {
        fill: #f3e07c;
      }

      .cls-6 {
        fill: #df5626;
      }

      .cls-7 {
        fill: #dd7f7d;
      }

      .cls-8 {
        fill: #2a1d15;
      }

      .cls-9 {
        fill: #533638;
      }

      .cls-10 {
        fill: #b1cac1;
      }

      .cls-11 {
        fill: #fcd13d;
      }

      .cls-12 {
        fill: #f6b656;
      }

      .cls-13 {
        fill: #f6b657;
      }

      .cls-14 {
        fill: #ac9b58;
      }

      .cls-15 {
        fill: #291a14;
      }

      .cls-16 {
        fill: #231815;
      }

      .cls-17 {
        fill: #ec7823;
      }

      .cls-18 {
        fill: #dfeeea;
      }

      .cls-19 {
        fill: #f6f5f6;
      }

      .cls-20 {
        fill: #b96628;
      }

      .cls-21 {
        fill: #ec7923;
      }

      .cls-22 {
        fill: #1b7575;
      }

      .cls-23 {
        fill: #c5c2c1;
      }

      .cls-24 {
        fill: #dac743;
      }

      .cls-25 {
        fill: #2e1e16;
      }

      .cls-26 {
        fill: #f9f9fa;
      }

      .cls-27 {
        fill: #fbfcfc;
      }

      .cls-28 {
        fill: #2e1d16;
      }

      .cls-29 {
        fill: #1d7373;
      }

      .cls-30 {
        fill: #f7f8f8;
      }

      .cls-31 {
        fill: #fdfeff;
      }

      .cls-32 {
        fill: #221714;
      }

      .cls-33 {
        fill: #2e1e15;
      }

      .cls-34 {
        fill: #b96728;
      }

      .cls-35 {
        fill: #251913;
      }
    </style>
  </defs>
  <g id="Capa_1-2" data-name="Capa 1">
    <g id="cdpnGB">
      <g>
        <path class="cls-32" d="m358.24,240.87c.64,12.06.5,24.09-1.05,36.08-2.81,21.74-8.99,42.38-21.34,60.67-14.29,21.14-34.15,33.93-59.65,37.23-11.91,1.54-23.82.71-35.63-1.32-1.2-.21-1.77.03-2.32,1.13-2.62,5.26-6.22,9.81-10.45,13.86-1.05,1.01-1.01,1.6-.24,2.73,2.59,3.83,5.17,7.68,6.17,12.32,1.37,6.34-1.58,12.15-7.55,14.63-.83.34-1.29.87-1.8,1.55-3.05,4.06-7.2,6.63-11.79,8.57-1.08.46-1.39-.26-1.43-1.15-.05-1.3-.08-2.61-.05-3.92.02-.83-.05-1.19-1.13-1.15-1.61.06-2.59.55-3.16,2.13-.68,1.9-1.75,3.61-3.03,5.2-.71.89-1.32.99-2.21.26-1.89-1.54-3.68-3.18-5.28-5.02-.71-.83-3.37-1.45-4.34-1.05-.44.18-.39.53-.44.87-.09.65-.25,1.29-.24,1.94.02,2.32-.21,2.73-2.94,2.14-3.37-.73-6.66-1.69-9.72-3.33-1.64-.88-3.11-1.95-4.14-3.56-.15-.24-.34-.5-.58-.64-4.83-2.78-5.94-7.47-6.17-12.45-.26-5.71,1.44-11.14,2.92-16.57.64-2.34,1.88-4.71,1.78-7.01-.1-2.25-2.11-4.14-3.21-6.24-1.81-3.47-3.59-6.95-5-10.61-.31-.81-.67-1.23-1.6-1.31-8.77-.7-17.4-2.17-25.89-4.51-.71-.19-1.08.03-1.49.56-5.59,7.26-10.35,15.04-14.46,23.23-.59,1.18-.26,2.34-.05,3.48.93,5.08,1.8,10.16,2.32,15.3.32,3.09-.08,3.83-3.03,4.95-5.7,2.15-11.66,3.14-17.68,3.79-13.47,1.45-26.97,2.09-40.52,2.34-4.93.09-9.89.88-14.88.89-3.04.01-6.03-.45-9.04-.76-.7-.07-1.56.03-1.91-.7-.4-.83.32-1.42.78-2.02.14-.19.3-.35.62-.72-2.09-.13-4-.23-5.91-.35-2.43-.15-4.86-.29-7.29-.46-1.94-.13-2.31-.83-1.34-2.5.38-.64.81-1.26,1.34-2.09-2.92,0-5.63.09-8.31-.3-1.65-.24-1.93-.66-1.03-2.01,3.09-4.69,7.14-8.25,12.54-10.02,1.38-.45,2.56-1.07,3.72-1.91,8.27-5.98,17.6-9.73,27.22-12.85.45-.15.91-.26,1.35-.44,1.61-.65,1.89-2.28.62-3.48-4.23-4.03-8.27-8.15-10.39-13.8-3.28-8.7-2.37-17.12,1.44-25.37,4.73-10.24,12.16-18.32,20.62-25.58,1.39-1.19,3.49-2.2,3.92-3.69.4-1.37-1.02-3.26-1.61-4.93-6.61-18.63-10.18-37.76-9.38-57.59.17-4.33.34-8.66.56-12.99.04-.77,0-1.28-.87-1.65-13.64-5.73-24.59-15.03-34.54-25.75-6.57-7.08-12.17-14.87-17.72-22.72-2.03-2.88-4.23-5.51-7.6-6.96-1.52-.66-2.82-1.76-3.89-3.06-1.2-1.46-1.08-2.64.41-3.77,2.26-1.72,4.53-3.45,6.85-5.1,1.17-.83,1.4-1.76,1.22-3.17-.54-4.42-.95-8.86-.16-13.3.52-2.93,1.27-3.32,3.71-1.62,8.25,5.77,17.05,10.49,26.37,14.27,9.16,3.7,18.62,5.92,28.47,6.49.65.04,1.3.06,1.96.07.1,0,.21-.06.56-.18-4.06-2.29-7.58-5.04-10.79-8.18-11.02-10.77-19.07-23.28-22.3-38.52-.66-3.1-1.64-5.93-3.16-8.73-3.62-6.69-4.76-13.64-.7-20.67,2.52-4.35,6.15-7.5,10.7-9.57.93-.42,1.34-.91,1.46-1.93,1.96-16.8,7.3-32.43,16.35-46.75.31-.5.57-1.04.77-1.59,1.44-3.79,4-6.55,7.69-8.23,1.01-.46,1.73-1.11,2.38-2.01C81.12,7.88,92.78,1.63,107.15.38c10.24-.89,20.38-.36,30.23,3.03,25.26,8.7,40.48,26.47,47.35,51.94,4.12,15.27,3.4,30.47.26,45.81-2.14,10.47-3.4,21.1-3.1,31.83.3,10.8,2.71,21.13,7.3,30.94.45.96.99,1.13,1.91,1.07,7.92-.5,15.56-2.42,23.17-4.51,13.35-3.65,26.26-8.5,38.79-14.35.91-.42,1.85-.8,2.82-1.08,2.38-.68,3.05-.17,3.07,2.27.03,3.96-.77,7.79-2.11,11.49-.6,1.65-.24,3.28-.26,4.93,0,.63.62.82,1.05,1.12,2.04,1.43,4.12,2.81,6.14,4.26,1.73,1.24,1.99,2.24,1.04,4.12-1.75,3.49-4.44,6.15-7.69,8.23-1.2.77-1.99,1.76-2.65,2.99-4.95,9.2-11.19,17.34-19.76,23.5-5.75,4.13-12.14,6.91-18.93,8.8-1.36.38-1.62.75-1.22,2.14,3.02,10.61,7.13,20.85,10.59,31.31,4.67,14.13,9.32,28.25,12.13,42.89.7,3.61,1.26,7.25,1.6,10.91.11,1.14.5,1.97,1.33,2.77,6.75,6.51,14.88,10,24.08,11.2,9.8,1.28,19.54,1.3,29.05-1.85,19.6-6.5,34.17-19.07,44.43-36.83,5.41-9.37,8.02-19.57,9.08-30.24.29-2.95.7-5.89.7-8.87-.19-.75-.3-1.46.7-1.73,1.22.07,1.2,1.01,1.15,1.82-.84,11.94-2.28,23.75-7.45,34.76-2.99,6.37-6.82,12.21-11.28,17.65-7.18,8.76-15.88,15.63-25.97,20.71-7.32,3.68-15.02,6.41-23.23,6.9-10.6.63-21.14.11-31.05-4.42-3.3-1.51-6.4-3.39-9.12-5.82-.38-.34-.7-.77-1.36-.92.44,6.8.11,13.47-1.15,20.07-.2,1.06.19,1.99.57,2.93,1.7,4.26,2.95,8.64,3.6,13.19.6,3.93,1,7.88.56,11.85-.15,1.34.49,1.81,1.6,2.07,2.6.62,5.26.93,7.91,1.12,11.9.87,23.64-.27,35.27-2.87,5.51-1.23,10.93-2.68,16.09-5.02,2.48-1.13,4.87-2.44,7.18-3.87,5.94-3.95,11.45-8.39,16.46-13.51,5.85-5.99,10.63-12.73,14.79-19.95,2.97-5.15,5.27-10.62,7.63-16.05,2.53-5.84,3.33-12.1,4.42-18.28,2.24-12.69,1.82-25.51,1.81-38.31,0-.66-.15-1.3-.22-1.95-.07-.71-.13-1.46.8-1.73,1.46.14,1.25,1.07.97,2.04Z"/>
        <path class="cls-6" d="m358.24,240.87c-.58-.49.32-1.53-.69-1.86-.11-.2-.07-.36.12-.5,4.7-1.62,7.04-5.11,7.96-9.82,1.11-5.64,1.13-11.33.97-17.03-.05-1.7-.63-3.19-1.88-4.48-3.97-4.08-5.92-8.95-5.57-14.7.05-.87.18-1.77-.16-2.63-.64-.11-.84.41-1.09.76-1.76,2.42-3.19,4.97-3.56,8.04-.21,1.83-.73,3.61-2.18,4.95-.69.63-1.44,1.03-2.4.98-1-.05-1.58-.53-1.47-1.58.36-3.29-.52-6.29-1.76-9.31-1.5-3.67-1.67-7.57-1.45-11.55.28-5.04,1.79-9.9,1.69-15.01-.07-3.68-1.02-7.01-2.42-10.3-.23-.54-.57-1.04-.69-1.64.13,1.42.23,2.83-.57,4.12-.28.46-.36,1-.4,1.54-.15,2.8-.88,5.5-1.36,8.25-.26,1.46-1.07,2.38-2.5,2.65-1.3.24-1.95,1.03-2.18,2.26-.15.76-.38,1.5-.83,2.14-.48.7-1.04,1.44-2.01,1.02-.84-.36-.9-1.18-.79-1.99.09-.71.34-1.38.39-2.1.08-1.26-.33-2.26-1.67-2.56-2.99-.66-4.34-2.92-5.38-5.46-.73-1.76-1.05-3.65-1.42-5.8-1.52,2.45-2.06,4.93-2.05,7.54,0,.7.32,1.42-.34,2-.11-.05-.27-.09-.3-.17-1.05-3.32-3.42-5.73-5.59-8.31-2.08-2.46-1.24-5.54-1.04-8.4.14-1.91.91-3.67,1.73-5.39.89-1.87,1.75-3.76,2.6-5.65.36-.82.79-1.59,1.39-2.26,3.39-3.77,3.4-3.81,3.54-8.94,1.84,1.93,2.67,3.91,2.89,6.4,1.12-1.17.86-2.46,1.01-3.89,1.6,1.39,2.16,2.96,2.04,4.98,3.77-1.05,6.54-3.05,8.02-6.56.79-1.86,1.42-3.85,1.46-5.84.07-3.2,1.16-6.02,2.49-8.82,1.35-2.84,2.69-5.67,3.18-8.82.15-.96.48-1.94,1.2-2.81.62.56.35,1.24.31,1.81-.48,6.33.73,12.25,4,17.76,1.44,2.44,1.09,5.32,1.3,8,.23,3.01-.01,6.04,1.68,8.79.52.83.56,1.92.3,2.95-.1.4-.07.83-.08,1.24-.01,1.19.76,1.85,1.68,2.3,1.01.49,1.46-.44,2.04-.99,1.22-1.18,1.22-2.87,1.79-4.48,1.02.88,1.08,2.05,1.57,3.32,3.5-3.26,5.79-7.14,7.69-11.66.89,1.87,1.01,3.59,1.19,5.24.44,3.89.78,7.81.4,11.72-.31,3.22.48,6.26,1.28,9.29,1.69,6.43,2.3,12.95,1.73,19.58-.07.76,0,1.54,0,2.3,2.63-.55,3.14-1.11,5.54-6.15.61.79.41,1.73.73,2.51,2.16,5.18.17,10.4.16,15.6,0,2.55.4,5.28-1.38,7.55-.07.08-.09.24-.05.34,1.14,2.69-.74,4.16-2.29,5.81-2.89,3.07-4.06,6.91-4.6,10.97-.46,3.46-.54,7-1.24,10.41-1.34,6.56-5.02,11.02-12.01,12.09-.24.05-.46.18-.68.26Z"/>
        <path class="cls-11" d="m322.57,168.85c-.03-6.16.32-7.61,2.67-10.82.32,1.67.61,3.24.93,4.81.39,1.88,1.19,3.58,2.33,5.13.78,1.05,1.72,1.81,3.03,1.99,2.35.32,2.51,1.61,2.38,3.57-.03.52-.17,1.06-.36,1.56-.29.75-.29,1.53.45,1.85.75.33,1.11-.48,1.47-.99.21-.28.41-.62.45-.96.24-2.14,1.03-3.69,3.49-3.91.79-.07,1.26-.76,1.39-1.64.48-3.09,1.06-6.16,1.54-9.26.3-1.94,1.28-3.81,1.05-5.94,1.97,3.2,3.44,6.55,3.79,10.31.43,4.65-.43,9.19-1.14,13.76-.91,5.92-.94,11.75,1.81,17.35,1.09,2.22,1.39,4.76.86,7.28-.21,1.01.22,1.25,1.12,1.26,1.56,0,2.34-1.05,3-2.18.69-1.19.95-2.54,1.13-3.9.5-3.74,2.36-6.76,5.01-9.35.11-.11.31-.11.66-.22,0,1.38.06,2.65,0,3.92-.32,5.73,1.64,10.59,5.71,14.57,1.2,1.19,1.7,2.59,1.74,4.14.17,6.45.31,12.92-1.34,19.25-.91,3.49-2.93,6.17-6.12,7.89-.62.33-1.33.51-2.07.4-.89-.58-1.48-1.49-2.28-2.18-2.4-2.07-4.87-1.67-6.42,1.06-.23.41-.38.87-.89,1.03-.47.44.17,1.14-.38,1.56-2.58.73-5.14,1.28-7.87.73-3.24-.66-5.73-2.18-6.96-5.38-.41-1.06-1.21-1.73-2.11-2.32-1.54-1.01-2.55-2.28-2.32-4.26.13-1.11-.42-1.95-1.28-2.58-.77-.56-1.6-1.03-2.34-1.62-2.54-2.02-4.21-4.51-3.94-7.92.15-1.95.17-3.95.67-5.81,1.48-5.49.97-10.96,0-16.39-.42-2.33.17-4.04,1.92-5.3,4.4-3.16,4.36-6.55,3.16-12.1-.07-.33-.25-.71-.5-.92-2.29-1.98-2.78-4.75-3.44-7.45Z"/>
        <path class="cls-5" d="m89.52,327.84c-6.71-9.12-12.12-18.91-15.62-29.74-6-18.53-8.75-37.48-7.7-56.94.4-7.51.31-15.13,2.11-22.46,4.03-16.45,12.08-30.66,24.85-41.99.7-.43,1.37-.19,2.05.06,6.73,2.4,13.72,3.22,20.82,3.34,8.32.15,16.62-.1,24.8-1.81.66-.14,1.3-.15,1.91.17,9.14,7.16,15.64,16.46,21.32,26.4,10.76,18.83,18.38,38.86,22.28,60.22,2.62,14.35,3.51,28.82,2.41,43.41-.66,8.78-1.93,17.44-4.4,25.89-1.35,4.63-3.3,9-5.99,13.02-.73.3-1.25-.17-1.79-.5-13.18-7.78-27.08-13.98-41.5-19.04-6.84-2.4-13.8-4.45-21.05-5.17-6.15-.61-12.31-.88-18.21,1.62-1.55.66-2.97,1.45-4.18,2.64-.56.55-1.09,1.35-2.11.87Z"/>
        <path class="cls-17" d="m214.96,224.51c5.61,16.68,11.76,33.18,16.59,50.13,3.58,12.58,6.26,25.31,6.85,38.42.23,5.1-.26,10.17-1.25,15.4-1.42-1.71-2.64-3.28-3.95-4.76-2.39-2.7-5.21-4.84-8.57-6.22-.4-.17-.94-.6-1.2.07-.2.52.42.64.74.81,10.37,5.4,14.96,14.59,16.83,25.57.89,5.29,1.26,10.59.39,15.93-1.32,2.32-3.54,3.71-5.68,4.99-10.88,6.52-22.69,10.47-35.19,12.43-1.79.28-3.39-.44-4.85-1.41-5.95-3.95-10.55-9.16-14.07-15.32-1.38-2.42-2.83-4.81-3.79-7.44-.22-.59-.66-1.17-.2-1.85,7.55-10.92,10.41-23.36,11.83-36.27.76-6.9,1.15-13.82,1.03-20.77-.41-24.55-5.66-48.04-15.56-70.5-5.28-11.96-11.26-23.52-19.3-33.92-3.2-4.14-6.77-7.92-10.76-11.29.12-1.01,1.02-.83,1.62-.97,7.41-1.73,14.55-4.23,21.36-7.65,5.43-2.73,10.28-6.32,14.95-10.16.79-.66,1.45-1.6,2.67-1.53.83,1.97,1.63,3.95,2.51,5.89.4.87.21,1.18-.73,1.15-.77-.02-1.54.03-2.32.06-.28.01-.66,0-.7.38-.05.46.34.56.71.59.47.03.95.02,1.42.02,8.43.04,16.62-1.48,24.73-3.61,14.65-3.87,28.84-9,42.57-15.41,1.21-.57,2.73-1.73,3.76-.95,1,.75.28,2.54.17,3.87-.22,2.5-.79,4.91-1.59,7.28-.63.4-.88-.06-.99-.52-.28-1.14-.84-.84-1.53-.39-1.77,1.16-3.35,2.59-5.16,3.7-.73.14-1.42-.11-2.11-.27-2.84-.67-5.69-1.2-8.72-.9,2.88-.07,5.6.52,8.32,1.09,2.78.58,3.1,1.18,2.11,3.76-.97,2.49-2.11,4.91-3.26,7.31-1.95,4.34-3.97,8.61-6.84,12.45-6.31,8.43-13.94,15.3-23.14,20.47-7.26,4.07-14.9,7.05-23.06,8.67-1.56.31-1.79.75-1.18,2.25,2.46,5.97,6.93,9.95,12.97,11.83,3.4,1.06,6.95.4,10.04-1.74.47-.33.85-.88,1.56-.69Z"/>
        <path class="cls-21" d="m34.46,108.67c-6.1-12.35-.01-21.85,8.85-26.83,1.5-.84,2.86-1.24,4.36.09.73.65,1.73,1.02,2.64,1.44,2.62,1.22,2.61,1.19,3.96-1.41,6.61-12.76,10.86-26.24,12.43-40.53.27-2.46.53-4.94.23-7.45-.17-1.43-.6-2.63-1.58-3.65.5-2.06,2.97-4.17,5.18-4.38,2.11-.2,4.12.18,5.99,1.19,1.18,1.03,1.15,2.52,1.43,3.87.13.63.26,1.26.36,1.99.44-1.7-.69-3.24-.21-4.86.54-.48,1.21-.42,1.86-.44,2.8-.1,5.1-1.18,7.12-3.16,2.85-2.79,5.26-5.94,8-8.82,4.1-4.3,8.92-7.34,14.45-9.45,6.83-2.61,13.91-3.26,21.13-3.05,1.07.03,2.04.63,3.12.45,15.02,4.79,28.24,12.22,37.4,25.57-.08.84-.75.64-1.2.59-1.6-.19-2.3.67-2.58,2.07-.56,2.8-.68,5.65-1.06,8.47-.86,6.41-1.11,12.9-2.54,19.23-.16.69-.23,1.42-.74,1.97-.24.26-.54.14-.81-.01-1.1-1.24-1.31-2.89-1.98-4.34-1.03-2.23-2.38-4.22-3.85-6.17-2.99-3.96-9.8-4.17-13.47-.66-4.53,4.32-7.24,9.61-9.37,15.32-2.82,7.55-4.08,15.45-5.04,23.41-.32,2.71-.48,5.42-.73,8.14-.17,1.8.63,2.89,2.18,3.66,3.07,1.52,6.34,2.23,9.71,2.69,3.24.44,6.51.02,9.73.59,2.67,2.58,3.11,5.65.99,8.63-3.03,4.24-7.4,6.83-12.1,8.76-8.82,3.64-18.06,5.81-27.48,7.14-11.68,1.66-23.32,3.57-35.03,4.96-3.2.38-6.28-.13-9.17-1.56-10.26-5.06-19.69-11.41-28.44-18.76-1.56-1.3-2.58-3.06-3.77-4.68Z"/>
        <path class="cls-34" d="m162.33,61.29c.38.18.58.19.7-.35.8-3.56,1.37-7.15,1.76-10.77.42-3.85.88-7.7,1.32-11.55.24-2.16.36-4.34.77-6.47.6-3.07.7-3.05,3.89-2.67.13.01.28-.17.43-.26,4.2,5.45,7.15,11.58,9.58,17.95,4.22,11.1,6.17,22.6,5.63,34.46-.31,6.8-1.46,13.51-2.85,20.18-1.26,6.02-1.85,12.16-2.39,18.29-.4,4.59-.75,9.18-.5,13.82.46,8.33,1.96,16.42,4.75,24.28-6.02,4.89-12.07,9.73-19.19,12.99-6.69,3.07-13.57,5.55-20.8,6.98-.21.04-.4.22-.6.33-7.36-6.11-15.91-9.37-25.69-10.61,11.6-4.19,22.13-9.56,31.16-18.23-1.26-.3-1.64.32-2.09.68-11.13,8.94-23.44,15.46-37.53,18.29-7.16,1.43-14.38,2.6-21.71,1.97-9.39-.81-17.76-4.44-24.87-10.48-11.58-9.83-20.22-21.78-24.57-36.54-.65-2.2-1.26-4.42-1.6-6.98,1.79,1.58,3.1,3,3.29,5.36.23,2.83,1.24,5.54,2.23,8.21.25.69.46,1.59,1.6.83.9-.6.75.45.89.78,3.34,8.04,7.76,15.39,14.19,21.32,5.86,5.4,12.43,9.69,20.33,11.61,4.21,1.02,8.39.45,12.53-.21,9.44-1.52,18.76-3.65,27.43-7.79,10.86-5.16,20.72-11.62,26.84-22.48.35-.62.73-1.23.99-1.89,1.09-2.75,1.99-5.62,5.08-6.89.1-.04.18-.16.24-.25.62-.89,2.13-2.22,1.58-2.65-.88-.68-1.44,1.03-2.19,1.64-3.13,2.52-6.77,3.86-10.61,4.78-8.47,2.03-17.1,3.18-25.73,4.3-9.22,1.19-18.42,2.5-27.63,3.75-4.63.63-9.27,1.26-13.9,1.87-2.46.32-4.7-.34-6.82-1.54-9.92-5.65-19.48-11.84-27.66-19.9-2.58-2.54-4.76-5.42-6.17-8.81,5.93,6.92,13.5,11.8,21.06,16.64,4.82,3.08,9.65,6.26,15.33,7.69,2.9.73,5.77.09,8.63-.26,5.44-.67,10.83-1.58,16.26-2.32,12.85-1.76,25.73-3.4,38.09-7.56,5.14-1.73,10.02-4.02,14.02-7.78,4.19-3.95,4.37-5.67,1.62-10.66.68-.84,1.66-.83,2.6-.87,3.31-.16,6.42-1.06,9.43-2.38,1.24-.55,1.99-1.39,2.21-2.77,1.03-6.57,1.48-13.16,1.05-19.83-.34-5.36-1.17-10.6-2.55-15.77-.13-.48-.3-1.01.13-1.48Z"/>
        <path class="cls-21" d="m347.94,238.64c.73-1.92,1.56-3.85,4.02-3.81,2.66.04,4.44,1.58,5.57,3.91,0,.09,0,.19.01.28-.91.26-.65.97-.62,1.61.98,17.56.58,35.09-3.93,52.14-3.34,12.64-9.67,24.06-17.58,34.53-6.51,8.62-14.33,15.82-23.5,21.52-6.36,3.16-13.19,4.57-20.16,5.49-3.18.42-6.4.71-9.57.64-8.96-.17-17.88-.89-26.55-3.49-3.88-1.17-7.64-2.57-11.21-4.48-.8-.42-1.58-.83-1.93-1.74-.81-4.87-1.99-9.63-4.1-14.12-.24-.5-.34-.99-.22-1.54,1.52-7.07,1.77-14.21,1.17-21.4.54-.31.77.19,1.02.42,7.06,6.43,15.48,9.66,24.87,10.76,9.82,1.15,19.54,1.01,29.01-2.18,15.7-5.29,28.42-14.67,38.46-27.83,8.84-11.58,13.87-24.59,15.29-39.04.32-3.24.67-6.48.91-9.73.05-.71.65-1.93-.95-1.93Z"/>
        <path class="cls-34" d="m61.76,379.77c.26-.94.54-1.88.8-2.81.89-.48,1.47.21,2.05.64,4.44,3.34,9.65,4.71,14.93,5.93.46.11.95.1,1.42.07,1.88-.09,2.45-.85,1.6-2.5-2.34-4.53-3.33-9.42-3.62-14.4-.36-6.1,1.62-11.59,5.68-16.2,2.45-2.78,5.2-5.2,8.79-6.47.67-.24,1.22-.72,1.85-1.05,1.07-.56,1.36-1.36,1.05-2.52-.23-.88-.7-1.82.07-2.7,4.98,4.86,10.39,9.19,16.17,13.04,6.4,4.25,13.19,7.75,20.44,10.33,1.49.53,1.32.94.53,1.97-5.09,6.59-9.33,13.72-13.23,21.08-1.13,2.12-1.17,4.12-.73,6.33.97,4.94,1.75,9.9,2.26,14.92.19,1.85-.52,2.65-2.01,3.19-4.14,1.48-8.37,2.63-12.73,3.18-14.37,1.79-28.78,2.78-43.27,2.89-1.52.01-2.19-.2-1.67-1.89.37-1.2-.37-2.3-.66-3.43.46-.49,1.09-.36,1.66-.48,5.58-1.14,10.63-3.2,14.11-8.03.49-.68.9-1.38,1.09-2.21.48-2.11.11-3.03-1.73-4.15-1.77-1.07-3.59-2.07-5.2-3.38-.64-.52-1.36-.98-1.51-1.88.24-.5.39-.95-.19-1.37-2.4-1.75-4.16-4.14-6.13-6.32-.33-.36-.64-.7-1.19-.56-.59-.21-.59-.73-.63-1.22Z"/>
        <path class="cls-21" d="m15.47,184.23c-.69-.89-1.42-1.75-2.05-2.67-2.17-3.14-4.59-5.98-8.24-7.51-1.2-.5-2.17-1.42-3.11-2.35-.99-.98-1.01-1.7.21-2.55,2.49-1.72,4.99-3.42,7.27-5.44.91-.8,1.29-1.56,1.11-2.91-.62-4.47-.93-8.98-.26-13.47.3-2.01.43-2.07,2.13-.86,8.32,5.9,17.29,10.58,26.75,14.36,9.22,3.69,18.74,5.87,28.67,6.41,2.43.13,4.94-.17,7.29,1.11,2.18,1.18,4.64,1.75,7.16,2.48-7.1,15.43-12.72,31.25-15.63,47.94-.91.69-1.71.06-2.49-.26-5.8-2.34-11.08-5.66-16.41-8.86-9.02-5.43-17.34-11.81-25.28-18.7-2.46-2.14-4.88-4.32-7.11-6.71Z"/>
        <path class="cls-24" d="m89.52,327.84c.51-.03.88-.3,1.22-.65,3.51-3.65,8.01-4.72,12.84-5.12,9.29-.78,18.17,1.11,26.96,3.86,10.99,3.44,21.52,7.92,31.88,12.9,5.46,2.62,10.74,5.51,15.93,8.58-3.84,6.61-8.42,12.6-14.35,17.5-.58.48-1.16.71-1.93.66-29.15-1.94-53.18-13.94-71.8-36.55-.3-.36-.52-.78-.77-1.18Z"/>
        <path class="cls-34" d="m177.59,351.27c3.46,9.08,8.77,16.81,16.35,22.97,3.2,2.6,6.55,2.85,10.43,1.99,9.28-2.04,18.21-4.97,26.71-9.25,3.78-1.9,7.16-4.34,10.31-7.14-.7,7.45-3.52,14.06-7.83,20.11-3.44,4.83-7.55,8.97-12.33,12.47-.37.27-.83.49-1.03,1.24,1.76-.53,3.07-1.58,4.46-2.45.48-.3.89-.81,1.42.02,2.72,4.23,5.7,8.34,6.56,13.47.23,1.34.45,2.69-.13,4.01-1.22-2.4-3.47-3.39-5.78-4.42-12.3-5.48-25.01-5.75-37.81-2.58-7,1.73-13.22,5.26-18.07,10.82-.31.36-.61.74-1.13.81-1.34-4.51-.72-8.99.18-13.48.91-4.53,2.41-8.9,3.57-13.36.36-1.37.23-2.48-.5-3.7-2.92-4.89-5.55-9.92-7.7-15.2-.47-1.17-.34-1.84.64-2.69,4.43-3.88,8.26-8.29,11.21-13.42.07-.12.3-.15.46-.22Z"/>
        <path class="cls-34" d="m214.96,224.51c-3.78,3.72-10.79,4.32-15.46,1.34-4.24-2.71-7.79-5.93-9.64-10.74-.73-1.9-.56-2.33,1.37-2.68,12.11-2.21,22.97-7.34,32.56-14.88,8.44-6.63,15.46-14.58,19.58-24.73.22-.53.37-1.15.97-1.44,1.45-2.34,2.93-4.64,3.89-7.26.5-1.36.92-2.61.28-4.01,1.45-2.07,3.73-3.08,5.69-4.5.68-.49,1.07-.09,1.09.7.01.51-.1,1.11.68,1.19.05.86-.62,1.48-.71,2.34-.34,3.23.11,5.92,3.54,7.41,1.49.65,2.73,1.88,4.12,2.77,1.19.75,1.36,1.65.71,2.85-1.78,3.34-4.44,5.83-7.57,7.84-.98.63-1.71,1.38-2.26,2.42-3.44,6.54-7.63,12.54-12.83,17.83-8.81,8.96-19.66,13.8-31.85,16.03-3.56.65-7.16.94-10.77,1.09-.51.02-1.32-.11-1.33.53,0,.73.82.46,1.3.48,4.4.19,8.75-.35,13.05-1.25,1.22-.25,1.69,0,1.97,1.21.44,1.83,1.07,3.62,1.62,5.44Z"/>
        <path class="cls-21" d="m96.38,337.77c-.15,1.03.16,2.03.48,2.95.42,1.2.1,1.91-.97,2.46-1.26.66-2.53,1.28-3.77,1.95-6.96,3.77-11.43,9.47-12.46,17.44-.83,6.42.56,12.53,3.37,18.32,1.09,2.24.46,3.39-2.05,3.14-5.89-.6-11.4-2.44-16.32-5.83-.68-.46-1.25-1.09-2.1-1.25-1.65-2.19-3.93-3.77-5.66-5.88-.34-.41-.68-.81-1.03-1.21.32-.42.81-.48,1.28-.5,4.84-.13,7.73-3,9.6-7.08,2.05-4.48,2.93-9.22,3.15-14.15.26-5.81-1.04-11.44-1.58-17.16-.6-6.33.01-12.45,3.82-17.85.91-1.19,2.27-1.89,3.3-2.95.95-.98,1.42-.93,2.07.41,3.48,7.1,7.66,13.76,12.45,20.04,1.94,2.56,4.2,4.83,6.4,7.15Z"/>
        <path class="cls-24" d="m331.92,340.98c-5.46,7.53-12.21,13.69-19.82,18.96-14.68,10.16-31.01,14.68-48.8,14.31-7.48-.16-14.92-.54-22.3-1.83-1.44-.25-1.4-.7-.94-1.81,1.2-2.85,1.96-5.84,2.4-8.9.12-.81.21-1.34,1.28-1.05,7.79,2.07,15.76,1.93,23.69,1.58,10.27-.46,20.35-2.38,30.21-5.3,6.95-2.06,13.22-5.5,19.06-9.76.28-.21.6-.36.9-.54,4.28-1.26,8.26-3.2,12.22-5.2.66-.32,1.24-1.01,2.1-.46Z"/>
        <path class="cls-7" d="m115.59,157.42c-8.69,3.3-17.69,5.27-26.88,6.41-5.61.7-10.84-.58-15.78-3.2-5.43-2.88-10.36-6.43-14.56-10.97-.86-.93-1.37-1.83-1.16-3.14.28-1.69.43-3.4.64-5.1,1.28-1.25,2.97-.99,4.51-1.15,3.71-.38,7.43.08,11.13.13,4.96.06,9.84.46,14.65,1.37,10.08,1.9,18.95,6.36,26.41,13.46.59.56,1.55,1.07,1.03,2.19Z"/>
        <path class="cls-3" d="m115.59,157.42c-1.21-2.24-3.15-3.82-5.16-5.23-7.34-5.16-15.23-9.06-24.23-10.32-6.26-.87-12.55-1.53-18.87-1.4-3.16.06-6.37.16-9.48.95.09-2.2-.15-2.39-2.09-1.52-.54.24-1.17.45-1.54.87-1.24,1.38-1.78.79-2.7-.48-1.35-1.85-1.3-3.37.15-5.02.39-.44.64-1.01.99-1.48,1.99-2.65,2.81-2.76,5.56-1.03,2.96,1.86,6,3.6,8.96,5.46,3.03,1.91,6.28,2.24,9.73,1.76,13.6-1.89,27.2-3.74,40.8-5.61,2.52-.34,5.04-.66,7.56-1.04.81-.12,1.35.03,1.75.79.83,1.58,1.72,3.11,2.58,4.67.93,1.68,1.59,1.71,2.6.12,1.18-1.86,2.14-3.83,2.94-5.88.38-.97.89-1.44,2.01-1.66,3.71-.68,7.39-1.5,11.23-2.93-.79,2.95-2.17,5.25-3.62,7.51-3.93,6.13-9.38,10.64-15.46,14.47-1.2.75-2.45,1.46-3.63,2.24-.78.52-1.24.35-1.67-.44-.75-1.37-1.79-2.52-3-3.5-1.24-1.01-1.85-.79-2.18.76-.37,1.73-.86,3.48-.95,5.23-.06,1.66-.86,2.34-2.26,2.69Z"/>
        <path class="cls-21" d="m70.01,389.07c1.67,2.27,4.16,3.45,6.48,4.84,2.66,1.6,3.32,3.98,1.52,6.61-3.96,5.81-9.71,8.36-16.54,8.86-1.56-3.27-6.53-4.46-10.91-3.42-1.31.31-2.6.7-3.91,1.05-.71-4.93-3.91-7.7-8.88-7.64-1.07.01-1.52-.15-1.66-1.36-.22-1.92-1.54-3.01-4.07-3.82.25-.75.95-1,1.5-1.36,7.6-5.08,15.98-8.47,24.63-11.3,1.26-.41,2.7-.56,3.58-1.77.24.38.48.75.72,1.13.69.07.97.63,1.3,1.11,1.63,2.42,3.51,4.61,5.9,6.33.24.17.46.38.34.73Z"/>
        <path class="cls-13" d="m72.15,313.12c.36.4-.07.63-.22.91-2.96,5.37-3.79,11.1-3.05,17.13.75,6.08,1.96,12.13,1.5,18.32-.42,5.61-1.58,11.02-4.72,15.77-2.26,3.42-5.66,4.9-9.78,4.61-6.81-8.13-8.3-17.32-5.26-27.31,2.43-7.97,7.1-14.67,12.55-20.84,2.75-3.1,5.79-5.93,8.98-8.59Z"/>
        <path class="cls-21" d="m169.73,413.36c2.46-3.91,6.23-6.26,10.11-8.45,6.85-3.88,14.28-5.46,22.11-5.52,7.14-.06,14.19.21,20.95,2.84,2.43.95,4.87,1.87,7.16,3.12,1.3.71,2.54,1.59,2.46,3.37-.68,4.12-3.11,6.75-7.01,8.38.34-2.46,0-4.65-1.31-6.6-2.67-3.99-8.57-3.77-10.98.38-1.5,2.58-2.09,5.39-2.11,8.35,0,1.24-1.63,2.26-2.77,1.79-.64-.26-.36-.81-.37-1.22-.11-2.6-.7-5.04-2.25-7.18-2.27-3.11-6.94-3.99-10.39-1.97-2.93,1.71-3.87,5.49-2.23,9.12.36.79.81,1.55,1.22,2.36-2.61.4-2.64.4-3.13-1.97-.76-3.69-2.35-6.88-5.75-8.79-5.68-3.19-11.2-.15-11.7,6.38-.03.46-.05.93-.08,1.71-2.32-1.6-3.19-3.8-3.92-6.1Z"/>
        <path class="cls-13" d="m76.49,27.46c-1.3-.31-2.52-.89-3.87-1.1-3.46-.52-5.45,1.53-7.26,3.96-1.18-.21-1.54-.59-.82-1.83,1.47-2.5,3.45-4.4,6.04-5.58,1.35-.62,2.31-1.5,3.18-2.69,7.91-10.88,18.68-16.97,31.98-18.41,8.88-.96,17.78-.87,26.51,1.4.52.13,1.03.29,1.54.44-.75.62-1.47-.05-2.2-.07-10.95-.26-21.46,1.23-30.72,7.69-3.97,2.77-7,6.5-10.2,10.07-2.5,2.79-4.75,5.97-8.9,6.65-1.19.19-2.36.05-3.54.17-.87-.24-1.03-1.15-1.66-1.75.03.39.21.76-.07,1.05Z"/>
        <path class="cls-34" d="m242.49,345.25c4.89,3.13,10.29,5.01,15.88,6.4,6.61,1.64,13.31,2.3,20.13,2.6,9.92.43,19.5-.94,28.88-3.99,1.51-.49,2.91-1.31,4.54-1.45-3.09,2.34-6.59,3.94-10.17,5.32-8.43,3.28-17.27,4.87-26.19,6.1-7.3,1.01-14.63,1.12-21.97.66-3.18-.2-6.37-.48-9.46-1.38-.69-.21-1.42-.37-1.26-1.37.69-4.31.15-8.6-.37-12.88Z"/>
        <path class="cls-34" d="m15.47,184.23c.7-.05,1.04.48,1.46.89,7.84,7.45,16.15,14.31,25.18,20.28,6.41,4.24,12.94,8.26,19.85,11.64,1.52.75,3.05,1.56,4.8,1.72-.37,3.59-.75,7.18-1.13,10.92-2.21-.7-4.22-1.67-6.2-2.72-11.31-6.02-20.73-14.35-29.28-23.78-5.28-5.81-10.08-11.98-14.52-18.44-.09-.15-.11-.35-.16-.52Z"/>
        <path class="cls-24" d="m142.74,178.47c-9.8,2.3-19.77,2.49-29.74,2.11-6.41-.24-12.79-1.14-18.8-3.67-.32-.13-.69-.14-1.03-.2,3.37-3.02,7.11-5.27,11.72-5.74,4.4-.45,8.61-2.13,13.14-1.78,9.16.69,17.38,3.76,24.71,9.28Z"/>
        <path class="cls-18" d="m175.01,417.89c-.01-1.32.49-2.87,1.5-4.25,1.47-2.03,3.47-2.75,5.91-2.14,3.17.79,5.3,2.83,6.56,5.75,1.29,2.99,1.66,6.13,1.05,9.37-.15.78-.4.94-1.17.78-3.61-.75-7.12-1.77-10.32-3.64-2.67-1.56-3.58-3.02-3.53-5.87Z"/>
        <path class="cls-18" d="m199.89,410.88c2.09-.03,3.99.98,5.31,3.19,2.52,4.23,1.48,11.19-2.16,14.3-.54.46-.82.22-1.2-.09-3.1-2.47-5.8-5.3-7.53-8.9-2.18-4.53.31-8.55,5.59-8.51Z"/>
        <path class="cls-18" d="m23.45,410.54c3.73-4.82,7.27-9.14,13.47-9.94,3.24-.42,6.08.92,7.69,3.69,1.1,1.89.73,3.2-1.17,4.17-.05.03-.11.05-.15.09-3.47,3.11-7.65,2.91-11.87,2.57-2.52-.21-5.05-.36-7.96-.58Z"/>
        <path class="cls-18" d="m212.33,421.14c.07-3.15.13-6.28,1.69-9.18,1.14-2.11,2.78-3.15,5.18-2.99,2.43.17,3.96,1.52,4.69,3.73.98,2.94.48,5.69-1.75,7.88-2.46,2.42-5.32,4.34-8.41,5.92-1.18.6-1.44.19-1.42-.91.03-1.48,0-2.97,0-4.46Z"/>
        <path class="cls-17" d="m91.41,176.4c-8.25,7.51-14.27,16.6-18.98,26.63-.22.47-.51.91-.79,1.42-.36-.48-.15-.85-.05-1.22,2.95-10.52,6.81-20.71,11.35-30.64.55-1.2,1.17-1.64,2.39-1.11,1.9,1.16,3.54,2.69,5.48,3.8.38.22.8.54.6,1.13Z"/>
        <path class="cls-5" d="m331.92,340.98c-3.2,1.5-6.32,3.18-9.63,4.46-1.05.4-2.07.89-3.09,1.34-.56.24-1.11.49-1.6-.13,7.48-5.73,14.21-12.19,19.79-19.82,4.12-5.63,7.52-11.64,10.55-17.9.36-.08.52.03.42.42-3.89,10.91-8.88,21.27-15.56,30.77-.23.32-.58.58-.87.87Z"/>
        <path class="cls-18" d="m15.81,405.7c3.69-5.24,8.09-8.98,14.25-10.18,2.57-.5,4.57.79,4.93,2.88.11.66.17,1.25-.75,1.48-3.17.79-5.53,2.86-7.75,5.1-.57.57-1.15.87-1.99.96-2.79.3-5.55.07-8.69-.24Z"/>
        <path class="cls-4" d="m64.02,35.93c-.26,4.86-1.29,9.45-3.62,13.69-.82,1.5-1.95,2.67-3.4,3.56-1.4.87-1.88.66-2.4-.97-.58-1.8-.26-3.54.43-5.2,1.74-4.16,3.75-8.19,6.04-12.06.54-.91,1.19-2.29,2.22-1.97,1.26.39.46,1.97.72,2.95Z"/>
        <path class="cls-2" d="m40.44,415.05c-.95.07-1.88-.07-2.9-.39.59-1.25,1.72-1.91,2.71-2.65,4.14-3.14,8.78-5.07,14.03-5.1,2-.01,4.01.4,5.38,2.15.07.94-.66,1.01-1.28,1.13-5.41,1.07-10.59,2.95-15.88,4.47-.69.21-1.42.09-2.07.4Z"/>
        <path class="cls-10" d="m40.44,415.05c5.75-2.3,11.71-3.88,17.72-5.3.57-.13,1.2-.02,1.5-.7.85.83,1.14,1.91,1.21,3.04.11,1.82-.6,2.88-2.44,3.03-6,.48-12.01.95-18-.07Z"/>
        <path class="cls-29" d="m54.91,71.16c-.19,3.74-.97,7.34-2.2,10.85-.23.64-.64.72-1.27.5-1.64-.6-3.05-1.58-4.5-2.5-.56-.35-.46-.93-.39-1.45.36-2.56.74-5.12,1.15-7.93,1.07,1.22,1.37,3.15,3.26,2.99,1.64-.14,2.69-1.38,3.94-2.46Z"/>
        <path class="cls-9" d="m49.38,136.47c-1.2-2.35-2.22-4.53-2.81-6.87-.35-1.38.66-2.44,1.32-3.53.23-.38.61-.15.92.08,1.66,1.22,3.32,2.44,4.98,3.65.6.43.58.86-.03,1.24-1.99,1.22-2.92,3.32-4.38,5.43Z"/>
        <path class="cls-20" d="m91.41,176.4c-1.15-1.38-2.94-1.88-4.24-3.05-.65-.59-1.24-1.24-1.85-1.87,3.79.52,7.59.75,11.51.69-1.87,1.36-3.64,2.79-5.42,4.24Z"/>
        <path class="cls-27" d="m134.22,132.04c-1.03,2.37-1.84,4.44-3.3,6.41-.93-1.65-1.79-3.16-2.65-4.67-.34-.58-.19-.81.48-.89,1.74-.24,3.47-.54,5.48-.85Z"/>
        <path class="cls-26" d="m44.54,129.39c-1.12-2.84-1.85-5.49-2.26-8.49,1.5,1.26,2.83,2.41,4.2,3.51.47.38.47.71.17,1.2-.68,1.17-1.32,2.37-2.11,3.78Z"/>
        <path class="cls-30" d="m118.85,156.15c.41-2.35.75-4.31,1.13-6.41,1.63.83,2.38,2.3,3.27,3.65.38.58-.11.71-.45.89-1.21.59-2.43,1.16-3.95,1.88Z"/>
        <path class="cls-19" d="m55.98,146.54c-3.05-3.56-3.32-3.62.52-5.46-.17,1.82-.33,3.54-.52,5.46Z"/>
        <path class="cls-14" d="m348.35,309.34c-.14-.14-.28-.28-.42-.42.48-1.17.97-2.34,1.45-3.5.06,1.45-.34,2.73-1.03,3.92Z"/>
        <path class="cls-1" d="m248.5,160.08c.98.74,1.2,1.61.7,2.78-1.07,2.5-1.99,5.07-3.63,7.29-.34.46-.55,1.07-1.22,1.2-.08-1.27.84-2.16,1.24-3.24.69-1.82,1.46-3.62,2.28-5.39.49-1.05.19-1.49-.87-1.74-2.65-.62-5.3-1.17-8.03-1.36-1.03-.07-2.09-.03-3.02-.69,4.3-.9,8.43.07,12.55,1.15Z"/>
        <path class="cls-16" d="m162.33,61.29c2.32,7.84,3.37,15.87,3.09,24.04-.15,4.55-.28,9.12-1.27,13.61-.28,1.28-.89,1.98-1.97,2.5-3.19,1.52-6.54,2.42-10.08,2.65-.89.06-1.76.22-2.64.34-4.69.03-9.37.03-13.98-1.05-.92-.22-1.84-.46-2.73-.76-5.39-1.81-5.69-2.48-5.18-8.16.79-8.63,1.82-17.21,4.44-25.51,2.11-6.71,4.74-13.17,9.91-18.25,5.22-5.13,11.49-4.65,15.85,1.2,2.13,2.85,3.52,6.04,4.55,9.4Z"/>
        <path class="cls-13" d="m60.36,116.86c-.99-1.82-2.05-3.59-2.77-5.55-.62-1.67-.44-3.07.67-4.46,2.19-2.75,5.17-4.07,8.46-4.82.95-.22,1.52.32,1.56,1.41.06,2.17-.23,4.27-1.25,6.19-1.4,2.62-2.4,5.41-3.4,8.19-.44,1.2-.74,2.16-1.77.38-.09-.16-.42-.18-.63-.26-.57-.15-.77-.58-.87-1.09Z"/>
        <path class="cls-12" d="m141.21,38.89c.44-.02.77-.24,1.08-.53,1.06-.99,2.03-.75,2.86.3.87,1.09.44,2.07-.56,2.69-2.74,1.72-5.16,3.85-7.73,5.93-.46-.68.39-1.46-.3-1.99-.39-.65.08-1.12.36-1.6,1.1-1.89,2.43-3.58,4.28-4.8Z"/>
        <path class="cls-25" d="m76.49,27.46c.05-.72-1.15-1.58-.4-1.93.74-.34,1.04.99,1.52,1.58.25.31.42.7.62,1.05.23,1.63.83,3.21.68,4.89-.04.43-.07.95-.55.97-.54.03-.5-.53-.58-.93-.32-1.9-.39-3.86-1.29-5.63Z"/>
        <path class="cls-8" d="m141.21,38.89c-.07,1.03-1.09,1.28-1.63,1.93-1.17,1.38-2.32,2.77-3.01,4.46-.44.22-.41,1.22-1.11.85-.5-.26-.12-.88.05-1.28,1.15-2.69,2.48-5.24,5.69-5.96Z"/>
        <path class="cls-28" d="m60.36,116.86c.44.24.67.65.85,1.09.43,1.09.88,2.16,1.28,3.26.11.3.21.77-.17.94-.43.19-.6-.25-.74-.56-.57-1.16-1.11-2.33-1.69-3.48-.32-.63-.13-1,.46-1.24Z"/>
        <path class="cls-33" d="m82.92,125.66c-.44-.05-.59-.39-.3-.71,1.08-1.17,2.33-2.14,3.81-2.73.46-.19.76.19.61.73-.07.26-3.79,2.71-4.12,2.71Z"/>
        <path class="cls-15" d="m70.01,389.07c-3.21-2.08-5.42-5.08-7.53-8.17.07-.42.2-1.04.7-.46,2.38,2.73,4.74,5.46,7.51,7.82.93.78-.15.77-.68.81Z"/>
        <path class="cls-35" d="m20.53,174.6c-2.61-.57-5-1.6-7.21-3.02-.99-.64-.98-1.57-.36-2.48,1.62-2.42,3.39-4.72,5.42-6.82.28-.28.62-.76,1.03-.43.55.44,0,.83-.27,1.18-1.55,2.03-3.09,4.06-4.68,6.05-.75.93-.66,1.46.44,2,1.86.93,3.71,1.85,5.72,2.42.4.11.91.2.87.71-.05.63-.61.36-.95.39Z"/>
        <path class="cls-22" d="m156.98,81.43c2.87,4.91,3.3,9.65,1.95,14.59-.48,1.77-1.07,3.5-2.03,5.1-.48.8-1.08,1.23-1.93,1.34-7.14.94-14.27,1.2-21.26-.91-4.89-1.48-4.97-1.71-3.05-6.32.83-2.01,1.72-3.99,2.67-6.18,3.71,5.18,8.37,6.85,14.23,5.01,5.97-1.87,8.08-6.69,9.41-12.64Z"/>
        <path class="cls-4" d="m149.56,56.5c.03,5.23-1.72,9.88-4.57,14.16-1.28,1.91-2.99,3.37-5.14,4.23-2.56,1.03-4.2.15-5.04-2.42-.93-2.87-.54-5.73.35-8.39,1.56-4.63,3.93-8.88,7.47-12.36.21-.21.41-.43.64-.62,1.14-.99,2.4-2,3.97-1.44,1.58.56,1.92,2.16,2.12,3.65.14,1.05.13,2.13.2,3.19Z"/>
        <path class="cls-31" d="m160.48,59.88c1.87,5.46,3.12,11.06,3.44,16.82.41,7.28.42,14.56-.97,21.78-.19.95-.55,1.62-1.53,1.93-.84.27-1.64.68-2.46,1.01-.15.06-.33.06-.75.13,1.53-3.22,2.41-6.48,2.99-9.82,1.34-7.6.99-15.22.23-22.85-.28-2.77-.78-5.5-1.35-8.22-.07-.37-.29-.8.4-.79Z"/>
        <path class="cls-23" d="m160.48,59.88c-.35.15-.26.52-.39.78-.48-1.48-.97-2.97-1.46-4.46,1.02,1.07,1.58,2.3,1.85,3.67Z"/>
      </g>
    </g>
  </g>
</svg>