<?xml version="1.0" encoding="UTF-8"?>
<svg id="Capa_2" data-name="Capa 2" xmlns="http://www.w3.org/2000/svg" xmlns:xlink="http://www.w3.org/1999/xlink" viewBox="0 0 931.88 421.38">
  <defs>
    <style>
      .cls-1 {
        fill: #fff;
      }

      .cls-2 {
        fill: #004a94;
      }

      .cls-3 {
        fill: #ffba42;
      }

      .cls-4 {
        fill: url(#Degradado_sin_nombre_99);
      }

      .cls-5 {
        fill: #a20005;
      }

      .cls-6 {
        fill: #02a9d9;
      }

      .cls-7 {
        fill: #ffcb05;
      }
    </style>
    <linearGradient id="Degradado_sin_nombre_99" data-name="Degradado sin nombre 99" x1="251.44" y1="354.68" x2="287.6" y2="401.53" gradientUnits="userSpaceOnUse">
      <stop offset="0" stop-color="#bc0000"/>
      <stop offset="1" stop-color="#ff031a"/>
    </linearGradient>
  </defs>
  <g id="Capa_1-2" data-name="Capa 1">
    <g>
      <g>
        <path class="cls-2" d="m857.99,101.22l-6.95,28.62-6.47-31.86-86.03-18.92.65,47.86,12.94,2.91-.97,8.73c-.16,0-.32-.16-.32-.16-16.01-8.57-36.06-9.38-54.82-2.26-6.31,2.43-12.13,5.66-17.46,9.38l-12.94-81.98h-57.24l-1.62,9.38h-60.31l-6.95,42.2-5.01-6.14c-14.55-17.95-35.74-27.81-59.18-28.3l51.1-27.49L510.81,0l-64.52,74.22,11.16,13.58c-10.19,4.04-18.92,9.7-26.2,16.66l-55.3-49-19.4,37.03.81-35.57-86.35,27.65,2.26,46.41,14.71-3.88,2.26,23.61c-16.82-7.6-37.03-7.44-55.63.49-5.5,2.43-10.67,5.34-15.52,8.89,3.23-14.39,2.43-28.46-2.91-41.07-6.47-14.88-17.79-27.17-31.69-34.93-9.7-6.47-21.34-10.51-33.63-11.97-29.91-5.17-65.81.16-101.06,15.2-12.94,5.5-25.06,11.8-36.06,18.76L0,114.81l8.41,14.07,25.87,43.66,7.92,13.42,14.07-6.79,1.94-.97,64.36,143.59,6.14,13.74,14.39-4.69,34.77-11.16,15.2-4.85-4.04-15.52-18.43-70.99c5.34-3.88,10.35-8.09,14.88-12.45-.97,8.57-.49,17.14,1.78,25.23,4.85,17.14,16.17,30.72,31.69,38.32,16.82,8.09,37.51,8.09,56.6,0,9.54-4.04,18.11-10.03,25.23-16.98l2.59,28.3,60.96-8.89v-54.65l127.42,63.06v-60.96c5.17-.49,10.35-1.29,15.52-2.43,14.07-3.4,26.03-8.09,36.71-14.39l-5.34,32.66,68.72,10.83,3.88-24.74,17.95,33.15,11-21.18,4.04,34.6,77.94,13.74-4.2-26.2c10.67,1.13,21.83-.16,32.83-4.2,2.59-.97,5.17-2.1,7.6-3.4l-3.07,27.97,51.74,7.28.49,21.18,54.01,16.98,70.34-211.99-73.9-17.95Zm-304.16,31.37l3.56-3.88-4.37,26.68-11.32-10.19,12.13-12.61Zm-45.6-109.15l18.92,25.55-54.01,26.84-3.72-5.66,38.81-46.73Zm-98.31,149.74l-17.63-6.79,16.33-15.85c-.65,7.28-.16,14.88,1.29,22.64Zm-258.72,47.86l21.51,82.47-34.77,11.16-71.63-159.6c-3.88,2.1-11,5.5-17.63,8.73l-25.87-43.66c10.35-6.63,21.51-12.45,33.63-17.46,33.63-14.39,65.81-18.6,91.52-14.07,9.06.97,18.76,3.72,27.17,9.38,11.64,6.47,20.37,15.85,25.55,27.65,12.45,28.62-8.41,70.02-49.48,95.4Zm147.47,20.37c-7.28,10.03-17.3,18.43-29.11,23.45-30.24,12.77-60.48,0-68.56-28.62-7.76-27.81,10.35-60.8,39.62-73.41,18.76-7.92,37.35-5.98,50.94,3.07,8.25,5.66,14.55,14.07,17.63,24.74.32,1.13.65,2.26.81,3.56.81,4.04,1.13,8.09.97,12.29-.16,12.13-4.69,24.42-12.29,34.93Zm176.9,23.28l-126.29-63.23.16,66.3-32.66,4.53-2.26-27.33c10.19-17.3,13.74-37.68,8.57-56.27-2.91-10.35-8.25-19.24-15.52-26.36l-4.69-55.63-14.71,3.88-.65-14.07,52.55-15.69,3.23,54.17,38.65-54.33,37.84,36.06-52.88,55.79,49.64,19.57c5.66,10.51,13.91,19.4,24.58,26.03,10.35,6.31,21.99,10.19,34.44,11.32v35.25h0Zm27.65-54.01c-4.04.97-7.92,1.62-11.8,1.94-28.94,2.91-53.36-10.51-62.58-32.18-1.13-2.59-1.94-5.34-2.59-8.09-4.2-18.27-.65-34.44,8.41-47.22,2.59-3.72,5.66-7.11,9.06-10.19,8.41-7.6,19.24-13.1,31.53-16.01,27.65-6.63,51.91,1.78,66.78,20.05l-52.55,55.95c3.56.65,9.22-.32,13.42-1.29,12.61-3.07,19.57-9.7,25.71-16.98l21.02,18.92,6.47,5.82c-2.75,2.91-5.66,5.5-8.57,7.92-12.13,10.35-26.03,16.98-44.31,21.34Zm198.89,60.31l-43.01-6.63-11.48-75.84-16.17,41.88-24.26-52.23h-.32l-9.54,60.64-40.43-6.95,5.66-33.8c1.46-1.46,3.07-2.91,4.53-4.37l13.1-13.42-12.61-11.32,13.42-80.37h40.75l10.19,55.63,11.48-64.52h29.11l12.13,78.59c-15.36,17.63-22.8,41.07-17.79,62.74,4.04,16.66,14.23,30.24,28.94,38,1.46.81,3.07,1.46,4.53,2.1l1.78,9.86Zm43.17-23.45c-10.51,3.88-20.7,4.69-30.08,2.91-6.47-1.29-12.29-3.72-17.3-7.44-8.09-5.82-14.07-14.55-16.66-25.39-3.07-13.1-.32-27,6.79-39.13,3.56-5.98,8.09-11.64,13.42-16.49,5.98-5.34,12.77-9.7,20.54-12.61,17.79-6.63,35.25-4.37,47.7,4.53,4.53,3.23,8.41,7.28,11.32,12.13,2.26,3.72,4.04,7.92,5.17,12.45,3.72,15.69-.81,32.5-10.67,46.08-4.2,5.82-9.38,11-15.36,15.2-4.85,3.07-9.7,5.82-14.88,7.76Zm105.43,63.71l-29.91-8.89-2.59-110.12-15.04,84.89-32.66-5.17,2.26-24.42c21.34-17.95,32.66-46.25,26.36-71.96-2.75-11.32-8.57-21.34-16.82-28.94l2.75-28.78-12.29-3.23.81-15.36,56.11,11.32,18.92,89.58,19.4-80.2,42.69,9.54-59.99,181.75Z"/>
        <path class="cls-2" d="m760.32,169.14c.32,1.29.49,2.59.49,4.04-.32,8.41-8.25,14.71-17.63,14.39-9.38-.32-16.66-7.44-16.33-15.85.32-7.92,7.28-14.07,15.85-14.39-1.62-.32-3.4-.65-5.17-.65-15.69-.65-28.46,10.51-29.11,24.26-.65,14.71,11.32,26.84,26.68,27.49,15.69.65,28.46-10.51,29.11-25.23.32-5.01-1.13-10.03-3.88-14.07Zm-475.56,16.82c0,8.41-7.6,15.2-16.98,15.2s-16.98-6.79-16.98-15.2c0-7.92,6.63-14.23,15.36-15.04-1.62-.32-3.4-.49-5.17-.49-15.69,0-27.97,11.64-27.97,25.55,0,14.71,12.29,26.36,27.81,26.36s27.97-11.64,27.97-26.36c0-5.17-1.78-9.86-4.53-13.91.32,1.13.49,2.59.49,3.88Zm221.05-59.99c-12.29-11.16-31.37-10.35-42.53,1.94-11.16,12.29-10.35,31.37,1.94,42.53.97.97,2.1,1.78,3.23,2.43l39.46-44.79c-.65-.65-1.29-1.46-2.1-2.1Zm-37.19,31.69c-3.88-7.11-3.07-16.17,2.59-22.48,5.5-6.14,14.07-7.76,21.34-5.01l-23.93,27.49Zm-295.43-3.23c-3.07-16.98-25.06-26.36-47.06-14.55l5.5,19.4,8.73,28.62,4.04,13.1c16.49-10.51,33.15-23.12,28.78-46.57Zm-21.83,25.87c-2.43-7.76-7.44-24.74-7.44-24.74,0,.16-.97-3.72-2.26-7.76,4.69-.81,9.06-.49,12.77,1.46,2.1.97,5.66,3.23,6.31,7.6,1.78,9.54-1.62,16.49-9.38,23.45Z"/>
        <path class="cls-7" d="m547.52,189.35c2.91-2.43,5.82-5.01,8.57-7.92l-6.47-5.82-21.02-18.92c-6.14,7.28-13.1,13.91-25.71,16.98-4.2.97-9.86,1.94-13.42,1.29l52.55-55.95c-14.88-18.27-39.13-26.68-66.78-20.05-12.29,2.91-23.12,8.41-31.53,16.01-3.4,3.07-6.47,6.47-9.06,10.19-9.06,12.77-12.61,28.94-8.41,47.22.65,2.75,1.46,5.5,2.59,8.09,9.22,21.67,33.63,35.09,62.58,32.18,3.88-.32,7.76-.97,11.8-1.94,18.27-4.37,32.18-11,44.31-21.34Zm-79.4-16.33c-1.13-.65-2.26-1.46-3.23-2.43-12.29-11.16-13.1-30.24-1.94-42.53,11.16-12.29,30.24-13.1,42.53-1.94.81.65,1.46,1.46,2.1,2.1l-39.46,44.79ZM22.8,121.76l25.87,43.66c6.63-3.23,13.74-6.63,17.63-8.73l71.63,159.6,34.77-11.16-21.51-82.47c41.07-25.39,61.93-66.78,49.48-95.4-5.17-11.8-13.91-21.18-25.55-27.65-8.41-5.66-18.11-8.41-27.17-9.38-25.71-4.53-57.89-.32-91.52,14.07-12.13,5.01-23.28,10.83-33.63,17.46Zm150.38,32.66c4.37,23.45-12.29,36.06-28.78,46.57l-4.04-13.1-8.73-28.62-5.5-19.4c21.99-11.8,43.98-2.43,47.06,14.55Zm136.8,39.78c-.16-1.29-.49-2.43-.81-3.56-3.07-10.67-9.38-19.08-17.63-24.74-13.58-9.06-32.18-11-50.94-3.07-29.27,12.61-47.38,45.6-39.62,73.41,8.09,28.62,38.32,41.4,68.56,28.62,11.8-5.01,21.83-13.42,29.11-23.45,7.6-10.51,12.13-22.8,12.29-34.93.16-4.2-.16-8.25-.97-12.29Zm-49,28.14c-15.52,0-27.81-11.64-27.81-26.36,0-13.91,12.29-25.55,27.97-25.55,1.78,0,3.56.16,5.17.49-8.73.81-15.36,7.11-15.36,15.04,0,8.41,7.6,15.2,16.98,15.2s16.98-6.79,16.98-15.2c0-1.29-.16-2.75-.49-3.88,2.75,4.04,4.53,8.73,4.53,13.91,0,14.71-12.29,26.36-27.97,26.36Zm214.58,42.37l-126.29-63.23.16,66.3-32.66,4.53-2.26-27.33c10.19-17.3,13.74-37.68,8.57-56.27-2.91-10.35-8.25-19.24-15.52-26.36l-4.69-55.63-14.71,3.88-.65-14.07,52.55-15.69,3.23,54.17,38.65-54.33,37.84,36.06-52.88,55.79,49.64,19.57c5.66,10.51,13.91,19.4,24.58,26.03,10.35,6.31,21.99,10.19,34.44,11.32v35.25h0Zm435.14-135.18l-59.99,181.75-29.91-8.89-2.59-110.12-15.04,84.89-32.66-5.17,2.26-24.42c21.34-17.95,32.66-46.25,26.36-71.96-2.75-11.32-8.57-21.34-16.82-28.94l2.75-28.78-12.29-3.23.81-15.36,56.11,11.32,18.92,89.58,19.4-80.2,42.69,9.54Zm-135.18,95.08c9.86-13.58,14.39-30.4,10.67-46.08-1.13-4.53-2.91-8.73-5.17-12.45-2.91-4.85-6.79-8.89-11.32-12.13-12.45-8.89-29.91-11.16-47.7-4.53-7.76,2.91-14.55,7.28-20.54,12.61-5.34,4.85-9.86,10.51-13.42,16.49-7.11,12.13-9.86,26.03-6.79,39.13,2.59,10.83,8.57,19.57,16.66,25.39,5.01,3.72,10.83,6.14,17.3,7.44,9.38,1.78,19.57.97,30.08-2.91,5.17-1.94,10.03-4.69,14.88-7.76,5.98-4.2,11.16-9.38,15.36-15.2Zm-40.43-16.17c-15.36-.65-27.33-12.77-26.68-27.49.65-13.74,13.42-24.9,29.11-24.26,1.78,0,3.56.32,5.17.65-8.57.32-15.52,6.47-15.85,14.39-.32,8.41,6.95,15.52,16.33,15.85,9.38.32,17.3-5.98,17.63-14.39,0-1.46-.16-2.75-.49-4.04,2.75,4.04,4.2,9.06,3.88,14.07-.65,14.71-13.26,25.87-29.11,25.23ZM508.23,23.45l18.92,25.55-54.01,26.84-3.72-5.66,38.81-46.73Zm123.22,206.98l-24.26-52.23h-.32l-9.54,60.64-40.43-6.95,5.66-33.8c1.46-1.46,3.07-2.91,4.53-4.37l13.1-13.42-12.61-11.32,13.42-80.37h40.75l10.19,55.63,11.48-64.52h29.11l12.13,78.59c-15.36,17.63-22.8,41.07-17.79,62.74,4.04,16.66,14.23,30.24,28.94,38,1.46.81,3.07,1.46,4.53,2.1l1.78,9.86-43.01-6.63-11.48-75.84-16.17,41.88Z"/>
      </g>
      <rect class="cls-2" x="207.82" y="337.17" width="569.41" height="84.21" rx="42.11" ry="42.11"/>
      <g>
        <path class="cls-4" d="m285.04,405.93h-29.24c-6.84,0-12.39-5.55-12.39-12.39v-28.53c0-3.24,1.24-6.18,3.27-8.39,2.26-2.46,5.51-4,9.11-4h29.24c6.84,0,12.39,5.55,12.39,12.39v28.53c0,6.84-5.55,12.39-12.39,12.39Z"/>
        <path class="cls-5" d="m297.43,384.33h-11.27c-5.64,0-8.45,3.64-9.98,5.4-1.53,1.76-3.87,2.11-3.87,2.11h-28.88v1.7c0,1.25.19,2.45.53,3.58h25.65c6.11,0,7.75-1.06,11.04-4.7s4.46-3.29,7.98-3.29h8.81v-4.81Z"/>
        <g>
          <circle class="cls-3" cx="285.73" cy="364.88" r="4.47"/>
          <circle class="cls-1" cx="262.57" cy="372.41" r="11.92"/>
          <circle class="cls-6" cx="262.57" cy="372.41" r="9.45"/>
          <circle class="cls-1" cx="262.57" cy="378.58" r="1.59"/>
        </g>
      </g>
      <g>
        <path class="cls-7" d="m330.4,397.75v-36.95h31.67v5.28h5.28v15.84h-5.28v5.28h-21.11v10.56h-10.56Zm10.56-15.84h15.84v-15.84h-15.84v15.84Z"/>
        <path class="cls-7" d="m394.55,397.75v-5.28h-5.28v-26.39h5.28v-5.28h26.39v5.28h5.28v26.39h-5.28v5.28h-26.39Zm5.28-5.28h15.84v-26.39h-15.84v26.39Z"/>
        <path class="cls-7" d="m448.14,397.75v-36.95h10.56v15.84h5.28v-5.28h5.28v-5.28h5.28v-5.28h10.56v5.28h-5.28v5.28h-5.28v5.28h-5.28v5.28h5.28v5.28h5.28v5.28h5.28v5.28h-15.84v-5.28h-5.28v-5.28h-5.28v10.56h-10.56Z"/>
        <path class="cls-7" d="m507.01,397.75v-36.95h36.95v5.28h-26.39v10.56h21.11v5.28h-21.11v10.56h26.39v5.28h-36.95Z"/>
        <path class="cls-7" d="m565.89,397.75v-36.95h26.39v5.28h5.28v5.28h5.28v15.84h-5.28v5.28h-5.28v5.28h-26.39Zm10.56-5.28h10.56v-5.28h5.28v-15.84h-5.28v-5.28h-10.56v26.39Z"/>
        <path class="cls-7" d="m624.76,397.75v-36.95h36.95v5.28h-26.39v10.56h21.11v5.28h-21.11v10.56h26.39v5.28h-36.95Z"/>
        <path class="cls-7" d="m683.63,397.75v-10.56h5.28v-5.28h5.28v-5.28h-5.28v-5.28h-5.28v-10.56h10.56v10.56h5.28v5.28h5.28v-5.28h5.28v-10.56h10.56v10.56h-5.28v5.28h-5.28v5.28h5.28v5.28h5.28v10.56h-10.56v-10.56h-5.28v-5.28h-5.28v5.28h-5.28v10.56h-10.56Z"/>
      </g>
    </g>
  </g>
</svg>