<?xml version="1.0" encoding="UTF-8"?>
<svg id="Capa_2" data-name="Capa 2" xmlns="http://www.w3.org/2000/svg" viewBox="0 0 429.54 468.45">
  <defs>
    <style>
      .cls-1 {
        fill: #dbdcdc;
      }

      .cls-1, .cls-2, .cls-3, .cls-4, .cls-5, .cls-6, .cls-7, .cls-8 {
        fill-rule: evenodd;
      }

      .cls-2 {
        fill: #fff;
      }

      .cls-3 {
        fill: #ca4829;
      }

      .cls-4 {
        fill: #0d131a;
      }

      .cls-5 {
        fill: #ee848c;
      }

      .cls-6 {
        fill: #f8f397;
      }

      .cls-7 {
        fill: #d5d283;
      }

      .cls-8 {
        fill: #e95532;
      }
    </style>
  </defs>
  <g id="Capa_1-2" data-name="Capa 1">
    <g id="Layer_2" data-name="Layer 2">
      <g id="Layer_1-2" data-name="Layer 1-2">
        <path class="cls-8" d="m383.45,215.91c-13.06,3.22-25.72,7.91-37.72,13.99-30.07,15.23-48.49,35.79-55.26,61.66-5.42,20.9-5.42,42.83,0,63.73,4.33,18.81,12.25,36.6,23.34,52.4,2.36,3.45,2.76,5.91,1.28,7.49s-4.43.49-8.67-3.35c-12.21-12.41-21.39-27.48-26.79-44.03-6.97-17.71-10.31-36.63-9.85-55.65-24.29,15.91-52.36,25.09-81.36,26.59-24.51,1.68-49.11-1.16-72.59-8.37h-6.89c-25.89-4.72-49.42-18.05-66.78-37.82-20.41-21.43-32.77-49.28-34.97-78.8,8.32,4.34,17.82,5.89,27.09,4.43,5.71-1.01,10.13-5.58,10.93-11.33.55-3.38-.03-6.84-1.67-9.85-1.22-2.31-3.2-4.12-5.61-5.12-6.99-2.76-13-5.32-18.12-7.78-1.36-.59-2.3-1.87-2.46-3.35-.14-1.31.25-2.62,1.08-3.64,9.14-19.81,24.59-36.02,43.93-46.1,21.71-12.32,46.36-18.52,71.31-17.93,1.11-3.61,3.23-6.82,6.11-9.26,2.14-2.3,5.13-3.62,8.27-3.64,4.92.66,9.31,3.43,12.02,7.58,1.76,2.16,3.22,4.54,4.33,7.09,30.38,5.35,58.44,19.77,80.47,41.37,25.99,24.41,43.29,56.65,49.25,91.8,18.31-15.67,39.68-27.37,62.74-34.38,18.46-6.38,37.89-9.48,57.42-9.16,9.06,0,13.49,1.58,13.2,3.55s-4.14,3.15-12.12,3.35c-10.85.57-21.61,2.25-32.11,5.02l.2-.49Z"/>
        <path class="cls-6" d="m266.83,117.41c-10.18,10.98-21.47,20.89-33.69,29.55-5.73-4.88-11.9-9.23-18.42-13-15.52-9.42-32.55-16.08-50.33-19.7-.48-1.54-1.17-3-2.07-4.33-2.56-3.75-5.93-6.88-9.85-9.16-1.48-34.87-2.17-54.76-1.87-59.1-.16-2.88.48-5.75,1.87-8.27,1.38-1.28,3.84,0,7.19,4.14,5.04,6.47,9.52,13.36,13.4,20.59l7.49,14.18c9.85-12.51,20.59-25.61,33.19-39.4,8.61-9.95,17.97-19.23,27.97-27.78,1.63-1.41,3.42-2.63,5.32-3.64,1.87,0,2.86,2.27,2.95,7.58.39,8.21-1.74,34.87-6.4,79.98l26.69-2.17h13c3.55,0,5.71,0,6.4,1.58s0,3.35-2.07,6.4c-6.52,7.95-13.45,15.55-20.78,22.75v-.2Z"/>
        <path class="cls-6" d="m157.69,338.34l21.77.89c9.58,10.24,18.09,21.43,25.41,33.39,8.09,12.15,15.36,24.81,21.77,37.92,1.18,2.66,1.18,4.14,0,4.63-1.82.29-3.69-.02-5.32-.89-2.86-1.08-9.85-4.04-20.29-8.96s-18.62-8.86-21.47-10.64l-7.39,11.52-6.99,11.52c-3.05,4.92-6.11,5.52-8.96,1.58l-22.56-36.25-17.04,18.12-11.23-19.7c-7.98,3.94-14.28,6.8-18.71,8.57s-6.99,0-5.22-5.02c3.48-9.23,7.6-18.22,12.31-26.89,4.68-9.35,9.85-18.46,15.46-27.28l6.11-.89c13.68,4.49,27.88,7.2,42.26,8.08l.1.3Z"/>
        <path class="cls-2" d="m127.45,161.93c6.21,6.87,9.35,15.98,8.67,25.22-.1,8.37-3.67,16.32-9.85,21.96-5.75,5.83-13.81,8.79-21.96,8.08-8.66-.4-16.81-4.23-22.65-10.64-5.87-6.24-8.75-14.72-7.88-23.25.64-8.79,4.79-16.96,11.52-22.65,5.67-5.47,13.3-8.45,21.18-8.27,8.18.18,15.92,3.75,21.37,9.85l-.39-.3Z"/>
        <path class="cls-6" d="m22.16,263.28c-5.61,4.63-6.3,19.7-2.27,44.03,2.3,13.13,6.07,30.8,11.33,52.99,3.5,14.6,3.5,29.82,0,44.42-2.57,10.28-8.32,19.49-16.45,26.3-3.64,2.95-5.81,3.64-6.4,2.07s.49-4.33,3.35-7.98c6.67-8.23,10.94-18.15,12.31-28.66,1.12-11.93.12-23.97-2.95-35.56-5.32-22.79-9.03-39.04-11.13-48.76-3.04-12.7-4.07-25.79-3.05-38.81.48-4.79,1.71-9.48,3.64-13.89,1.53-3.3,3.44-6.41,5.71-9.26l5.91,13.1Z"/>
        <path class="cls-5" d="m43.04,196.31c2.38,3.49,3.14,7.83,2.07,11.92-1.04,3.75-3.52,6.93-6.89,8.86-3.04,1.56-6.43,2.31-9.85,2.17-6.39-.03-12.69-1.51-18.42-4.33-4.51-2.02-7.51-6.39-7.78-11.33-.16-2.37.54-4.71,1.97-6.6l2.46-2.36c-3.42-4.08-3.78-9.91-.89-14.38,2.9-3.99,8.14-5.49,12.71-3.64l-.59,1.58c-.39.84-.39,1.82,0,2.66,1.5,2.17,3.63,3.82,6.11,4.73,2.36,1.08,6.5,2.66,12.31,4.63,2.85,1.27,5.23,3.41,6.8,6.11Z"/>
        <path class="cls-2" d="m358.23,309.38c-4.49,8.15-6.89,17.29-6.99,26.59-.26,8.94-1.52,17.83-3.74,26.5-3.71,8-9.05,15.14-15.66,20.98l-14.68,14.68c-1.51,2.15-2.7,4.5-3.55,6.99-.1.82-.1,1.64,0,2.46-13.14-18.76-21.9-40.24-25.61-62.84-4.62-21.06-2.8-43.03,5.22-63.04,12.22-25.22,33.5-44.92,59.59-55.16,21.44-9.86,44.67-15.25,68.26-15.86l-4.14,2.86c-2.77,2.11-5,4.84-6.5,7.98-3.18,7.3-5.56,14.93-7.09,22.75-1.36,7.16-3.71,14.09-6.99,20.59-4.42,8.24-10.37,15.56-17.53,21.57-7.94,6.5-14.88,14.13-20.59,22.65v.3Z"/>
        <path class="cls-1" d="m287.41,303.27c5.45-31.45,24.59-55.62,57.42-72.49,23.97-11.72,50.08-18.43,76.73-19.7-5.46,3.33-9.54,8.5-11.52,14.58-1.74,3.47-3.22,7.05-4.43,10.74-23,.43-45.67,5.59-66.58,15.17-23.34,9.61-41.91,28.11-51.61,51.42v.3Z"/>
        <path class="cls-7" d="m159.47,338.24l21.18.98,13.99,18.03c-4.89,4.84-11.21,7.98-18.02,8.96-9.11,2.03-18.47,2.7-27.78,1.97-9.71-.58-19.24-2.85-28.17-6.7-8.22-3.13-15.15-8.92-19.7-16.45l8.47-14.09,6.4-.49c14.14,4.07,28.66,6.67,43.34,7.78h.3Z"/>
        <path class="cls-3" d="m282.29,275.2c3.95-2.01,8.21-3.35,12.61-3.94,1.38.79,0,5.61-2.76,14.48-6.87,18.92-8.4,39.36-4.43,59.1,4.32,21.96,12.82,42.89,25.02,61.66,3.64,5.81,4.24,8.86,1.77,9.26s-5.61-1.77-9.85-6.21c-7.92-8.44-14.56-18-19.7-28.37-10.38-21.5-15.73-45.08-15.66-68.95-25.08,19.7-58.18,28.76-99.29,27.19-18.27-.52-36.41-3.33-53.98-8.37l-3.64.59c-9.69-.52-19.14-3.17-27.68-7.78-12.26-5.97-23.57-13.7-33.59-22.95-25.8-22.11-41.63-53.66-43.93-87.56,5.24,3.35,11.31,5.19,17.53,5.32,11.71,19.09,28.12,34.86,47.67,45.8,20.6,11.75,43.1,19.78,66.49,23.74,24.34,4.37,49.15,5.43,73.77,3.15,23.86-2.05,47.31-7.49,69.64-16.15Z"/>
        <path class="cls-4" d="m149.81,37.33c0-3.05,1.38-4.92,3.45-5.52,2.07-.59,4.24,0,6.3,2.95,3.98,5.28,7.66,10.77,11.03,16.45,5.91,9.85,10.83,18.22,14.97,26.3,1.77,3.55,2.17,5.61,1.08,6.11s-2.36-.89-4.14-4.33c-4.14-8.27-9.06-17.14-14.68-26.59-3.27-5.74-6.85-11.3-10.74-16.65-2.86-3.45-4.33-2.95-4.63,1.38-.3,4.33,0,13.1,0,26.69s1.08,27.58,2.07,37.43h-1.87c-1.28,0-1.87-.79-1.87-.98-.98-9.85-1.48-21.96-1.58-37.03v-25.9l.59-.3Z"/>
        <path class="cls-4" d="m243.19,1.97c2.17-1.87,4.04-2.36,5.42-1.67,1.52.84,2.41,2.5,2.27,4.24.16,14.33-.4,28.67-1.67,42.94-1.58,23.34-3.15,39.4-4.83,49.25-.69,3.64-1.58,5.61-2.66,5.71s-1.38-1.48-.89-4.92c1.48-9.85,3.15-25.81,5.02-48.07,1.61-14.78,2.36-29.65,2.27-44.52,0-2.36-1.08-2.76-2.76-1.38-11.2,9.59-21.64,20.03-31.22,31.22-11.38,12.57-22.09,25.72-32.11,39.4,0,0-.59,0-1.28-1.28s-.89-1.77-.69-2.07c9.83-13.48,20.49-26.34,31.91-38.51,9.72-10.79,20.15-20.93,31.22-30.34Z"/>
        <path class="cls-4" d="m285.74,85.4c2.95,0,4.73,1.18,5.32,2.86s0,4.14-2.46,7.09c-8.14,10.54-17.1,20.42-26.79,29.55-8.5,8.34-17.66,15.98-27.38,22.85l-1.58-1.18c-.89-.79-1.18-1.28-.98-1.48,9.58-6.83,18.67-14.34,27.19-22.46,10-9.07,19.22-18.95,27.58-29.55,1.58-2.1,2.27-3.38,2.07-3.84,0-.49-1.08-.79-2.95-.98-5.84-.34-11.69-.34-17.53,0l-24.62,2.36s0-.59-.59-1.77,0-1.77,0-1.77c14.18-1.78,28.48-2.34,42.75-1.67Z"/>
        <path class="cls-4" d="m296.77,256.09c0,3.15,0,4.92-.98,5.42s-1.58-.79-1.97-3.74c-4.23-38.61-22.36-74.35-51.02-100.57-11.8-11.07-25.06-20.48-39.4-27.97-12.02-6.19-24.85-10.67-38.12-13.3,0,0-.59-.69-.98-1.87s0-1.67,0-1.67c13.71,2.38,26.99,6.8,39.4,13.1,14.88,7.34,28.65,16.76,40.88,27.97,29.43,26.63,48.01,63.17,52.2,102.63Z"/>
        <path class="cls-4" d="m41.37,196.4c-1.59-2.33-3.91-4.06-6.6-4.92-6.53-1.74-12.61-4.87-17.83-9.16-.94-1.4-.94-3.23,0-4.63-4.34-1.03-8.79,1.22-10.54,5.32-1.74,3.19-1.3,7.12,1.08,9.85,2.45,2.83,5.56,4.99,9.06,6.3,4.2,1.63,8.61,2.62,13.1,2.95,3.15,0,4.53.79,4.24,1.38h-5.71c-7.89-.27-15.49-3.07-21.67-7.98-2.36,1.98-3.58,5.01-3.25,8.08.21,3.75,2.33,7.14,5.61,8.96,4.19,2.38,8.81,3.89,13.59,4.43,3.74.73,7.59.73,11.33,0,2.79-.7,5.28-2.29,7.09-4.53,1.79-2.23,2.77-5.01,2.76-7.88.26-2.99-.58-5.96-2.36-8.37l.1.2Zm94.85-85.59c3.15,0,4.63,0,4.33,1.38s-1.97,1.58-5.22,1.58c-26.74-.18-53.03,6.83-76.14,20.29-17.35,9.91-31.14,25.04-39.4,43.24-.56.96-.9,2.04-.98,3.15,0,0,.49.98,1.48,1.77,1.75,1.37,3.71,2.44,5.81,3.15l9.85,3.55c3.68,1.16,6.83,3.61,8.86,6.89,1.58,2.68,2.4,5.75,2.36,8.86.01,3.42-1.17,6.73-3.35,9.36-2.26,2.91-5.46,4.93-9.06,5.71-4.24.65-8.56.65-12.8,0-5-.47-9.84-2.02-14.18-4.53-4.16-2.21-7.01-6.27-7.68-10.93-.56-3.94,1.31-7.82,4.73-9.85-3.39-3.78-3.79-9.37-.98-13.59,1.43-2.3,3.58-4.06,6.11-5.02,2.5-.99,5.22-1.29,7.88-.89,10.5-22.41,28.67-40.33,51.22-50.53,20.97-9.43,43.79-14.08,66.78-13.59h.39Z"/>
        <path class="cls-4" d="m147.84,98.5c5.63.31,10.7,3.51,13.4,8.47,5.38,7.91,9.23,16.77,11.33,26.1,7.24,32.61,7.87,66.33,1.87,99.19-2.96,28.54-13.54,55.75-30.63,78.8-5.36,6.99-12.06,12.85-19.7,17.24-4.94,3.16-10.82,4.51-16.65,3.84-25.3-4.92-48.34-17.88-65.7-36.94-21.38-22.13-34.07-51.22-35.75-81.95h1.48c1.08,0,1.58.59,1.58.89,2.24,29.88,15.34,57.92,36.84,78.8,9.2,9.46,19.72,17.56,31.22,24.03,9.71,5.67,20.3,9.7,31.32,11.92,5.38.54,10.78-.82,15.27-3.84,7.18-4.47,13.44-10.29,18.42-17.14,16.27-22.4,26.45-48.63,29.55-76.14,5.86-32.05,5.42-64.94-1.28-96.82-1.77-8.92-5.1-17.46-9.85-25.22-3.84-5.71-7.78-8.47-11.62-8.27-4.04.37-7.67,2.59-9.85,6.01-1.43,1.7-2.56,3.63-3.35,5.71h-2.17c-1.28,0-1.87-.49-1.77-.79,1.34-3,3.21-5.74,5.52-8.08,2.65-3.2,6.42-5.28,10.54-5.81Z"/>
        <path class="cls-4" d="m275.89,304.16c2.27-1.97,3.45-2.46,3.74-1.48s-.69,2.56-3.05,4.63c-22.12,19.41-50.1,30.86-79.49,32.5-27.97,2.8-56.21-.08-83.03-8.47l1.18-1.28c1.18-1.28,1.67-.89,2.07-.79,27.42,7.64,56.08,9.74,84.31,6.21,27.4-2.52,53.34-13.47,74.27-31.32Z"/>
        <path class="cls-4" d="m267.71,313.12s0-.79,1.67-1.48,1.58-.98,1.58-.69c-.39,19.89,3.37,39.65,11.03,58.01,5.35,16.09,14.51,30.66,26.69,42.45,2.95,2.5,4.83,3.38,5.61,2.66.79-.69,0-2.46-1.67-5.22-12.18-17.86-20.71-37.94-25.12-59.1-5.58-23.73-3.69-48.6,5.42-71.21,9.61-19.71,25.52-35.66,45.21-45.31,24.72-13.99,52.39-21.95,80.77-23.25,4.92,0,7.49-.89,7.58-1.87s-2.17-1.58-6.89-1.87c-23.02-1.08-46.02,2.43-67.67,10.34-21.14,7.17-40.59,18.6-57.13,33.59l-.59-1.67c-.12-.75-.12-1.52,0-2.27,16.73-14.8,36.35-25.97,57.62-32.8,21.8-7.53,44.82-10.88,67.86-9.85,7.09,0,9.85,1.97,9.85,4.83s-4.04,4.24-9.85,4.53c-28.33,1.28-55.95,9.28-80.57,23.34-18.43,9.39-33.3,24.54-42.35,43.14-9.05,22.2-11.04,46.65-5.71,70.03,3.99,21.17,12.3,41.29,24.43,59.1,2.76,4.14,3.05,6.89.89,8.37s-5.22.59-9.26-2.86c-12.19-11.71-21.46-26.12-27.09-42.06-7.84-18.3-11.83-38.01-11.72-57.92l-.59-.98Z"/>
        <path class="cls-4" d="m395.07,271.76c-5.11,6.83-11.11,12.96-17.83,18.22-7.18,5.81-13.22,12.88-17.83,20.88-4.34,8.43-6.76,17.71-7.09,27.19.17,10.08-1.57,20.11-5.12,29.55-5.09,8.2-11.44,15.54-18.81,21.77-3.51,3.05-6.8,6.34-9.85,9.85-2.46,2.71-3.89,6.19-4.04,9.85l-1.28-1.28c-.61-.64-1.05-1.42-1.28-2.27.32-3.69,1.88-7.16,4.43-9.85l9.85-8.96c7.53-5.89,13.85-13.18,18.62-21.47,3.52-8.67,5.36-17.93,5.42-27.28.12-9.37,2.13-18.61,5.91-27.19,5.01-8.72,11.71-16.35,19.7-22.46,7.25-6.15,13.41-13.48,18.22-21.67,4.19-7.84,7.28-16.23,9.16-24.92,1.27-6.76,3.25-13.36,5.91-19.7,2.42-5.15,6.52-9.32,11.62-11.82h5.81c-6.09,2.18-11.08,6.68-13.89,12.51-3.18,6.22-5.5,12.85-6.89,19.7-1.72,10.08-5.05,19.83-9.85,28.86l-.89.49Z"/>
        <path class="cls-4" d="m298.35,271.56v-1.58c0-1.58.69-1.97,1.08-2.17,15.29-7.64,32.16-11.55,49.25-11.43,16.94-1.01,33.94-.25,50.73,2.27v1.18c0,1.18,0,1.08-.59,1.08-17-2.32-34.21-2.78-51.32-1.38-23.74,1.67-40.09,5.61-49.25,12.02h.1Z"/>
        <path class="cls-4" d="m288.3,296.28c.17-.71.47-1.38.89-1.97.69-.89,1.08-1.08,1.08-.79,4.53,16.38,12.3,31.69,22.85,45.01,8.35,12.28,18.28,23.41,29.55,33.1v1.18l-1.08.59c-11.13-9.12-21.06-19.61-29.55-31.22-10.75-13.6-18.68-29.2-23.34-45.9h-.39Z"/>
        <path class="cls-4" d="m14.97,248.41s.49,0,.89,1.48v2.27c-4.48,6.26-7.2,13.61-7.88,21.28-.95,12.69.08,25.45,3.05,37.82l11.82,49.84c3.37,12.31,4.34,25.15,2.86,37.82-1.87,9.92-6.28,19.18-12.8,26.89-2.46,3.25-3.55,5.32-3.05,6.3s1.87,0,4.63-1.87c7.29-6.12,12.57-14.29,15.17-23.44,3.84-15.19,3.84-31.1,0-46.29-6.01-24.33-9.85-40.09-10.83-47.18-5.06-28.63-4.4-45.6,1.97-50.92,9.55-7.98.79,0,1.48.98s.89,1.28.69,1.48c-5.52,4.63-5.91,20.78-.98,48.46.79,4.83,4.33,20.49,10.54,47.08,4.14,15.92,3.91,32.66-.69,48.46-3.02,9.13-8.55,17.22-15.96,23.34-4.04,3.45-6.8,4.04-7.98,1.87s0-5.52,3.05-9.85c6.57-8.14,10.71-17.98,11.92-28.37,1.03-11.65,0-23.38-3.05-34.67l-9.85-40.09c-4.29-15.61-6.15-31.79-5.52-47.97.64-5.19,2.1-10.24,4.33-14.97,1.79-3.47,3.9-6.77,6.3-9.85l-.1.1Z"/>
        <path class="cls-4" d="m108.44,330.46h1.97c1.18,0,1.67.2,1.48.59-3.45,3.84-7.58,11.52-13.3,22.75-6.22,10.65-11.49,21.82-15.76,33.39-.72,2.17.16,2.86,2.66,2.07,4.28-1.43,8.46-3.14,12.51-5.12,0,0,.59,0,.89,1.58s0,1.87,0,1.97l-12.71,4.53c-1.64.7-3.49.7-5.12,0-1.67-.79-2.07-2.56-1.18-5.22,4.05-11.91,9.12-23.44,15.17-34.47,3.97-7.64,8.45-15.01,13.4-22.06Z"/>
        <path class="cls-4" d="m177.39,339.42l1.77-.49h2.17c10.39,11.19,19.63,23.4,27.58,36.44,7.2,10.82,13.55,22.18,19.01,33.98,1.09,1.81,1.34,4,.69,6.01-.69,1.38-2.36,1.48-5.12.59-5.02-1.67-10.83-3.94-17.43-6.7-8.97-3.49-17.61-7.77-25.81-12.8l-14.38,22.26c-3.45,5.12-6.8,5.52-9.85,1.28s-5.42-7.58-9.85-14.68c-4.3-6.35-8.24-12.92-11.82-19.7l-16.06,16.84s-.59,0-1.08-.79-.79-1.28-.59-1.48l15.56-17.24c.98-1.18,1.87-1.67,2.76-1.58s1.58.89,2.36,2.36l11.33,19.7c4.92,8.08,8.08,13,9.85,14.87,1.77,1.87,2.17,2.27,2.86,2.27s1.77-1.08,2.86-3.25l14.18-22.85c.59-1.18,1.18-1.67,1.67-1.77,1.01.21,1.95.64,2.76,1.28,7.71,4.75,15.78,8.9,24.13,12.41,5.77,2.73,11.69,5.13,17.73,7.19l1.97.1-1.18-3.45c-5.73-11.7-12.31-22.96-19.7-33.69-8.16-13.32-17.66-25.76-28.37-37.13Z"/>
        <path class="cls-4" d="m21.67,218.86h1.58c1.08,0,1.58,0,1.58.59,4.23,24.72,16.9,47.21,35.85,63.63,20,18.66,44.5,31.8,71.11,38.12l-.59,1.08c-.59,1.08-1.18.89-1.48.79-27.45-6.36-52.68-19.97-73.08-39.4-18.72-16.93-31.06-39.77-34.97-64.71v-.1Z"/>
        <path class="cls-4" d="m62.35,310.37s-.59,0-.69-.98,0-.98,0-1.08c3.4-.59,6.71-1.62,9.85-3.05,3-1.25,5.88-2.8,8.57-4.63,0,0,.69,0,1.38.59s.89,1.08.69,1.28c-5.95,4.44-13,7.16-20.39,7.88h.59Z"/>
        <path class="cls-4" d="m128.14,325.04s0-.59.79-1.48,1.38-1.28,1.58-1.18c6.39,2.11,13,3.5,19.7,4.14,3.68-1.46,7.23-3.2,10.64-5.22,3.16-1.62,6.08-3.68,8.67-6.11v-20.29h1.48l1.48,1.28v9.85c.3,3.28.3,6.57,0,9.85-2.89,2.82-6.21,5.15-9.85,6.89-3.37,2.24-6.97,4.12-10.74,5.61-8.02-.16-15.99-1.29-23.74-3.35Z"/>
        <path class="cls-4" d="m191.97,123.22l4.53.89c2.65,2.36,5,5.04,6.99,7.98,2.66,3.74,3.94,6.01,3.84,6.89-1.22,1.97-2.75,3.74-4.53,5.22l-7.88,6.7c6.1,8.67,11.41,17.86,15.86,27.48-1.04,3.2-2.57,6.23-4.53,8.96-2.77,4.62-5.83,9.06-9.16,13.3l7.58,8.96-3.15-.69-7.39-7.29v-1.48l8.86-13c1.99-2.71,3.71-5.61,5.12-8.67-.49-1.48-6.21-10.83-17.04-27.87l1.38-1.08c4.5-3.02,8.58-6.63,12.12-10.74-1.37-2.77-3.13-5.32-5.22-7.58-2.09-2.95-4.57-5.6-7.39-7.88v-.1Z"/>
        <path class="cls-4" d="m154.74,291.55l1.28-2.46,11.52,4.43.79,1.38c0,.89,0,1.18,0,1.08l-13.59-4.43Z"/>
        <path class="cls-4" d="m175.62,200.64v-3.15l19.7,2.27.69,1.28c.69,1.28,0,1.28,0,1.18l-19.7-1.58h-.69Z"/>
        <path class="cls-4" d="m174.34,149.32s-.69-.59-.98-1.58,0-1.58,0-1.58l8.96,1.08,11.13,1.67c.69,0,.89.69.89,1.58s0,1.38-.98,1.18c0,0-19.01-2.36-19.01-2.36Z"/>
        <path class="cls-4" d="m106.08,153.26c-8.07-.2-15.83,3.1-21.28,9.06-6.01,5.27-9.58,12.79-9.85,20.78-.38,7.94,2.22,15.74,7.29,21.87,5.31,6.44,13.05,10.39,21.37,10.93,7.3.42,14.44-2.22,19.7-7.29,6.23-5.57,9.8-13.51,9.85-21.87.53-8.44-2.06-16.79-7.29-23.44-5.18-6.19-12.81-9.79-20.88-9.85l1.08-.2Zm-24.23,7.29c6.26-6.71,15.16-10.31,24.33-9.85,8.94.1,17.39,4.1,23.15,10.93,6.19,7,9.31,16.19,8.67,25.51-.19,9.04-4.28,17.56-11.23,23.34-6.09,5.87-14.41,8.85-22.85,8.18-9.32-.35-18.06-4.65-24.03-11.82-5.41-6.47-8.25-14.71-7.98-23.15.2-8.58,3.73-16.74,9.85-22.75l.1-.39Z"/>
        <path class="cls-4" d="m103.22,178.58c-.08-.42-.08-.86,0-1.28.16-.46.59-.78,1.08-.79h1.48l.59,1.48c0,1.48-.49,2.17-1.58,2.17-.51.09-1.04-.1-1.38-.49-.15-.51-.15-1.06,0-1.58l-.2.49Z"/>
        <path class="cls-4" d="m259.93,173.65l1.58.89,2.17,2.17c10.15,31.31,9.94,65.05-.59,96.23-3.92,13.22-9.55,25.87-16.74,37.63-5.1,8.87-12.01,16.55-20.29,22.56l-6.6,1.08c9.61-5.92,17.54-14.19,23.05-24.03,7.78-12.58,13.71-26.22,17.63-40.48,4.68-15.71,7.2-31.98,7.49-48.36.49-16.22-2.05-32.38-7.49-47.67h-.2Z"/>
        <path class="cls-6" d="m70.42,221.03c5.22,2.74,9.79,6.57,13.4,11.23,5.77,6.04,10.37,13.08,13.59,20.78,4.96,16.96,6.53,34.73,4.63,52.3-.69,13.4-1.08,22.65-1.08,27.78-.02,9.63.97,19.24,2.95,28.66,5.37,28.38,19.09,54.51,39.4,75.05,11.2,10.84,24.65,19.08,39.4,24.13,3.35,1.18,5.32,2.46,5.81,3.64s-.79,1.97-4.04,1.97c-8.18-.27-16.2-2.39-23.44-6.21-9.9-4.8-18.92-11.23-26.69-19.01-21.48-21.52-36.05-48.95-41.86-78.8-2.98-16.24-3.81-32.8-2.46-49.25,1.47-14.71,1.47-29.52,0-44.23-1.57-8.86-5.44-17.14-11.23-24.03-3.9-4.48-8.41-8.4-13.4-11.62-2.87-1.85-3.74-5.65-1.97-8.57,1.58-3.55,3.84-4.83,6.99-3.84Z"/>
        <path class="cls-8" d="m268.6,222.01l-41.96-1.48-49.25-3.84c-2.37.39-4.68,1.05-6.89,1.97-7.02,2.83-13.65,6.58-19.7,11.13-6.33,4.42-12.35,9.25-18.02,14.48-3.24,3.14-5.26,7.33-5.71,11.82l-10.83-1.28v-6.89c-.13-3.08.44-6.14,1.67-8.96,6.98-6.17,14.42-11.8,22.26-16.84,7.65-6.29,16.18-11.44,25.31-15.27l108.35,6.8,6.7.59c2.07,0,3.05,1.28,3.05,2.36s-2.07,2.27-6.3,3.45l-8.67,1.67v.3Z"/>
        <path class="cls-2" d="m127.16,251.27c5.67-7.55,12.69-13.99,20.68-19.01,8.18-7.34,18.07-12.52,28.76-15.07l27.38,2.07,59.89,2.95c-4.88,1.98-9.59,4.36-14.09,7.09-8.59,4.72-16.62,10.41-23.93,16.94-21.08,19.11-29.98,40.25-26.69,63.43.69,4.83.69,7.29,0,7.68s-1.97-.79-4.73-2.86c-44.06-32.83-66.49-50.23-67.27-52.2-.59-2.21-.76-4.52-.49-6.8l.49-4.33v.1Z"/>
        <path class="cls-1" d="m127.16,262.59c-.83-1.85-1.14-3.9-.89-5.91-.1-2.36.59-4.68,1.97-6.6,8.56-9.84,18.51-18.37,29.55-25.31,5.67-4.43,12.45-7.23,19.6-8.08l38.22,3.45,46.29,1.97-12.9,6.11c-23.63-1.09-47.31.66-70.52,5.22-10.2,2.28-19.82,6.64-28.27,12.8-12.21,8.27-16.15,16.65-11.82,25.22-4.1-2.27-7.88-5.09-11.23-8.37v-.49Z"/>
        <path class="cls-4" d="m82.83,232.85c-3.4-4.5-7.78-8.17-12.8-10.74-2.46-.79-4.43,0-5.61,3.35-1.42,2.41-.73,5.51,1.58,7.09,4.84,3.53,9.18,7.71,12.9,12.41,5.7,7,9.53,15.34,11.13,24.23,1.07,6.51,1.57,13.1,1.48,19.7l-.79,20.59c-.69,11.43-.98,20.19-.89,26.2.09,9.14,1.11,18.25,3.05,27.19,5.73,29.41,20.06,56.46,41.17,77.71,7.65,7.73,16.54,14.12,26.3,18.91,7.22,3.9,15.24,6.06,23.44,6.3,1.87,0,2.46,0,2.07-1.18-1.16-1.17-2.63-1.99-4.24-2.36-16.32-5.79-31.08-15.26-43.14-27.68-19.1-19.96-31.79-45.17-36.44-72.4-2.39-13.25-3.25-26.74-2.56-40.19,1.08-16.55,1.67-28.07,1.67-34.57.28-11.42-1.48-22.79-5.22-33.59-2.99-7.77-7.43-14.89-13.1-20.98Zm-12.41-13.59c5.67,2.69,10.68,6.59,14.68,11.43,6.34,6.21,11.27,13.7,14.48,21.96,3.22,9.16,4.99,18.76,5.22,28.47l-1.58,27.68c-.59,11.62-.79,20.29-.69,26.1.01,8.88.97,17.72,2.86,26.4,5.22,27.05,18.03,52.06,36.94,72.1,11.45,11.71,25.25,20.87,40.48,26.89,3.64,1.38,5.61,3.15,5.91,5.12s-1.08,3.05-4.53,3.05c-8.23-.24-16.32-2.22-23.74-5.81-10.02-4.55-19.21-10.74-27.19-18.32-22.36-21.78-37.49-49.91-43.34-80.57-1.87-9.1-2.76-18.38-2.66-27.68l1.48-27.19c0-8.37.69-15.07.69-20.29-.05-6.4-.61-12.79-1.67-19.11-1.38-7.41-4.41-14.41-8.86-20.49-3.81-5.38-8.5-10.08-13.89-13.89-3.46-2.37-4.5-7.02-2.36-10.64,1.77-4.63,4.43-6.4,7.98-5.22h-.2Z"/>
        <path class="cls-4" d="m129.92,249.49c-1.43,2.44-2.11,5.25-1.97,8.08,0,2.76,0,4.53,1.18,5.22l9.85,7.68c27.32,20.55,46,35,56.04,43.34,1.87,1.58,2.86,2.07,3.05,1.67l-.59-4.33c-3.45-21.27,3.76-42.89,19.31-57.82,11.34-13.19,25.61-23.55,41.66-30.24l-46.69-1.77-32.7-2.86c-6.01-.79-15.56,3.84-28.76,13.79-7.28,4.87-13.9,10.67-19.7,17.24h-.69Zm143.41-37.03c7.98,0,12.02,1.77,12.31,3.94s-3.35,4.04-10.54,5.52l-10.64,1.38c-17.98,7.04-33.85,18.57-46.1,33.49-14.25,15.13-20.59,36.05-17.14,56.54.59,3.05,0,4.83-.59,5.42s-3.35,0-6.7-2.76l-65.8-50.63c-1.89-2.05-2.82-4.81-2.56-7.58-.42-3.43.34-6.91,2.17-9.85,6.69-7.85,14.49-14.68,23.15-20.29,13.4-9.85,22.85-13.69,28.37-12.61s21.47,2.46,45.21,3.94c16.8,1.68,33.73,1.68,50.53,0,5.22-1.08,7.78-2.07,7.58-2.95s-3.25-1.38-8.96-1.38l-61.95-3.94-46.69-2.46c-8.94,4.25-17.36,9.51-25.12,15.66-7.16,4.56-13.92,9.74-20.19,15.46-.82,1.44-1.26,3.07-1.28,4.73l-.69,6.99c0,3.15-.98,4.33-1.67,3.74s-.89-2.46-.69-5.91l.49-6.89c-.07-1.63.27-3.26.98-4.73,6.56-5.77,13.54-11.04,20.88-15.76,8.22-6.54,17.18-12.09,26.69-16.55l35.36,1.58,73.87,5.52-.3.39Z"/>
        <path class="cls-4" d="m126.86,260.62v-1.08q0-1.08.59-1.08c9.09.79,18.09,2.41,26.89,4.83,9.16,2.59,18.01,6.15,26.4,10.64,3.55,1.87,5.32,3.15,5.32,3.94s-1.77,0-5.22-1.38c-8.87-4.03-18.07-7.33-27.48-9.85-8.59-2.34-17.31-4.22-26.1-5.61l-.39-.39Z"/>
        <path class="cls-4" d="m126.96,256.09s-.49,0-.49-.98v-1.48c13.75-8.2,28.98-13.62,44.82-15.96,22.36-3.63,45.08-4.59,67.67-2.86l-.89.98-1.58.59c-21.91-.87-43.86.49-65.5,4.04-15.55,2.32-30.5,7.64-44.03,15.66Z"/>
      </g>
    </g>
  </g>
</svg>