<?xml version="1.0" encoding="UTF-8"?>
<svg id="Capa_2" data-name="Capa 2" xmlns="http://www.w3.org/2000/svg" viewBox="0 0 714.05 751.28">
  <defs>
    <style>
      .cls-1 {
        fill: #272425;
      }

      .cls-2 {
        fill: #fff;
      }

      .cls-3 {
        fill: #535153;
      }

      .cls-4 {
        fill: #282425;
      }

      .cls-5 {
        fill: #2f2b2d;
      }

      .cls-6 {
        fill: #2d2a2c;
      }

      .cls-7 {
        fill: #2b2829;
      }

      .cls-8 {
        fill: #2a2627;
      }

      .cls-9 {
        fill: #0a0b0b;
      }

      .cls-10 {
        fill: #252223;
      }

      .cls-11 {
        fill: #968a92;
      }

      .cls-12 {
        fill: #5e5c5f;
      }

      .cls-13 {
        fill: #2a2728;
      }

      .cls-14 {
        fill: #8f848d;
      }

      .cls-15 {
        fill: #58575a;
      }

      .cls-16 {
        fill: #282526;
      }

      .cls-17 {
        fill: #292526;
      }

      .cls-18 {
        fill: #998d96;
      }

      .cls-19 {
        fill: #252122;
      }

      .cls-20 {
        fill: #2d282a;
      }

      .cls-21 {
        fill: #272324;
      }

      .cls-22 {
        fill: #565457;
      }

      .cls-23 {
        fill: #231f20;
      }
    </style>
  </defs>
  <g id="Capa_1-2" data-name="Capa 1">
    <g>
      <path class="cls-23" d="m586.47,355.96c-7.5-3.6-14.63-6.17-21.89-8.38-3.04-.92-5.01-2.45-6.45-5.43-6.57-13.55-13.35-27-20.2-40.42-1.35-2.67-1.6-5.06-.77-7.97,1.67-5.9,2.76-11.96,4.38-17.88.92-3.37-.16-4.86-3.48-5.38-5.7-.89-11.33-2.34-17.06-2.84-5.72-.5-10.03-2.9-14.21-6.68-10.91-9.87-22.04-19.5-33.32-28.94-3.05-2.55-4.3-5.13-4.03-9.03.32-4.57.07-9.19.07-14.51-6.98,2.26-13.24,3.99-19.25,6.34-3.17,1.24-5.48.95-8.19-.94-4.72-3.3-9.78-6.12-14.52-9.41-2.1-1.45-3.58-1.75-4.98.58-1.36,2.27-3.76,2.94-5.95,3.91-9.68,4.28-19.43,8.46-28.64,13.71-1.75.99-5.02,1.04-4.34,4.7.15.81-.48.99-2.98.05-6.36-2.42-12.7-4.91-19.06-7.36-.31.87-.6,1.23-.53,1.51,2.55,13.1-3.4,22.49-12.48,31.2-12.84,12.32-22.07,27.57-31.75,42.36-3.26,4.98-7.23,8.59-13.17,10.41-8.69,2.65-17.18,6-25.71,9.19-3.71,1.39-7.29,2.78-11.29,1.03-2.7-1.18-2.86.61-3.26,2.7-2.76,14.51-3.01,29.26-4.12,43.9-.87,11.53-3.98,20.9-14.91,26.58-6.34,3.3-11.53,8.88-19.28,9.22-1.43.06-1.5,1.28-1.91,2.34-4.36,11.41-10.35,21.73-19.61,30-5.32,4.75-7.65,11.29-9.55,17.98-1.07,3.76-2.08,7.53-3.35,11.22-2.11,6.15-5.47,11-10.49,15.75-12.06,11.41-26.88,18.67-39.67,28.85-11.05,8.79-22.89,5.31-34.55,2.19-3.61-.95-6.71-1.14-10.24-.07-11.64,3.5-20.94-.01-27.57-10.3-2.9-4.5-5.23-8.96-11.72-9.65-4.92-.52-8.29-4.67-11.55-8.32-7.82-8.77-15.99-17.17-24.5-25.27-3.14-2.99-7.13-4.61-10.35-7.39-8.65-7.43-8.18-17.83-8.42-27.7-.26-11.27,3.53-21.98,6.1-32.83.55-2.31.47-4.23-.21-6.46-2.42-8-5.39-15.81-7.19-24.01-.62-2.85-.38-4.88,1.4-7.13,2.67-3.35,5.11-6.88,7.49-10.43,2.23-3.33,3.15-8.05.12-10.14-9.58-6.62-6.22-15.48-4.81-23.68,1.98-11.53,5.03-22.87,7.59-34.29.66-2.94,1.87-5.52,3.72-7.96,8.89-11.72,18.2-23.18,26.22-35.48,6.86-10.53,16.8-16.59,27.16-22.37,4.34-2.42,6.11-5.24,6.36-10.43,2.79-56.14,5.9-112.27,8.94-168.4.21-3.95,2.01-7.51,2.94-11.28.46-1.87,1.88-2.12,3.25-2.55,1.95-.62,3.94-1.07,5.91-1.62,10.27-2.91,10.62-3.01,13.36,7.48,3.03,11.55,3.22,23.57,4.69,35.38,4.04,32.51,7,65.14,10.82,97.98,3.87-9.16,7.97-18.24,11.51-27.52,2.17-5.7,5.94-9.93,10.69-13.2,13.33-9.17,26.87-18.04,40.53-26.72,7.72-4.91,15.55-6.22,24.34-5.53,10.03.79,20.08.67,30.15.05,2.84-.17,4.23-1.09,5.38-3.66,3.81-8.47,8.23-16.69,11.79-25.25,4.24-10.19,11-17.57,21.45-21.19,13.13-4.55,24.92-11.49,36.11-19.59,1.05-.76,2.26-1.3,3.36-1.98,5.44-3.31,10.48-5.48,17.73-4.93,21.51,1.61,43.14,1.49,64.73,1.81,3.53.05,5.69.93,7.69,3.98,6.01,9.19,12.58,18,18.61,27.18,2.24,3.41,4.41,4.08,8.21,2.7,8.38-3.03,17-5.41,25.37-8.46,2.18-.79,3.51-.22,5.1.69,14.98,8.65,29.9,17.39,44.95,25.91,4.29,2.43,4.44,6.77,5.23,10.51,1.09,5.15,3.57,5.19,8.03,4.66,15.45-1.82,28.24-9.97,41.62-16.71,2.26-1.14,4.22-1.88,6.77-1.62,6.47.66,12.99,1.61,19.46,1.4,6.79-.22,12.09,2.47,17.44,6.01,16.13,10.66,32.25,21.52,49.86,29.51,6.87,3.11,9.92,6.92,11.73,14,6.4,25.02,13.49,49.88,20.51,74.73,1.81,6.41.62,11.93-2.9,17.37-4.95,7.65-9.5,15.56-14.48,23.18-1.77,2.72-1.67,4.33.81,6.52,5.58,4.92,10.77,10.29,17.62,13.55,2.86,1.36,4.39,3.58,5.38,6.66,4.15,12.92,8.47,25.79,12.93,38.62,1.45,4.18,1.07,7.98-.79,11.84-9.12,18.91-18.22,37.81-27.35,56.73-.24.5-.41,1.12-.81,1.45-5.29,4.54-2.33,7.88,1.23,11.73,6.07,6.55,11.15,14.13,17.73,20.08,8.29,7.5,7.67,16.63,5.96,25.61-2.54,13.32-6.42,26.36-9.72,39.52-.64,2.58-1.93,4.66-3.86,6.58-10.09,10.15-20.78,19.76-28.81,31.78-1.31,1.97-3.58,1.72-5.5,2.1-9.86,1.95-19.71,3.95-29.63,5.53-3.16.51-4.5,1.96-5.27,4.72-.6,2.14-1.83,4.14-2.17,6.31-2.27,14.48-11.13,22.45-24.86,26.02-3.2.83-6.3,2.32-9.24,3.91-8.39,4.54-17.07,6.97-26.68,5-2.9-.6-5.16-.45-3.95,3.83,2.07,7.43-.63,13.86-4.81,19.9-4.49,6.48-10.09,11.91-15.92,17.15-1.66,1.49-3.35,1.91-5.55,1.85-8.94-.22-17.89-.09-26.83-.4-2.6-.09-3.89.4-3.72,3.12.42,6.89-3.77,11.22-8.26,15.58-6.94,6.76-13.9,13.53-20.33,20.77-4.39,4.95-9.03,7.95-15.81,6.68-3.55-.66-4.15,1.1-3.2,4.07,2.07,6.5.58,12.41-2.67,18.2-3.17,5.67-5.9,11.59-9.06,17.27-1.24,2.23-1.28,3.88,1,5.07,5.01,2.59,6.97,6.99,7.2,12.25.19,4.08,2.75,5.23,6.07,5.65,4.41.56,8.39,1.55,9.58,6.74.3,1.31,1.21,2.32,2.86,1.39,10.23-5.81,21.47-2.76,32.25-3.86,10.08-1.03,18.47,1.71,26.1,8.22,3.04,2.59,6.56,6.77,10.09,6.12,3.26-.6,4.09-6.11,5.99-9.45,1.17-2.05,2.33-3.57,5.01-3.72,2.18-.12,4.66-.48,6.43-1.62,10.1-6.47,15.1,3.12,21.98,6.76,1.13.6.91,1.91.99,3.03.31,3.89.31,7.86,1.09,11.67,2.23,11.01-6.51,15.67-12.61,21.49-4.41,4.2-9.97,1.07-14.75-.52-4.87-1.61-8.46-1.18-11.03,3.64-1.39,2.59-3.77,3.79-6.73,4.38-5.29,1.03-10.48,2.58-15.75,3.73-6.78,1.49-13.29,1.79-20.06-1.33-7.39-3.4-15.29-5.84-23.16-8-5.83-1.6-9.91-4.49-12.06-10.15-.66-1.71-1.76-3.24-3.05-5.58-5.59,8.33-11.86,5.95-18.39,2-2.69-1.62-5.67-2.79-8.57-4.03-2.23-.94-3.83-2.19-3.78-4.88.07-4.04-2.31-4.75-5.8-4.55-8.8.48-14.22-6.43-21.13-10.09-1.5-.79-.71-2.74-.74-4.17-.1-2.96-.02-5.94-.02-8.78-.77-.25-1.19-.55-1.41-.43-7.03,3.63-13.08,1.82-19.58-2.17-10.44-6.4-21.42-11.93-32.26-17.68-2.53-1.34-3.77-2.93-4.28-5.86-1.82-10.44-4.08-20.8-6.09-31.2-.33-1.76-.82-3.47.37-5.34,6.86-10.72,10.96-22.74,15.68-34.44,1.12-2.75,2.49-4.71,5.19-6.07,5.8-2.93,11.38-6.3,17.18-9.25,2.55-1.3,3.35-3.01,3.2-5.75-.48-8.91-.62-17.85-1.26-26.77-.21-2.84.36-4.92,2.08-7.12,7.72-9.79,15.41-19.63,22.85-29.64,1.56-2.1,3.2-2.16,5.24-2.12,8.19.14,16.39.07,24.56.51,3.03.16,4.2-.57,3.93-3.53-.01-.19.02-.37,0-.56-2.07-13.09,2.91-22.59,13.85-29.99,6.57-4.45,11.31-12.5,18.31-15.16,7-2.67,15.81-1.02,23.78-.53,4.55.27,6.14-1.21,6.57-5.45.84-8.23,3.98-14.89,11.44-19.74,6.53-4.25,11.41-10.65,16.3-16.77,2.58-3.22,5.65-5.88,8.6-8.7,3.51-3.36,7.33-4.86,12.06-4.29,3.82.46,6.19-.82,7.07-4.95.72-3.43,2.55-6.63,3.27-10.07,2.63-12.56,10.58-20.87,21.06-27.3,2.1-1.18,3.98-2.59,6.41-4.28Z"/>
      <path class="cls-18" d="m218.82,362.43c5.37,4.13,10.58,8.48,16.17,12.27,2.76,1.87,5.83.29,8.21-1.66,3.82-3.14,6.53-7.04,7.93-11.88,1.79-6.15,3.71-12.26,6.47-18.15-.72,8.68-1.35,17.36-2.17,26.02-1.09,11.62-10.81,15.75-18.87,21.13-4.35,2.9-8.79,4.69-14.9,3.83-9.11-1.28-18.51.4-27.61,2.53-4.08.95-7.05,2.78-9.53,6.72-2.59,4.1-7.02,7.13-10.82,10.39-8.79,7.53-15.25,16.71-19.92,27.21-1.64,3.68-4.14,6.4-7.56,8.63-9.68,6.3-19.22,12.81-28.71,19.38-1.97,1.36-3.56,1.76-6.09,1.21-14.39-3.15-27.21-1.04-37.24,11.2-5.37,6.55-18,4.46-25.32-3.53-8.05-8.79-15.83-17.83-24.78-25.74-3.06-2.72-6.21-5.26-9.74-7.41-5.84-3.56-7.65-9.34-8.77-15.92-1.92-11.32,0-21.93,3.36-32.51,1.43,9.67-2.8,19.1-.89,28.69.5,2.48,2.81,4.61,4.28,6.88,2.16-1.2.83-2.42.35-2.93-4.09-4.38-3.12-9.61-2.83-14.79.98-16.87,1.9-33.75,2.8-50.62.01-.25-.41-.52-.95-1.17-1.95,3.09-.12,6.84-2.48,9.87-2.67-6.15-4.4-12.29-5.72-18.55-.36-1.74,4.66-10.71,6.22-11.33,3.2-1.28,3.68-2.34,4.44-8.55.15-1.19-1.08-3.52,1.41-3.33,1.74.12,1.76,2.1,1.72,3.63-.22,10.14,3.84,19.2,7.04,28.5,1.04,3.04,3.47,4.33,6.1,5.26,4.91,1.72,9.87,3.27,14.88,4.69,1.86.53,2.76.91,2.48,3.27-3.29,27.1-1.81,54.28-1.29,81.44.04,1.61,0,3.24,0,6.15-5.08-4.77-9.3-8.73-13.53-12.7-.33.33-.66.67-.99,1.02,4.2,6.15,10.75,10.07,16.01,16.22,1.52-4.8.52-9.01.36-13.04-.98-24.39-1.3-48.77.56-73.13.41-5.32,1.9-10.55,2.91-15.82,1.08-5.55.35-9.48-5.15-13.41-12.37-8.83-23.68-19.13-35.64-28.54-4.87-3.83-4.71-8.39-4.44-13.86.68-13.7,7.8-24.45,14.9-35.28,2.32-3.53,4.33-7.33,8.58-11.42-.01,17.93-.04,34.52-5.9,51.24,3.52-1.65,3.63-4.53,4.15-6.77,3.5-14.78,3.97-29.83,3.71-44.93-.01-.86.36-2.03-.79-2.41-1.5-.48-2.52.58-3.24,1.64-4.13,5.98-8.17,12-12.25,18-1.03,1.51-1.45,3.46-3.46,4.57,1.51-10.69,4.2-20.36,11.37-28.9,9.68-11.54,18.11-24.11,27.35-36.05,5.88-7.6,15.1-10.64,22.97-15.44,2.99-1.82,2.67,2.11,2.44,3.72-1.49,11.05-3.45,22.03-4.74,33.09-1.45,12.47-4.53,24.84-1.83,37.63,1.34,6.38,4.95,9.01,10.98,6.68,3.56-1.38,6.73-3.29,9.04-6.31,4.97-6.51,9.79-13.13,14.63-19.74.71-.97,2-1.9.62-4.03-4.44,5.81-7.88,12.14-13.48,17.74-1.87-9.82-3.3-19.03-3.64-28.38-.97-26.47,2.59-52.76,3.06-79.18.48-26.99,3.22-53.88,3.25-80.88.01-13.18,0-26.36,0-40.52-3.99,2.01-3,4.28-2.96,6,.26,13.03,1.29,26.07.88,39.08-.94,29.75-2.98,59.47-3.79,89.23-.61,22.33-3.82,44.57-2.36,66.93.47,7.22,1.59,14.41,2.65,21.56,1.35,9.12-1.1,14.02-8.78,16.75-4.45,1.57-6.86.06-8.1-4.64-2.8-10.6-.62-21.06.84-31.49,3.05-21.72,5.72-43.42,6.5-65.41,1.14-31.6,3.27-63.18,5.05-94.76,1.17-20.62,2.49-41.23,3.63-61.85.56-10.09,4.61-14.38,14.46-15.13,2.83-.21,2.75,1.97,3.42,3.52,3.46,8.02,3.35,16.72,4.36,25.17,2.78,23.06,5.29,46.16,7.64,69.28,2.13,20.9,3.91,41.84,5.83,62.77,1.25,13.67,6.77,19.37,20.37,21.31,10.1,1.45,20.18,3.12,30.28,4.65,4.14.63,7.41,2.36,10.51,5.43,10.7,10.6,20.46,22.11,32.4,31.55,6.16,4.87,9.22,12.99,14.96,18.66,4.64,4.57,8.68,9.91,13.82,13.8,11.94,9.04,14.26,22.14,15.17,35.4,1.48,21.42-6.41,41.23-12.71,61.19-.86,2.69-3.07,5.1-5.08,7.25-3.19,3.42-6.62,4.3-10.64.68-3.97-3.57-8.38-6.66-12.6-9.96-.38.45-.82.9-1.24,1.38Z"/>
      <path class="cls-18" d="m137.46,188.31c6.43-5.79,12.78-9.68,16.54-16.4-4.59,3.79-9.1,7.69-13.8,11.34-6.19,4.82-6.6,4.57-9.96-2.31-5.23-10.7-5.03-21.5-.71-32.31,3.58-8.96,7.51-17.79,11.47-27.1,8.59,9.55,9.06,22.65,16.13,32.43-4.03-10.49-6.2-21.73-12.43-31.23-2.27-3.45-1.65-5.52,1.26-7.95,10.04-8.37,21.27-15.01,32.06-22.3,3.09-2.08,6.52-3.66,9.47-5.9,8.34-6.32,17.42-7.85,27.78-6.63,16.14,1.9,32.33-.88,48.52-.98,3.84-.02,7.23.69,10.62,2.59,16.09,8.96,32.3,17.73,48.45,26.59,5.94,3.26,5.9,3.27,1.72,8.22-5.05,5.98-10.19,11.88-15.04,18-3.51,4.44-2.64,7.56,2.93,11.07-.37-3.11-4.59-4.79-2.64-7.92,1.46-2.36,3.31-4.48,5.08-6.62,4.39-5.31,8.89-10.53,13.24-15.87,1.91-2.34,3.14-2.7,4.71.41,7.74,15.26,15.61,30.46,23.48,45.66.89,1.74,1.2,3.5,1.04,5.38-.17,2.18-1.26,4.24-2.86,5.23-2,1.24-3.22-1.31-4.44-2.42-4.07-3.71-8.42-6.86-13.66-8.77,3.93,4.38,9.36,6.89,13.46,11.08,2.22,2.27,2.95,4.07,1.85,7.17-3.91,11.02-7.53,22.15-11.18,33.26-1.15,3.51-3.46,5.8-6.24,8.19-11.67,10.09-22.32,21.24-32.15,33.13-6.16,7.44-13.02,11.2-23.39,8.7-12.24-2.94-24.86-4.25-37.33-6.09-1.67-.25-2.73-.97-3.76-2.03-1.55-1.6-3.29-3.1-4.55-4.91-13.63-19.58-33.34-33.35-48.71-51.24-3.93-4.57-9.65-3.32-14.59-4.28-10.3-1.98-20.74-3.37-32.4-5.22Z"/>
      <path class="cls-18" d="m572.82,75.11c-9.96-1.38-19.97-2.02-30.3-5.95,10.49-5.34,19.82-11.36,30.03-14.82,5.7-1.93,12.84.63,19.34.69,8.19.09,14.78,3.61,21.46,7.95,16.67,10.86,33.25,21.98,51.66,29.87,2.47,1.05,2.42,2.67,2.43,4.87.11,14.7-3.91,28.64-7.62,42.62-.87,3.29-.12,7.18-4.77,9.88,6.83.71,9.27,5.96,13.6,8.79-.38-3.25-2.81-5.18-4.91-6.74-3.56-2.65-3.51-5.58-2.54-9.29,2.37-9.16,4.74-18.32,6.68-27.58.87-4.09.74-8.41,1.13-13.46,2.57,2.99,2.6,5.96,3.33,8.58,5.95,21.27,11.31,42.73,17.83,63.82,3.14,10.12-.92,17.03-6.98,24.97-.14-4.41,1.07-7.66,1.81-11,.57-2.57.69-4.09-3.17-3.42-7.88,1.38-14.05,4.34-18.35,11.65-7.28,12.36-17.96,21.76-29,30.71-1.02.82-1.9,1.81-2.94,2.58-2.37,1.75-3.73,6.46-6.35,5.58-2.98-1-2.13-5.73-3.12-8.78-.74-2.28-1.35-4.67-1.59-7.05-.52-5.42-3.45-6.01-7.67-4.07-2.39,1.09-4.49.78-6.88-.19-14.64-5.93-29.39-11.55-43.99-17.6-8.21-3.4-15.29-8.39-19.72-16.48-1.88-3.42-3.81-6.88-6.2-9.94-4.41-5.64-5.91-11.47-4.1-18.63,4.25-16.82-.62-33.13-3.79-49.47-1.72-8.91-3.69-17.79-5.74-26.64-.61-2.65.26-3.25,2.7-4.18,9.79-3.78,19.09-.63,28.34,1.72,6.43,1.67,12.86,1.36,19.4,1Z"/>
      <path class="cls-18" d="m343.91,77.23c.67,11.16.16,10.19-10.61,15.79-12.41,6.46-23.3,6.16-34.32-2.12-1.91-1.44-4.35-2.12-6.38-3.41-7.5-4.71-18.06-5.79-19.94-17.42-1.3,2.5.21,4.19.52,6.42-7.39-1.05-14.65-.29-22.8-.53,4.77-10.18,9.36-19.95,14.64-31.23,1.45,6.53,2.55,11.49,3.66,16.45,1.4-4.41-.06-8.39-.68-12.45-1.24-8.03,1.4-12.71,8.89-16.61,8.24-4.3,17.52-6.25,25.4-11.37,7.49-4.86,15.09-9.55,22.59-14.41,2.63-1.7,4.3-2.49,5.02,1.81,1.4,8.46,6.5,15.32,10.49,22.64,2.27,4.17,6.83,5.34,10.69,6.42,8.91,2.47,17.89,4.96,27.18,5.73.41.04.84-.37,1.91-.89-7.43-1.69-14.11-3.91-20.94-4.6-15.94-1.6-21.87-13.04-26.26-25.84-2.81-8.19-2.31-8.7,6.03-8.1,21.19,1.55,42.44.24,63.61,1.64,6.69.45,10.55,7.39,7.22,13.24-3.81,6.69-8.34,12.93-12.88,19.17.52.38,1.03.77,1.55,1.17,2.96-4.17,6.11-8.21,8.86-12.51,6.51-10.18,6.53-10.3,13.25-.37,8.26,12.21,17.79,23.41,27.04,34.84,2.44,3.03,5.84,4.51,8.83,6.69,5.85,4.26,9.52,9.58,9.4,17.28-.19,12.11-.31,24.24.22,36.33.25,5.74-4.22,7.35-7.05,10.44-1.21,1.31-2.34-.19-3.27-1.03-4.65-4.26-9.74-8.1-13.48-13.29-1.2-1.69-2.45-3.42-4.87-3.15-2.85.33-3.14,2.8-3.83,4.88-1.55,4.57-3.72,9.05-4.48,13.76-1.81,11.31-10.59,15.2-19.22,19.58-3.41,1.72-4.7.56-5.18-2.76-.76-5.15-1.56-10.28-2.39-15.41-1.18-7.31-4.65-13.14-10.76-17.54-11.63-8.39-23.07-17.03-34.64-25.51-2.06-1.5-3.89-3.24-6.78-3.58-3.78-.46-2.27-4.57-3.79-6.72-.81-1.14-.63-2.94-2.43-3.42Z"/>
      <path class="cls-18" d="m706.6,298.62c-4.61,9.65-9.2,19.29-13.84,28.92-3.55,7.36-7.3,14.64-10.7,22.08-1.52,3.33-3.82,5.49-7.25,6.32-16.76,4.08-33.55,8.08-50.32,12.1-.46.11-.97.01-1.98.01,4.81-6.07,11.31-9.88,15.58-15.71-.35-.37-.69-.73-1.04-1.1-5.01,4.72-10.31,9.2-14.94,14.27-3.35,3.67-5.62,3.58-9.61.71-13.56-9.76-28.96-15.89-44.79-20.89-3.66-1.15-5.9-3.12-7.56-6.6-5.76-12.04-11.83-23.93-18.06-36.44,4.61.73,7.19,5.72,12.19,3.47,3.71-1.67,8.22-1.66,11.05-5.54-2.05-.94-3.04.6-4.26,1.19-8.12,3.94-13.09,3.21-19.77-2.73-1.4-1.25-1.43-2.41-1.05-3.93,1.4-5.76,2.93-11.51,4.09-17.32.62-3.09,2-2.85,4.3-1.93,9.29,3.69,18.09,8.74,28.47,9.82-.77,3.77-3.63,5.75-6.2,8.54,4.24.53,4.97-2.81,6.76-4.59,1.13-1.1,1.46-3.4,3.61-2.93,6.47,1.43,11.96-1.95,17.8-3.47,5.9-1.54,5.85-1.71,5.1,4.1.33.04.97.15.97.12,1.25-6.09,6.56-7.18,10.96-10.09,9.99-6.62,21.99-8.77,31.71-15.7,4.22-3.01,7.23-6.84,9.56-11.34,2.49-4.77,5.02-9.52,7.43-14.34,1.19-2.41,2.43-3.16,5.19-1.88,7.92,3.64,15.82,7.43,24.44,9.3,2.33.51,3.1,2.31,3.77,4.35,4,12.19,8.03,24.35,12.12,36.5,1.34,3.98.52,7.04-2.67,9.96-7.8,7.09-15.77,14-23.73,20.96,8.32-4.23,15.03-10.61,22.7-16.2Z"/>
      <path class="cls-18" d="m683.31,186.54c-2.55,11.06-3.66,21.04-9.94,29.82-7.46,10.4-13.79,21.57-19.35,33.21-4.93,10.3-15.53,13.84-25.43,17.58-3.11,1.18-6.29,1.88-8.91,4.17-5.72,4.93-13.44,5.11-19.96,8.13-13.45,6.25-26.32,3.58-39.03-2.19-6.41-2.91-12.81-6.01-19.2-8.74-7.15-3.04-15.51-3.31-23.38-4.53-2.36-.36-4.19-1.21-5.93-2.73-11.22-9.79-22.29-19.76-33.81-29.21-4.36-3.57-5.89-7.35-5.74-12.84.3-11.72.01-11.78,11.08-15.46,6.36-2.11,11.77-5.75,15.89-10.84,8.03-9.89,18.1-17.68,26.93-26.73,2.13-2.18,3.21-1.54,4.55.76,2.64,4.49,5.78,8.7,8.19,13.32,5.32,10.14,13.8,16.19,24.21,20.2,14.23,5.48,28.38,11.16,42.51,16.89,2.38.97,4.49,1.49,6.88.2,3.68-1.97,5.38-.22,6.06,3.41.78,4.19,1.72,8.36,2.53,12.55.36,1.86.64,3.83,2.68,4.51,1.83.62,3.19-.69,4.38-1.87,14.17-13.91,30.21-26.07,40.54-43.57,3.01-5.16,8.73-3.89,14.24-6.03Z"/>
      <path class="cls-18" d="m465.46,128.7c1.54,10.56.02,18.84-7.05,26.84-13.07,14.77-24.86,30.66-37.14,46.11-1.55,1.95-3.46,3.24-5.73,4.26-11.33,5.16-22.95,9.76-33.45,16.6-1.67,1.09-2.96.78-4.65.21q-15.98-5.41-16.41-22.7c-.25-10.8-.43-21.61-.47-32.41-.01-3.45-.67-6.52-2.31-9.6-5.5-10.35-11.08-20.67-16.09-31.25-5.17-10.93-10.51-21.45-24.55-25.53,10.64-4.41,19.75-8.48,29.1-11.89,2.31-.84,5.29.27,7.75,2.12,12.34,9.3,24.82,18.41,37.27,27.58,6.01,4.43,8.07,10.93,9.29,17.83.93,5.31,1.71,10.64,2.32,15.98.33,2.85,1.51,3.42,4.05,2.47,6.5-2.44,12.2-6.34,18.1-9.86,1.79-1.07,2.1-2.94,2.68-4.71,2.48-7.4,5.13-14.74,7.48-22.19,1.05-3.36,2.53-3.61,4.36-.97,3.79,5.43,9.5,8.91,13.71,13.85,3.03,3.53,5.45,3.69,8.38.19.81-.97,1.91-1.67,3.37-2.94Z"/>
      <path class="cls-18" d="m575.33,474.77c7.44-8.18,14.74-15.61,21.35-23.61,7.12-8.62,7.66-9.96,19.68-3.42,8.59,4.67,14.39,7.36,24.62,1.28,9.94-5.91,18.79-10.96,22.84-22.15.68-1.91,1.83-3.64,2.83-5.44,4.31-7.87,3.06-12.5-5.33-16.3-6.45-2.93-12.65-6.26-18.99-9.32-4-1.93-6.41-4.66-7.53-8.94-1.43-5.48-6.89-11.43-4.54-15.88,2.18-4.14,10.04-3.35,15.39-4.8,9.12-2.48,18.4-4.38,27.56-6.72,2.53-.64,4.18-.17,5.84,1.79,8.54,10.07,17.53,19.79,25.64,30.2,4.12,5.29,2.44,12.36,1.26,18.3-2.59,13.09-6.37,25.94-9.57,38.92-.48,1.95-1.62,3.27-2.94,4.61-9.89,10.1-20.2,19.84-28.66,31.23-1.5,2.01-3.47,1.86-5.41,2.23-11.84,2.24-23.69,4.46-35.53,6.76-1.28.25-2.43.71-3.77.14-14.69-6.22-29.37-12.39-44.73-18.86Z"/>
      <path class="cls-18" d="m549.7,433.94c-2.74,1.82-5.69,3.4-8.17,5.52-7.59,6.5-16.6,7.8-26.07,7.67-1.71-.02-4.39.93-4.77-1.51-.41-2.57-1.93-6.24.27-7.88,9.98-7.46,16.91-17.78,25.64-26.39,4.39-4.34,9.17-6.82,15.91-4.93-.46,4.51-2.7,8.78-4.18,13.2-.97,2.9-.82,5.29.48,8,4.95,10.22,9.62,20.54,14.64,30.72,1.41,2.88,1.76,4.97-.88,7.29-1.93,1.7-3.57,3.82-5.08,5.93-1.98,2.76-6.1,4.55-5.27,8.69,1.34,6.62,3.93,12.84,8.69,17.79,1.64,1.71,4.59,1.4,6.36.42,5.47-3.03,10.51-7.1,11.57-13.54.83-5.11,2.63-4.36,6.07-2.86,10.74,4.69,21.34,9.89,32.46,13.43,6.61,2.1,5.74,4.74,4,9.53-6.09,16.82-5.98,16.86-22.19,23.78-3.25,1.39-6.68,2.49-9.67,4.3-10.55,6.42-21.89,5.83-33.41,4.25-.74-.1-1.5-.36-2.22-.25-11.55,1.79-19.07-4.87-26.53-12.21-7.69-7.57-15.75-14.8-23.88-21.89-3.37-2.94-2.84-4.33.81-6.15,2.31-1.15,4.48-1.69,6.94-1.1,6.16,1.44,12.06,3.37,17.67,6.53,9.89,5.58,19.91,6.17,30.2-1.2-2.8-.78-4.65.46-6.37,1.36-7.74,4.08-15.29,2.31-22.2-1.49-6.65-3.64-13.59-5.81-20.85-7.49-3.83-.88-6,2.58-9.29,2.88-2.12-10.08,3-48.81,7.38-55.91.2.24.56.45.57.67.3,7.55.33,7.03,7.96,7.66,13.91,1.15,24.45-5.11,34.22-13.64-.25-.37-.52-.77-.79-1.17Z"/>
      <path class="cls-18" d="m565.16,384.27c.11,1.8.48,3.63.29,5.39-.72,6.27.66,11.48,6.84,14.37,4.24,1.98,1.41,6.47,4.05,10.7.26-5.95.57-10.67,5.07-14.03-4.05,2.63-7.45,3.6-10.95-.37-1.55-1.76-2.9-3.17-2.73-5.7.12-1.83.1-3.81-.42-5.55-3.15-10.49,1.88-17.22,9.93-22.91,14.26-10.09,16.8-10.03,32.71,2.23-5.54,2.67-10,6.38-13.93,10.71-3.84,4.22-7.54,8.53-10.43,14.55,3.21-.89,3.82-3.24,4.98-4.8,4.82-6.46,9.87-12.65,16.9-16.85,2.27-1.36,4.48-2.67,7.09-.38,2.1,1.83,4.72,1.21,6.92.31,4.26-1.75,6.25-.01,7.22,3.94.14.53.51,1.03.58,1.56,2.22,14.69,12.36,21.92,25.09,26.73,1.56.6,3.11,1.23,4.64,1.91,8.88,3.98,9.92,6.89,5.47,15.31-.52.99-1.18,1.92-1.55,2.96-4.25,11.69-11.77,19.85-24.29,22.7-.88.2-1.98.53-2.47,1.19-4.31,5.95-8.7,4.53-13.41.48-1.52-1.3-3.47-2.17-5.33-3-13.9-6.22-15.61-4.17-22.12,3.86-6.53,8.06-13.87,15.47-21.34,23.7-7.74-16.3-15.13-31.87-22.79-48.03,4.22.37,6.93,3.87,11.51,4.09-2.48-2.98-5.31-3.99-7.87-5.18-2.94-1.35-4.14-2.54-2.78-6.15,4.24-11.24,7.98-22.69,11.91-34.04.37.11.78.2,1.2.3Z"/>
      <path class="cls-18" d="m522.55,148.21c2.37-2.96,4.75-5.91,7.38-9.19-.2,20.42-4.24,27.63-22.18,39.83-.56-3.69,2.79-6.35,2.43-10.7-3.41,3.84-4.3,8.03-5.86,11.79-4.43,10.64-12.14,17.62-22.91,21.24-10.74,3.61-21.53,7.03-32.33,10.5-1.03.33-2.45.91-3.16.48-6.05-3.66-12.1-7.35-17.87-11.43-2.23-1.57.56-2.86,1.38-3.93,12.3-15.68,24.67-31.29,37.07-46.9,1.39-1.75,3-3.33,2.52-6.42,5.95,2.43,10.89,5.26,15.46,8.64,2.34,1.74,4.07,1.69,6.29-.14,2.86-2.37,6.04-4.35,9.03-6.58,10.76-8.03,14.57-19.08,8.77-31.18-5.96-12.42-6.41-23.48,2.53-34.47,2.17-2.67,3.55-5.99,5.62-9.57,3.94,8.8,5.28,17.41,6.96,25.89,2.16,10.92,3.88,21.93,6.19,32.82.95,4.51-.33,7.82-3.21,11.03-2.01,2.24-3.68,4.79-5.52,7.19.48.38.97.73,1.45,1.09Z"/>
      <path class="cls-18" d="m435.52,39.95c9.69-3.14,18.55-5.88,27.3-8.93,2.05-.71,3.47-.42,5.17.57,5.76,3.4,11.58,6.71,17.39,10.02,1.72.98,2.5,2.42,3.16,4.31,1.86,5.38,2.7,11.16,6.84,15.83-1.61-5.37-3.22-10.72-5.17-17.22,8.03,4.62,15.15,8.48,21.99,12.77,2.99,1.87,4.02,9.48,2.26,12.62-3.45,6.16-6.57,12.56-10.5,18.4-3.55,5.26-3.17,10.15-1.15,15.68,2.39,6.57,5.57,12.79,6.19,20.1.72,8.43-3.64,13.9-9.09,18.63-10.58,9.2-10.61,8.63-23.17,2.54-6.04-2.93-8.22-6.46-7.92-13.23.61-13.93-.09-27.92.27-41.88.25-9.66-.19-18.73-10.12-24.78,6.29-2.74,12.3-.62,17.68-2.89-5.24,0-10.51-.32-15.72.1-4.54.36-8.08-1.13-10.84-4.4-4.85-5.8-9.47-11.83-14.58-18.25Z"/>
      <path class="cls-18" d="m357.8,172.46c0,21.36-.02,41.63.04,61.9.01,2.23-.83,3.83-2.27,5.43-6.97,7.75-13.51,15.91-20.87,23.26-3.83,3.83-9.92,4.33-14.74,7-3.61,2-7.48,4.3-12.03,3.91-1.29-.11-2.19.62-2.68,1.66-1.67,3.66-4.8,5.88-9.12,8.39,4.1.76,6.52-.97,7.48-2.79,2.29-4.38,6.21-5.07,10.24-6.48,5.7-2,11.07-4.91,17.36-6.68-6.92,9.96-13.84,19.91-20.77,29.85-1.52,2.18-3.26,2.37-5.73,1.15-3.24-1.59-6.5-3.33-11.24-4.02,3.38,3.68,7.76,3.53,10.96,6.71-10.84,3.87-21.29,8-31.99,11.27-5.73,1.75-8.63-1.21-7.9-7.38,1.44-12.3-4.54-22.77-8.29-33.71-1.07-3.1-5.18-5.15-7.9-7.69-1.98-1.86-3.95-3.73-5.45-6.5,12.89,2.17,25.85,4,38.64,6.66,6.98,1.45,12.68-.15,17.33-4.95,10.2-10.54,20.07-21.4,30.08-32.13.76-.82,1.3-2.05,2.22-2.45,9.94-4.4,11.98-14.03,15.08-22.85,2.47-6.99,4.46-14.16,6.71-21.22.87-2.63,1.48-5.39,4.85-8.34Z"/>
      <path class="cls-18" d="m463.85,467.17c-1.71,5.19-3.25,9.32-4.4,13.54-1.31,4.8,1.24,7.48,6.34,7.29,5.72-.21,10.89-2.11,15.97-4.49,5.05-2.36,10.18-4.5,15.81-6.97-.48,6.82-.84,13.19-1.41,19.54-.29,3.09.83,5.22,3.12,7.22,4.92,4.26,9.52,8.91,14.51,13.09,2.26,1.88,2.95,3.43,1.45,6.1-1.45,2.58-2.81,5.31-3.64,8.13-2.42,8.16-9.06,11.12-16.35,14.1-.68-5.59-2.16-10.61-5.11-16.36-.73,4.59,1.33,7.38,2.12,10.4,1.62,6.22.73,7.43-4.86,10.29-12.22,6.25-23.59,4.48-34.69-2.62-3.3-2.11-6.73-3.97-10.51-5.1-2.07-.62-3.63-1.9-2.52-4.02,1.59-3.04,1.56-5.36.82-8.99-1.38-6.76-.1-14.05.15-21.13.1-2.78.97-5.64.55-8.32-1.43-9.24,2.53-15.45,9.86-20.54,4.34-3.03,8.05-6.96,12.82-11.17Z"/>
      <path class="cls-18" d="m436.33,534.37c.02,5.8-.26,11.21,5.38,14.55,1.62.97,1.5,2.26.32,3.68-1.3,1.57-2.32,3.41-3.67,4.92-2.54,2.85-3.36,5.31-.17,8.53,2.68,2.72,1.23,9.16-2.91,13.23-6.78,6.66-14.16,12.57-23.75,16.15-.2-3.71-.38-7.18-.64-11.98-2.28,3.35-1.67,5.83-1.54,8.05.24,3.61-.89,5.16-4.67,4.55-5.86-.94-11.75-1.77-17.65-2.48-1.83-.22-2.59-.84-2.67-2.72-.62-15.42-1.3-30.85-1.6-46.65,5.26,9.68,9.5,20.52,23.22,20.31-11.53-2.32-16.61-10.9-20.68-20.67-1.02-2.43-.92-3.94.68-5.96,6.72-8.46,13.33-17,19.84-25.61,1.29-1.7,2.63-2.32,4.67-2.28,7.27.12,14.54.25,21.81.11,3.97-.07,4.55,1.66,5.01,5.37,2.1,16.77-10.34,26.12-18.46,37.71-.98,1.39-3.19,2.07-2.63,5.48,7.97-7.61,13.2-16.64,20.12-24.3Z"/>
      <path class="cls-18" d="m388.88,595.8c3.24.33,5.59.15,7.61.86,11.75,4.15,21.5-.36,30.3-7.38,5.55-4.43,11.73-8.47,14.06-16.08,1.02-3.31,1.82-5.67-1.02-8.41-2.12-2.06,2.22-11.79,5.16-11.99,1.48-.1,2.14,1.31,3.07,2.16,8.75,8.06,17.59,16.04,26.16,24.3,2.62,2.52,5.21,3.76,8.84,3.55,4.26-.25,8.57.19,12.83.01,3.09-.12,3.95,1.2,3.58,3.99-.5,3.71-1.29,7.02-4.24,9.91-9.16,8.99-18.03,18.29-26.95,27.51-1.39,1.43-2.81,2.17-4.88,2.12-13.39-.33-26.77-.61-40.16-.81-2.07-.02-3.43-.97-4.85-2.29-9.47-8.86-19.01-17.69-29.52-27.45Z"/>
      <path class="cls-18" d="m373.84,647.54c9.56,2.95,18.14-3.24,27.49-5.67,1.95-.51,3-2.07,4-3.68,1.98-3.15,4.12-6.21,5.99-9.42,1.83-3.14,3.45-6.04,6.82-1.38,1.14,1.57,3.01,1.14,4.66,1.21,8.17.4,16.34.91,24.52,1.17,2.62.09,3.87.74,4.5,3.57,1.18,5.27,1.38,10.19-1.31,15.11-3.83,7.02-7.81,14-10.95,21.32-2.14,5.01-5.54,7.23-10.49,8.6-11.26,3.15-22.4,6.72-33.57,10.15-2.36.72-4.4,1.02-6.86-.36-11.01-6.21-22.13-12.26-33.34-18.11-2.95-1.55-3.19-2.68-1.19-5.26,3.63-4.71,6.97-9.65,10.33-14.55,2.18-3.24,5.41-2.73,9.4-2.72Z"/>
      <path class="cls-18" d="m440.53,543.56c4.57.37,6.99,1.86,9.21,3.43,14.43,10.2,28.75,9.09,44.06,1.38,10.6-5.33,19.29-11.48,22.5-23.44,1.05-3.93,2.85-4.13,5.52-1.19,1.62,1.79,3.68,3.19,5.24,5.01,6.79,7.87,15.04,12.34,25.7,11.47,1.64-.14,3.14.32,3.3,2.18.43,4.95,1.77,9.93-.64,14.8-4.41,8.88-11.26,15.67-18.51,22.17-1.24,1.12-2.58,1.2-4.12,1.18-16.76-.32-33.51-.61-50.27-.88-1.7-.02-3.3-.1-4.66-1.38-12.1-11.28-24.22-22.54-37.33-34.73Z"/>
      <path class="cls-18" d="m199.06,398.85c.2,4.31-1.44,8.23-1.79,12.36,3.03-2.53,3.09-6.15,3.52-9.45.32-2.47,1.13-3.47,3.61-3.92,3.52-.62,7.02-.78,10.56-.84,6.2-.1,6.78.43,4.04,5.83-4.54,8.94-8.91,18.08-16.98,24.61-1.86,1.51-3.77,2.96-5.79,4.55-2.07-1.67-.1-5.13-1.66-8.08-1.88,1.98-1.74,4.18-.95,5.84,2.01,4.3.84,8.18-.74,12.19-1.1,2.76-2.55,5.55-2.84,8.43-1.5,15.13-12.25,23.61-23,31.78-9.62,7.31-19.96,13.67-29.9,20.54-9.86,6.81-20.05,3.51-30.01.79-4.14-1.13-7.75-1.55-11.89-.3-11.9,3.62-21.73-1.21-26.7-12.58-.77-1.77-.76-2.68,1.14-3.37,2.78-1.02,5.32-2.07,8.58-1.33,11.58,2.64,23.32,4.6,34.85,7.38,5.57,1.34,9.77-.51,13.79-3.64,13.63-10.66,26.44-22.34,40.4-32.61,5.29-3.89,8.62-9.55,9.58-15.93,1.77-11.69,7.12-22.23,10.02-33.5,1.77-6.86,6.07-8.46,12.17-8.74Z"/>
      <path class="cls-18" d="m357.39,596.08c.6-3.22,2.75-5.07,5.52-6.5,3.95-2.05,7.86-4.2,11.77-6.36,5.57-3.09,5.95-3.06,6.06,3.53.1,5.7.64,10.31,6.91,13.07,2.41,1.05,7.31,2.64,5.62,7.85-.07.22,2.33-1.36,3.62-.14,4.98,4.74,10,9.43,14.93,14.24,1.24,1.21.04,2.44-.62,3.48-2.57,4.09-5.23,8.12-7.77,12.24-.94,1.54-2.27,2.49-3.91,2.95-8.77,2.45-16.9,7.6-26.79,5.05-4.56-1.18-8.34.92-11.05,5.48-3.36,5.65-7.66,10.74-12.21,16.95-2.89-8.23-3.12-16.08-5.32-23.42-2.68-8.98-2.02-17.16,3.3-25.23,3.01-4.57,4.55-10.12,6.76-15.21,3.62,2.78,1.39,6.61,1.44,9.83.11,6.86-.26,6.87,7.28,5.85,4.41-.92,8.93-1.2,12.66-1.87,1.46-.15.48-.99.77-.3-4.69,1.34-9.73.77-14.34,2.59-6.45-.04-6.36-.04-6.19-6.55.14-5.9-.42-11.84,1.59-17.54Z"/>
      <path class="cls-18" d="m542.16,732.4c.98,3.33-2.48,9.26-6.87,10.55-8,2.34-16.12,4.31-24.42,5.24-2.65.3-5.28.24-6.74-2.63-1.4-2.75-1.81,1.26-3.86.42-9.24-3.82-19.01-6.37-28.22-10.27-4.31-1.82-5.5-7.17-7.53-11.26-.57-1.17.71-2.1,1.62-2.59,6.63-3.56,5.65-10.08,5.28-15.67-.14-2.08-.19-2.73,1.39-3.41,3.92-1.7,7.82-3.22,12.31-3.04,6.31.27,12.7.52,18.97-.05,8.1-.73,14.83,1.5,21.01,6.65,4.09,3.4,8.72,6.16,13.1,9.2,5.42,3.74,6.83,9.48,3.97,16.12-6.51,2.1-13.4,2.31-19.91,4.46-.84-.52.51-.55.06.05,6.62-1.24,13.05-3.4,19.82-3.78Z"/>
      <path class="cls-9" d="m180.84,412.26c-1.43,4.82-2.12,8.46-3.55,11.78-2.89,6.72-2.91,14.08-5.31,20.94-3.06,8.77-11.34,12.01-17.42,17.48-9.48,8.54-19.7,16.27-29.53,24.41-3.14,2.6-6.22,4.09-10.58,3.09-10.62-2.43-21.35-4.41-32.02-6.62-1.02-.21-2.48.19-2.9-1.13-.51-1.55.92-2.41,1.86-3.11,7.59-5.68,16.12-9.03,25.46-6.35,6.24,1.79,10.89.77,15.88-3,7.55-5.69,15.32-11.13,23.39-16.03,5.72-3.46,9.73-7.98,12.09-14.01,4.41-11.21,13.43-18.46,22.61-27.45Z"/>
      <path class="cls-18" d="m428.8,710.23c-9.11,2.27-15.11-3.66-21.42-7.88-3.82-2.55-1.36-7.56-1.7-11.44-.25-2.89,2.53-2.65,4.36-3.25,5.83-1.86,11.64-3.78,17.51-5.55,1.64-.5,3.63-2.58,4.97.62.62,1.48.93.43.89-.27-.19-3.35,3.1-2.55,4.53-3.92,2.96-2.83,5.27-1.5,7.6.74,3.38,3.27,4.91,12.55,2.05,15.93-1.97,2.33-3.26,4.92-4.51,7.53-3.01,6.25-7.28,9.71-14.27,7.5Z"/>
      <path class="cls-18" d="m546.38,709.01c-.56-5.41,1.62-8.55,7.29-8.89.72-.04,1.52-.21,2.13-.58,6.07-3.71,10.82-1.33,15.92,2.57,4.62,3.53,3.94,8.31,5.05,12.91,2.68,11.16-5.91,15.83-12.11,21.7-2.55,2.41-5.99.09-8.96-.71q-9.11-2.44-9.15-11.88c-.01-3.51.43-6.97-2.93-9.65-2.52-2.02.06-3.92.99-5.74.05-.1.36-.12.51-.07.16.05.27.24.41.37,2.17,4.56,6.92,2.48,10.3,3.92,1.12.47,2.58-.01,3.87.15.52.06,1.44-.33,1.36.33-3.48-.6-7.27-.74-10.96-1.5-1.87-.38-3.86-.17-3.72-2.93Z"/>
      <path class="cls-18" d="m484.93,460.78h4.46c11.02,0,11.55.72,9.05,11.51-.29,1.23-.72,2.17-1.8,2.54-9.73,3.45-18.4,9.66-28.94,11.07-5.76.77-7.74-.95-5.96-6.52,1.67-5.27,3.89-10.39,6.21-15.42,1.02-2.21,3.09-3.6,5.85-3.52,3.71.1,7.41.02,11.12.02v.32Z"/>
      <path class="cls-18" d="m451.71,712.94c4.67.82,8.73.61,12.79.36,1.17-.07,2.75-.61,3.37,1.05.53,1.44-.26,2.54-1.36,3.35-4.19,3.09-8.39,6.15-12.61,9.21-.3.22-.62.45-.97.56-2.47.78-18.65-7.45-19.63-9.94-.87-2.22-1.18-4.34,2.18-3.84,3.97.6,5.59-1.7,7.19-4.65,1.6-2.93,3.37-5.79,5.38-8.44,1.74-2.31,1.96-6.65,6.34-5.85,4.28.77,8.34,1.33,10.59,6.51,4.84,11.18,5.18,11.01-6.55,11.23-2.05.02-4.08.26-6.73.46Z"/>
      <path class="cls-2" d="m19.71,333.64c6.56,7.92,19.15,10.19,19.84,22.91,2.54-1.2.62-3.38,1.83-4.59,10,3.42,6.26,11.96,7.31,18.79-.48.05-.68.14-.84.09-7.09-2.05-16.27-1.91-20.33-7.88-5.63-8.28-7.91-18.65-7.81-29.32Z"/>
      <path class="cls-18" d="m577.76,481.83c-.15,5.13-6.72,13.58-11.51,14.84-1.85.48-3.61.4-5.01-1.34-3.45-4.25-5.75-9.01-6.82-14.38-.3-1.54-.12-2.86,1.05-4.08,1.41-1.46,2.63-3.1,3.97-4.64,6.6-7.6,6.63-7.61,11.11,1.2,1.04,2.07,2.26,3.77,4.57,4.53,1.91.62,3.29,1.71,2.63,3.87Z"/>
      <path class="cls-11" d="m692.36,239.83c-7.93-1.13-14.7-4.95-21.8-7.92-4.2-1.76-.93-3.68-.14-5.57,1.08-2.54,2.5-2.8,4.51-.88,5.42,5.22,10.64,10.71,17.42,14.37Z"/>
      <path class="cls-22" d="m363.04,619.57c-6.72,2.84-8.34,1.59-8.1-5.36.12-3.35,1.6-6.96-.76-10.18,1.07-2.65,2.13-5.31,3.2-7.96-.2,5.5-.45,11.11-1.17,16.48-.87,6.53,1.67,7.53,6.86,7.08l-.04-.06Z"/>
      <path class="cls-15" d="m542.16,732.4c-6.57,2.44-13.72,2.18-20.31,4.62,6.34-3.58,13.29-4.64,20.33-5.36-.01.25-.02.48-.02.73Z"/>
      <path class="cls-3" d="m546.38,709.01c3.3,3.88,8.06,2.38,12.16,3.32,1.66.38,4.35-1.2,4.74,2.74-4.62-1.96-9.37-1.72-14-2.44-2.55-.4-3.63-1.24-3.77-3.63.29.04.57.04.87.01Z"/>
      <path class="cls-21" d="m99.17,395.22c3.61-6.79,6.12-14.11,9.63-20.95,1.7-3.32,1.87-5.24-2.27-6.43-2.64-.77-5.13-2.19-7.53-3.61-4.45-2.62-7.14-1.38-9.05,3.26-1.66,4.05-3.76,7.93-3.79,12.56-4.98-6.77,5.86-12.26,1.1-19.01,13.6.55,25.09-6.22,37.22-10.62,14.12-5.12,28.04-10.76,42.26-16.27-2.79,25.06-19.72,44-46.93,37.65-5.86-1.38-8.18-.04-10.24,5.1-2.62,6.5-4.98,13.2-10.41,18.32Z"/>
      <path class="cls-10" d="m206.37,355.21c-8.49-1.02-15.76-8.34-16.55-16.85-1.02-11.07-1.46-22.2-2.11-33.31-.02-.5.33-1,1.56-1.64.52,5.81,1.1,11.63,1.52,17.46.26,3.52.32,7.05.38,10.58.17,10.95,4.23,19.43,15.19,23.77Z"/>
      <path class="cls-16" d="m185.96,233.49c4.05,1.62,8.24,2.99,12.11,4.97,3.4,1.75,4.95,1.1,5.72-2.57.4-1.88,1.31-3.66,2.38-6.52.48,6.58-9.09,34.64-13.41,40.38-.94-2.41.74-3.92,1.31-5.59,1.8-5.26,3.5-10.56,5.67-15.67,1.98-4.66,1.38-7.46-3.93-9.03-3.62-1.07-7.34-2.34-9.84-5.98Z"/>
      <path class="cls-4" d="m102.78,456.69c-5.02,1.43-9.35,2.64-13.67,3.88-4.8,1.38-9.57,2.62-13.87,5.47-3.74,2.48-7,.64-7.41-3.89-.56-6.11.88-11.95,3.01-18.2,2.28,2.13.36,3.79.29,5.36-.09,1.82-.77,3.62-1,5.44-.24,1.83-.4,3.71-.33,5.55.19,4.84,1.38,5.44,5.63,3.19,7.96-4.2,16.77-5.76,25.38-7.93.32-.09.82.45,2,1.14Z"/>
      <path class="cls-1" d="m177.45,321.83c-.71-11.77,6.56-23.82-2.26-35.23,4.02,1.03,3.21,5.37,6,6.91.94-2.01,1.86-3.93,2.76-5.86.51.15,1.03.29,1.54.43-4.91,10.77-4.49,22.65-8.05,33.76Z"/>
      <path class="cls-20" d="m169.53,235.47c-3.2,14.15-6.99,28.32,1.05,42.33-9.87-12.12-7.57-26.2-1.05-42.33Z"/>
      <path class="cls-7" d="m124.43,447.28c14.95-2.76,19.08-15.21,25.97-26.77-1.83,12.46-16.09,30.68-25.97,26.77Z"/>
      <path class="cls-23" d="m85.25,355.1c-1.92-5.03-1.81-22.75,0-28.3v28.3Z"/>
      <path class="cls-6" d="m51.34,347.23c3.38-6.93,6.77-13.87,10.17-20.8.58.29,1.15.57,1.74.84-3.35,6.96-6.71,13.9-10.05,20.85-.63-.3-1.24-.6-1.85-.89Z"/>
      <path class="cls-13" d="m174.61,387.86c.55-3.74,3.6-5.36,5.59-7.82,1.03-1.28,2.88-2.64,2.14-4.2-.94-2.03-3.29-.92-5.05-.92-1.35,0-2.69,1.54-4.43-.29,2.88-1.65,5.76-2.39,8.84-1.59,3.83,1,3.36,3.92,1.66,6.05-2.57,3.2-5.81,5.86-8.77,8.77Z"/>
      <path class="cls-7" d="m103.63,13.16c-7.36,3.21-7.69,9.98-8.52,16.49-2.58-7.84.68-14.32,8.52-16.49Z"/>
      <path class="cls-5" d="m75.6,449.98c-.25-3.46,1.54-6.05,3.88-8.43.11,3.35-1.77,5.94-3.88,8.43Z"/>
      <path class="cls-13" d="m302.02,144.34c-1.91,4.93-5.91,7.87-9.5,11.24-7.22,6.77-15.48,12.1-23.53,17.75-2.88,2.02-3.09,3.86-1.54,6.87,2.74,5.32,3.12,11.15,1.93,17.44.77-15.77-8.13-25.17-21.36-31.76.56-.57,1.12-1.13,1.67-1.7,3.57,2.54,7.29,4.91,10.66,7.7,2.73,2.26,4.49,2.19,7.53-.01,11.85-8.59,23.75-17.05,34.13-27.54Z"/>
      <path class="cls-8" d="m222.75,187.73c-5.5-5.33-7.03-12.48-14.12-14.21,2.31-3.17,5.13,1.24,7.18-1.2,1.54-1.82,2.44-4.13,4.59-5.52,5.59-3.63,11.62-5.83,19.55-6.61-3.12,2.83-5.99,2.72-8.46,3.57-2.99,1.03-5.93,2.08-8.58,3.86-6.53,4.38-7.14,7.34-2.8,13.84.98,1.46,2.41,2.74,2.64,6.27Z"/>
      <path class="cls-8" d="m159.19,164.82c.09-4.7-.66-8.49,5.76-4.81,7.95,4.56,17.01,7.05,26.15,8.78,1.93.36,3.83.88,5.63,1.87-6.86.63-13.22-1.54-19.55-3.53-4.04-1.28-7.96-2.98-11.93-4.49-2.36-.89-5.02-3.09-6.06,2.18Z"/>
      <path class="cls-6" d="m265.58,212.95c-10.92-2.79-23.85.98-31.87-11.02,4.61,3.15,8.93,6.71,15.04,6.96,5.76.24,11.48,1.4,17.22,2.16-.12.64-.26,1.28-.38,1.91Z"/>
      <path class="cls-4" d="m580.4,80c3.67.83,5.7,3.33,7.03,6.3,10.07,22.35,21.61,44.04,30.6,66.87,1.13,2.85,2.48,2.68,4.57,2.03,5.76-1.77,11.52-3.55,17.48-4.77-2.81,3.06-6.83,3.43-10.39,4.6-9.86,3.22-9.89,3.1-9.65,13.02.06,2.37.01,4.75.01,7.03-1.71.37-2.03-.63-1.91-1.52,2.24-15.82-5.53-28.85-11.78-42.29-6.04-12.97-12.3-25.84-18.24-38.85-2.05-4.46-4.45-8.64-7.74-12.41Z"/>
      <path class="cls-19" d="m342.3,63.19c-1.92-6.3-3.1-12.66-2.59-19.14.57-.04,1.15-.07,1.72-.12.29,6.42.58,12.84.87,19.27Z"/>
      <path class="cls-8" d="m604.41,296.62c13.43,7.7,26.74,14.99,39.68,22.89,5.5,3.36,10.44,6.05,16.46,1.69.61-.43,1.4-.33,2.1.43-2.93,4-10.12,2.13-11.47,9.03-.91,4.57-4.29,8.67-6.56,12.98-.5-.26-.99-.51-1.49-.77,1.79-3.71,3.16-7.7,5.45-11.05,3.01-4.39,1.25-6.88-2.48-9-12.45-7.08-24.93-14.08-37.42-21.11-2.03-1.13-4.33-2.02-4.29-5.08Z"/>
      <path class="cls-17" d="m604.89,410.25c-4.31,7.02-8.62,14.02-13.86,22.56-.79-5.94-1.44-10.3-1.95-14.69-.15-1.29.95-1.86,2-2.37,4.28-2.11,8.54-4.26,12.82-6.4.33.31.66.61.99.89Z"/>
      <path class="cls-8" d="m267,296.12c7.82-.47,13.41-9.84,22.58-5.02-8.69-2.96-14.03,7.35-22.58,5.02Z"/>
      <path class="cls-13" d="m446.41,526.67c2.63-10.1,11.78-18.7,19.28-19.14,7.69-.46,14.54,4.59,17.9,13.67-2.81-1.43-3.81-3.83-5.33-5.64-6.71-8.01-13.79-8.49-21.53-1.61-3.81,3.37-6.16,7.97-10.31,12.72Z"/>
      <path class="cls-22" d="m363.09,619.63c5.05-2.45,10.56-1.95,15.96-2.23-5.24,1.28-10.48,2.73-16.01,2.17l.05.06Z"/>
      <path class="cls-12" d="m510.73,715.69c-7.69,3.82-15.62,4.64-25.33,1.46,5.64-.47,9.53,1.55,13.55.81,3.93-.73,7.85-1.51,11.78-2.27Z"/>
      <path class="cls-2" d="m129.51,358.56c.27-.24.79-.57.74-.68-2.89-7.18,2.36-8.38,7.22-10.18,8.69-3.2,17.29-6.65,27.05-10.41-3.2,12.73-7.6,23.7-19.12,29.74-16.07,8.42-30.81,2.29-46.55-5.13,8.75-2.31,15.94-5.18,23.02-8.23,3.61-1.55,5.85-1.76,6.21,2.95.06.83.1,1.92,1.43,1.95Z"/>
      <path class="cls-14" d="m600.48,413.56c-2.85,4.7-5.02,8.26-7.28,11.96-3.67-6.37-3.1-7.41,7.28-11.96Z"/>
    </g>
  </g>
</svg>