<?xml version="1.0" encoding="UTF-8"?>
<svg id="Capa_2" data-name="Capa 2" xmlns="http://www.w3.org/2000/svg" viewBox="0 0 454.89 407.65">
  <defs>
    <style>
      .cls-1 {
        fill: #2c2411;
      }

      .cls-2 {
        fill: #a6202b;
      }

      .cls-3 {
        fill: #dd9626;
      }

      .cls-4 {
        fill: #3c2f0e;
      }

      .cls-5 {
        fill: #de9626;
      }

      .cls-6 {
        fill: #e09a25;
      }

      .cls-7 {
        fill: #371a0f;
      }

      .cls-8 {
        fill: #ea5560;
      }

      .cls-9 {
        fill: #ee3324;
      }

      .cls-10 {
        fill: #ed3324;
      }

      .cls-11 {
        fill: #0c0a07;
      }

      .cls-12 {
        fill: #eff2f0;
      }

      .cls-13 {
        fill: #0d0d0b;
      }

      .cls-14 {
        fill: #342a0e;
      }

      .cls-15 {
        fill: #edf0ef;
      }

      .cls-16 {
        fill: #dd9726;
      }

      .cls-17 {
        fill: #f8d61f;
      }

      .cls-18 {
        fill: #0d0b07;
      }

      .cls-19 {
        fill: #802218;
      }
    </style>
  </defs>
  <g id="Capa_1-2" data-name="Capa 1">
    <g id="Layer_2" data-name="Layer 2">
      <g id="Layer_1-2" data-name="Layer 1-2">
        <path class="cls-14" d="m78.17,244.41c.22.24.04.83.1,1.24.68,4.65-.73,10.52,6.92,10.96,1.16.06,2.28,1.84,3.32,2.92,17.01,17.76,38.16,31.03,61.55,38.61,3.72,1.22,5.77,3.29,6.31,7.09.43,2.97,1.07,5.92,1.32,8.9.54,5.21-1.2,10.39-4.77,14.22-2.45,2.71-4.89,5.43-7.19,8.26-12.38,15.19-13.54,29.45-3.83,46.36.53.92,1.1,1.81,1.68,2.75-1.29,2.14-3.52,2.49-5.35,3.37-4.87,2.26-9.57,4.86-14.07,7.77-2.23,1.36-3.78,3.59-4.27,6.16-.35,1.8.3,3.06,2.08,3.3,3.8.5,7.52,2,11.45.99,13.14-3.4,26.69-4.04,40.05-6.02,2.97-.44,5.92-.95,8.9-1.38,2-.29,3.99-.88,4.78-2.81,1.13-2.75,3.51-3,5.8-3.31,12.56-1.66,24.97-3.99,36.96-8.2,5.41-1.9,10.66-.08,15.91.64,10.83,1.46,21.56,3.81,32.57,3.66,1.5-.07,2.99.23,4.35.88,16.45,8.13,33.89,13.07,51.97,15.94,2.33.44,4.74.3,7-.4,3.58-1.22,4.79-4.56,2.68-7.74-1.26-1.74-2.76-3.29-4.45-4.61-5.28-4.4-10.92-8.35-16.86-11.8-1.62-.95-3.62-1.42-4.8-3.49,12.15-12.14,10.89-25.98,4.62-40.32-1.73-4.17-4-8.09-6.76-11.67-3.94-4.94-5.16-10.64-5.8-17.75l28.14,12.85c-1.29-15.81-5.22-30.38-6.6-46.36l39.48,22.19c1.93-.9,1.29-2.47,1.1-3.91-2.29-20.05-6-39.85-9.95-59.62-.37-1.87-.64-3.76-1.01-6.22,3.02.35,5.07,1.81,7.15,2.99,19.51,11.04,37.68,23.93,53.79,39.6l2.26,2.25c1.45,1.41,2.73,1,3.71-.52,1.47-2.11,2.81-4.31,4-6.59,9.35-19.56,16.57-40.08,21.52-61.19.24-1.04.36-2.11.64-3.15.99-3.66-.24-5.92-3.7-7.74-11.92-6.38-24.19-12.08-36.74-17.09-29.16-11.44-58.59-22.07-89.31-28.61-6.87-1.46-13.75-3.01-20.75-3.02-.91,2.51.64,4.04,1.42,5.7,3.41,7.4,6.41,14.99,8.97,22.72.39,1.12,1.55,2.42.15,3.42-.96.73-2.34.54-3.07-.42-.09-.12-.17-.24-.23-.38-1.6-2.97-4.08-2.31-6.07-1.15-2.77,1.61-4.68,1.82-7.28-.57-2.97-2.75-4.56-2.05-5.41,2.25-.52,3-2.39,5.59-5.07,7.02-6.21,3.45-11.81,7.91-16.57,13.2-5.44-11.08-10.57-21.58-13.54-32.95-2.29-8.73-4.29-17.55-9.63-25.07-1.44-2.02-.92-4.12-.57-6.2,3.29-19.91.08-39.29-4.68-58.55-.05-.19-.26-.34-.4-.5-.98.22-1.78.93-2.11,1.88-.45,2.17-.05,4.3.49,6.36,3.73,14.29,3.72,28.87,3.49,43.47-.06,4.36-1.29,8.46-2.15,12.65-.59,2.96-1.5,6.09,3.22,6.67,2.21.28,2.7,2.53,3.45,4.3,2.11,4.93,3.8,10.04,5.04,15.26,2.15,9.02,5.19,17.7,10.57,26.16-5.54-.64-10.78-1.82-15.47,1.06-4.9,2.98-7.55,7.55-8.32,13.14-1.93,14.05,3.1,20.97,18.32,24.86-1.75,4.44-4.58,8.2-6.92,12.2-.97,1.66-2.23,3.17-3.02,4.93s-2.2,3.93-.05,5.16c1.98,1.13,3.37-1.08,4.67-2.46.29-.31.55-.66.77-1.02,8.52-13.94,17.17-27.86,19.01-44.6.53-4.82,3.27-7.61,6.85-10.28,5.42-4.05,12.31-6.39,15.56-13.05,1.05-2.16,2.37-1.16,3.64-.25,1.57,1.12,3.03,2.4,4.69,3.4,1.45.88,3.06,2.2,4.73,1.29,2.02-1.1.19-3.11.5-4.71,2.9.82,4.33,3.44,6.45,5.16,2.93,2.37,4.33,4.82,1.58,8.64-1.71,2.37-1.33,5.8-1.75,8.75-1.34,9.13-3.52,18.12-6.52,26.86-4.13,15.84-11.11,30.39-20.27,43.88-2.75,4.04-4.97,7.32-.13,11.34,1.38,1.13,1.78,3.35,2.3,5.2,6.07,13.86,14.02,26.62,22.4,39.12,4.2,6.28,7.79,12.82,9.67,20.23,1.88,7.41,1.55,14.46-2.27,21.2-2.07,3.87-5.67,6.3-8.84,9.15-.94.84-1.82,1.9-1.44,3.33.26.97,1.16,1.2,2.03,1.15,6.84-.4,12,2.89,17.03,6.41-.65-.03-1.29.28-1.9,1.13-1.04,1.45-.11,2.45,1.29,3.29-.94-.51-1.89-1-2.86-1.46-1.74-.89-4.16-1.44-5.12.72-.8,1.8,1.21,2.99,2.75,3.77,3.04,1.45,5.98,3.08,8.82,4.9-14.47-2.58-27.93-6.88-41.15-11.6,2.84-.78,6.03-1.04,8.72-2.79.75-.48,1.44-1.13,1.29-2.03-.15-.9-1.12-1.24-1.93-1.46-1.27-.3-2.6-.28-3.87.07-15.06,3.87-29.87.34-44.71-1.6-12.53-1.64-24.95-4.64-37.7-1.85-1.04.23-2.15.16-3.18.47-1.21.36-2.73.71-2.58,2.31.13,1.44,1.39,2.06,2.78,2.19,3.66.34,7.23-.72,10.26-.72-10.96.97-22.16,4.51-33.77,5.51-3.22.27-6.41.48-9.61.77-1.66.15-4.14.15-4.22,2.06-.1,2.49,2.58,2.2,4.38,2.51,1.02.14,2.06.14,3.08,0-15.59,2.65-31.41,3.82-46.72,7.01,1.71-1.82,7.19-1.85,5.39-5.38-.61-1.18-1.45-1.4-2.4-1.17.06-.03.12-.06.18-.09.78-.3,1.44-.84,1.91-1.53,1.69-3.06,2.93-3.95,5.22-3.87,1.07.08,2.11.41,3.04.95,1.44.77,3.03,2.64,4.54,1.02,1.51-1.61.12-3.64-.93-5.22-1.29-1.93-2.87-3.75-4.16-5.74-9.15-14.01-8.83-28.01,1.01-41.26,2.29-3.1,4.73-6.1,7.26-9.02,9.67-11.11,8.81-32.47-1.75-43.47q-2.53,1.59-2.28,6.13c-11.31-4.36-22.33-8.64-31.95-15.85-12.66-6.78-22.34-17.21-32.47-26.99-3.87-3.74-4.51-9.06-3.62-14.91,2.28,1.9,4.34,2.33,5.34-.85,1.07-3.4,3.56-3.72,6.61-3.55,7.25.43,14.54-.42,21.78,1.07,4.24.87,7.59,2.27,9.55,6.52,1.2,2.58,2.78,5.49,6.59,5.03,2.03-2.84-.54-4.75-1.45-6.96-1.65-3.98-4.16-9.67-.24-11.6,4.44-2.19,6.52,3.91,8.7,7.37,1.02,1.62,1.5,3.54,2,5.4.64,2.26,1.64,4.79-.23,6.7-2.18,2.23-3.73-.75-5.6-1.29-1.29-.38-2.49-.61-3.42.7,0,2.66,1.8,4.29,3.49,5.91,5.29,5.1,11.53,8.9,17.89,12.46,1.73.97,4.28,2.58,5.66.16,1.15-2.01-1.39-3.22-2.84-4.39-.5-.4-1.04-.75-1.61-1.05-5.7-3.13-9.11-6.01-7.5-14.42,1.86-9.74-4.42-18.16-12.86-23.48-3.8-2.39-5.32-4.84-5.49-9.13-.23-5.58-1.71-11.01-3.27-16.37-3.51-11.99-4.65-23.9.17-35.91,1.99-4.97,1.39-5.52-3.13-5.65-1.98,2.88-5.04,3.07-8.06,3.06-7.3,0-14.61.51-21.88-.57-2.13-.32-4.28-.54-6.27.64-.64.39-.84,1.22-.45,1.86.02.03.03.05.05.08,9.72,1.82,19.57,2.2,29.41,2.54,1.48.05,2.98-.5,4.51.28,1.1,1.39,0,2.77-.21,4.13-1.7,9.98-1.08,20.22,1.8,29.92,3.48,11.6,5.19,23.41,2.63,35.83-10.22-2.36-20.7-3.34-31.17-2.91-1.29.07-2.57-.3-3.62-1.06-1.77-1.29-3.22-.98-3.93,1.24-.34,1.01-.64,1.93-1.67,2.58-2.06,1.29-6.88-.77-5.59,4.74.64,2.7-2.4,5.6.18,8.38Zm235.32-1.06c-4.72-2.35-4.67-1.62-2.78-7.23,3.96-11.76,7.3-23.66,8.9-36,.14-1.04.08-2.48,1.73-2.97,4.83,18.36,10.69,36.43,13.4,56.73-7.92-3.93-14.58-7.22-21.25-10.53Zm-17.28,41.62c-4.24-1.19-6.5-5.8-4.7-9.02,2.96-5.28,6.34-10.32,9.99-16.17,4.21,10.5,8.08,20.12,12.5,31.13-6.88-2.45-12.26-4.4-17.79-5.93Zm33.21,110.03c1.04.55,2.17,1.05,2.93,1.6.41.3.83.6,1.24.89-1.36-.88-2.76-1.7-4.18-2.49Zm6.12-.57c-.28-.2-.57-.39-.9-.59-.07-.05-.15-.1-.22-.15.31.2.62.4.93.59.07.04.13.09.19.14Zm-206.89,6.21c1.59-1.07,3.37-1.86,5.17-2.68-.96.57-1.93,1.16-2.81,1.39-.86.23-1.52,1.1-2.35,1.29Z"/>
        <path class="cls-13" d="m77.52,158.35c-12.93-1.88-25.77-4.27-38.48-7.36-9.79-2.38-19.5-5.03-28.73-9.13-3.67-1.61-7.45-3.17-10.31-6.7,5.34-4.17,11.42-5.55,17.3-7.21,19.5-5.51,39.39-5.13,59.37-3.78.25,1.19-.5,1.75-1.41,2.21-5.95,1.29-11.96.32-17.94.64-1.86.1-4.35-.7-5.34,1.17-1.17,2.21.96,3.99,2.25,5.6,5.21,6.66,12.05,11.46,19.01,16.12,3.58,3.57,8.99,4.22,12.54,7.84-.04.33-.02.67.05.99-2.77-.14-5.58-.01-8.3-.39Z"/>
        <path class="cls-13" d="m235.59,70.49c-8.06-7.04-15.23-15.54-26.99-16.5-.58-.18-1.11-.49-1.55-.91-2.69-14.79-3.93-29.8-3.69-44.83.07-1.93.44-3.84,1.12-5.65.93-2.69,2.62-3.31,5.03-1.79s4.11,3.75,5.73,6.03c4.77,6.68,8.23,14.07,11.55,21.51,6.47,14.51,12.2,29.28,15.29,44.94l-1.37,1.63c-2.61-.46-3.42-2.98-5.12-4.45Z"/>
        <path class="cls-4" d="m211.52,60.51c2.16,14.19,4.42,28.37,7.25,42.46,1.5,7.37,3.23,14.65,5.37,21.84.48,1.59,1.02,3.55-1.01,4.51-1.67.79-2.93-.49-3.73-1.74-2.23-3.48-5.74-3.87-9.37-4.73-7.36-1.72-14.53-.05-21.74.48-17.43,1.29-33.61,6.39-47.95,16.65-1.73,1.24-3.29,2.8-5.65,2.77-.7-.09-1.34-.46-1.77-1.02-1.67-3.87-5.29-4.85-8.81-5.8-13.69-3.69-27.66-6.22-41.78-7.56-2.58-.24-5.78.65-7.01-2.93l1.35-1.29c19.66.39,38.57,4.67,57,11.2,2.53.9,4.41,1.53,7.05-.22,21.49-14.24,45.56-17.51,70.66-16.3,2.27.11,4.44,1.8,6.86.51-2.28-11.35-4.75-22.59-6.74-33.91-1.87-10.73-3.93-21.45-4.45-32.37l1.33.06c2.73,1.75,2.71,4.65,3.13,7.41Z"/>
        <path class="cls-17" d="m217.94,54.52c9.02,5.02,16.8,12,22.77,20.42,5.37,22.44,7.78,44.99,1.39,69.35,2.92-3.04,4.34-4.56,5.99-1.04,2.62,5.64,4.74,11.51,6.34,17.52,2.75,10.17,5.7,20.23,11.31,29.29.51.83,1.12,1.79.43,3.26-6.96-3.74-13.98-4.47-19.89,1.69-6.03,6.29-6.18,14.05-3.41,21.67,3.13,8.64,10.33,10.69,19.04,9.48-1.82,4.92-4.58,8.79-6.72,12.98-2.03,3.98-5.68,7.16-6.54,12.07,1.03-.14,1.93-.76,2.42-1.67,6.27-9.51,11.92-19.38,16.28-29.92,2.3-5.58,3.98-11.38,3.91-17.46-.03-2.9,1.17-4.85,3.13-6.69,3.65-3.35,7.68-6.26,12-8.68,4.58-2.64,8.58-5.66,8.44-12.25l13.98,10.31c-.03-2.87-1.85-3.56-2.86-4.85-.68-.86-1.64-1.75-.43-2.64.86-.66,2.33-1.83,3.22-.26,1.19,2.1,3.06,2.07,4.95,2.31,1.15.15,1.26.86.97,1.83-.57,1.9.63,2.21,2.06,2.13,1.53-.08,2.76.36,2.26,2.08-.91,3.17,1.67,3.8,4.73,5.45-5.33.59-5.57,3.61-6.07,6.99-1.58,10.8-3.3,21.61-7.48,31.83-1.66,2.46-2.66,5.27-4.51,7.68-6.09,7.97-11.58,16.37-16.44,25.14-7.89,14.09-7.81,14.23,2.68,26.47,7.75,15.28,16.42,30.08,25.97,44.31,3.29,5.03,5.62,10.63,6.88,16.51,1.73,7.65,1.2,14.88-3.36,21.51-2.35-.23-2.56-2.22-2.64-3.79-.33-6.16-4.17-7.25-9.28-6.94-6,.4-11.93,1.54-17.66,3.37-22.57,7.21-46.69,8.09-69.72,2.52-18.32-4.33-36.67-1.93-54.57,3.32-7.63,2.24-14.99,5.34-19.82,12.33-.56.97-1.71,1.41-2.77,1.07-8.91-11.84-9.59-24.35-2.88-37.39,3.07-5.99,7.56-10.93,12.07-15.84,2.51-2.74,4.82-5.64,5.19-9.41,1.13-11.43-.91-22.16-7.66-31.71-11.51-2.2-22.51-6.41-33.99-8.72-10.2-5.34-18.8-12.71-26.69-21-2.2-2.31-4.04-5.07-7.46-5.88-.53-.12-1.41-.77-1.36-1.04.76-3.96-2.12-6.93-2.71-10.46-.36-2.16,2.27-4.14.9-6.67-.41-.73.34-1.12.98-1.29,1.07-.28,2.14-.31,2.86.76.59.9-.71,2.57,1.47,3.11.73-2.69,1.45-5.32,2.24-8.21,3.47,1.8,6.88,1.62,10.31,1.42,7.72-.54,15.48.22,22.95,2.25,2.45.68,4.03,1.68,4.98,4.3,1.14,3.15,2.73,6.3,6.18,7.79l-.08-.08c5.69,7.76,20.35,17.98,26.8,18.57-5.44-4.01-11.42-7.01-16.36-11.42,6.34-10.4-.18-27.98-11.78-31.43-2.58-.78-3.48-1.42-3.51-4-.09-7.34-1.88-14.41-3.78-21.46-1.28-4.75-2.46-9.54-2.8-14.49-.58-8.48.31-16.7,4.06-24.44.66-1.35,1.78-2.96-1.21-2.69-3.08,1.75-6.23.51-9.37.26-9.94-.78-19.85-2.69-29.86-1.64-4.16.43-8.03.35-11.89-1.19-10.39-6.16-19.54-13.47-25.14-25.79h27.98c1.01.32,2,.88,3.02.91,10.28.33,20.33,2.26,30.39,4.2,7.96,1.52,15.85,3.29,23.39,6.39,2.93,1.21,2.97,2.59,1.04,4.64-.15.65.11.9.75.81.56-.3,1.1-.64,1.62-1.01,22.28-17.54,48.02-22.09,75.52-20.29,5.15.34,9.22,1.65,10.55,7.28.05.21.71.29,1.09.44,1.16-.92.32-1.91,0-2.8-3.15-8.9-5.05-18.11-6.65-27.38-2.61-15.16-5.09-30.34-7.67-45.52,3.58-2.35,6.7-.19,9.55,1.41Z"/>
        <path class="cls-17" d="m424.65,261.03c-16.35-18.26-33.06-36.1-52.45-51.22-10.8-8.52-22.38-16-34.58-22.34-5.05-2.59-5.76-1.8-5.51,3.65.42,9,2.28,17.93,1.63,26.96-.17,2.34.79,5.33-2.68,6.35-2.51-8.86-5.05-17.7-7.51-26.57-.4-1.38-1.41-3.27,0-4.21,4.6-3.06,2.11-4.39-1.12-5.8-.82-.36-1.73-1.17-1.46-1.93,1.39-3.95-2.26-6.12-3.15-9.28-2.37-8.47-5.8-16.56-9.37-24.59-.64-1.45-1.8-2.84-1.29-4.78,4.86-.39,9.42.97,13.98,1.99,28.47,6.4,56.12,15.46,83.35,25.85,15.23,5.81,30.21,12.14,44.48,20.07,2.82,1.57,3.8,3.15,3.15,6.56-2.27,12.29-6.25,24.03-10.44,35.73-3.32,9.23-6.28,18.64-11.53,27.07-3.07.79-4.05-1.88-5.51-3.51Z"/>
        <path class="cls-5" d="m428.38,268.64c-1.16,2.27-2.58,2.66-4.38.61-.88-.94-1.8-1.84-2.77-2.69-17.15-15.7-35.78-29.28-56.41-40.11-1.63-.87-3.18-2.29-6.14-1.61,4.07,22.87,9.19,45.61,11.76,69.92-14.13-7.88-27.07-15.45-40.64-22.41-1.19,4.83.77,8.51.71,12.33-1.81,1.3.12,9.85-5.94,3.06-.41-.45-1.07.92-1.29.81-2.91-1.55-7.47.85-9.06-3.78-3.44-5.94-4.82-12.8-8.04-18.8-3.46-6.43-3.39-12.53.08-18.87,1.99-3.64,2.1-3.87,5.69-2.04,5.89,3,11.73,6.1,17.67,9.02,2.22,1.09,4.39,2.53,7.61,2.33-.73-11.04-3.9-21.43-6.15-31.98,1.35-1.42.95-3.21.99-4.89.21-10.49-.81-20.9-2.33-31.26-.66-4.56.27-5.36,4.78-3.91,6.59,2.1,12.25,6.1,18.05,9.67,19.28,11.81,36.14,26.58,51.91,42.75,8.81,9.04,17.02,18.59,25.67,27.76-.58,1.37-1.08,2.77-1.77,4.1Z"/>
        <path class="cls-5" d="m310.36,382.48c2.73.99,4.11-2.29,6.38-1.04,6.87,3.76,14.15,6.9,19.12,13.34l.08-.1c-3.01-.04-4.8-3.43-9.02-3.06,5.34,4.13,11.13,6.45,14.43,11.74-6.54-3.22-12-8.63-19.74-9.02,2.41,1.78,5.15,2.86,7.66,4.36,2.65,1.59,5.68,2.82,7.94,6.45-17.99-2.95-34.53-7.56-50.41-14.77,4.56-1.46,9.37-1.42,13.63-4.24-1.73-1.03-2.95-.41-4.16-.11-8.35,2.09-17.01,2.62-25.55,1.56-12.97-1.6-25.89-3.57-38.85-5.31-8.02-1.08-15.88.12-23.71,1.88,5.54.97,11.14-.54,16.68.7-17.08,4.95-34.37,8.47-52.18,9.12,3.96,2.13,8.27.42,12.89,1.24-1.7,2.66-4.02,2.86-6.28,3.17-16.17,2.17-32.37,3.91-48.35,7.17-1.35.28-2.58.43-3.22-1.2,3.09-2.52,7.41-2.97,10.24-6.05-5.3.17-9.22,4.31-15.43,5.6,5.22-4.81,10.93-6.48,16.23-9.43-2.37-1.75-3.82,1.11-5.48-.56,1.77-.95,3.49-1.82,5.16-2.79,4.1-2.42,7.97-3,11.19,1.45.29.4.81.19,1.23-.57-1.44-3.17-4.84-5.23-5.96-8.78,2.79-5.91,7.77-9.17,13.46-12.04,13.8-6.96,28.8-7.42,43.63-8.66,11.91-.99,23.27,2.64,34.81,4.57,11.14,1.94,22.54,1.9,33.66-.12,9.04-1.69,17.8-4.34,26.74-6.39,5.2-1.19,10.4-2.35,15.82-2.05,5.78.32,7.17,1.6,7.49,7.25.11,1.86-.61,3.89.9,5.54-2.28,4.88-7.52,6.99-11.04,11.15Z"/>
        <path class="cls-19" d="m335.7,318.1c-8.14-2.62-14.78-6.56-21.78-9.71-1.83-.82-3.73-3.18-5.7-1.54s.36,3.95.36,6c0,.57-.27.79-1.22.44-4.31-7.84-10.06-15.44-12.76-25.75,8.17,1.07,14.35,5.43,21.67,6.23.55-3.65-2.48-5.92-2.1-8.98,1.26.5,1.55,2.6,3.38,2.16.88-1.04-.03-2.86,1.29-3.66,1.98,1.29,1.81,3.71,3.66,4.51,1.15-.82,0-2.64,1.65-3.22,1.99.9,1.42,3.88,3.62,4.71.93-1.55.16-4.07,2.71-4.62,1.84,10.95,4.09,21.84,5.23,33.44Z"/>
        <path class="cls-9" d="m264.85,220.68c-.75,1.92-2.51,2.88-4.38,3.47-4.85,1.43-10.09-.12-13.38-3.96-5.97-7.11-4.9-19.02,2.3-24.82,3.5-2.83,7.54-4.39,11.88-2.28,4.69,2.29,7.74,6,7.74,10.63-.08,6.61-2.15,11.78-4.16,16.96Z"/>
        <path class="cls-16" d="m309.22,234.02c-5.41,16.53-12.86,32.04-23.54,46.05,1.89.66,3.99.13,4.27,2.85.24,2.06,1.29,4.05,1.93,6.07-2.68-.19-3.96-2.39-5.58-4.01-5.44-5.43-5.99-8.5-2.5-15.44,2.51-5.2,5.28-10.26,8.32-15.17,5.51-8.58,10.62-17.5,18.05-24.7.08,1.53-.46,2.91-.95,4.34Z"/>
        <path class="cls-5" d="m117.47,158.79c-2.54-.12-5.1.17-7.64.06-8.03-.32-16.06-.73-24.09-1.11-5.05-.93-9.61-2.86-13.32-6.54,4.88-.11,9.75-.56,14.57-1.34,5.51-.99,10.91,1.44,16.47,1.16,6.85-.34,13.49,1.13,20.09,2.75-.48,3.53-2.42,5.18-6.08,5.02Z"/>
        <path class="cls-10" d="m132.24,245.22c.19-2.44-1.91-3.7-2.95-5.47-2.41-4.11-2.84-8.46-2.19-12.97.57-3.88,2.46-4.77,5.73-2.53,6.99,4.78,10.31,11.68,10.82,20.02.05.85-.06,1.7-.32,2.51-1.11,3.55-3.13,4.1-6.1,1.82-1.62-1.24-2.55-3.55-5.07-3.46l.08.08Z"/>
        <path class="cls-3" d="m152.98,296.4c-.51.06-1.2.34-1.72.15-11.89-4.08-23.52-8.67-33.62-16.41,12.21-.53,23.25,3.5,33.99,8.72-1.98,2.95,2.3,4.67,1.35,7.54Z"/>
        <path class="cls-5" d="m335.9,394.76c1.57-.3,2.46.56,3.28,2-1.71-.03-2.7-.71-3.22-2.1l-.06.1Z"/>
        <path class="cls-7" d="m215.17,207.2c-3.53,1.42-3.6,3.85-3.13,7.23,1.15,8.11.66,16.3-.09,24.43-.46,4.88-1.39,9.76-3.58,14.27-3.4,7.02-7.85,8.44-14.55,4.41-1.82-1.14-3.52-2.45-5.09-3.91-5.1-4.62-9.49-9.96-13.05-15.85-2.72-4.39-5.3-8.84-7.74-13.37-1.46-2.68-2.95-4.73-6.45-3.76-.64.19-1.66.23-1.93-.93.56-1.61,2.04-1.42,3.22-1.42,6.7.14,12.13-2.82,16.76-7.14,3.65-3.4,7.45-4.37,12.33-3.55,8.44,1.42,17.02,2.58,25.3-4.76-.37,2.96-1.04,3.97-2,4.36Z"/>
        <path class="cls-6" d="m229.37,262.76c-3.16,8.64-7.61,14.34-14.66,16.92-12.18,4.49-22.76-.05-32.67-7.42,15.54-2.35,31.21-3.25,47.33-9.5Z"/>
        <path class="cls-11" d="m226.15,166.55c7.79-.17,14.14,5.97,14.01,13.57,0,.06,0,.11,0,.17-.2,6.23-5.41,11.12-11.64,10.92-7.26-.1-12.78-5.8-12.78-13.2,0-6.45,4.42-11.33,10.42-11.46Z"/>
        <path class="cls-18" d="m147.1,187.29c6.28.24,11.19,5.52,10.96,11.81-.22,5.97-5.27,11.13-10.96,11.18-6.48.07-11.27-4.78-11.16-11.32.1-6.31,5.37-11.82,11.16-11.67Z"/>
        <path class="cls-1" d="m183.23,196.02c1.1-.08,2.16.15,2.09,1.58.05,1.32-.97,2.43-2.29,2.49-1.34.14-2.5-.17-2.86-1.74.11-1.96,1.57-2.21,3.06-2.33Z"/>
        <path class="cls-4" d="m133.9,142.38c-.32,1.02-1.25,1.74-2.32,1.8-.1,0-.33-.32-.33-.51-.1-1.33.85-1.76,1.9-2.1.24.26.5.54.75.81Z"/>
        <path class="cls-8" d="m209.92,236.12c-.28,5.16-1.01,10.23-2.95,15.06-3,7.44-6.83,8.73-13.28,3.91-7.62-5.72-13.79-12.79-17.86-21.52,5.48-10.18,24.24-15.44,33.69-9.42.48.43.81,1.01.94,1.64l.06,5.21c-.67,1.65.05,3.47-.61,5.12Z"/>
        <path class="cls-2" d="m175.95,223.72c7.66-8.1,17.33-9.4,27.65-7.74,6.39,1.02,7.03,2.39,6.88,9.81-11.79-4.07-22.65-3.06-32.06,5.88-.82.68-1.68,1.31-2.58,1.89-4.31-5.3-4.24-5.23.11-9.84Z"/>
        <path class="cls-2" d="m209.92,236.16c-.37-1.8-.68-3.58.61-5.16.24,1.73.61,3.54-.61,5.16Z"/>
        <path class="cls-12" d="m231.24,174.85c-.21,2.59-2.67,4.81-5.23,4.59s-4.92-2.98-4.98-5.8c-.01-.19-.01-.37,0-.56.15-2.49,2.29-4.38,4.78-4.23,2.88.06,5.67,3.15,5.43,6Z"/>
        <path class="cls-15" d="m152.64,194.37c-.03,2.51-2.51,4.55-5.29,4.34-2.68-.14-4.74-2.42-4.61-5.1.19-2.44,2.15-4.05,4.85-3.96,2.74.09,5.08,2.21,5.05,4.73Z"/>
      </g>
    </g>
  </g>
</svg>