<?xml version="1.0" encoding="UTF-8"?>
<svg id="Capa_2" data-name="Capa 2" xmlns="http://www.w3.org/2000/svg" viewBox="0 0 548.77 825.37">
  <defs>
    <style>
      .cls-1 {
        fill: #008c15;
      }

      .cls-2 {
        fill: #910d03;
      }

      .cls-3 {
        fill: #fff;
      }

      .cls-4 {
        fill: #46a2da;
      }

      .cls-5 {
        fill: #75d984;
      }

      .cls-6 {
        fill: #ffc905;
      }

      .cls-7 {
        fill: #ffe590;
      }

      .cls-8 {
        fill: #8a1823;
      }

      .cls-9 {
        fill: #e11405;
      }

      .cls-10 {
        fill: #dc0a2f;
      }

      .cls-11 {
        fill: #ff6363;
      }

      .cls-12 {
        fill: #a6d8f6;
      }

      .cls-13 {
        fill: #ffda00;
      }

      .cls-14 {
        fill: #e6e6e6;
      }

      .cls-15 {
        fill: #00b81c;
      }

      .cls-16 {
        fill: #db0a2f;
      }

      .cls-17 {
        fill: #ff9203;
      }

      .cls-18 {
        fill: #126ca3;
      }

      .cls-19 {
        fill: #f2f2f2;
      }
    </style>
  </defs>
  <g id="Capa_1-2" data-name="Capa 1">
    <g>
      <g>
        <g>
          <g>
            <path d="m52.56.43c30.07,0,441.67-.76,462.14-.25s10.61,0,17.43,0,13.39,1.26,13.39,9.35v76.81c0,10.11.25,31.08,0,34.24-.25,3.16-2.7,2.19-2.7,2.19,0,0,2.81,2.62,2.81,6.72s2.92,598.64,2.92,606.73-2,10.74-2,10.74c0,0,2,2.9,2,6.44s.51,43.46,0,47.5-4.55,13.64-17.94,20.21c-13.39,6.57-26.53,3.79-32.09,2.78-5.56-1.01-9.35-2.78-9.35-2.78,0,0-455.06,4.67-465.67,4.23s-23.5-6.25-23.5-24.7S1.01,65.11,1.01,57.02s1.52-22.99,8.84-30.83S34.87,5.99,39.42,3.71c4.55-2.27,13.14-3.28,13.14-3.28Z"/>
            <path class="cls-16" d="m33.86,160.11s-.76-121.54,0-133.41c.76-11.88,2.78-22.74,19.46-23.5,16.68-.76,474.26-.51,480.08-.51s9.1,2.53,9.1,9.35v59.63s-7.07-6.32-20.21-6.32-122.55-2.02-139.47-.51c-16.93,1.52-29.31,1.01-77.06,34.87-47.75,33.86-71.76,53.57-100.06,59.38-28.3,5.81-171.82,1.01-171.82,1.01Z"/>
            <path class="cls-16" d="m34.62,10.53S14.65,23.17,9.85,31s-5.81,12.38-6.57,31.08c-.76,18.7-.25,170.05-.25,187.99s-.51,264.29-.51,280.47.51,257.73.51,268.34,5.56,23.5,15.54,23.5,111.55-1.77,148.44-1.52c36.89.25,316.6-2.02,316.6-2.02,0,0-4.8-3.54-6.06-11.12-.79-4.74,1.01-10.36,1.01-10.36,0,0-346.92,2.27-380.52,3.03-33.61.76-56.85,1.52-65.95,1.52s-16.93-5.31-16.93-20.21,1.01-600.85,1.01-602.62,13.9-17.09,13.9-17.09V38.58c0-12.89.6-16.79,1.52-21.73s3.03-6.32,3.03-6.32Z"/>
            <path class="cls-16" d="m30.32,170.22l-10.36,11.62s.51,592.26.25,598.07c-.25,5.81,1.01,16.68,12.63,16.68s447.48-4.04,447.48-4.04c0,0,3.28-3.56,7.83-7.07,3.4-2.63,5.31-3.79,5.31-3.79,0,0-262.27,2.02-305.73,2.78-43.46.76-137.96,1.77-145.54-.25-7.58-2.02-12.38-6.32-12.38-21.22s.51-592.77.51-592.77Z"/>
            <path class="cls-10" d="m33.52,168.2s131.47,2.53,148.66,2.02c17.18-.51,34.87-2.02,66.45-22.74,31.58-20.72,86.67-60.89,98.79-67.21s17.18-7.58,51.29-8.59c34.11-1.01,117.24,0,117.24,0,0,0-3.28,701.16-3.28,703.44s-9.1,2.53-21.22,3.03-427.39,5.97-441.16,4.8c-13.78-1.17-16.76-5.56-16.76-18.95V168.2Z"/>
            <path class="cls-16" d="m518.74,69.41v42.45s4.86-1.96,14.49,1.07c3.77,1.19,9.26,5.5,9.26,5.5,0,0,.76-40.93,0-42.45-.76-1.52-3.54-5.05-10.86-6.57s-12.89,0-12.89,0Z"/>
            <path class="cls-16" d="m518.74,117.41l-2.78,615.76s14.91.25,20.21,2.53,8.09,7.33,8.09,7.33l-1.77-615.51s-.76-5.31-9.85-9.1c-9.1-3.79-13.9-1.01-13.9-1.01Z"/>
            <path class="cls-16" d="m515.96,738.23s9.6-1.01,17.94,2.78c8.34,3.79,10.36,8.59,10.36,8.59l1.01,37.14s-5.56-6.82-15.16-9.35c-9.6-2.53-14.15-.76-14.15-.76v-38.41Z"/>
            <ellipse class="cls-8" cx="512.86" cy="801.58" rx="32.47" ry="20.79" transform="translate(-80.17 57.35) rotate(-5.94)"/>
            <path class="cls-8" d="m33.67,796.59c23.93-.12,446.66-4.04,446.66-4.04,0,0,3.28-3.56,7.83-7.07,3.4-2.63,5.31-3.79,5.31-3.79,0,0-262.27,2.02-305.73,2.78-43.09.75-136.33,1.75-145.31-.2l-8.75,12.33Z"/>
            <path class="cls-8" d="m167.02,820.85c36.89.25,316.6-2.02,316.6-2.02,0,0-4.8-3.54-6.06-11.12-.79-4.74,1.01-10.36,1.01-10.36,0,0-346.92,2.27-380.52,3.03-33.61.76-56.85,1.52-65.95,1.52-.71,0-1.41-.05-2.11-.11l-14.33,20.18c.93.25,1.9.4,2.92.4,9.98,0,111.55-1.77,148.44-1.52Z"/>
            <path class="cls-8" d="m531.62,69.41c-1.23-.25-2.4-.42-3.52-.52v42.79c1.52.26,3.23.66,5.12,1.26,3.77,1.19,9.26,5.5,9.26,5.5,0,0,.76-40.93,0-42.45-.76-1.52-3.54-5.05-10.86-6.57Z"/>
            <path class="cls-8" d="m533.9,741.01c-1.91-.87-3.88-1.47-5.79-1.91v37.81c.64.14,1.3.29,2,.48,9.6,2.53,15.16,9.35,15.16,9.35l-1.01-37.14s-2.02-4.8-10.36-8.59Z"/>
            <path class="cls-8" d="m532.63,118.42c-1.65-.69-3.16-1.16-4.53-1.47v617.02c3.16.38,6.2.92,8.06,1.72,5.31,2.27,8.09,7.33,8.09,7.33l-1.77-615.51s-.76-5.31-9.85-9.1Z"/>
          </g>
          <g>
            <path class="cls-3" d="m191.62,464.98c11.39,0,22.79.25,34.17-.13,4.3-.15,6.24,1.76,7.64,5.17,3.33,8.12,8.63,14.61,15.86,19.61,24.32,16.82,62.64,7.52,72.52-21.61.84-2.47,2.07-3.09,4.57-3.08,24.06.1,48.13.08,72.19.02,2.4,0,3.31.12,2.94,3.15-6.59,53.62-48.57,97.63-101.73,106.48-29.92,4.98-58.7,1.46-84.81-14.23-32.15-19.32-53.3-47.26-60.81-84.63-.45-2.22-.49-4.56-1.2-6.69-1.27-3.79.43-4.13,3.63-4.09,11.67.16,23.35.06,35.03.06v-.03Z"/>
            <path class="cls-3" d="m276.44,479.67c-17.56-.06-28.63-11.46-28.57-29.42.06-16.36,13.15-28.77,30.18-28.61,16.38.16,28.68,12.87,28.72,29.7.05,16.35-12.86,28.39-30.34,28.33Z"/>
            <path class="cls-3" d="m363.86,444.61c-11.82,0-23.65-.1-35.47.07-2.93.04-4.04-.75-4.78-3.7-3.87-15.49-11.84-27.94-27.12-34.53-21.46-9.25-53.61-3.33-64.37,28.44-1.08,3.17-.67,7.72-3.36,9.23-2.62,1.47-6.65.46-10.07.46-21.08,0-42.17.03-63.25-.09-1.19,0-4.08,1.49-3.47-1.78.42-2.22-1.48-5.88,3.68-5.83,20.51.21,41.03-.04,61.54.15,3.73.03,5.36-1.04,6.73-4.58,5.31-13.76,13.31-25.68,27.04-32.22,23.89-11.37,65.47-7.31,78.49,31.25,1.38,4.08,3.01,5.7,7.63,5.62,20.37-.32,40.74-.12,61.11-.11,3.42,0,5.81,3.52,4.48,6.71-.66,1.59-2.22.8-3.34.81-11.82.06-23.65.04-35.47.04v.05Z"/>
            <path class="cls-3" d="m398.67,419.43c-.64.2-.91.34-1.18.35-7.57.38-7.54.36-10.13-6.8-8.65-23.91-21.57-44.77-42.85-59.58-15.95-11.09-33.83-17.14-52.91-19.95-5.72-.84-6.25-1.42-5.86-5.74.17-1.88,1.02-2.02,2.48-1.82,34.27,4.55,64.31,17.22,86.35,45.15,11.33,14.36,18.88,30.61,24.11,48.38Z"/>
            <path class="cls-3" d="m155.73,419.62c3.77-12.69,8.75-24.54,15.39-35.66,15.32-25.64,37.51-42.63,65.81-51.71,9.17-2.94,18.61-4.92,28.19-6.09,1.12-.14,3.37-1.36,2.97,1.24-.28,1.78,1.99,4.77-1.97,5.37-8.69,1.3-17.29,3.02-25.69,5.67-33.47,10.55-56.26,32.63-69.78,64.68-1.65,3.91-3.47,7.83-4.44,11.93-.95,4.02-2.89,5.46-6.79,4.79-1.09-.19-2.22-.14-3.69-.22Z"/>
          </g>
          <g>
            <g>
              <path class="cls-3" d="m200.46,738.92v-15.54h13.32v2.22h2.22v6.66h-2.22v2.22h-8.88v4.44h-4.44Zm4.44-6.66h6.66v-6.66h-6.66v6.66Z"/>
              <path class="cls-3" d="m225.76,738.92v-2.22h-2.22v-11.1h2.22v-2.22h11.1v2.22h2.22v11.1h-2.22v2.22h-11.1Zm2.22-2.22h6.66v-11.1h-6.66v11.1Z"/>
              <path class="cls-3" d="m246.62,738.92v-15.54h4.44v6.66h2.22v-2.22h2.22v-2.22h2.22v-2.22h4.44v2.22h-2.22v2.22h-2.22v2.22h-2.22v2.22h2.22v2.22h2.22v2.22h2.22v2.22h-6.66v-2.22h-2.22v-2.22h-2.22v4.44h-4.44Z"/>
              <path class="cls-3" d="m269.7,738.92v-15.54h15.54v2.22h-11.1v4.44h8.88v2.22h-8.88v4.44h11.1v2.22h-15.54Z"/>
              <path class="cls-3" d="m292.78,738.92v-15.54h11.1v2.22h2.22v2.22h2.22v6.66h-2.22v2.22h-2.22v2.22h-11.1Zm4.44-2.22h4.44v-2.22h2.22v-6.66h-2.22v-2.22h-4.44v11.1Z"/>
              <path class="cls-3" d="m315.87,738.92v-15.54h15.54v2.22h-11.1v4.44h8.88v2.22h-8.88v4.44h11.1v2.22h-15.54Z"/>
              <path class="cls-3" d="m338.95,738.92v-4.44h2.22v-2.22h2.22v-2.22h-2.22v-2.22h-2.22v-4.44h4.44v4.44h2.22v2.22h2.22v-2.22h2.22v-4.44h4.44v4.44h-2.22v2.22h-2.22v2.22h2.22v2.22h2.22v4.44h-4.44v-4.44h-2.22v-2.22h-2.22v2.22h-2.22v4.44h-4.44Z"/>
            </g>
            <path d="m348.96,748.99h-142.97c-9.84,0-17.84-8-17.84-17.84s8-17.84,17.84-17.84h142.97c9.84,0,17.84,8,17.84,17.84s-8,17.84-17.84,17.84Zm-142.97-34.1c-8.97,0-16.26,7.29-16.26,16.26s7.29,16.26,16.26,16.26h142.97c8.97,0,16.26-7.29,16.26-16.26s-7.29-16.26-16.26-16.26h-142.97Z"/>
          </g>
          <g>
            <polygon class="cls-13" points="49.95 450.65 49.95 413.8 68.7 432.23 87.45 450.65 68.7 469.08 49.95 487.5 49.95 450.65"/>
            <path d="m49.95,488.5c-.13,0-.26-.03-.39-.08-.37-.16-.61-.52-.61-.92v-73.7c0-.4.24-.77.61-.92.37-.16.8-.07,1.09.21l37.5,36.85c.19.19.3.44.3.71s-.11.53-.3.71l-37.5,36.85c-.19.19-.44.29-.7.29Zm1-72.31v68.93l35.07-34.46-35.07-34.46Z"/>
          </g>
        </g>
        <g>
          <g>
            <circle class="cls-19" cx="115.43" cy="82.32" r="57.01"/>
            <path d="m115.43,140.23c-31.93,0-57.91-25.98-57.91-57.91s25.98-57.91,57.91-57.91,57.92,25.98,57.92,57.91-25.98,57.91-57.92,57.91Zm0-114.02c-30.94,0-56.11,25.17-56.11,56.11s25.17,56.11,56.11,56.11,56.11-25.17,56.11-56.11-25.17-56.11-56.11-56.11Z"/>
          </g>
          <g>
            <g>
              <circle class="cls-4" cx="114.58" cy="79.76" r="47.48"/>
              <path d="m114.58,128.14c-26.68,0-48.38-21.7-48.38-48.38s21.7-48.38,48.38-48.38,48.38,21.7,48.38,48.38-21.7,48.38-48.38,48.38Zm0-94.96c-25.68,0-46.58,20.89-46.58,46.58s20.89,46.58,46.58,46.58,46.58-20.89,46.58-46.58-20.89-46.58-46.58-46.58Z"/>
            </g>
            <circle class="cls-18" cx="118.78" cy="82.2" r="42.57"/>
            <circle class="cls-4" cx="100.72" cy="67.6" r="22.25"/>
            <circle class="cls-12" cx="95.7" cy="62.58" r="8.92"/>
          </g>
          <path class="cls-14" d="m138.16,34.45c16.14,9.26,27.02,26.65,27.02,46.59,0,29.65-24.04,53.69-53.69,53.69-8.18,0-15.94-1.84-22.88-5.11,7.86,4.51,16.96,7.1,26.67,7.1,29.65,0,53.69-24.04,53.69-53.69,0-21.47-12.6-39.99-30.81-48.58Z"/>
        </g>
      </g>
      <g>
        <g>
          <circle class="cls-9" cx="203.95" cy="37.14" r="13.85"/>
          <path d="m203.95,51.25c-7.78,0-14.11-6.33-14.11-14.11s6.33-14.11,14.11-14.11,14.11,6.33,14.11,14.11-6.33,14.11-14.11,14.11Zm0-27.69c-7.49,0-13.58,6.09-13.58,13.58s6.09,13.58,13.58,13.58,13.58-6.09,13.58-13.58-6.09-13.58-13.58-13.58Z"/>
        </g>
        <circle class="cls-2" cx="205.17" cy="37.85" r="12.42"/>
        <circle class="cls-9" cx="199.91" cy="33.59" r="6.49"/>
        <circle class="cls-11" cx="198.44" cy="32.13" r="2.6"/>
      </g>
      <g>
        <g>
          <circle class="cls-6" cx="246.81" cy="37.14" r="13.85"/>
          <path d="m246.81,51.25c-7.78,0-14.11-6.33-14.11-14.11s6.33-14.11,14.11-14.11,14.11,6.33,14.11,14.11-6.33,14.11-14.11,14.11Zm0-27.69c-7.49,0-13.58,6.09-13.58,13.58s6.09,13.58,13.58,13.58,13.58-6.09,13.58-13.58-6.09-13.58-13.58-13.58Z"/>
        </g>
        <circle class="cls-17" cx="248.03" cy="37.85" r="12.42"/>
        <circle class="cls-6" cx="242.77" cy="33.59" r="6.49"/>
        <circle class="cls-7" cx="241.3" cy="32.13" r="2.6"/>
      </g>
      <g>
        <g>
          <circle class="cls-15" cx="289.67" cy="37.14" r="13.85"/>
          <path d="m289.67,51.25c-7.78,0-14.11-6.33-14.11-14.11s6.33-14.11,14.11-14.11,14.11,6.33,14.11,14.11-6.33,14.11-14.11,14.11Zm0-27.69c-7.49,0-13.58,6.09-13.58,13.58s6.09,13.58,13.58,13.58,13.58-6.09,13.58-13.58-6.09-13.58-13.58-13.58Z"/>
        </g>
        <circle class="cls-1" cx="290.89" cy="37.85" r="12.42"/>
        <circle class="cls-15" cx="285.63" cy="33.59" r="6.49"/>
        <circle class="cls-5" cx="284.16" cy="32.13" r="2.6"/>
      </g>
    </g>
  </g>
</svg>