<?xml version="1.0" encoding="UTF-8"?>
<svg id="Capa_2" data-name="Capa 2" xmlns="http://www.w3.org/2000/svg" viewBox="0 0 522.27 454.92">
  <defs>
    <style>
      .cls-1 {
        fill: #ed8599;
      }

      .cls-1, .cls-2, .cls-3, .cls-4, .cls-5, .cls-6, .cls-7, .cls-8, .cls-9, .cls-10, .cls-11, .cls-12, .cls-13, .cls-14 {
        fill-rule: evenodd;
      }

      .cls-2 {
        fill: #dbdcdc;
      }

      .cls-3 {
        fill: #fff;
      }

      .cls-4 {
        fill: #00aca8;
      }

      .cls-5 {
        fill: #8f75a3;
      }

      .cls-6 {
        fill: #b4b4b5;
      }

      .cls-7 {
        fill: #00666c;
      }

      .cls-8 {
        fill: #a586bc;
      }

      .cls-9 {
        fill: #008086;
      }

      .cls-10 {
        fill: #0d131a;
      }

      .cls-11 {
        fill: #009693;
      }

      .cls-12 {
        fill: #ce7486;
      }

      .cls-13 {
        fill: #999;
      }

      .cls-14 {
        fill: #ccc;
      }
    </style>
  </defs>
  <g id="Capa_1-2" data-name="Capa 1">
    <g id="Layer_2" data-name="Layer 2">
      <g id="Layer_1-2" data-name="Layer 1-2">
        <path class="cls-8" d="m494.68,73c4.2,3.91,7.52,8.66,9.76,13.94,8.45,17.07,13.32,35.7,14.29,54.73,2.05,24.72-.19,49.6-6.62,73.55-6.88,27.26-19.78,52.63-37.76,74.25-21.5,25.43-49.08,45.02-80.17,56.94l-44.62-102.37c18.43-1.61,36.42-6.53,53.1-14.52,17.01-7.83,32.48-18.65,45.66-31.95,28.24-28.03,43.31-66.69,41.48-106.44-.62-14.18,1.01-20.22,4.88-18.13Z"/>
        <path class="cls-5" d="m495.27,259.14c-22.02,40.47-57.92,71.62-101.09,87.73l-34.86-81.34c15.87,11.67,35.15,17.76,54.84,17.31,18.13-.91,35.48-7.64,49.5-19.17,15.7-12.53,28.4-28.41,37.18-46.48,10.17-20.71,16.39-43.13,18.36-66.12,2.05,37.53-6.23,74.91-23.94,108.06Z"/>
        <path class="cls-8" d="m72.2,401.83c-3.6.23-6.16-.12-6.16-1.05-2-4.65-2.91-9.7-2.67-14.76-.34-8.94,2.32-17.73,7.55-24.98,0-20.2,9.25-39.29,25.1-51.82,10.82-8.73,23.5-14.85,37.07-17.89l35.67,76.22c1.63,4.88,3.02,8.25,3.02,10.23,1.27,5.74,1.27,11.69,0,17.43-1.39,5.65-9.41,9.84-24.05,12.55-5.74,1.14-11.59,1.61-17.43,1.39-4.46.11-8.88-.85-12.9-2.79-10.12-5.09-21.52-7.07-32.77-5.69l-12.78,1.16h.35Z"/>
        <path class="cls-5" d="m74.29,339.2c6.26-.54,12.28-2.62,17.55-6.04,5.29-3.52,10.34-7.41,15.11-11.62,4.7-4.37,9.67-8.45,14.87-12.2,4.95-3.65,10.68-6.12,16.73-7.2l30.21,65.3c1.63,4.88,3.02,8.25,3.02,10.23,1.27,5.74,1.27,11.69,0,17.43-1.39,5.42-9.53,9.37-24.4,11.85-5.74,1.14-11.59,1.61-17.43,1.39-4.46.11-8.88-.85-12.9-2.79-6.82-3.71-14.43-5.74-22.19-5.93-1.1-5.07-3.64-9.71-7.32-13.36,1.03-1.42,1.03-3.34,0-4.76-1.62-1.59-3.41-3-5.34-4.18-5.74-3.42-10.38-8.42-13.36-14.41l1.74-2.67c.17-6.94,1.3-13.82,3.37-20.45l.35-.58Z"/>
        <path class="cls-2" d="m42.34,402.88c8.03-6.98,16.98-12.8,26.61-17.31,4.86-1.66,10.13-1.66,14.99,0,7.53,2.34,14.61,5.95,20.92,10.69,7.09,5.11,9.06,9.06,5.81,11.62-3.72,2.88-7.99,4.97-12.55,6.16-6.22,1.52-12.55,2.53-18.94,3.02-10.62,1.19-21.34,1.19-31.95,0-12.32-2.09-13.94-6.51-4.88-13.71v-.46Z"/>
        <path class="cls-6" d="m94.04,389.75c5.31,2.44,10.21,5.69,14.52,9.64,3.83,3.72,4.53,6.62,2.09,8.6-3.72,2.88-7.99,4.97-12.55,6.16-6.22,1.52-12.55,2.53-18.94,3.02-10.46,1.18-21.03,1.18-31.49,0,9.72-.89,19.18-3.61,27.89-8.02,8.25-4.09,14.79-10.97,18.48-19.4Z"/>
        <path class="cls-8" d="m97.18,293.19c11.62,1.16,18.82,5.58,21.5,12.78l6.39,14.52c3.72,8.02,6.04,13.25,6.97,15.57,2.09,5.19-.93,11.93-9.06,20.22-3,4.31-5.64,8.86-7.9,13.59-3.49,6.51-6.51,9.41-8.95,9.41-6.03-.77-11.98-2.1-17.78-3.95-6.21-1.12-11.93-4.12-16.38-8.6-3.28-6.91-5.33-14.34-6.04-21.96-1.99-7.96-1.59-16.32,1.16-24.05,4.07-6.58,9.04-12.57,14.76-17.78,7.2-6.51,12.32-9.76,15.34-9.76Z"/>
        <path class="cls-5" d="m93.11,365.58c1.98.35,4.53-1.39,7.67-5.34,3.39-4.76,6.2-9.91,8.37-15.34,6.48-11.63,9.65-24.81,9.18-38.11l6.39,14.41c3.6,7.67,5.69,12.67,6.62,14.87,2.09,5.19-.93,11.93-9.06,20.22-3,4.31-5.64,8.86-7.9,13.59-3.49,6.51-6.51,9.41-8.95,9.41-6.03-.77-11.98-2.1-17.78-3.95-6.21-1.12-11.93-4.12-16.38-8.6-.96-1.91-1.78-3.89-2.44-5.93,3.72,1.45,7.64,2.35,11.62,2.67l12.67,2.09Z"/>
        <path class="cls-6" d="m56.16,312.94c-1.74,5.11-3.25,7.44-4.76,7.2s-3.49-1.86-5.81-4.76c-1.6-2.01-3.04-4.15-4.3-6.39l17.43-5.81s-2.56,9.76-2.56,9.76Z"/>
        <path class="cls-2" d="m9.45,292.14l7.2,6.97c4.42,4.88,5.58,7.79,3.6,8.6-1.72.77-3.51,1.4-5.34,1.86h-3.72c-1.16-.35-1.98-2.79-1.98-7.2v-10.23s.23,0,.23,0Z"/>
        <path class="cls-8" d="m42.68,205.23c4.5-7.28,11.28-12.88,19.29-15.92,7.27-3.31,15.69-2.83,22.54,1.28l5.34,41.83c1.29,6.03.56,12.32-2.09,17.89-2.49,6.5-5.4,12.82-8.71,18.94-1.38,2.57-2.44,5.3-3.14,8.13l-2.09,8.6c-1.83,6.35-5.98,11.78-11.62,15.22-18.94,11.5-33.93,11.74-44.85.93-6.33-5.67-11.02-12.93-13.59-21.03-1.68-10.21,0-20.68,4.76-29.86,4.86-10.52,11.24-20.27,18.94-28.93l8.83-9.53c2.32-2.47,4.46-5.12,6.39-7.9v.35Z"/>
        <path class="cls-5" d="m89.86,232.42c1.23,6.01.45,12.25-2.21,17.78-2.49,6.5-5.4,12.82-8.71,18.94-1.38,2.57-2.44,5.3-3.14,8.13l-2.09,8.6c-1.83,6.35-5.98,11.78-11.62,15.22-18.94,11.5-33.93,11.74-44.85.93-2.65-2.68-5.13-5.51-7.44-8.48,8.38,6.4,19.82,6.99,28.82,1.51,8.71-6.15,15.48-14.65,19.52-24.52,4.82-9.98,8.41-20.52,10.69-31.37,2.01-5.9,2.61-12.19,1.74-18.36l19.29,11.62Z"/>
        <path class="cls-2" d="m20.03,295.98c1.63-2.56,5.58-3.02,11.62-1.63s8.6,3.72,8.6,7.2c-.69,4.45-2.86,8.55-6.16,11.62-3.6,4.07-6.39,5.81-8.13,5s-3.49-3.95-5.23-10.34-2.09-10.23-1.05-11.62l.35-.23Z"/>
        <path class="cls-6" d="m40.48,301.67c-.7,4.43-2.82,8.5-6.04,11.62-3.6,4.07-6.39,5.69-8.13,5.11,4.47-6.98,7.1-14.97,7.67-23.24,1.74.61,3.3,1.65,4.53,3.02,1.29.87,1.97,2.41,1.74,3.95l.23-.46Z"/>
        <path class="cls-8" d="m70.57,207.32c2.19-9.18,8.88-16.62,17.78-19.75l6.04,42.06c-2.24,1.74-4.81,3-7.55,3.72-3.49,1.25-7.36.91-10.57-.93-6.74-3.95-8.71-12.32-5.69-25.1Z"/>
        <path class="cls-5" d="m89.51,213.13l4.88,16.85c-2.24,1.74-4.81,3-7.55,3.72-3.49,1.25-7.36.91-10.57-.93-2.04-1.04-3.79-2.55-5.11-4.42-1.13-2.27-1.69-4.78-1.63-7.32,2.52,3.15,7.08,3.77,10.34,1.39,3.92-2.27,7.23-5.46,9.64-9.3Z"/>
        <path class="cls-8" d="m90.9,184.31c1.85-2.29,4.25-4.09,6.97-5.23,1.8-1.01,4.01-1.01,5.81,0l13.25,17.66-7.44,38.81c-4.66.81-9.46-.23-13.36-2.9-7.31-5.95-11.58-14.86-11.62-24.28-1.26-8.7,1.23-17.53,6.86-24.28l-.46.23Z"/>
        <path class="cls-5" d="m116.12,196.75l-7.44,38.81c-4.01.56-8.09-.22-11.62-2.21-6.53-4.3-10.79-11.29-11.62-19.06,9.18,6.27,18.48-.93,28.12-21.73l2.9,4.18h-.35Z"/>
        <path class="cls-8" d="m25.25,34.77c-2.21-2.56-3.25-4.88-3.02-6.27s1.05-1.39,2.32-1.39l5.93,2.44c3.43,1.27,6.97,2.2,10.57,2.79-3.97-6.23-6.4-13.32-7.09-20.68,0-3.14,2.09-3.37,5.23,0,5.56,4.24,11.38,8.12,17.43,11.62,6.6,4.31,13.47,8.19,20.57,11.62,4.93,1.78,9.74,3.88,14.41,6.27,4.55,2.04,7.96,6,9.3,10.81,1.67,6.57,4.42,12.81,8.13,18.48,3.19,5.93,7.77,11,13.36,14.76l-20.8,15.92-61.58-37.18c-3.3-10.42-8.29-20.23-14.76-29.05v-.12Z"/>
        <path class="cls-5" d="m76.73,33.72c8.02,3.72,12.78,6.16,14.29,7.09,4.53,2.42,7.82,6.64,9.06,11.62,1.75,6.53,4.62,12.7,8.48,18.24,3.39,5.8,8.08,10.74,13.71,14.41l-13.48,9.99c-6.1-7.23-10.12-15.99-11.62-25.33l-3.72-12.67c-1.28-4.18-2.56-6.51-3.83-7.2-14.01-7.59-27.62-15.89-40.78-24.87-8.68-6.43-11.23-10.5-7.67-12.2,6.23,4.9,12.8,9.36,19.64,13.36l16.38,8.71-.46-1.16Z"/>
        <path class="cls-4" d="m44.78,40.69c9.01-1.07,18.12.98,25.8,5.81,17.19,8.58,30.48,23.36,37.18,41.37l-18.24,32.65c-12.03-3.4-23.09-9.57-32.3-18.01-8.28-10.46-14.08-22.65-16.96-35.67-4.73-15.11-3.21-23.82,4.53-26.14Z"/>
        <path class="cls-11" d="m70.57,46.5c17.74,8.19,31.23,23.45,37.18,42.06l-17.78,31.95-11.62-4.42c4.3.23,6.27-2.9,6.27-9.18-.51-7.69-2.44-15.21-5.69-22.19-3.82-9.03-8.82-17.5-14.87-25.21-5.52-7.58-12.72-13.78-21.03-18.13,5.46-2.79,14.64-1.16,27.54,5.11Z"/>
        <path class="cls-9" d="m55.93,54.06c-.93-4.88-.23-7.9,2.09-8.95,2.81-.42,5.67-.42,8.48,0,18.44,6.83,32.97,21.39,39.74,39.86l-14.18,22.19c-12.31-5.84-22.33-15.61-28.47-27.77-3.72-8.01-6.3-16.49-7.67-25.21v-.12Z"/>
        <path class="cls-7" d="m96.37,67.42c4.06,5.61,7.48,11.65,10.23,18.01l-13.94,21.73-8.25-4.65c-2.65-9.95-6.31-19.61-10.92-28.82-4.49-9.08-10.55-17.3-17.89-24.28.03-2.15,1.6-3.96,3.72-4.3h7.2c11.98,4.25,22.39,12.02,29.86,22.31Z"/>
        <path class="cls-8" d="m290.99,126.21l-58.1,51.71-84.13,41.48,34.16-86.22,39.51-16.96,42.3-14.06c23.82-14.18,36.72-21.73,38.58-22.66.07-.04.13-.09.21-.13,1.29-.71,2.92-.24,3.63,1.05,1.16,2.06,1.16,4.57,0,6.62-.93,2.09-4.18,7.9-9.88,17.55-4.23,6.56-6.56,14.16-6.74,21.96l.46-.35Z"/>
        <path class="cls-5" d="m290.99,126.21l-58.1,51.71-84.13,41.48,34.16-86.22,39.51-16.96,40.78-13.48c11.12.85,22.14-2.7,30.68-9.88,9.18-8.02,14.18-11.5,14.18-10.69.22,1.68-.1,3.4-.93,4.88-.93,2.09-4.18,7.9-9.88,17.55-4.23,6.56-6.56,14.16-6.74,21.96l.46-.35Z"/>
        <path class="cls-8" d="m251.72,189.54l63.56-19.52c-.35,6.15-.35,12.32,0,18.48.35,7.44.81,11.62,2.32,12.2,1.51.58,5.23-1.39,11.62-6.04l13.01-10.34c4.18-3.49,6.16-1.51,6.16,5.93l-3.25,21.5c-1.6,8.07-2.31,16.29-2.09,24.52,4.44,4.74,8.33,9.97,11.62,15.57,4.13,6.01,6.94,12.82,8.25,19.99l-82.38-7.32-27.89-74.95h-.93Z"/>
        <path class="cls-5" d="m261.48,226.84l-9.41-37.3,63.56-19.52c-.35,6.15-.35,12.32,0,18.48.35,7.44.81,11.62,2.32,12.2s5.23-1.39,11.62-6.04l13.01-10.34c4.18-3.49,6.16-1.51,6.16,5.93l-3.25,21.5c-1.6,8.07-2.31,16.29-2.09,24.52,4.39,4.7,8.29,9.84,11.62,15.34,4.39,5.92,7.11,12.9,7.9,20.22l-51.47-4.53c-4.26-10.09-10.97-18.95-19.52-25.8-9.3-6.11-19.34-11.03-29.86-14.64h-.58Z"/>
        <path class="cls-8" d="m280.65,390.33c-14.59,2.33-29.45,2.33-44.04,0-15.52-2.02-30.74-5.92-45.32-11.62,10.6.7,21.24.7,31.84,0,9.36-.63,18.64-2.03,27.77-4.18,11.01-2.76,21.38-7.62,30.56-14.29l-.81,30.21v-.12Z"/>
        <path class="cls-14" d="m123.44,254.26l161.05,4.3-3.02,101.67c-9.15,6.8-19.53,11.77-30.56,14.64-9.13,2.15-18.42,3.55-27.77,4.18-10.6.7-21.24.7-31.84,0-9.13-3.41-17.89-7.73-26.14-12.9-6.76-4.2-12.77-9.5-17.78-15.69-10.63-12.24-16.42-27.94-16.27-44.15.57-4.74,1.46-9.44,2.67-14.06,1.06-3.54,1.42-7.25,1.05-10.92-.86-4.83-2.26-9.55-4.18-14.06-2.09-4.54-4.5-8.93-7.2-13.13v.12Z"/>
        <path class="cls-13" d="m284.25,258.21l-3.02,103.76c-9.32,4.9-19.14,8.79-29.28,11.62-9.99,2.38-20.18,3.81-30.44,4.3-10.37.64-20.77.64-31.14,0-3.17-1.37-6.24-2.96-9.18-4.76,11.72.57,23.45-.52,34.86-3.25,9.8-2.63,18.41-8.54,24.4-16.73,9.76-14.06,9.41-31.72-1.05-53.22-4.5-9.13-10.17-17.65-16.85-25.33-5.93-6.95-12.73-13.12-20.22-18.36l82.15,2.21-.23-.23Z"/>
        <path class="cls-5" d="m280.65,389.75c-14.67,2.26-29.6,2.26-44.27,0-15.73-1.72-31.14-5.63-45.78-11.62,10.37.64,20.77.64,31.14,0,10.26-.48,20.45-1.92,30.44-4.3,10.14-2.83,19.96-6.72,29.28-11.62l-.81,28.24v-.7Z"/>
        <path class="cls-2" d="m271.01,286.56c-2.95,4.25-6.95,7.65-11.62,9.88-6.81,4.62-15.27,6.1-23.24,4.07-5-1.63-9.89-3.57-14.64-5.81l-17.78-7.9c-9.31-5.07-19.73-7.78-30.33-7.9-7.39,1.5-14.52,4.08-21.15,7.67-6.65,3.12-12.2,8.19-15.92,14.52,0-3.37-.46-9.76-1.28-19.06-1.37-9.98-4.81-19.56-10.11-28.12-2.73-4.98-5.76-9.79-9.06-14.41l151.05-15.22,9.41,23.24,8.02,8.13-13.36,30.91Z"/>
        <path class="cls-6" d="m271.01,286.45c-2.01,2.7-4.49,5.03-7.32,6.86-4.49,3.36-9.58,5.84-14.99,7.32.7-.81.93-2.09,0-3.83l-3.25-4.65c-17.58-23.69-45.45-37.52-74.95-37.18-9.68-.09-19.3,1.44-28.47,4.53-7.44,2.56-11.62,4.76-11.62,6.86-2.75-6.49-6.01-12.74-9.76-18.71l-5.34-8.13,151.05-14.18,9.53,21.5,8.37,8.83-13.25,30.79Z"/>
        <path class="cls-2" d="m139.94,262.05l-5.46-2.09c-2.6-1.02-5.12-2.22-7.55-3.6-7.02-4.44-12.66-10.76-16.27-18.24-4.23-7.88-6.31-16.74-6.04-25.68.17-6.32,2.42-12.4,6.39-17.31l44.04,12.55c2.07.81,4.09,1.74,6.04,2.79,2.15,1.09,3.93,2.78,5.11,4.88,2.81,5.83,5.22,11.85,7.2,18.01,3.25,10.23,3.95,16.03,1.86,17.55-5.5,3.34-11.4,5.99-17.55,7.9-9.53,3.25-15.57,4.53-18.01,3.25h.23Z"/>
        <path class="cls-6" d="m125.41,199.19l29.28,8.37c2.07.81,4.09,1.74,6.04,2.79,2.15,1.09,3.93,2.78,5.11,4.88,2.81,5.83,5.22,11.85,7.2,18.01,3.25,10.23,3.95,16.03,1.86,17.55-5.5,3.34-11.4,5.99-17.55,7.9-9.53,3.25-15.57,4.53-18.01,3.25l6.39-3.14c4.38-2.27,8.31-5.3,11.62-8.95,1.63-1.28,1.51-6.04,0-14.06-.86-6.17-2.87-12.12-5.93-17.55-3.98-3.45-8.3-6.49-12.9-9.06-4.82-2.7-9.24-6.07-13.13-9.99Z"/>
        <path class="cls-2" d="m236.15,262.05c-11.13.18-22.23-1.15-33-3.95-17.31-3.6-26.72-6.62-28.35-9.3-3.23-5.6-5.76-11.57-7.55-17.78-2.86-6.21-3.87-13.1-2.9-19.87,1.05-3.14,9.64-9.41,25.91-18.82,11.56-6.24,22.7-13.23,33.35-20.92l47.41,29.98c2.48,5.74,3.44,12.02,2.79,18.24.25,5.83-1.2,11.6-4.18,16.62-4.48,5.38-9.46,10.32-14.87,14.76-5.17,5.18-11.57,8.97-18.59,11.04Z"/>
        <path class="cls-6" d="m223.6,171.41l47.41,29.98c2.48,5.74,3.44,12.02,2.79,18.24.25,5.83-1.2,11.6-4.18,16.62-4.48,5.38-9.46,10.32-14.87,14.76-4.97,5.22-11.16,9.14-18.01,11.39l-14.41-.81c-6.62-.81-13.83-2.09-21.26-3.72l16.85-.81c5.53-.16,10.97-1.38,16.03-3.6,2.67-1.16,5.46-8.95,8.37-23.24,3.03-9.04,3.4-18.76,1.05-28-4.5-5.71-10.74-9.8-17.78-11.62-2.79-.81-10.46-2.44-23.24-4.65,7.62-4.25,14.89-9.11,21.73-14.52h-.46Z"/>
        <path class="cls-8" d="m290.3,246.71c6.68-2.68,13.67-4.51,20.8-5.46,11.1-.93,22.19,1.89,31.49,8.02,11.65,8.44,20.67,20,26.03,33.35,2.57,5.36,4.7,10.92,6.39,16.62,1.07,2.81,1.46,5.84,1.16,8.83l-101.9,26.61c-3.33-5.6-5.13-11.97-5.23-18.48-.8-9.22-.57-18.49.7-27.65,1.12-9.13,3.55-18.05,7.2-26.49,2.26-6.67,7.06-12.19,13.36-15.34Z"/>
        <path class="cls-5" d="m308.54,250.54c-2.74-3.99-7.37-6.24-12.2-5.93,8.18-2,16.56-3.05,24.98-3.14,7.74.94,15.12,3.77,21.5,8.25,11.65,8.44,20.67,20,26.03,33.35,2.57,5.36,4.7,10.92,6.39,16.62,1.07,2.81,1.46,5.84,1.16,8.83l-51.94,5.23c1.55-7.67,1.55-15.57,0-23.24-.92-7.94-2.8-15.74-5.58-23.24-2.52-6.29-6.1-12.11-10.57-17.2l.23.46Z"/>
        <path class="cls-2" d="m316.79,420.31c6.17-10.96,16.67-18.81,28.93-21.61,12.42-3.35,25.67-1.64,36.83,4.76,5.17,2.38,9.85,5.69,13.83,9.76.4,2.82-.05,5.69-1.28,8.25-1.55,4.19-3.74,8.11-6.51,11.62-6.33,8.69-15.56,14.83-26.03,17.31-10.37,2.63-21.23,2.63-31.61,0-8.44-1.62-15.67-7.02-19.64-14.64.82-5.47,2.71-10.72,5.58-15.45h-.12Z"/>
        <path class="cls-6" d="m376.4,424.26c1.02-9.17-1.38-18.4-6.74-25.91,7.14,1.71,13.83,4.92,19.64,9.41,2.55,1.87,4.89,4.01,6.97,6.39,1.16,4.3-1.05,10.34-6.86,18.24-5.67,8.19-13.81,14.34-23.24,17.55,5.98-7.31,9.58-16.27,10.34-25.68h-.12Z"/>
        <path class="cls-8" d="m386.85,320.73c1.16,2.9,4.07,13.59,8.83,32.19,1.82,9.9,4.94,19.51,9.3,28.58,3.57,4.17,7.45,8.05,11.62,11.62,4.65,4.88,6.39,9.06,4.65,12.43-2.06,4.07-5.41,7.34-9.53,9.3-3.23,1.88-7.02,2.54-10.69,1.86l-7.09-2.67c-4.03-1.67-8.19-3.03-12.43-4.07-11.39-3.27-23.47-3.27-34.86,0-9.29,2.3-17.82,6.99-24.75,13.59l-5.58,6.39c-1.29,1.73-2.91,3.19-4.76,4.3-5.46,2.05-11.25,3.07-17.08,3.02-4.92.76-9.94-.01-14.41-2.21-1.95-1.75-2.76-4.44-2.09-6.97,1.2-5.71,2.75-11.33,4.65-16.85.48-11.06-.85-22.13-3.95-32.77-3.25-12.36-4.78-25.1-4.53-37.88.73-4.65,1.82-9.23,3.25-13.71,1.5-4.19,3.66-8.11,6.39-11.62l72.85-21.84,14.99,10.92c6.22,4.44,11.35,10.24,14.99,16.96l.23-.58Z"/>
        <path class="cls-5" d="m386.39,320.73c1.16,2.9,4.07,13.59,8.83,32.19,1.82,9.9,4.94,19.51,9.3,28.58,3.57,4.17,7.45,8.05,11.62,11.62,4.65,4.88,6.39,9.06,4.65,12.43-2.06,4.07-5.41,7.34-9.53,9.3-3.23,1.88-7.02,2.54-10.69,1.86l-7.09-2.67c-3.8-1.56-7.68-2.92-11.62-4.07,1.48-3.66.99-7.81-1.28-11.04-2.49-3.8-6.3-6.53-10.69-7.67-11.27-3.6-18.59-6.16-22.19-7.79-9.29-4.09-17.05-11-22.19-19.75l31.14-70.3,14.99,10.92c6.22,4.44,11.35,10.24,14.99,16.96l-.23-.58Z"/>
        <path class="cls-8" d="m333.06,264.72c6.21,5.18,11.75,11.11,16.5,17.66,5.82,6.49,10.35,14.02,13.36,22.19,1.66,9.22,1.66,18.67,0,27.89-.12,9.48-3.58,18.61-9.76,25.8-5.9,4.35-12.75,7.22-19.99,8.37-6.04,1.42-12.32,1.42-18.36,0-3.26-1.48-6.16-3.67-8.48-6.39-3.79-4-7.14-8.41-9.99-13.13-7.71-11.29-11.77-24.67-11.62-38.34.28-10.1,2.28-20.09,5.93-29.51,1.47-4.07,4.09-7.63,7.55-10.23,5.05-2.4,10.4-4.09,15.92-5,6.19-2.14,12.96-1.85,18.94.81v-.12Z"/>
        <path class="cls-5" d="m333.52,264.37c6.21,5.18,11.75,11.11,16.5,17.66,5.82,6.49,10.35,14.02,13.36,22.19,1.66,9.22,1.66,18.67,0,27.89-.12,9.48-3.58,18.61-9.76,25.8-5.46,3.98-11.73,6.71-18.36,8.02-5.84,1.51-11.94,1.78-17.89.81l16.5-7.55c5.19-2.57,9.3-6.89,11.62-12.2,1.86-4.77,3.08-9.78,3.6-14.87.78-7.32.5-14.72-.81-21.96-3.68-19.34-15.38-36.23-32.19-46.48,5.61-1.68,11.64-1.27,16.96,1.16l.46-.46Z"/>
        <path class="cls-8" d="m248.81,125.4c6.98-4.19,15.27-5.6,23.24-3.95,6.1.42,11.77,3.32,15.69,8.02l18.94,44.04c-1.85,7.29-5.91,13.82-11.62,18.71-7.36,5.9-16.21,9.64-25.56,10.81-10.22,1.66-20.67-1.04-28.82-7.44-7.49-5.36-12.88-13.17-15.22-22.08-1.82-9.15-.25-18.65,4.42-26.72,4.07-8.73,10.51-16.14,18.59-21.38h.35Z"/>
        <path class="cls-5" d="m287.74,129.47l18.94,44.04c-1.85,7.29-5.91,13.82-11.62,18.71-7.36,5.9-16.21,9.64-25.56,10.81-5.32.82-10.75.46-15.92-1.05-4.84-1.29-9.35-3.59-13.25-6.74,4.73,3.49,10.07,2.32,16.03-3.49,6.17-6.76,10.99-14.65,14.18-23.24,3.87-8.96,6.41-18.43,7.55-28.12.93-9.53-.35-15.69-3.95-18.36,2.9.6,5.68,1.66,8.25,3.14,2,1.03,3.75,2.5,5.11,4.3h.23Z"/>
        <path class="cls-8" d="m284.49,180.94c-5.07.75-10.23-.6-14.29-3.72-3.81-2.95-6.61-7.01-8.02-11.62-1.71-4.64-2.23-9.63-1.51-14.52.57-4.39,2.57-8.48,5.69-11.62,6.19-4.71,13.1-8.39,20.45-10.92,7.74-3.67,16.02-6.06,24.52-7.09l9.64,46.48-13.94,6.39c-7.12,3.2-14.62,5.5-22.31,6.86l-.23-.23Z"/>
        <path class="cls-5" d="m292.62,161.54c8.17-3.27,13.79-10.87,14.52-19.64l13.83,26.03-13.94,6.39c-7.12,3.2-14.62,5.5-22.31,6.86-4.39.73-8.89.08-12.9-1.86-3.55-1.96-6.27-5.14-7.67-8.95,9.92-1.65,19.52-4.82,28.47-9.41v.58Z"/>
        <path class="cls-2" d="m360.48,87.87c18.17,3.71,35.71,10.05,52.06,18.82l-94.35,5.34c1.98-7.09,3.6-12.43,5-15.92,2.44-6.27,5.23-9.76,8.37-10.57,9.71-1.01,19.51-.22,28.93,2.32Z"/>
        <path class="cls-6" d="m412.53,106.69l-20.22,1.05c-8.33-8.21-18.15-14.76-28.93-19.29,17.13,3.83,33.67,9.97,49.15,18.24Z"/>
        <path class="cls-6" d="m450.76,200.58l30.09-16.73c2.38,6.42,4.06,13.08,5,19.87,1.51,8.95,1.28,12.9-.93,12.9-5.24-1.79-10.2-4.29-14.76-7.44-5.93-3.96-12.49-6.87-19.4-8.6Z"/>
        <path class="cls-8" d="m307.03,133.88c-.54-8.95,3.93-17.46,11.62-22.08,6.65-3.92,13.86-6.82,21.38-8.6,16.28-3.28,33.02-3.51,49.38-.7,22.28,2.12,43.93,8.63,63.68,19.17,14.86,6.94,25.79,20.22,29.75,36.14,2.44,10.5.47,21.55-5.46,30.56-3.34,5.57-8.86,9.49-15.22,10.81l-12.78,1.51v3.83c-.29,2.35-1,4.63-2.09,6.74-2.28,4.38-5.91,7.92-10.34,10.11l-12.78,5.34c-3.95,1.62-8.33,1.86-12.43.7-4.4-1.13-8.41-3.41-11.62-6.62l-12.9-16.62c-4.26-6.48-9.51-12.24-15.57-17.08-6.67-3.86-13.67-7.13-20.92-9.76-7-2.73-14.18-4.94-21.5-6.62-6.16-1.51-11.46-5.39-14.76-10.81-4.88-7.63-7.42-16.51-7.32-25.56l-.12-.46Z"/>
        <path class="cls-5" d="m482.72,158.28c2.44,10.5.47,21.55-5.46,30.56-6.42,8.27-16.51,12.83-26.96,12.2-1.46-4.2-3.17-8.32-5.11-12.32-2.06-3.79-3.17-8.01-3.25-12.32,2.16,1.13,4.47,1.96,6.86,2.44,2.75.04,5.46-.6,7.9-1.86,4.29-1.88,7.7-5.33,9.53-9.64,2.02-4.89,2.46-10.29,1.28-15.45-3.65-14.28-12.47-26.71-24.75-34.86,3.37,1.51,6.74,3.14,10.23,5.11,14.86,6.94,25.79,20.22,29.75,36.14Z"/>
        <path class="cls-5" d="m423.57,227.65c-7.83,3.25-16.86,1.04-22.31-5.46l-13.48-17.31c-4.5-6.54-9.94-12.37-16.15-17.31-6.67-3.86-13.67-7.13-20.92-9.76-7-2.73-14.18-4.94-21.5-6.62-3.82-.95-7.36-2.78-10.34-5.34-4.39-3.44-7.86-7.91-10.11-13.01,29.68,2.63,57.76,14.64,80.17,34.28,2.56,2.44,7.67,8.13,15.34,16.85,3.6,4.3,4.65,6.74,7.9,4.3,3.25-2.44,8.37-2.21,15.45.93l8.71,3.37c2.79,1.18,5.8,1.74,8.83,1.63-2.53,3.59-5.99,6.44-9.99,8.25-3.77,1.83-7.65,3.43-11.62,4.76v.46Z"/>
        <path class="cls-2" d="m473.77,145.62c7.15,3.65,13.27,9.04,17.78,15.69,5.85,6.36,9.23,14.6,9.53,23.24-.23,2.79-4.42,2.67-12.9,0l-19.99-6.16c-4.06-6.83-5.11-15.03-2.9-22.66.72-2.78,1.98-5.39,3.72-7.67,1.74-1.74,3.25-2.44,4.76-1.74v-.7Z"/>
        <path class="cls-6" d="m484.34,164.21c-5.94-4.21-12.11-8.09-18.48-11.62.68-2.05,1.88-3.89,3.49-5.34.94-1.1,2.49-1.48,3.83-.93,6.2,3.21,11.61,7.78,15.8,13.36,5.53,5.64,9.53,12.6,11.62,20.22-4.47-5.77-9.75-10.86-15.69-15.11l-.58-.58Z"/>
        <path class="cls-2" d="m447.86,218.36c2.35,5.66,3.34,11.78,2.9,17.89-1.28,2.09-6.39,1.16-15.45-2.9-7.6-3-14.18-8.12-18.94-14.76-1.62-2.76-1.62-6.19,0-8.95,1.73-3.05,4.21-5.61,7.2-7.44,2.89-2,6.18-3.35,9.64-3.95,2.61-.76,5.43-.1,7.44,1.74,3.43,5.66,5.87,11.87,7.2,18.36Z"/>
        <path class="cls-6" d="m433.91,232.53c-3.59-1.71-6.98-3.81-10.11-6.27-2.91-2.06-5.39-4.67-7.32-7.67-1.91-3.34-1.54-7.51.93-10.46,3.42,9.21,8.91,17.52,16.03,24.28l.46.12Z"/>
        <path class="cls-8" d="m229.76,124.01c2.58,3.93,4.87,8.05,6.86,12.32-6.11-1.13-12.37-1.13-18.48,0l-11.62,1.74c4.08,2.36,7.7,5.43,10.69,9.06,2.48,2.68,4.44,5.79,5.81,9.18l-11.62.93c-3.37.03-6.64,1.18-9.3,3.25l-11.62,16.5c-5.38,7.84-11.74,14.94-18.94,21.15-17.78,13.48-33.12,17.08-46.48,11.04-5.59-2.57-10.4-6.58-13.94-11.62-3.54-5.64-5.8-11.98-6.62-18.59l117.71-62.75c2.83,2.58,5.36,5.46,7.55,8.6v-.81Z"/>
        <path class="cls-5" d="m229.87,125.52c2.74,3.63,5.11,7.52,7.09,11.62-6.14-1.21-12.45-1.21-18.59,0l-11.62,1.98c4.08,2.36,7.7,5.43,10.69,9.06,2.48,2.68,4.44,5.79,5.81,9.18l-11.62.93c-3.37.03-6.64,1.18-9.3,3.25l-8.25,11.62c1-4.91,1-9.97,0-14.87-.81-5.93-2.56-9.41-5.34-10.57.88-2.64,1.46-5.37,1.74-8.13.14-2.48.14-4.96,0-7.44l31.72-15.92c2.85,2.47,5.38,5.28,7.55,8.37l.12.93Z"/>
        <path class="cls-5" d="m105.43,178.39l11.62-6.39c2.26,2.1,4.75,3.94,7.44,5.46l7.79,4.07-11.62,5.69-11.62,5.34c-2.25-4.43-3.67-9.23-4.18-14.18h.58Z"/>
        <path class="cls-1" d="m118.21,196.05c-4.59-4.43-8.27-9.72-10.81-15.57,12.2-5.58,24.87-10.69,36.49-15.57,23.24-9.53,35.56-12.78,34.86-9.53-2.22,10.36-6.36,20.21-12.2,29.05-5.54,10.97-16.65,18.02-28.93,18.36-7.19.06-14.2-2.31-19.87-6.74h.46Z"/>
        <path class="cls-12" d="m107.29,180.48c12.2-5.58,24.87-10.69,36.49-15.57,23.24-9.53,35.56-12.78,34.86-9.53-1.23,5.46-2.98,10.79-5.23,15.92-2.71,6.6-6.35,12.78-10.81,18.36-8.76-4.11-18.33-6.21-28-6.16-7.85-.02-15.52,2.37-21.96,6.86-2.16-3.13-4.07-6.43-5.69-9.88h.35Z"/>
        <path class="cls-2" d="m111.12,180.59l1.86,2.44c.89,1.29,1.59,2.7,2.09,4.18-.48.71-1.12,1.31-1.86,1.74-.81.35-1.74,0-2.79-1.16-.54-2.41-.3-4.94.7-7.2Z"/>
        <path class="cls-3" d="m114.14,184.31l1.86,2.44c.97,1.24,1.69,2.66,2.09,4.18l-1.86,1.74c-.7.35-1.63,0-2.79-1.16-.54-2.41-.3-4.94.7-7.2Z"/>
        <path class="cls-2" d="m114.14,184.31l1.86,2.44c.97,1.24,1.69,2.66,2.09,4.18l-1.63,1.63-1.05-2.79c-.46-.92-1.14-1.72-1.98-2.32,0,0,.7-3.14.7-3.14Z"/>
        <path class="cls-3" d="m117.86,196.51c-.45-2.85-.17-5.77.81-8.48l2.21,3.25c1.09,1.57,1.96,3.29,2.56,5.11-.24.35-.54.66-.9.9-1.54,1.04-3.64.64-4.68-.9v.12Z"/>
        <path class="cls-2" d="m118.79,187.91l2.21,3.25c1.09,1.57,1.96,3.29,2.56,5.11-.69.8-1.63,1.33-2.67,1.51-.37-3.14-1.11-6.22-2.21-9.18v-.7s.12,0,.12,0Z"/>
        <path class="cls-8" d="m174.45,59.52c1.85,6.4,4.26,12.62,7.2,18.59,6.82,4.53,13.34,9.5,19.52,14.87,9.92,7.1,17.3,17.2,21.03,28.82-8.9,5.86-17.44,12.27-25.56,19.17l-18.59,14.76c-.46,1.63-2.44,2.9-5.93,3.95l-12.32,2.32c-10.8,1.35-21.09,5.34-29.98,11.62-3.49,2.9-6.74,5.81-9.76,8.6-1.71,1.34-3.91,1.88-6.04,1.51-3.83-.9-7.35-2.78-10.23-5.46-3.82-3.13-7.39-6.55-10.69-10.23-2.23-2.62-3.71-5.79-4.3-9.18-.43-4.37-.43-8.76,0-13.13-1.58-6.02-2.05-12.28-1.39-18.48.2-2.3.71-4.57,1.51-6.74,1.46-3.33,3.29-6.49,5.46-9.41,3.53-5.14,7.42-10.03,11.62-14.64,5.52-5.99,12.36-10.61,19.99-13.48,5.14-1.84,10.38-3.39,15.69-4.65h3.6c6.82-18.05,10.69-29.09,11.62-33.12.46-2.56,1.77-4.89,3.72-6.62,1.86-1.16,3.95-.46,6.27,2.21,3.24,5.8,5.78,11.96,7.55,18.36v.35Z"/>
        <path class="cls-5" d="m161.2,38.72c1.74-.7,3.6.12,5.69,2.44,3.24,5.8,5.78,11.96,7.55,18.36,1.85,6.4,4.26,12.62,7.2,18.59,6.82,4.53,13.34,9.5,19.52,14.87,10.01,7.06,17.47,17.17,21.26,28.82-5.49,4.52-10.61,9.45-15.34,14.76-8.71,8.13-14.87,11.39-18.48,9.99,2.83-10.96,2.18-22.54-1.86-33.12-2.03-9.97-6.91-19.14-14.06-26.38-3.83-2.9-6.16-11.97-6.97-26.84-.58-7.9-1.16-12.78-1.16-14.76-.7-4.42-1.86-7.09-3.37-7.09v.35Z"/>
        <path class="cls-8" d="m76.61,63.24c6.86,5.81,13.71,11.27,20.45,16.15,9.76,7.59,20.46,13.88,31.84,18.71.3.1.59.22.88.35,4.25,1.98,6.09,7.02,4.11,11.27-1.73,5.96-4.74,11.48-8.83,16.15-3.56,4.62-7.93,8.56-12.9,11.62-4.53,2.67-7.44,2.21-7.44-1.16-3.54-12.62-8.86-24.67-15.8-35.79-4.88-9.06-10.46-18.82-16.73-29.28-1.6-2.36-1.91-5.38-.81-8.02,1.08-2.09,2.83-2.09,5.23,0Z"/>
        <path class="cls-5" d="m76.61,63.59c6.86,6.16,14.41,11.85,22.54,17.78,9,7.42,19.34,13.05,30.44,16.62,2.21.35,3.83,1.05,3.83,2.09.31,1.16-.62,2.67-2.79,4.53-5.81,4.53-15.34,1.39-26.96-9.18-10.76-9.14-19.91-20.02-27.07-32.19h0v.35Z"/>
        <path class="cls-3" d="m151.21,127.84c3.24-4.12,6.78-8,10.57-11.62,2.49,1.98,4.51,4.48,5.93,7.32,1.63,2.79,2.21,4.88,1.63,6.04-.54,1.47-4.14,4.03-10.81,7.67-5.65,3.38-11.81,5.81-18.24,7.2,2.48-6.19,6.15-11.84,10.81-16.62h.12Z"/>
        <path class="cls-2" d="m152.14,130.4c-3.7,4.02-6.9,8.46-9.53,13.25l-2.67.7c2.25-6.14,5.73-11.75,10.23-16.5,3.55-4.18,7.44-8.07,11.62-11.62.8.64,1.47,1.43,1.98,2.32l1.86,2.32c-4.88,2.56-9.31,5.9-13.13,9.88l-.35-.35Z"/>
        <path class="cls-8" d="m203.15,52.31c1.22-3.7,2.94-7.22,5.11-10.46,1.8-1.96,4.02-3.47,6.51-4.42l12.43-5.58c5.97-3.27,11.35-7.51,15.92-12.55,3.79-4.15,6.93-8.85,9.3-13.94,1.16-2.79,1.63-4.53,2.79-3.72s2.56,4.53,2.56,11.62v10.34c16.15-3.6,27.54-6.51,34.28-8.6,9.3-2.9,14.52-2.67,15.69.58.31,1.16-1.32,3.14-4.88,5.93-3.05,2.21-5.82,4.79-8.25,7.67-2.45,3.83-4.15,8.09-5,12.55-1.36,4.07-1.36,8.48,0,12.55,1.09,1.75,1.73,3.75,1.86,5.81-.12.93-1.51,2.32-3.95,4.07-2.17,1.55-4.09,3.44-5.69,5.58l-1.63,2.32-43.34,6.97c-29.75,5.11-46.59,8.37-50.78,9.76-5.46,2.25-11.51,2.62-17.2,1.05-2.32-.7-2.67-1.74-2.32-3.02s2.09-2.79,5.23-4.3c6.71-3.4,12.92-7.7,18.48-12.78,5.51-4.81,9.91-10.76,12.9-17.43Z"/>
        <path class="cls-5" d="m178.17,88.92c7.58-6.92,14.58-14.46,20.92-22.54,5.5-6.22,10.22-13.09,14.06-20.45,1.58-3.55,4.64-6.23,8.37-7.32,4.94-1.54,9.61-3.85,13.83-6.86,5.58-3.84,10.36-8.74,14.06-14.41,4.65-6.74,6.04-11.5,4.07-14.29l1.05-1.86c.3-.25.74-.25,1.05,0,1.16.81,2.56,4.53,2.56,11.62v10.34h2.21s0,1.16,0,1.16c1,.84,2.3,1.26,3.6,1.16,7.61-.07,15.12-1.69,22.08-4.76,9.64-3.49,13.83-6.04,12.55-7.32,5.23-1.05,8.25-.23,9.18,2.21.31,1.16-1.32,3.14-4.88,5.93-3.05,2.21-5.82,4.79-8.25,7.67-2.45,3.83-4.15,8.09-5,12.55-1.36,4.07-1.36,8.48,0,12.55,1.09,1.75,1.73,3.75,1.86,5.81-.12.93-1.51,2.32-3.95,4.07-2.17,1.55-4.09,3.44-5.69,5.58l-1.63,2.9c-59.49,12.9-90.4,19.52-92.96,19.52h-7.67c-3.02-.12-3.72-.93-1.98-2.32l.58-.93Z"/>
        <path class="cls-4" d="m233.71,41.74c9.49-2.92,19.57-3.36,29.28-1.28,7.72,1.88,13.94,7.58,16.5,15.11,3.19,8.98,3.19,18.79,0,27.77-3.99,11.65-13.12,20.82-24.75,24.87-10.01,4.5-20.76,7.1-31.72,7.67-2.65.29-5.33-.23-7.67-1.51l-1.16-2.9c-1.17-2.41-2.57-4.71-4.18-6.86-5.73-7.27-13.56-12.58-22.43-15.22,5.1-10.7,11.84-20.54,19.99-29.17,6.81-8.44,15.82-14.83,26.03-18.48h.12Z"/>
        <path class="cls-11" d="m207.57,60.22c6.81-8.44,15.82-14.83,26.03-18.48,9.74-3.12,20.14-3.52,30.09-1.16,7.38,2.1,13.25,7.71,15.69,14.99.58,1.98,1.63,4.18,1.63,6.62-16.16-3.06-32.84-1.77-48.34,3.72-15.18,5.57-29.15,14.01-41.13,24.87l-3.95-1.39c5.1-10.7,11.84-20.54,19.99-29.17Z"/>
        <path class="cls-9" d="m239.17,51.85c8.24.42,15.51,5.53,18.71,13.13,1.53,4.52,1.53,9.42,0,13.94-1.69,5.43-4.54,10.43-8.37,14.64-9.34,10.69-23.29,16.19-37.41,14.76l-1.05-2.09c-1.06-1.79-2.3-3.47-3.72-5-5.34-5.62-12.14-9.64-19.64-11.62,1.81-4.82,4.23-9.39,7.2-13.59,4.85-7.47,10.81-14.17,17.66-19.87,8.21-3.75,17.28-5.23,26.26-4.3h.35Z"/>
        <path class="cls-7" d="m255.44,61.15c-11.78,1.3-23.27,4.48-34.05,9.41-10.85,4.91-20.57,11.99-28.58,20.8l-5.11-1.74c1.81-4.82,4.23-9.39,7.2-13.59,4.85-7.47,10.81-14.17,17.66-19.87,7.56-3.34,15.79-4.89,24.05-4.53,7.44-.02,14.44,3.52,18.82,9.53Z"/>
        <path class="cls-3" d="m143.31,199.88c-.62-2.99-.62-6.07,0-9.06l2.9,3.02c1.39,1.35,2.5,2.97,3.25,4.76-.03,1.3-.94,2.4-2.21,2.67-1.4.29-2.85-.25-3.72-1.39h-.23Z"/>
        <path class="cls-3" d="m148.54,186.4l3.49,2.79c1.57,1.19,2.88,2.69,3.83,4.42.11,1.39-.62,2.72-1.86,3.37-1.24.81-2.89.56-3.83-.58-1.23-3.18-1.78-6.59-1.63-9.99Z"/>
        <path class="cls-3" d="m156.67,191.05c-.99-3.56-1.58-7.23-1.74-10.92l3.6,2.9c2.44,2.09,3.95,3.6,3.95,4.65.08,1.54-.68,3-1.98,3.83-1.08,1.02-2.76,1.02-3.83,0v-.46Z"/>
        <path class="cls-3" d="m162.95,185.24c-1.04-3.8-1.74-7.69-2.09-11.62l3.72,3.02c2.56,2.21,4.18,3.72,4.18,4.65.02,1.78-.74,3.48-2.09,4.65-.03.04-.07.07-.1.1-1.03.97-2.64.92-3.61-.1v-.7Z"/>
        <path class="cls-3" d="m166.55,152.82c1.74,1.86,3.37,3.83,5.23,6.04,2.48,2.81,4.52,5.99,6.04,9.41.17,2.69-1.18,5.24-3.49,6.62-1.61,1.09-3.79.85-5.11-.58-2.06-6.97-2.96-14.23-2.67-21.5Z"/>
        <path class="cls-2" d="m147.26,201.28l-.81-4.42c-.27-1.49-.74-2.93-1.39-4.3,1.84,1.71,3.34,3.77,4.42,6.04-.12,1.63-.93,2.67-2.21,2.67Z"/>
        <path class="cls-2" d="m155.63,195.82c-.43.68-1.09,1.17-1.86,1.39-.17-3.35-1.21-6.59-3.02-9.41,3.37,2.67,5.46,4.65,5.46,5.81-.01.77-.21,1.53-.58,2.21Z"/>
        <path class="cls-2" d="m161.32,191.28c-.4-1.7-1.11-3.31-2.09-4.76l-2.32-4.3c3.72,2.79,5.58,4.76,5.58,5.93-.03,1.14-.44,2.25-1.16,3.14Z"/>
        <path class="cls-2" d="m168.76,181.29c-.03,1.29-.43,2.54-1.16,3.6-.02-1.88-.63-3.71-1.74-5.23l-2.79-4.42c3.6,2.9,5.69,5,5.69,6.04Z"/>
        <path class="cls-2" d="m166.43,153.29c1.74,1.86,3.37,3.83,5.23,6.04,2.48,2.81,4.52,5.99,6.04,9.41.08,2.58-1.14,5.02-3.25,6.51-.5-7.57-3.25-14.81-7.9-20.8v-1.16h-.12Z"/>
        <path class="cls-10" d="m157.83,120.41c1.85.26,3.41,1.51,4.07,3.25.67,1.29,1.03,2.73,1.05,4.18.14,2.34-.65,4.64-2.21,6.39-1.28,1.57-3.2,2.47-5.23,2.44-3.26.41-6.26-1.86-6.74-5.11,2.65-3.86,5.69-7.44,9.06-10.69v-.46Z"/>
        <path class="cls-10" d="m506.88,84.5c9.8,20.55,14.96,43,15.11,65.77,1.47,28.76-2.84,57.52-12.67,84.59-9.41,25.96-24.54,49.47-44.27,68.79-20.24,19.76-44.38,35.08-70.88,44.97l-1.05-3.49c29.46-11.52,55.84-29.74,77.04-53.22,15.57-17.36,27.64-37.56,35.56-59.49,9.38-26.05,13.64-53.67,12.55-81.34-.13-22.08-5.25-43.85-14.99-63.68-4.3-8.25-6.74-12.32-9.3-12.9s-3.49,5-3.49,16.62c.68,20.19-2.72,40.3-9.99,59.14l-1.16-2.21-1.05-1.86c3.7-8.83,6.13-18.14,7.2-27.65,1.33-10.21,1.87-20.5,1.63-30.79,0-11.97,1.98-18.13,5.58-18.59,3.6-.46,8.13,4.76,13.94,15.34h.23Z"/>
        <path class="cls-10" d="m409.4,227.65c-18.62,9.74-39.01,15.63-59.96,17.31v-3.02c9.78-1.49,19.48-3.51,29.05-6.04,9.67-2.52,19.09-5.94,28.12-10.23l2.9,1.98h-.12Z"/>
        <path class="cls-10" d="m502.59,122.61c3.51.88,6.72,2.69,9.3,5.23,4.36,4.29,7.21,9.87,8.13,15.92h-1.74c-.83-5.57-3.58-10.66-7.79-14.41-2.61-2.19-5.66-3.77-8.95-4.65h-8.48c-2.32.2-4.46,1.33-5.93,3.14l-1.39-1.51c1.81-2.09,4.26-3.52,6.97-4.07,3.25-.75,6.63-.75,9.88,0v.35Z"/>
        <path class="cls-10" d="m516.76,201.39l-1.63,3.37c.29-7.75-1.35-15.46-4.76-22.43-3.15-6.31-8.6-11.17-15.22-13.59l.7-1.74c7.63,2.18,13.86,7.69,16.96,14.99,2.66,6.11,3.92,12.74,3.72,19.4h.23Z"/>
        <path class="cls-10" d="m493.29,263.21l-2.09.93c2.16-9.37,2.16-19.1,0-28.47-1.92-8.22-6.39-15.63-12.78-21.15l1.05-1.39c8.06,5.24,13.44,13.72,14.76,23.24,1.76,8.89,1.48,18.07-.81,26.84h-.12Z"/>
        <path class="cls-10" d="m449.25,241.25c7.38,9.13,11.69,20.35,12.32,32.07,1.05,14.54-2.48,29.05-10.11,41.48h-2.21c6.65-10.77,9.96-23.26,9.53-35.9-.08-13.16-4.63-25.9-12.9-36.14-2.03-2.52-4.29-4.85-6.74-6.97l5.34.81,4.76,5v-.35Z"/>
        <path class="cls-10" d="m385.69,250.2c7.14,4.82,12.84,11.49,16.5,19.29,4.92,10.94,7.19,22.88,6.62,34.86-.29,14.55-4.29,28.79-11.62,41.37h-2.79c6.88-11.37,10.87-24.26,11.62-37.53,1.13-12.38-.87-24.85-5.81-36.25-3.32-7.73-8.56-14.49-15.22-19.64-6.4-5-14.02-8.21-22.08-9.3v-1.86c8.3,1,16.25,3.9,23.24,8.48l-.46.58Z"/>
        <path class="cls-10" d="m132.5,289.82v2.67c-6.44,1.44-12.7,3.54-18.71,6.27-.54-.45-1.18-.76-1.86-.93l-2.09-.7c7.34-3.57,15.17-6.04,23.24-7.32h-.58Z"/>
        <path class="cls-10" d="m163.64,404.04c-8.68,3.74-17.98,5.87-27.42,6.27-13.13.93-21.03-.81-23.94-5.23l-1.51-4.18c5.07,4.21,11.55,6.33,18.13,5.93,11.3.81,22.63-1.14,33-5.69,4.71-1.62,8.02-5.85,8.48-10.81-.19-8.47-1.96-16.82-5.23-24.63,1.53,1.33,3.16,2.53,4.88,3.6,3.4,7.86,4.57,16.5,3.37,24.98-1.72,4.49-5.27,8.04-9.76,9.76Z"/>
        <path class="cls-10" d="m69.76,363.14c-3.89,7.45-5.8,15.77-5.58,24.17l-3.83,2.44c-.19-4.59.36-9.18,1.63-13.59,1.28-5.68,3.61-11.08,6.86-15.92l.93,2.9Z"/>
        <path class="cls-10" d="m79.17,415.89c6.11-.43,12.17-1.36,18.13-2.79,4.65-1.12,9.01-3.22,12.78-6.16.81-.52,1.19-1.51.93-2.44-.46-2.67-3.72-5.93-9.88-9.88-5.42-3.61-11.33-6.42-17.55-8.37-4.48-1.51-9.34-1.51-13.83,0-9.76,4.4-18.81,10.24-26.84,17.31-4.18,3.25-6.16,5.34-5.11,7.79s5.81,4.07,14.52,4.76c8.93.73,17.91.73,26.84,0v-.23Zm-11.04-31.72c5.3-2.09,11.16-2.33,16.62-.7,6.84,2.27,13.33,5.47,19.29,9.53,7.09,4.3,10.92,8.13,11.62,11.62.41,1.73-.28,3.53-1.74,4.53-13.47,8.12-29.01,12.15-44.74,11.62l-23.24-1.05c-6.86-1.16-10.69-3.02-11.62-5.34-.74-1.74-.74-3.72,0-5.46,1.26-2.49,3.09-4.64,5.34-6.27,8.43-7.28,17.81-13.38,27.89-18.13l.58-.35Z"/>
        <path class="cls-10" d="m73.48,365.23c3.87,4.19,8.95,7.07,14.52,8.25,5.64,2.05,11.48,3.49,17.43,4.3,2.44.23,5.93-4.07,10.46-13.13l2.79-5.58c.79-1.45,1.72-2.81,2.79-4.07,2.98-2.74,5.53-5.91,7.55-9.41,2.04-2.91,2.64-6.59,1.63-9.99-1.86-4.76-3.95-9.53-6.16-14.29l-6.62-15.22c-2.67-6.86-9.18-10.92-20.8-12.2-2.21-.23-7.2,2.9-13.83,9.53-5.5,5.22-10.27,11.16-14.18,17.66-2.79,7.43-3.23,15.54-1.28,23.24.57,7.34,2.5,14.51,5.69,21.15v-.23Zm8.37-64.95c7.44-6.97,13.01-9.76,16.62-9.76h0c5.2.58,10.17,2.51,14.41,5.58,3.01,1.82,5.37,4.55,6.74,7.79l6.86,15.92,4.18,8.71c1.63,3.49,2.67,5.93,3.25,7.2,1,3.2.58,6.67-1.16,9.53-2.47,4.31-5.56,8.22-9.18,11.62-2.2,2.92-4.07,6.08-5.58,9.41-1.89,4.09-4.18,7.99-6.86,11.62-1.6,1.99-4.09,3.04-6.62,2.79-5.6-.79-11.12-2.07-16.5-3.83-6.61-1.3-12.64-4.68-17.2-9.64-3.4-6.98-5.6-14.48-6.51-22.19-2.1-8.06-1.74-16.56,1.05-24.4,4.19-7.61,9.65-14.45,16.15-20.22l.35-.12Z"/>
        <path class="cls-10" d="m59.42,303.53v.93c-.98,4.75-2.34,9.41-4.07,13.94-1.28,2.9-2.09,4.42-3.95,4.07s-4.07-2.44-6.62-6.04l-4.3-6.97,1.63-.81c1.21,2.26,2.69,4.37,4.42,6.27,1.2,1.94,2.99,3.45,5.11,4.3.46.12,1.05-.58,1.74-1.98,1.86-4.22,3.26-8.62,4.18-13.13l2.21-.58h-.35Z"/>
        <path class="cls-10" d="m10.15,293.07c-.38,5.25-.03,10.53,1.05,15.69,2.94.12,5.86-.52,8.48-1.86l.81,1.86-4.18,1.74c-1.86.96-3.98,1.28-6.04.93-1.16-.23-1.98-3.37-1.98-9.3v-9.18s1.74,0,1.74,0l.12.12Z"/>
        <path class="cls-10" d="m61.86,300.39c3.8-2.19,6.9-5.41,8.95-9.3,1.57-3.51,2.78-7.17,3.6-10.92.76-4.03,2.05-7.93,3.83-11.62,3.14-5.66,5.9-11.52,8.25-17.55,2.96-5.72,3.86-12.28,2.56-18.59l2.21-.7c1.58,4.91,1.58,10.19,0,15.11-2.22,7.17-5.3,14.03-9.18,20.45l-3.02,7.32-2.32,8.6c-.63,3.8-2.01,7.43-4.07,10.69-2.63,3.75-6.09,6.86-10.11,9.06-8.03,5.19-17.4,7.93-26.96,7.9l1.63-1.98c8.77-.72,17.21-3.68,24.52-8.6l.12.12Z"/>
        <path class="cls-10" d="m63.83,186.4c7.24-2.79,15.39-1.79,21.73,2.67l-2.09.93c-6.03-3.2-13.26-3.2-19.29,0-8.05,3.17-15.05,8.52-20.22,15.45-3.25,4.18-9.3,11.39-17.89,21.5-6.42,7.52-11.85,15.84-16.15,24.75-4.63,8.76-6.34,18.78-4.88,28.58,2.54,8.08,7.24,15.31,13.59,20.92l1.28,1.28v3.14c-6.46-4.25-11.8-9.99-15.57-16.73-6.28-12.32-5.71-27.02,1.51-38.81,4.48-8.52,9.89-16.51,16.15-23.82,8.6-9.99,15.45-18.24,20.57-24.75,5.23-6.96,12.5-12.12,20.8-14.76l.46-.35Z"/>
        <path class="cls-10" d="m26.07,317.01c.58.23,1.39-.12,2.56-.81,2.62-1.7,4.88-3.91,6.62-6.51,2.01-2.3,3.33-5.12,3.83-8.13.03-1.41-.73-2.71-1.98-3.37-.94-.85-2.05-1.48-3.25-1.86-2.58-1.03-5.35-1.51-8.13-1.39-2.79.12-4.65.7-5.46,1.86-.36,1.05-.36,2.2,0,3.25.21,2.4.64,4.77,1.28,7.09l2.67,6.97c.81,1.63,1.51,2.9,2.09,2.9h-.23Zm-.93-24.05c2.92-.25,5.85.15,8.6,1.16,2.16.8,4.14,2.02,5.81,3.6,1.47,1,2.38,2.64,2.44,4.42-1.04,4.94-3.75,9.37-7.67,12.55-4.18,4.07-6.62,6.16-8.37,5.34s-3.72-4.18-6.04-10.92c-2.32-6.74-2.67-11.27-.93-13.36,1.48-1.91,3.74-3.06,6.16-3.14v.35Z"/>
        <path class="cls-10" d="m76.03,194.42c2.94-3.77,7.02-6.5,11.62-7.79v1.98c-4.14,1.7-7.84,4.32-10.81,7.67-2.71,3.39-4.58,7.37-5.46,11.62-1.1,4.36-1.46,8.88-1.05,13.36.19,4.38,2.54,8.39,6.27,10.69,3.32,1.85,7.31,2.06,10.81.58,2.19-.8,4.26-1.9,6.16-3.25l1.16,1.51c-2.16,1.69-4.6,2.99-7.2,3.83-4.13,1.8-8.87,1.54-12.78-.7-3.16-2-5.32-5.26-5.93-8.95-1.4-5.57-1.4-11.4,0-16.96,1.27-5.05,3.74-9.71,7.2-13.59Z"/>
        <path class="cls-10" d="m103.45,178.39l.81,1.63h-2.56c-1.68.22-3.3.77-4.76,1.63-3.86,2.21-6.91,5.59-8.71,9.64-2.41,5.43-3.3,11.42-2.56,17.31.49,8.63,4.27,16.74,10.57,22.66,3.45,3.17,8.17,4.54,12.78,3.72v1.98c-3.49,2.32-8.25,1.28-14.06-3.37-3.18-2.66-5.79-5.94-7.67-9.64-2.31-4.61-3.73-9.62-4.18-14.76-.74-6.56.35-13.19,3.14-19.17,1.88-4.43,5.09-8.16,9.18-10.69,1.59-.89,3.32-1.52,5.11-1.86,1.74-.23,3.14-.12,3.14.58l-.23.35Z"/>
        <path class="cls-10" d="m24.91,26.17l4.76,2.09c3.14,1.16,6.37,2.09,9.64,2.79l-5-10.46c-1.46-2.78-2.37-5.82-2.67-8.95-.43-1.96.29-3.99,1.86-5.23,1.51-1.05,3.49-.7,5.93,1.16l23.24,17.08c5.85,3.94,12.03,7.36,18.48,10.23,4.41,1.76,8.72,3.78,12.9,6.04,4.08,1.53,7.11,5.03,8.02,9.3,1.45,7.42,4.33,14.48,8.48,20.8,3.2,5.73,7.75,10.6,13.25,14.18l-1.86,1.16c-5.26-3.4-9.7-7.93-13.01-13.25-4.37-5.95-7.53-12.7-9.3-19.87-.55-3.44-2.38-6.55-5.11-8.71-4.52-2.99-9.35-5.48-14.41-7.44-7.39-3.21-14.47-7.1-21.15-11.62-6.87-4.22-13.43-8.91-19.64-14.06-3.25-2.79-4.65-2.44-4.65.81,1.21,6.72,3.61,13.18,7.09,19.06,2.79.7,4.3,1.63,3.95,1.63h-4.88c-2.56-.36-5.09-.94-7.55-1.74l-6.86-2.67h-3.37c-.23,1.16.81,2.9,2.9,5.23,2.24,2.38,4.22,4.99,5.93,7.79,2.45,4.6,4.55,9.38,6.27,14.29l.93,8.02c-3.25-8.83-5.58-14.64-6.86-17.31-2.14-4.36-4.83-8.42-8.02-12.08-2.9-3.25-4.07-6.27-3.6-7.32s1.86-1.86,4.3-1.05v.12Z"/>
        <path class="cls-10" d="m70.45,45.69c17.45,8.12,30.86,22.96,37.18,41.13l-2.79-1.05c-3.34-8.54-8.18-16.41-14.29-23.24-5.99-6.3-13.08-11.46-20.92-15.22-14.06-6.62-24.05-7.55-28.12-4.18s-4.42,11.62-.93,23.24c2.96,12.68,8.62,24.58,16.62,34.86,9.05,8.39,20.02,14.41,31.95,17.55l-.81,2.21c-11.42-3.21-22.03-8.79-31.14-16.38-9.47-10.6-15.9-23.57-18.59-37.53-3.25-13.25-3.6-21.03,1.74-25.56s15.57-3.14,30.68,4.07l-.58.12Z"/>
        <path class="cls-10" d="m66.39,44.3l2.44,2.21c-2.82-1.44-6.14-1.57-9.06-.35-2.32,1.63-3.14,4.65-2.32,9.3,1.41,8.06,3.96,15.89,7.55,23.24,5.77,11.5,15.34,20.65,27.07,25.91v2.44c-11.87-4.53-21.8-13.03-28.12-24.05-4.93-8.54-8.09-17.98-9.3-27.77-.7-5.34.23-8.95,2.79-10.81,2.86-1.71,6.43-1.71,9.3,0l-.35-.12Z"/>
        <path class="cls-10" d="m301.68,79.16c4.18-2.56,7.2-2.67,8.6-.81s1.16,4.65-.81,8.25l-11.62,20.57c-2.96,5.89-4.81,12.27-5.46,18.82l-2.79.7c.21-7.26,2.38-14.32,6.27-20.45,5.58-9.64,9.64-16.38,10.69-19.87s1.16-5.69,0-6.16-2.9.12-5.34,1.98c-7.49,5.02-15.25,9.64-23.24,13.83l-12.43,6.74,4.65-4.53,31.02-19.06h.46Z"/>
        <path class="cls-10" d="m348.63,181.29c3.14,1.28,3.6,7.32,1.28,18.36-2.63,12.06-4.37,24.29-5.23,36.6,4.48,4.58,8.38,9.69,11.62,15.22,4.31,6.97,7.49,14.58,9.41,22.54l-3.14-1.74c-1.73-6.83-4.68-13.28-8.71-19.06-3.74-6.08-8.14-11.74-13.13-16.85-3.02-2.9-3.83-3.72-2.21-3.72l3.25,1.63c.17-5.18.71-10.35,1.63-15.45l2.9-18.48c1.74-10.46.81-15.8,0-16.03s-1.86.23-3.14,1.28c-15.11,12.78-24.28,18.36-26.14,17.43s-2.56-6.62-2.56-17.08l.23-15.22h1.98s0,11.62,0,11.62c-.19,3.87-.19,7.75,0,11.62.35,3.49.46,5.58,1.39,5.81s4.53-1.51,8.71-4.88c4.18-3.37,9.99-7.55,15.8-12.55,1.3-1.4,3.26-1.98,5.11-1.51l.93.46Z"/>
        <path class="cls-10" d="m297.5,190.01c2.21,5.66,5.27,10.94,9.06,15.69l13.48,17.2c2.67,3.37,5.35,6.86,7.79,10.34l6.74,9.88h-3.25c-2.79-4.05-5.82-7.93-9.06-11.62l-10.11-12.55-10.81-14.18c-2.71-4.12-4.68-8.68-5.81-13.48l1.98-.58v-.7Z"/>
        <path class="cls-10" d="m131.92,267.97c1.81,4.12,3.1,8.46,3.83,12.9.53,1.98.53,4.06,0,6.04l-1.86,6.74c-2.05,7.13-2.72,14.58-1.98,21.96,2.32,12.41,7.71,24.03,15.69,33.81,5.96,7.11,13.32,12.92,21.61,17.08,10.67,5.94,21.92,10.76,33.58,14.41,24.66,8.71,51.1,11.11,76.92,6.97l.81,3.14c-11.5,2.05-23.22,2.56-34.86,1.51-13.52-1.21-26.9-3.66-39.97-7.32-30.52-8.91-51.2-21.11-62.05-36.6-7.36-9.98-12.22-21.57-14.18-33.81-.3-7.06.56-14.13,2.56-20.92l1.86-6.86c.37-1.96.37-3.97,0-5.93-1.14-5.26-2.9-10.37-5.23-15.22-2.56-4.69-5.4-9.23-8.48-13.59l3.25,2.67,3.25,2.67c2.27,3.27,4.25,6.73,5.93,10.34h-.7Z"/>
        <path class="cls-10" d="m183.4,375.57c19.21,3.75,39,3.48,58.1-.81,7.42-1.43,14.72-3.41,21.84-5.93,3.97-1.08,7.68-2.94,10.92-5.46l1.28,2.32c-3.13,2.85-6.86,4.95-10.92,6.16-6.71,2.27-13.59,4.02-20.57,5.23-17.65,3.91-35.92,4.19-53.68.81l-6.74-2.79-.23.46Z"/>
        <path class="cls-10" d="m137.03,298.07c4.36-5.91,10.11-10.65,16.73-13.83,5.98-3.07,12.41-5.15,19.06-6.16,14.5.64,28.65,4.62,41.37,11.62,12.32,5.23,19.87,8.48,23.24,9.53,7.49,1.88,15.42.39,21.73-4.07,4.39-2.14,8.18-5.33,11.04-9.3l.7,1.98c-3.18,4.96-7.64,8.97-12.9,11.62-5.82,4.16-13.11,5.67-20.1,4.18-3.64-1.19-7.17-2.67-10.57-4.42l-12.43-5.81c-7.58-3.4-15.34-6.39-23.24-8.95-5.85-2.09-12.03-3.16-18.24-3.14-7.1.75-13.98,2.92-20.22,6.39-6.26,3.03-11.63,7.63-15.57,13.36l-1.51,1.98c-.93.23-.93-.35-.93-1.98v-6.74c.06-2.54-.17-5.07-.7-7.55l1.98-6.62c.46,2.8.7,5.64.7,8.48v9.18s-.12.23-.12.23Z"/>
        <path class="cls-10" d="m272.98,233.93v.81c1,3.4,2.2,6.74,3.6,9.99,2.09,4.18,4.18,6.62,6.39,7.32l-.58,1.86c-3.48-1.75-6.35-4.5-8.25-7.9-1.38-2.79-2.47-5.71-3.25-8.71l1.74-3.37h.35Z"/>
        <path class="cls-10" d="m157.83,207.55c2.39.93,4.63,2.22,6.62,3.83-.51.59-.83,1.32-.93,2.09-1.43-1.11-3.04-1.98-4.76-2.56l-4.65-1.74s3.72-1.63,3.72-1.63Z"/>
        <path class="cls-10" d="m111.94,195.93c-4.1,5.22-6.24,11.72-6.04,18.36.19,8.12,2.3,16.09,6.16,23.24,3.41,6.91,8.53,12.83,14.87,17.2,4.11,2.96,8.71,5.16,13.59,6.51,6.09.18,12.13-1.06,17.66-3.6,5.94-1.77,11.64-4.27,16.96-7.44v-.81s1.63.93,1.63.93c-.13.56-.46,1.06-.93,1.39-5.68,3.86-11.8,7.02-18.24,9.41-5.54,2.77-11.72,4.01-17.89,3.6-5.54-1.55-10.74-4.11-15.34-7.55-13.49-9.87-21.47-25.58-21.5-42.3-.39-7.43,2.2-14.71,7.2-20.22l1.39,1.28h.46Z"/>
        <path class="cls-10" d="m224.99,172.11c-7.37,6.31-15.35,11.88-23.82,16.62l-22.19,12.67c-8.13,4.88-12.43,8.25-13.01,10.11-.82,6.49.14,13.08,2.79,19.06,1.83,6.19,4.37,12.16,7.55,17.78,8.51,4.89,17.99,7.87,27.77,8.71,10.67,2.74,21.64,4.11,32.65,4.07,6.74-1.97,12.91-5.51,18.01-10.34,5.59-4.16,10.53-9.13,14.64-14.76,2.45-5.07,3.68-10.64,3.6-16.27.67-5.95-.13-11.97-2.32-17.55h2.79c2.31,5.91,3.27,12.26,2.79,18.59.41,6.36-1.04,12.7-4.18,18.24-4.52,5.16-9.5,9.91-14.87,14.18-5.61,5.27-12.31,9.24-19.64,11.62-11.41.12-22.79-1.33-33.81-4.3-17.78-3.72-27.54-6.97-29.4-9.99-3.28-5.72-5.89-11.81-7.79-18.13-2.9-6.69-3.87-14.05-2.79-21.26.81-2.32,4.42-5.58,10.81-9.99,3.95-2.56,11.04-6.86,21.26-12.78l16.03-9.41c4.08-2.48,7.97-5.28,11.62-8.37l1.28,1.51h.23Z"/>
        <path class="cls-10" d="m291.11,244.39c6.94-2.81,14.27-4.57,21.73-5.23,11.13-.82,22.19,2.4,31.14,9.06,12.97,9.16,23.02,21.87,28.93,36.6,2.19,5.04,3.83,10.3,4.88,15.69.56,2.68.56,5.45,0,8.13l-2.32-1.05c.24-2.93-.2-5.87-1.28-8.6-1.68-5.53-3.78-10.93-6.27-16.15-5.32-13.02-14.17-24.29-25.56-32.53-8.71-5.79-19.08-8.56-29.51-7.9-7.2.89-14.21,2.89-20.8,5.93h-1.28c-4.01,1.78-7.35,4.79-9.53,8.6-3.27,5.33-5.69,11.13-7.2,17.2-3.06,11.36-4.5,23.1-4.3,34.86-.64,8.66,1.3,17.31,5.58,24.87l-1.05,3.14c-5.73-7.19-8.55-16.27-7.9-25.45-.46-13.15,1.19-26.29,4.88-38.93,1.58-5.86,3.76-11.55,6.51-16.96,2.4-5.11,6.51-9.22,11.62-11.62h1.28s.46.35.46.35Z"/>
        <path class="cls-10" d="m331.89,448.66c10.31,2.51,21.07,2.51,31.37,0,10.48-2.24,19.73-8.33,25.91-17.08,2.41-3.12,4.29-6.61,5.58-10.34.91-2.2,1.23-4.61.93-6.97l3.25,1.05c.37,2.69-.03,5.43-1.16,7.9-1.44,4.15-3.47,8.06-6.04,11.62-6.33,9.3-15.97,15.83-26.96,18.24-11.22,2.71-22.96,2.43-34.05-.81-9.16-1.86-16.93-7.87-21.03-16.27l3.14-.7c3.87,7.03,10.7,11.94,18.59,13.36h.46Z"/>
        <path class="cls-10" d="m387.9,320.84c4.19,9.85,7.27,20.14,9.18,30.68,1.66,10.2,5,20.05,9.88,29.17l6.97,6.62c3.33,2.78,6.37,5.89,9.06,9.3,2.5,2.74,3.18,6.69,1.74,10.11-2.23,4.41-5.82,7.99-10.23,10.23-3.51,2.08-7.54,3.13-11.62,3.02l-3.37-.81-3.95-1.39c-12.97-6.01-27.21-8.76-41.48-8.02-13.51,1.67-25.78,8.7-34.05,19.52l-3.95,4.65c-1.2,1.42-2.66,2.61-4.3,3.49-5.81,2.1-11.95,3.12-18.13,3.02-5.36.89-10.85.03-15.69-2.44-2.31-2-3.51-4.98-3.25-8.02.63-6,2.03-11.9,4.18-17.55l.7-1.86c.74-4.38.74-8.86,0-13.25-.7-6.6-1.75-13.15-3.14-19.64l-4.07-22.08c-1.02-5.83-1.22-11.78-.58-17.66,1.84-9.2,5.82-17.84,11.62-25.21l1.39,3.83c-2.82,3.75-5.05,7.9-6.62,12.32-1.15,3.8-2,7.69-2.56,11.62-.64,5.77-.41,11.61.7,17.31l4.07,21.5,3.95,18.82c.78,3.83.78,7.79,0,11.62l-.7,1.98c-2.79,8.25-4.76,13.36-4.76,15.34-.65,2.17-.07,4.53,1.51,6.16,4.3,1.93,9.06,2.58,13.71,1.86,5.62.06,11.21-.88,16.5-2.79l3.02-2.32,3.02-3.37c3.49-4.03,7.38-7.69,11.62-10.92,4.94-3.92,10.52-6.95,16.5-8.95,10.19-2.51,20.84-2.51,31.02,0,7.33,2.09,14.48,4.77,21.38,8.02l4.42,1.63c3.32.47,6.7-.14,9.64-1.74,3.95-1.86,7.17-4.96,9.18-8.83,1.01-2.69.37-5.72-1.63-7.79-2.48-2.86-5.2-5.5-8.13-7.9-2.41-2.07-4.7-4.28-6.86-6.62-4.57-9.34-7.82-19.28-9.64-29.51-2.14-10.67-5.09-21.15-8.83-31.37-2.92-4.99-6.61-9.5-10.92-13.36-4.07-4.25-8.5-8.14-13.25-11.62-.93-1.77-1.98-3.48-3.14-5.11l1.74,1.16c5.55,3.21,10.67,7.11,15.22,11.62,5.02,4.42,9.36,9.55,12.9,15.22v.35Z"/>
        <path class="cls-10" d="m313.3,265.18c-5.37.83-10.58,2.48-15.45,4.88-3.48,2.84-6.07,6.64-7.44,10.92-3.32,8.93-5.13,18.36-5.34,27.89-.1,13.48,3.95,26.67,11.62,37.76,2.86,4.65,6.21,8.97,9.99,12.9,2.2,2.57,4.94,4.64,8.02,6.04,5.76,1.42,11.78,1.42,17.55,0,7.1-1.09,13.84-3.88,19.64-8.13,5.82-6.99,9.02-15.78,9.06-24.87,1.64-9.15,1.64-18.51,0-27.65-2.82-7.88-7.08-15.17-12.55-21.5-4.58-6.54-9.97-12.47-16.03-17.66-5.77-2.38-12.21-2.59-18.13-.58h-.93Zm20.57-2.09c6.36,5.29,12.09,11.3,17.08,17.89,6.12,6.76,10.86,14.66,13.94,23.24,1.72,9.53,1.72,19.29,0,28.82-.15,10.02-3.85,19.66-10.46,27.19-5.9,4.43-12.74,7.46-19.99,8.83-6.4,1.67-13.12,1.67-19.52,0-3.34-1.52-6.34-3.69-8.83-6.39-4.39-3.89-8.29-8.3-11.62-13.13-8.45-11.32-12.86-25.15-12.55-39.27.16-11.51,2.69-22.86,7.44-33.35,1.51-3.79,4-7.12,7.2-9.64,5.13-2.56,10.61-4.32,16.27-5.23,6.9-2.46,14.49-2.12,21.15.93l-.12.12Z"/>
        <path class="cls-10" d="m288.9,128.89l-2.67.93c-3.65-4.37-8.95-7.02-14.64-7.32-7.58-1.52-15.45-.15-22.08,3.83-7.8,5.1-14.03,12.26-18.01,20.68-4.95,8.19-6.53,17.98-4.42,27.31,2.33,8.76,7.68,16.41,15.11,21.61,7.84,6,17.79,8.52,27.54,6.97,8.63-1.12,16.84-4.44,23.82-9.64,5.88-4.84,9.97-11.5,11.62-18.94h2.44c-2.02,7.76-6.41,14.71-12.55,19.87-7.01,6.24-15.7,10.28-24.98,11.62-10.06,1.38-20.27-1.2-28.47-7.2-8.45-5.41-14.71-13.65-17.66-23.24-2.57-9.97-1.07-20.54,4.18-29.4,4.22-8.9,10.87-16.43,19.17-21.73,7.35-4.44,16.08-6.01,24.52-4.42,6.66.36,12.8,3.68,16.73,9.06h.35Z"/>
        <path class="cls-10" d="m286.69,126.91c7.72-3.36,15.91-5.51,24.28-6.39l-1.51,3.25c-8.03,1-15.86,3.19-23.24,6.51-6.68,2.29-12.96,5.62-18.59,9.88-3.27,3.38-5.17,7.85-5.34,12.55-.56,5.25.33,10.55,2.56,15.34,1.74,3.96,4.61,7.31,8.25,9.64,3.52,2,7.61,2.77,11.62,2.21,7.32-1.49,14.4-3.99,21.03-7.44,8.83-4.42,13.83-6.51,13.83-6.51l2.67,2.44c-5.2,1.91-10.28,4.12-15.22,6.62-6.97,3.4-14.35,5.86-21.96,7.32-4.65.73-9.41-.18-13.48-2.56-4.16-2.46-7.45-6.16-9.41-10.57-2.54-5.48-3.43-11.57-2.56-17.55.59-5.35,2.96-10.34,6.74-14.18,6.11-4.68,12.99-8.26,20.33-10.57Z"/>
        <path class="cls-10" d="m331.31,86.71c-3.14,1.05-7.09,9.06-11.62,24.28l-2.79.81c.83-5.76,2.44-11.39,4.76-16.73,1.3-4.69,4.17-8.79,8.13-11.62,11.15-1.98,22.63-1.1,33.35,2.56,18.93,4.19,37.03,11.49,53.57,21.61l-8.13-1.16c-15.47-8.32-32.06-14.35-49.27-17.89-9.13-2.41-18.64-3.04-28-1.86Z"/>
        <path class="cls-10" d="m481.9,183.96c3.01,5.74,5.16,11.88,6.39,18.24,1.44,5.05,1.44,10.4,0,15.45-.58.93-2.21,1.05-5.11,0-4.06-1.73-7.94-3.84-11.62-6.27-3.24-1.97-6.62-3.72-10.11-5.23-3.21-1.38-6.51-2.54-9.88-3.49l-.7-3.02c4.01.83,7.91,2.12,11.62,3.83,2.56,1.05,5.93,2.79,10.11,5l10.69,5.58c1.63.58,2.56-.23,2.56-2.44-.05-4.35-.64-8.69-1.74-12.9-1.07-4.64-2.51-9.18-4.3-13.59l1.98-1.63.12.46Z"/>
        <path class="cls-10" d="m462.73,198.72c5.71-1.73,10.59-5.49,13.71-10.57,1.45-2.03,2.58-4.26,3.37-6.62l1.74.58,1.86.58c-.97,2.52-2.26,4.9-3.83,7.09-3.95,6.09-9.98,10.55-16.96,12.55-4.07,1.17-8.32,1.6-12.55,1.28v-4.18s12.43-.7,12.43-.7h.23Z"/>
        <path class="cls-10" d="m455.06,120.99c6.72,3.83,12.87,8.61,18.24,14.18,4.56,4.32,7.82,9.84,9.41,15.92l-5-3.49c-6.53-10.38-15.88-18.68-26.96-23.94-13.46-7.4-27.95-12.73-42.99-15.8-15.46-3.62-31.3-5.29-47.18-5-13.02-.24-25.92,2.58-37.65,8.25-9.28,3.95-15.22,13.15-14.99,23.24-.07,8.81,2.43,17.46,7.2,24.87,3.06,5.19,8.09,8.92,13.94,10.34,7.31,1.52,14.49,3.58,21.5,6.16,7.09,2.3,13.91,5.38,20.33,9.18,6.43,4.47,12.11,9.92,16.85,16.15l12.43,15.45c3.02,3.2,6.32,6.12,9.88,8.71,3.91,2.33,8.69,2.67,12.9.93l3.95,3.95c-5.85,1.78-12.14,1.45-17.78-.93-3.88-2.01-7.38-4.68-10.34-7.9-2.21-1.74-6.39-7.67-13.83-17.43-3.88-5.83-8.53-11.11-13.83-15.69-6.67-3.88-13.72-7.07-21.03-9.53-7.28-2.66-14.68-4.95-22.19-6.86-6.24-1.65-11.64-5.59-15.11-11.04-5-7.73-7.7-16.71-7.79-25.91-.44-11.06,5.78-21.32,15.8-26.03,12.42-6.14,26.11-9.29,39.97-9.18,16.69-.53,33.37,1.15,49.62,5,15.6,3.21,30.64,8.73,44.62,16.38Z"/>
        <path class="cls-10" d="m465.64,163.86c-.64,4.63.71,9.32,3.72,12.9,1.63,1.04,3.39,1.86,5.23,2.44l8.02,2.44,10.57,3.49c3.72,0,5.93.58,6.86,0v-.7c-.49-8.08-3.73-15.75-9.18-21.73-4.46-6.5-10.44-11.81-17.43-15.45-1.05-.46-2.32,0-3.49,1.51-1.58,1.77-2.73,3.87-3.37,6.16-.86,2.83-1.29,5.76-1.28,8.71l.35.23Zm-2.09-8.13c.67-3.51,2.23-6.79,4.53-9.53,2.09-2.32,4.07-3.14,5.93-2.32,7.53,3.87,14.03,9.48,18.94,16.38,6.28,7.14,10,16.18,10.57,25.68.19.88-.07,1.8-.7,2.44h-7.2s-12.78-4.18-12.78-4.18c-5.19-1.56-10.21-3.62-14.99-6.16-2.23-2.21-3.63-5.13-3.95-8.25-.99-4.48-.99-9.12,0-13.59l-.35-.46Z"/>
        <path class="cls-10" d="m447.51,216.96l-1.86-5.23c1.95-5.99,2.47-12.36,1.51-18.59-.51-4.6-1.89-9.05-4.07-13.13-1.28-2.79-1.98-4.3-1.28-4.3.62,0,1.55.81,2.79,2.44,3.11,4.11,5.22,8.88,6.16,13.94,1.48,8.43.34,17.1-3.25,24.87Z"/>
        <path class="cls-10" d="m422.64,203.83c-2.05,1.45-3.83,3.26-5.23,5.34-1.8,2.67-1.8,6.16,0,8.83,3.78,5.35,8.91,9.6,14.87,12.32,4.83,2.96,10.28,4.79,15.92,5.34h1.51c.13-.46.13-.94,0-1.39-.56-6.06-1.85-12.03-3.83-17.78-1.28-5.57-3.44-10.91-6.39-15.8-1.28-1.28-3.6-1.86-6.97-1.28-3.57.75-6.94,2.26-9.88,4.42Zm19.64-4.42c3.13,6.05,5.44,12.5,6.86,19.17,1.95,6.2,3.28,12.59,3.95,19.06,0,1.28-.81,2.32-.81,2.32h-1.74c-7.62-.97-14.94-3.55-21.5-7.55-6.31-3.29-11.63-8.18-15.45-14.18-1.62-2.6-1.62-5.89,0-8.48,2.02-3.31,4.71-6.16,7.9-8.37,3.41-2.51,7.41-4.11,11.62-4.65,3.46-1.03,7.21,0,9.64,2.67h-.46Z"/>
        <path class="cls-10" d="m236.61,134.12c.81,1.86.81,3.49.81,3.49h-3.83c-8.14-.71-16.35-.08-24.28,1.86,5.64,3.75,10.33,8.77,13.71,14.64,1.39,2.21,1.63,3.25,1.39,3.95s-1.74.7-4.3.7h-10.92c-2.14.3-4.15,1.18-5.81,2.56-2.16,2.3-4.1,4.79-5.81,7.44-7.34,11.63-16.13,22.29-26.14,31.72-17.04,13.4-32.53,16.77-46.48,10.11-6.07-2.83-11.19-7.35-14.76-13.01-3.85-5.78-6.28-12.39-7.09-19.29l2.67,1.51c1.04,5.95,3.34,11.62,6.74,16.62,3.4,5.08,8.15,9.1,13.71,11.62,13.09,6.04,27.85,2.56,44.27-10.46,5.37-4.93,10.24-10.37,14.52-16.27,3.68-4.59,7.13-9.36,10.34-14.29l5.11-7.2c2.34-1.53,5.01-2.49,7.79-2.79l7.44-.81h4.3c-1.64-3.14-3.67-6.07-6.04-8.71-2.33-3.01-5.16-5.61-8.37-7.67-2.79-1.28-2.79-2.32-2.79-2.32h3.49c4.45-1.24,9-2.09,13.59-2.56,4.56-.47,9.15-.47,13.71,0,.77,0-.97-2.9-5.23-8.71-2.48-3.68-5.32-7.11-8.48-10.23h3.14c2.85,2.29,5.39,4.95,7.55,7.9,2.32,2.93,4.34,6.08,6.04,9.41v.81Z"/>
        <path class="cls-10" d="m194.78,150.15c-2.96-1.85-6.39-2.82-9.88-2.79-1.16.23-2.79,2.9-4.88,7.9l-3.49,9.88-1.51-1.98,4.18-11.62c1.86-4.53,3.6-7.44,5.11-7.44,1.62-.08,3.22.28,4.65,1.05,2.22.91,4.33,2.08,6.27,3.49,1.39.7,1.39,1.63,1.39,1.63h-1.51s-.35-.12-.35-.12Z"/>
        <polygon class="cls-10" points="170.27 175.6 171.2 175.71 172.59 175.6 168.99 182.57 168.41 181.29 167.83 179.9 170.27 175.6 170.27 175.6"/>
        <path class="cls-10" d="m107.75,180.59l3.02,5.81c-.23.81.23,1.86,1.28,1.86,1.57,2.54,3.48,4.85,5.69,6.86l1.16,1.51,2.09.93c5.07,2.86,10.8,4.34,16.62,4.3,8.26.13,16.12-3.51,21.38-9.88,1.12.18,2.25-.21,3.02-1.05.83-.96,1.13-2.26.81-3.49l.93-1.16h1.98c-5.87,10.2-16.48,16.76-28.24,17.43-7.82.11-15.37-2.85-21.03-8.25-4.31-4.13-7.65-9.17-9.76-14.76h1.05v-.12Z"/>
        <path class="cls-10" d="m111.47,183.85v1.74s0,1.51,0,1.51c.25.52.83.81,1.39.7.34.14.71.14,1.05,0v1.39s-.93,0-.93,0c-.92,0-1.8-.38-2.44-1.05-.53-.61-.78-1.41-.7-2.21v-1.63s1.16,0,1.16,0l.46-.46Z"/>
        <path class="cls-10" d="m114.49,185.71h.58c-.34,1.21-.53,2.46-.58,3.72v1.51c.4.49.99.79,1.63.81.31.06.62.06.93,0l.7-.93-.93-2.44-1.51-2.56h1.63c.78,1.28,1.4,2.64,1.86,4.07v1.74l-.7,1.05c-.44.32-.96.52-1.51.58h-1.63s-1.16-1.16-1.16-1.16c-.31-.94-.31-1.96,0-2.9v-3.25h0l.7-.23Z"/>
        <path class="cls-10" d="m117.86,191.75v3.02s0,1.39,0,1.39l1.05.58h1.28s1.28,0,1.28,0l.81-.7c-.34-1.34-.93-2.6-1.74-3.72-1.16-2.21-1.98-2.9-1.98-2.9v2.32s-.7,0-.7,0Zm7.09,5c-.09.36-.29.69-.58.93-.69.67-1.6,1.08-2.56,1.16-1.16.13-2.3-.36-3.02-1.28-.52-.79-.77-1.73-.7-2.67v-2.79s.81-3.83.81-3.83v-.7s.58,0,.58,0l1.98,3.02,2.44,4.53c.15.37.15.79,0,1.16l1.05.46Z"/>
        <path class="cls-10" d="m157.14,45.46c-3.31,11.46-7.18,22.74-11.62,33.81-1.98,4.53-3.14,6.62-3.6,6.16s0-2.44,1.28-5.69c-5.62.68-11.11,2.2-16.27,4.53-4.48,1.83-8.73,4.17-12.67,6.97l-2.56-1.51c5.23-3.43,10.85-6.24,16.73-8.37,5.11-2.24,10.51-3.77,16.03-4.53,1.86-4.42,4.07-10.57,6.74-18.71l4.65-14.52c1.51-5,3.37-7.67,6.51-8.02s5.93,2.79,8.37,9.18c1.16,3.02,2.9,8.25,5.23,15.8l3.37,9.88c.77,2.33,1.82,4.55,3.14,6.62l-1.63,1.16c-2.75-4.89-4.93-10.07-6.51-15.45-2.9-8.95-4.88-14.52-5.81-16.73-1.86-4.3-3.72-6.74-5.58-6.97s-3.6,1.86-5.11,6.39h-.7Z"/>
        <path class="cls-10" d="m87.54,130.28c-.63,4.44-.07,8.97,1.63,13.13v2.44c.14.61.14,1.25,0,1.86-2.74-5.67-3.94-11.96-3.49-18.24.89-7.03,3.66-13.69,8.02-19.29.58.12.58.46.58,1.28-.22.68-.22,1.41,0,2.09-3.47,4.95-5.59,10.72-6.16,16.73h-.58Z"/>
        <path class="cls-10" d="m88.81,138.3c.81-3.72,1.28-5.46,2.09-5.11s.81,2.32,0,6.27c-1.97,7.62-1.97,15.62,0,23.24,3.89,6.83,9.24,12.7,15.69,17.2,2.29,2.42,5.39,3.91,8.71,4.18,3.15-.69,5.99-2.36,8.13-4.76,4.55-4.32,9.67-7.99,15.22-10.92,8.92-4.12,18.46-6.71,28.24-7.67v1.98c-10.11,1.15-20.01,3.73-29.4,7.67-4.63,2.69-8.92,5.93-12.78,9.64-2.43,2.65-5.46,4.68-8.83,5.93-2.67.46-6.27-1.16-10.69-5-7.2-5.08-13.13-11.76-17.31-19.52-1.44-7.76-.88-15.76,1.63-23.24l-.7.12Z"/>
        <path class="cls-10" d="m171.54,159.1c1.77-.17,3.44-.91,4.76-2.09,1.99-1.56,3.55-3.6,4.53-5.93l-2.09,4.18c-.39,1.59-1.29,3.02-2.56,4.07-.97,1.05-2.29,1.71-3.72,1.86l-.93-1.05v-.93s0-.12,0-.12Z"/>
        <path class="cls-10" d="m80.45,64.4l25.33,19.64c7.05,5.59,14.88,10.13,23.24,13.48,2.32.7,3.02,1.63,3.02,1.63h-3.37c-9.61-3.21-18.52-8.22-26.26-14.76-8.25-5.81-16.5-12.08-24.52-18.82-2.67-2.21-4.53-2.79-5.69-1.51s-.81,3.49.93,6.62c4.65,8.25,9.53,16.96,14.52,26.26,6.94,11.75,12.85,24.07,17.66,36.83.36,1.65.36,3.35,0,5-.35,1.16-1.28-.12-2.56-3.72-3.28-9.23-7.16-18.24-11.62-26.96l-20.22-37.07c-1.86-3.72-1.98-6.51,0-8.6s5-1.51,8.95,1.63l.58.35Z"/>
        <path class="cls-10" d="m120.65,172.81l-1.16,1.51-.93,1.74-.7.81c0,.7,0,0,0,0l.58-2.67,1.28-1.39c.46,0,1.16-.12,1.16,0v.81s-.23-.81-.23-.81Z"/>
        <path class="cls-10" d="m106.82,173.04s-.23,0,0,0h.93s.93,1.05.93,1.05v1.98h0v-.81s-1.39-2.44-1.39-2.44l-.46.23Z"/>
        <path class="cls-10" d="m134.25,127.38c-.31,2.62-.31,5.28,0,7.9-.07,2.89.52,5.75,1.74,8.37,0,.7.12.7,0,1.51s-.46.7-1.16,0c-2.34-2.65-3.51-6.12-3.25-9.64.11-2.47.46-4.92,1.05-7.32.23-1.05.81-1.74.81-1.86,0-.12,0,.35,0,1.51l.81-.46Z"/>
        <path class="cls-10" d="m150.63,130.05c-3.49,4.65-6.62,9.06-9.3,13.48-1.63,2.67-2.67,3.72-2.9,3.49s.35-1.86,1.86-4.65c2.86-5.12,6.17-9.98,9.88-14.52,3.12-4.01,6.63-7.7,10.46-11.04,2.67-2.44,4.07-3.02,4.07-2.44,0,.58-.93,1.86-2.9,3.6-3.94,3.54-7.56,7.43-10.81,11.62l-.35.46Z"/>
        <path class="cls-10" d="m168.17,127.38c-1.24-4.13-3.76-7.75-7.2-10.34.3.11.63.11.93,0l.81-.58c1.61,1.4,2.99,3.04,4.07,4.88,1.32,2.02,2.26,4.27,2.79,6.62,0,1.39.35,1.98,0,1.98s-.7-.7-1.28-2.09l-.12-.46Z"/>
        <path class="cls-10" d="m165.5,133.42c-3.14,2.38-6.53,4.4-10.11,6.04-5.05,2.48-10.35,4.43-15.8,5.81l.58-1.28c4.72-1.36,9.31-3.15,13.71-5.34,4.02-1.81,7.9-3.91,11.62-6.27,1.39-.81,2.21-1.16,2.21-.81s-.7.93-2.21,1.98v-.12Z"/>
        <path class="cls-10" d="m150.16,130.98c.42,1.42,1.27,2.68,2.44,3.6,1.06.83,2.37,1.28,3.72,1.28,1.85-.03,3.6-.88,4.76-2.32,1.3-1.61,2-3.62,1.98-5.69-.02-1.54-.5-3.04-1.39-4.3-.72-1.19-1.72-2.18-2.9-2.9l.7-.93c1.38.68,2.54,1.73,3.37,3.02.95,1.37,1.51,2.98,1.63,4.65.39,2.54-.43,5.12-2.21,6.97-1.48,1.63-3.61,2.53-5.81,2.44-1.61.1-3.21-.35-4.53-1.28-1.42-1.02-2.44-2.5-2.9-4.18h.58s.58-.35.58-.35Z"/>
        <path class="cls-10" d="m200.71,50.46c1.18-3.58,2.78-7.02,4.76-10.23,1.93-2.02,4.32-3.54,6.97-4.42,5.81-1.98,9.64-3.37,11.62-4.3,6.62-3.19,12.61-7.56,17.66-12.9,3.39-3.79,6.06-8.16,7.9-12.9,1.86-4.42,3.72-6.27,5.46-5.58s3.14,2.67,3.14,6.16c.54,5.33.54,10.7,0,16.03l15.8-4.18,18.48-5.46c8.25-3.14,13.59-2.67,15.22,0,1.63,2.67.35,5.58-3.83,8.95-3.59,2.43-6.74,5.45-9.3,8.95-2.38,4.48-3.92,9.37-4.53,14.41-.52,3.22-.12,6.53,1.16,9.53.91,1.39,1.43,2.99,1.51,4.65-.46,2.16-1.87,3.99-3.83,5-2.91,1.99-5.63,4.25-8.13,6.74v-2.32c.23-1.63,3.6-4.76,5.69-6.16s3.14-2.79,3.14-4.3c0-1.31-.24-2.61-.7-3.83-1.14-3.79-1.14-7.83,0-11.62.92-5.02,2.86-9.81,5.69-14.06,2.11-2.62,4.57-4.92,7.32-6.86,4.18-3.25,5.58-5.34,4.18-6.86-1.39-1.51-5.93-1.16-13.01,1.16-3.83,1.16-10.34,2.9-19.64,5.23l-14.06,3.37c-.23,1.98-.81,3.14-1.51,3.6s-.7-.81-.7-3.14,0-5.11,0-8.37c-.06-2.84-.3-5.67-.7-8.48-.35-2.56-.93-3.49-1.74-3.37s-1.63,1.05-2.44,2.67c-2.5,4.49-5.59,8.64-9.18,12.32-4.82,5.28-10.52,9.69-16.85,13.01-3.78,2.01-7.66,3.84-11.62,5.46-2.4.87-4.59,2.26-6.39,4.07-2.02,3.14-3.58,6.54-4.65,10.11-3.02,7.54-7.66,14.32-13.59,19.87-4.94,5.32-11.13,9.32-18.01,11.62h-2.09c-.35-.23,0-1.16,1.05-1.16,6.67-3.49,12.82-7.91,18.24-13.13,5.14-5.55,9.06-12.13,11.5-19.29Z"/>
        <path class="cls-10" d="m208.61,61.15c-8.12,8.09-14.91,17.43-20.1,27.65,8.61,2.52,16.27,7.58,21.96,14.52,2.33,3.18,4.14,6.71,5.34,10.46,2.87,1.18,5.99,1.58,9.06,1.16,9.97-1.11,19.72-3.69,28.93-7.67,11.37-3.99,20.28-12.99,24.17-24.4,3.07-8.72,3.07-18.23,0-26.96-2.53-6.9-8.17-12.2-15.22-14.29-9.49-2.89-19.67-2.52-28.93,1.05-9.63,4.11-18.15,10.44-24.87,18.48h-.35Zm-4.18,1.28c8.01-10.09,18.56-17.87,30.56-22.54,9.33-3.47,19.56-3.71,29.05-.7,7.87,2.14,14.3,7.81,17.43,15.34,3.5,9.25,3.5,19.45,0,28.7-3.85,12.18-13.18,21.86-25.21,26.14-12.23,6.3-26.13,8.62-39.74,6.62.2.48.2,1.03,0,1.51-.23.23-.93-.58-1.98-2.67-1.86-4.09-4.12-7.98-6.74-11.62-5.15-5.99-11.81-10.48-19.29-13.01-.7,1.51-1.16,1.63-1.86,1.51s-.7-1.05,0-2.79c4.45-9.74,10.45-18.69,17.78-26.49Z"/>
        <path class="cls-10" d="m246.37,52.31c6.31,2.01,11.39,6.74,13.83,12.9,1.42,3.71,1.7,7.75.81,11.62-1.19,4.75-3.33,9.22-6.27,13.13-4.76,6.52-11.23,11.59-18.71,14.64-7.47,3.53-15.69,5.16-23.94,4.76v-1.51c7.73.5,15.47-.89,22.54-4.07,6.88-3.12,12.82-8.01,17.2-14.18,2.73-3.8,4.66-8.1,5.69-12.67,1.01-3.85.76-7.92-.7-11.62-2.46-5.57-7.21-9.8-13.01-11.62-5.39-1.59-11.08-1.91-16.62-.93-5.82.76-11.45,2.57-16.62,5.34l1.63-2.67c5.26-2.8,11.03-4.5,16.96-5,5.69-.77,11.48-.3,16.96,1.39l.23.46Z"/>
        <path class="cls-10" d="m147.96,200.7l1.16-1.05c.11-.5.11-1.01,0-1.51-.64-1.31-1.46-2.53-2.44-3.6-1.63-2.44-2.56-2.44-2.56-2.44v3.72c-.18,1.35-.18,2.72,0,4.07.12.93.58.93,1.39.93l2.44-.12Zm-4.42-10.92l4.53,5.23c.79.91,1.39,1.98,1.74,3.14.24.64.24,1.34,0,1.98-.46.6-1.06,1.08-1.74,1.39h-3.83c-.99-.73-1.56-1.91-1.51-3.14v-7.2c0-1.16,0-1.74,0-1.74l1.16.7-.35-.35Z"/>
        <path class="cls-10" d="m153.77,196.51c1.17-.41,1.93-1.55,1.86-2.79h0c-.81-1.42-1.87-2.68-3.14-3.72-1.98-1.98-3.14-2.56-3.14-2.56.06,2.95.65,5.86,1.74,8.6.7.69,1.74.92,2.67.58v-.12Zm.93,1.51c-2.67,1.16-4.42.35-5.34-2.56-.53-2.29-.84-4.62-.93-6.97v-2.56c.23-.7.81,0,1.74,0l3.14,3.6c1.86,1.74,3.02,3.02,3.02,3.83.4.81.4,1.75,0,2.56-.52.72-1.19,1.32-1.98,1.74l.35.35Z"/>
        <path class="cls-10" d="m156.09,182.1c-.16,1.35-.16,2.72,0,4.07.13,1.59.48,3.15,1.05,4.65.93.93,1.74.93,2.56.93.66-.27,1.19-.76,1.51-1.39.42-.66.62-1.43.58-2.21,0-.58-1.16-1.74-3.02-3.6-1.86-1.86-3.02-2.44-3.02-2.44h.35Zm-.7-1.63l4.3,3.37,2.09,2.09c.92.51,1.62,1.33,1.98,2.32.1.98-.14,1.97-.7,2.79-.46.91-1.25,1.62-2.21,1.98-.3.18-.63.31-.97.38-1.63.33-3.23-.72-3.56-2.36-.96-3.29-1.46-6.69-1.51-10.11,0-1.05-.23-1.05,0-1.05h.93s-.35.58-.35.58Z"/>
        <path class="cls-10" d="m164.92,177.81c-1.98-1.74-3.14-2.32-3.14-2.32l.58,4.42,1.05,5.23c.56.69,1.51.93,2.32.58.7-.31,1.27-.84,1.63-1.51.46-.86.74-1.81.81-2.79-.9-1.36-1.99-2.57-3.25-3.6Zm1.86,8.95c-.81.56-1.81.81-2.79.7-1.23-.32-2.17-1.31-2.44-2.56l-.81-4.18-.93-7.44v-1.05c.43.15.83.39,1.16.7,1.27.92,2.47,1.93,3.6,3.02l2.9,2.9c1.51,1.16,1.51,2.56,1.51,2.56.15,1,.15,2.02,0,3.02-.46.92-1.14,1.72-1.98,2.32h-.23Z"/>
        <path class="cls-10" d="m168.41,165.26c.17,3.37.96,6.68,2.32,9.76,1.28.62,2.78.62,4.07,0,1.07-.47,1.9-1.35,2.32-2.44.39-1.21.39-2.51,0-3.72-1.12-2.79-2.73-5.34-4.76-7.55-1.41-2.11-3.09-4.02-5-5.69-.46,0-.23,3.02.58,9.18l.46.46Zm-2.44-13.48c.23-.12.58.23,1.28.93l5.93,6.74c2.09,2.56,3.92,5.33,5.46,8.25.69,1.67.69,3.55,0,5.23-.61,1.7-1.92,3.05-3.6,3.72-3.6,1.16-5.81.35-6.74-2.44-.97-3.57-1.59-7.23-1.86-10.92l-.7-9.41v-2.09s.23,0,.23,0Z"/>
        <path class="cls-3" d="m156.32,124.59c.98-.92,2.5-.92,3.49,0,.53.47.83,1.15.81,1.86.03.71-.27,1.4-.81,1.86-.98.92-2.5.92-3.49,0-.46-.51-.71-1.17-.7-1.86,0-.68.25-1.34.7-1.86Z"/>
      </g>
    </g>
  </g>
</svg>