<?xml version="1.0" encoding="UTF-8"?>
<svg id="Capa_2" data-name="Capa 2" xmlns="http://www.w3.org/2000/svg" viewBox="0 0 451.56 405.71">
  <defs>
    <style>
      .cls-1 {
        fill: #b1ccc7;
      }

      .cls-1, .cls-2, .cls-3, .cls-4, .cls-5, .cls-6, .cls-7, .cls-8, .cls-9, .cls-10, .cls-11, .cls-12, .cls-13, .cls-14, .cls-15, .cls-16, .cls-17, .cls-18, .cls-19, .cls-20 {
        fill-rule: evenodd;
      }

      .cls-2 {
        fill: #d0c45e;
      }

      .cls-3 {
        fill: #ddece9;
      }

      .cls-4 {
        fill: #231a17;
      }

      .cls-5 {
        fill: #fff;
      }

      .cls-6 {
        fill: #261e1c;
      }

      .cls-7 {
        fill: #b02326;
      }

      .cls-8 {
        fill: #a8a5a3;
      }

      .cls-9 {
        fill: #f3e87d;
      }

      .cls-10 {
        fill: #c46928;
      }

      .cls-11 {
        fill: #211915;
      }

      .cls-12 {
        fill: #52a4ae;
      }

      .cls-13 {
        fill: #f3e87f;
      }

      .cls-14 {
        fill: #a1d5d3;
      }

      .cls-15 {
        fill: #aa4324;
      }

      .cls-16 {
        fill: #fcfcfb;
      }

      .cls-17 {
        fill: #333330;
      }

      .cls-18 {
        fill: #2c2724;
      }

      .cls-19 {
        fill: #241816;
      }

      .cls-20 {
        fill: #27201e;
      }
    </style>
  </defs>
  <g id="Capa_1-2" data-name="Capa 1">
    <g>
      <path class="cls-11" d="m56.67,145.85c-1.69-1.56-3.03-2.82-4.38-4.07-2.68-2.47-5.15-5.11-6.92-8.31-.49-.9-1.2-1.3-2.14-1.59-6.49-2-10.21-7.73-8.98-13.91.43-2.15,1.39-4.15,2.35-6.13.43-.87.56-1.72.57-2.68.02-6.59-.54-13.17.07-19.75.91-9.82,1.45-19.72,5.07-29.06,3.87-9.99,9.89-18.64,16.85-26.72,14.77-17.14,33.54-27.35,55.59-31.41,20.26-3.73,40.48-2.85,60.22,3.22,17.96,5.52,33.26,15.4,45.48,29.8,9.02,10.63,14.4,22.93,16.73,36.64.9,5.26,1.46,10.54,1.62,15.86.02.84.19,1.41,1.02,1.82,4.22,2.12,7.16,5.54,9.5,9.54.43.73.91,1.27,1.75,1.61,20.08,8.12,36.05,21.44,48.96,38.67,3.69,4.93,6.77,10.21,9.92,15.49,2.32,3.9,4.91,7.63,6.76,11.78,6.71,15.11,11.65,30.71,13.08,47.29.79,9.14,1.43,18.27.91,27.45-.5,8.86-.39,17.76-1.89,26.56-1.57,9.23-4.4,18.07-7.9,27.01,1.11-.47,1.87-1.1,2.59-1.79,2.82-2.73,5.14-5.82,6.91-9.34,2.29-4.55,4.52-9.15,7.07-13.55,9.66-16.68,23.28-28.83,41.55-35.39,7.11-2.55,14.62-2.01,22.01-1.87,4.02.08,7.97.8,11.76,2.17,12.95,4.68,22.86,12.89,29.48,25.09,9.3,17.15,11.91,35.32,6.53,53.94-4.7,16.26-15.64,27.71-31.93,33.09-7.34,2.43-15.14,2.36-22.77.6-.61-.14-1.13-.17-1.73.07-7.76,3.12-15.96,4.26-24.19,5.25-10.49,1.28-21.03,1.27-31.57.64-9.09-.54-18.12-1.71-27.14-3.05-2.49-.38-5.02-.54-7.52-.88-.97-.13-1.37.15-1.5,1.13-.96,7.07-2.54,14.02-4.02,20.99-.63,2.99-.1,5.91.14,8.84.43,5.19.99,10.38,1.44,15.57.24,2.74.06,2.82-2.62,2.42-4.72-.69-9.43-1.41-14.1-2.42-4.38-.95-8.49-.14-12.31,2.2-3.51,2.15-7.08,4.2-10.54,6.42-1.51.97-2.65.75-4.03-.2-3.78-2.59-7.02-5.8-10.45-8.78-.75-.66-1.48-.98-2.49-.99-4.83-.04-9.66-.17-14.49-.26-1.87-.04-2.06-.31-1.6-2.16.78-3.14,2.49-5.84,4.18-8.52.96-1.52,1.14-2.84.56-4.57-3.32-10.15-5.51-20.54-5.91-31.24-.03-.83-.15-1.27-1.15-1.3-12.95-.42-25.52-3.34-38.1-6.1-1.16-.26-1.62-.04-2.13.96-2.26,4.39-4.22,8.91-5.86,13.57-.47,1.34-.58,2.66-.31,4.04.75,3.93,1.45,7.87,2.22,11.79.93,4.67.63,7.16-5.8,8.88-6.08,1.64-12.36,2.46-18.61,3.28-15.69,2.04-31.42,3.41-47.26,3.09-2.13-.04-2.44-.52-1.46-2.41.78-1.52,2.06-2.66,3.2-4.08-3.55-.71-7.05-1.03-10.38-2.07-1.8-.56-1.93-.88-.99-2.52,2.28-3.97,5.01-7.6,8.15-10.91.69-.72.7-1.05.06-1.82-4.59-5.51-8.72-11.32-10.57-18.38-2.23-8.54-2.08-17.05.91-25.42,3.49-9.78,7.87-19.15,13.21-28.05.57-.95.43-1.45-.21-2.23-7.04-8.65-13.74-17.55-18.19-27.88-3.91-9.07-6.76-18.51-9.28-28.05-.57-2.17-.56-4.81-1.86-6.39-1.25-1.53-4.05-1.02-6.14-1.58-12-3.23-22.88-8.65-32.95-15.96-11.03-8.01-21.2-16.88-29.73-27.55-.37-.46-.86-.84-1.34-1.18-2.56-1.8-5.01-3.75-7.4-5.76-2.88-2.43-2.91-2.77-.61-5.68,2.72-3.44,5.49-6.85,8.49-10.06.71-.76.91-1.25.15-2.15-2.72-3.22-4.5-6.99-6.07-10.86-1-2.46-.59-3.23,2.06-3.36,5.87-.29,11.75-.31,17.62,0,8.16.44,16.33.92,24.41,2.23,2.64.42,5.26.88,8.35,1.41Z"/>
      <path class="cls-14" d="m71.42,155.33c-6.81-4.27-13.04-9.28-18.82-14.85-2.3-2.22-4.52-4.49-6.09-7.43.66-.2,1.16.15,1.67.33,12.41,4.42,24.62,9.35,35.77,16.47,3.74,2.38,7.28,2.39,11.24,1.02,6.54-2.26,13.21-4.06,20.06-5.03,7.83-1.1,15.71-1.6,23.6-2.1,8.82-.56,17.65-.77,26.45-1.63,1.92-.19,3.79-.62,5.51-1.53,1.36-.72,2.17-1.83,2.53-3.51-.4.13-.63.13-.7.23-2.04,3.09-5.31,3.52-8.54,3.77-5.96.45-11.94.7-17.91,1.09-11.76.75-23.57,1.12-35.2,3.26-5.23.96-10.34,2.45-15.41,4.06-.88.29-1.78.55-2.66.84-2.67.86-5.07.49-7.51-1.02-12.37-7.67-25.69-13.26-39.46-17.87-1.3-.43-2.65-.72-3.92-1.21-5.41-2.08-8.45-8.34-6.08-13.6,1.99-4.42,2.47-8.84,2.28-13.56-.46-11.5.57-22.92,2.78-34.21,1.87-9.56,6.56-17.87,12.08-25.71,8.56-12.16,19.12-22.22,32.22-29.34,12.03-6.53,24.92-10.48,38.59-11.74,16.26-1.51,32.38-.81,48.12,3.71,19.32,5.54,35.71,15.82,48.53,31.46,8.48,10.35,13.37,22.29,15.57,35.42,2.57,15.35,2.13,30.58-1.57,45.72-.12.48-.27.95-.38,1.43-.95,3.99-2.6,7.16-7.2,8.19-2.66.61-5.11,2.22-7.6,3.49-1,.51-1.57.48-2.32-.46-3.01-3.79-6.37-7.25-9.92-10.54-1.3-1.2-2.75-2.18-4.17-3.21-.99-.72-1.6-.49-2.31.43-2.79,3.61-4.81,7.69-6.16,11.94-1.53,4.79-4.22,8.1-8.62,10.45-3.09,1.64-5.75,4.03-8.24,6.52-1.51,1.51-1.56,2.17-.32,3.83,1.14,1.54,2.35,3.03,3.53,4.54-.02,1.07-.92,1.3-1.62,1.63-7.86,3.78-16.02,6.57-24.71,7.73-6.47.86-12.95,1.42-19.48,1.71-19.16.87-37.85-1.66-56.13-7.38-2.64-.81-5.09-2.01-7.5-3.33Z"/>
      <path class="cls-14" d="m420.69,296.57c-3.21-5.32-7.78-8.93-13.82-10.36-4.57-1.07-9.25-.98-13.89-.1-4.38.62-8.84.35-13.22,1.25-9.83,2.03-18.51,6.29-26.17,12.75-4.21,3.54-7.88,7.6-11.75,11.47-8.4,8.42-18.26,14.48-29.54,18.21-2.91.96-5.88,1.77-8.93,2.2-.77.11-1.37.03-1.74-.72-.53-1.85-.03-3.8-.52-5.67-.16-.6.38-.7.74-.9,6.59-3.51,10.45-8.86,11.04-16.4.04-.52.26-.91.56-1.32,2.16-2.97,4.29-5.97,6.02-9.22.26-.5.59-.9,1.1-1.17,4.58-2.46,7.69-6.36,10.06-10.81,3.13-5.9,5.84-12.06,9.43-17.7,9.17-14.42,21.53-25.18,37.53-31.52,4.49-1.78,9.23-2.21,14.03-2.43,8.92-.41,17.63.17,25.85,4.17,10.31,5.04,18.33,12.38,23.83,22.56,9.01,16.68,11.08,34.21,6.7,52.56-.92,3.85-2.61,7.42-4.68,10.8-.94-.11-.95-.95-1.16-1.57-1.64-5.04-3.9-9.77-7.19-13.94-3.14-3.99-6.89-7.32-11.24-9.97-1.08-.65-2.22-1.2-3.04-2.2Z"/>
      <path class="cls-14" d="m200.56,195.18c-3.07-4.7-5.6-9.67-7.52-14.93-2.4-6.59-4.81-13.17-6.63-19.95-.24-.86-.86-1.35-1.36-1.98-2.26-2.82-4.47-5.69-6.76-8.5-.81-.99-.63-1.66.24-2.49,3.74-3.6,7.99-6.52,12.4-9.18,1.41-.85,2.2-1.94,2.77-3.46,1.99-5.28,4.03-10.54,7.16-15.3.77-1.17,1.33-1.36,2.51-.46,4.94,3.74,9.05,8.3,12.97,13.04,1.03,1.25,1.81,1.5,3.29.7,3.46-1.88,7.06-3.52,10.76-4.9,1.1-.41,1.67-.33,2.2.89,2.13,4.85,3.62,9.87,4.56,15.07.04.22.02.46.12.64.22.43,0,1.35.77,1.19.7-.15.35-.91.31-1.42-.03-.32-.07-.64-.11-.98.68,0,1.05.46,1.48.76,9.76,6.73,16.98,15.57,22.01,26.31,3.4,7.27,5.54,14.76,5.09,22.86-.08,1.48-.26,2.95-.4,4.42-.28.59-.82.69-1.38.72-2.53.12-4.29,1.49-5.67,3.47-3.85,5.55-9.19,8.84-15.83,9.58-5.46.61-10.97.22-16.33-1.19-8.65-2.29-16.49-6.24-23.6-11.68-1.2-.92-2.06-2.13-3.05-3.22Z"/>
      <path class="cls-9" d="m180.55,265.64c-8.34.12-16.68-.2-25.02-.39-1.07-.02-1.64-.31-2.06-1.37-6.81-17.55-11.29-35.7-14.07-54.29-.26-1.74-.26-3.51-.56-5.23-.2-1.16.13-1.39,1.23-1.35,6.15.22,12.29.13,18.44.02,11.96-.22,23.89-.88,35.6-3.62,1.71-.4,3.42-.79,5.08-1.35,1.14-.39,1.72-.15,2.41.83,5.09,7.16,11.39,13.02,19.04,17.39,3.22,1.83,6.63,3.14,10.25,3.88,1.1.23,1.25.44.65,1.41-3.68,5.91-7.44,11.77-10.93,17.8-4.56,7.87-8.71,15.97-12.68,24.16-.49,1.02-1.05,1.43-2.21,1.46-8.4.17-16.79.43-25.18.66Z"/>
      <path class="cls-14" d="m34.86,202.75c-4.24-2.87-8.02-6.29-11.68-9.84-3.43-3.32-6.72-6.8-9.66-10.56-2.12-2.71-5.02-4.38-7.56-6.53-1.25-1.07-2.51-2.13-3.81-3.14-1-.77-1.04-1.47-.26-2.47,3.02-3.84,6.07-7.66,9.44-11.19,1.07-1.11,1.07-1.92.09-3.07-2.75-3.21-4.51-6.98-6.13-10.83-.51-1.21-.43-1.68,1.09-1.77,9.01-.54,17.98-.01,26.96.6,7.89.54,15.69,1.64,23.46,3.11,1.16.22,2.13.63,3.07,1.38,11.53,9.25,23.99,16.75,38.51,20.32.78.2,1.07.5,1.07,1.32,0,12.93-2.13,25.41-7.64,37.21-.58.56-1.3.77-2.06.94-4.14.9-8.35,1.33-12.55,1.51-7.34.33-14.67-.1-21.96-1.13-4.95-.7-9.82-1.71-14.6-3.18-2.06-.63-3.99-1.5-5.78-2.69Z"/>
      <path class="cls-3" d="m262.22,240.94c-.15-5.09.91-10.03,1.76-15,1.3-7.68,2.54-15.35,2.58-23.18.01-2.77,1.15-5.43,1.37-8.24.6-7.73-.93-15.04-3.94-22.11-5.36-12.6-13.51-22.89-25.02-30.41-.8-.53-1.2-1.21-1.41-2.1-.98-4.17-2.26-8.24-4.12-12.11-.41-.86-.46-1.61-.07-2.5,3.23-7.39,4.25-15.27,5.11-23.18.41-3.8.42-7.63.42-11.66,2.75,1.4,4.93,3.13,6.77,5.37,4.88,5.95,6.96,12.84,7,20.42.02,4.77-.25,9.55.3,14.31.61,5.3,2.49,9.91,6.75,13.42,6.19,5.11,12,10.61,16.79,17.11,6.19,8.41,10.87,17.52,12.52,27.93.94,5.92.98,11.91.51,17.89-.55,6.94-.79,13.92-1.98,20.79-.96,5.55-2.55,10.99-3.41,16.58-.92,5.98.31,11.42,3.56,16.47,2.57,3.99,6.03,7.24,9.05,10.87,5.17,6.26,9.41,13.08,12.7,20.48,2.93,6.61,3.3,13.48,1.48,20.43-1.39,5.35-5.14,8.75-10.03,11.38-.29-1.52-.56-2.88-.82-4.25,3.46-7.42,2.39-14.76-.62-21.96-2.46-5.89-6.2-10.92-10.78-15.39-3.89-3.79-7.9-7.45-11.76-11.25-2.95-2.9-5.23-6.33-7.41-9.83-2.92-4.68-5.51-9.48-6.68-14.94-.38-1.78-.32-3.58-.6-5.35Z"/>
      <path class="cls-14" d="m226.22,327.23c1.51-10.84,5.11-20.77,13-28.67,5.45-5.45,12.29-8.19,19.92-8.65,10.06-.61,19.49,1.3,27.23,8.29,4.82,4.35,7.8,9.98,10.38,15.83,3.61,8.2,4.01,16.88,3.77,25.64-.05,1.79.09,3.62-.42,5.37-1.23,1.85-3.13,2.88-4.98,3.91-7.15,3.97-14.88,6.07-22.96,7.03-4.41.53-8.84.79-13.28.68-6.49-.15-12.67-1.31-17.76-5.74-6.24-5.44-11.21-11.84-14.43-19.52-.56-1.33-.71-2.73-.47-4.17Z"/>
      <path class="cls-10" d="m294.85,267.58c-1.65-1.76-3.25-3.55-4.75-5.45-4.71-6.01-6.01-12.65-4.46-20.12,1.3-6.26,3.17-12.42,3.71-18.84.36-4.26.81-8.51,1.11-12.77.4-5.8.59-11.6.16-17.42-.47-6.55-2.24-12.7-4.91-18.65-3.42-7.63-8.18-14.38-13.73-20.58-.25-.28-.49-.56-.89-1.02,3.23,0,6.28-.21,9.29.04,7.04.59,14.07,1.28,21.03,2.53,2.21.4,4.38.99,6.59,1.37,1.93.33,3.03,1.54,3.93,3.13,4.3,7.57,7.34,15.67,10.18,23.86,3.61,10.41,5.78,21.1,6.68,32.08.14,1.69.32,3.38.28,5.09.05,3.31-1.18,6.3-2.43,9.26-3.75,8.91-8.86,16.95-15.33,24.15-4.27,4.75-8.8,9.16-14.22,12.57-.68.43-1.31,1.05-2.24.78Z"/>
      <path class="cls-12" d="m301.64,331.28c.82.79,1.8.33,2.61.17,11.68-2.43,22.22-7.28,31.43-14.92,3.71-3.08,7.09-6.52,10.43-10,7.75-8.08,16.54-14.68,27.45-18.02,6.34-1.94,12.81-2.81,19.44-2.39-15.44,4.56-22.29,19.1-20.91,33.56.31,3.29.69,6.54,1.86,9.64,3.02,8.02,8.26,14,16.28,17.34.29.13.57.29.95.49-4.91,2.04-9.97,2.94-15.04,3.82-8.67,1.5-17.41,2.13-26.19,2.15-8.28.02-16.54-.53-24.78-1.38-7.52-.77-14.95-2.31-22.49-2.81-1.44-.09-1.83-.66-1.6-2.06.86-5.18.72-10.4.56-15.6Z"/>
      <path class="cls-9" d="m263.55,220.9c-.72,4.7-1.6,9.39-2.15,14.11-.93,7.89-.72,15.73,1.55,23.43.79,2.69,1.89,5.25,3.37,7.63,3.01,4.84,6.26,9.5,10.03,13.8.75,1.56-.2,2.82-.94,3.94-1.33,2.02-3.12,3.66-5.1,5.05-.25.17-.56.36-.91.21-4.21-.33-8.42-.72-12.64-.11-5.46.79-10.46,2.77-15,5.87-.57.39-.84.24-1.23-.13-10.45-9.46-21.52-18.24-31.35-28.38-.54-.56-.83-1-.43-1.84,6.84-14.26,14.53-28.03,23.2-41.25.06-.08.17-.14.25-.2.56-.12,1.09.02,1.59.26,3.88,1.87,8.06,2.53,12.27,2.54,5.51.02,10.71-1.41,15.37-4.48.5-.33.94-.77,1.55-.88.29-.05.68-.13.58.43Z"/>
      <path class="cls-9" d="m91.52,210.89c2.34-5.07,4.5-10.22,5.93-15.64.22-.82.53-.75,1.15-.49,12.08,4.87,24.81,6.67,37.64,7.97.86.09,1.34.18,1.46,1.25,2.13,20.38,7.1,40.08,14.31,59.23.17.46.34.92.49,1.39.03.09-.03.21-.09.48-3.97-.19-7.96-.36-11.95-.57-8.44-.44-16.81-1.44-25.19-2.5-.56-.07-1.02-.13-1.4-.66-8.34-11.28-16.87-22.43-23.95-34.58-.36-.68-.27-1.4-.07-2.08,1-3.4.82-6.93,1.18-10.4.13-1.15.18-2.29.5-3.4Z"/>
      <path class="cls-12" d="m148.24,322.37c8.46,6.01,17.22,11.53,26.85,15.5,1.97.81,4.02,1.44,6.07,2.04,1.01.3,1.18.64.67,1.58-2.24,4.15-3.98,8.53-5.7,12.93-1.11,2.82-.57,5.49-.08,8.23.62,3.5,1.31,7,2.01,10.48.43,2.1-.29,3.6-2.1,4.72-2.56,1.57-5.49,1.83-8.33,2.36-10.3,1.9-20.67,3.23-31.11,4.05-.81.07-1.59.48-2.43.24,0-.49.52-.88,0-1.48-5.31-6.13-11.44-11.16-19.11-14.08-2.57-.98-5.24-1.57-8.03-1.44-.63.03-1.33.14-1.86-.41.55-.9,1.26-1.71,2.11-2.26,1.03-.67,1.51,1.05,2.82.85-1.14-1.25-2.22-2.35-3.19-3.53-4.03-4.87-7.74-9.94-9.79-16.03-.08-.25-.12-.53-.17-.79.68-.15,1.13.31,1.62.65,6.08,4.22,12.79,6.06,20.09,4.81,5.26-.91,9.94-3.38,14.07-6.82,6.84-5.69,12.06-12.54,15.16-20.93.1-.26.24-.5.46-.68Z"/>
      <path class="cls-9" d="m178.24,309.76c-7.39-10.19-13.85-20.93-19.09-32.38-1.64-3.57-3.11-7.22-4.62-10.76,3.32,0,6.49-.04,9.65,0,13.72.21,27.44.06,41.15-.57,1.31-.06,2.24.24,3.17,1.21,9.48,9.87,20.19,18.4,30.38,27.5,1.14,1.02,1.16,1.49.01,2.5-2.28,1.99-3.96,4.52-5.76,6.93-3.58,2.43-7.74,3.27-11.83,4.28-6.41,1.58-12.95,2.15-19.54,2.15-4.54,0-9.09-.06-13.64.02-2.8.04-5.56-.5-8.36-.38-.54.02-1.07-.16-1.52-.5Z"/>
      <path class="cls-12" d="m420.69,296.57c10.84,5.64,18.16,14.24,21.83,25.92.2.61.24,1.3.79,1.76-5.86,9.57-13.67,16.91-24.16,21.2-3.13,1.28-6.42,1.82-9.75,2.1-4.65.39-9.26.44-13.9-.49-10.7-2.15-19.87-11.51-21.64-22.38-.61-3.74-1.05-7.48-.63-11.27,2.88-4.09,6.63-7.12,11.18-9.15,5.11-2.29,10.53-2.4,15.99-2.01,1.69.12,3.38.3,5.02.79,5.48,1.66,9.32,5.12,11.57,10.38-.08.42-.75.52-.55,1.29,2.11-1.05,3.6-2.58,4.54-4.65,1.74-3.82,1.74-7.71.38-11.63-.23-.62-.45-1.23-.67-1.85Z"/>
      <path class="cls-12" d="m226.22,327.23c-.06,1.57.4,3.01,1.04,4.42,3.82,8.38,9.16,15.55,16.82,20.81,3.32,2.29,7.1,3.23,11.13,3.49,2.9.19,5.8.37,8.7.24,10.58-.44,20.86-2.18,30.35-7.23,2.09-1.11,3.92-2.59,5.85-3.92-.61,6.45-1.92,12.77-3.18,19.11-.95,4.82-2.39,9.57-1.77,14.61.61,5,1.05,10.03,1.53,15.04.08.76.02,1.53.03,2.3-.94.1-1.51-.56-2.13-1.07-4.88-3.99-10.36-6.95-16.14-9.44-4.35-1.87-8.94-2.7-13.61-2.85-9.22-.29-18.42-.13-27.5,1.85-2.06.45-4.01,1.12-5.91,1.99-.61.28-1.24.8-1.96.19.13-.3.21-.65.42-.89,2.24-2.54,1.89-5.19.91-8.22-3.97-12.18-5.99-24.69-5.41-37.53.2-4.31.19-8.65.83-12.93Z"/>
      <path class="cls-14" d="m148.24,322.37c-.19,2.25-1.26,4.18-2.31,6.09-3.88,7.05-8.87,13.19-15.57,17.75-5.31,3.62-11.15,6.03-17.72,5.34-5.78-.61-11.25-2.31-15.78-6.21-1.78-4.99-2.13-10.15-1.83-15.39.33-5.78,2.24-11.14,4.42-16.42,3.11-7.57,6.69-14.9,10.79-21.98.82-1.41,1.58-1.62,2.97-.91,2.22,1.14,4.26,2.49,6,4.28,3.44,3.55,6.84,7.14,10.27,10.68,5.84,6.02,12.04,11.67,18.75,16.76Z"/>
      <path class="cls-13" d="m118.6,292.64c-2.38-1.67-4.76-3.29-7.67-3.99-1.33-.32-2.48-2.76-2.26-4.22,1.05-7.02,3.27-13.72,5.47-20.44.26-.78.6-.96,1.43-.84,12.06,1.76,24.19,2.57,36.35,3.07.84.03,1.37.14,1.73,1.07,5.67,14.94,13.5,28.72,22.6,41.8-.14.91-.84.67-1.37.62-7.28-.71-14.46-1.97-21.59-3.55-10.46-2.33-20.4-6.06-29.92-10.94-1.61-.83-3.31-1.48-4.76-2.59Z"/>
      <path class="cls-13" d="m188.05,169.79c1.02,2.89,2.08,5.77,3.07,8.67,2.17,6.36,5.25,12.28,8.84,18.16-3.94,1.24-7.84,2.15-11.8,2.82-16.87,2.81-33.88,3.14-50.88,2.16-12.38-.71-24.61-2.86-36.35-7.13-2.98-1.08-2.94-1.16-2.29-4.24.92-4.36,1.38-8.77,1.85-13.19.68-1.07,1.47-.38,2.15-.06,5.18,2.42,10.54,4.3,16.08,5.71,8.5,2.18,17.13,3.06,25.89,2.77,13.48-.44,25.85-4.32,36.99-12.01,1.68-1.16,3.18-2.51,4.65-3.91.62-.59,1.38-1.12,1.81.24Z"/>
      <path class="cls-10" d="m308.64,155.36c-4.58-.75-8.97-1.58-13.42-2.14-7.99-1-15.99-1.92-24.06-1.83-1.06.01-1.85-.27-2.61-1.04-2.52-2.53-5.18-4.91-7.96-7.13-4.38-3.51-6.16-8.27-6.57-13.64-.29-3.76-.3-7.54-.21-11.33.13-5.46-.43-10.92-2.94-16.38,26.1,10.9,44.44,29.49,57.78,53.49Z"/>
      <path class="cls-2" d="m188.05,169.79c-.45-.64-.82-.62-1.41-.06-8.83,8.38-19.6,12.85-31.32,15.11-6.45,1.25-13.07,1.48-19.62,1.02-10.79-.75-21.24-3.09-31.18-7.54-1.25-.56-2.4-1.81-4.04-1.29.02-2.2.07-4.38.04-6.58-.01-.95.37-1.11,1.19-.92,8.81,2.03,17.78,2.69,26.77,2.71,17.39.03,34.4-2.34,50.79-8.41,1.79-.66,3.51-1.56,5.25-2.35.38-.17.78-.54,1,.19.84,2.71,1.69,5.41,2.52,8.11Z"/>
      <path class="cls-2" d="m118.6,292.64c3.7,1.36,7.18,3.23,10.72,4.93,8.77,4.22,18.04,6.86,27.51,8.9,5.16,1.12,10.38,1.9,15.62,2.54,1.21.15,2.52.75,3.79.08,2.55,3.64,5.08,7.28,7.68,10.88.5.7.45,1.23.13,1.94-2.11,4.82-4.35,9.59-5.99,14.59-.43,1.31-1.12.85-1.87.56-6.38-2.46-12.22-5.93-18.04-9.46-12.13-7.34-22.4-16.88-32-27.2-2.46-2.65-5.03-5.2-7.55-7.79Z"/>
      <path class="cls-14" d="m229.48,386.79c.22-.01.46.04.63-.05,5.92-3.11,12.43-3.51,18.9-4.2,5.42-.57,10.85-.38,16.26-.22,10.12.31,18.77,4.67,26.88,10.31,1.57,1.09,3.05,2.32,4.56,3.49.56,1.5-.05,1.81-1.46,1.6-4.61-.68-9.21-1.42-13.77-2.36-4.73-.98-9.13-.13-13.23,2.39-3.51,2.15-7.05,4.24-10.54,6.42-.88.54-1.53.48-2.38-.08-3.82-2.52-7.05-5.75-10.47-8.76-1-.89-1.99-1.34-3.37-1.32-4.98.08-9.97.03-15.11.03.51-2.95,1.64-5.16,3.09-7.25Z"/>
      <path class="cls-15" d="m294.85,267.58c3.75-1.89,7.02-4.47,10.05-7.31,8.23-7.7,14.91-16.58,19.81-26.76,1.95-4.06,3.42-8.28,4.36-12.69.57,2.41.35,4.88.59,7.32,1.21,11.97-2.2,23.07-6.45,34.03-3.11,8.03-6.45,15.95-11.24,23.16-.58.87-1.22,1.69-1.8,2.56-.64.97-1.04.84-1.53-.17-1.85-3.74-4.08-7.26-6.37-10.74-2.2-3.35-4.9-6.31-7.43-9.4Z"/>
      <path class="cls-2" d="m224.61,332.27c-.39,4.04-.38,8.1-.35,12.16,0,1.37-.45,1.6-1.69,1.55-8.29-.35-16.43-1.85-24.55-3.41-5.96-1.15-11.93-2.31-17.76-4.1-1.21-.37-1.49-.77-1.03-2.02,1.74-4.68,3.78-9.22,5.73-13.81.32-.75.64-.99,1.46-.69,9.63,3.48,19.62,5.37,29.73,6.75,2.22.31,4.45.71,6.69.76,1.68.04,2.11.66,1.8,2.15-.05.22-.03.45-.04.66Z"/>
      <path class="cls-2" d="m178.24,309.76c8.42.47,16.85.46,25.27.32,9.88-.17,19.54-1.63,28.66-5.7.29-.13.63-.13.95-.19-4.7,7.05-6.89,14.98-8.13,23.23-.12.81-.26,1.16-1.17,1.06-12.54-1.43-24.99-3.32-36.95-7.57-.73-.26-1.36-.57-1.83-1.28-2.23-3.31-4.52-6.59-6.79-9.88Z"/>
      <path class="cls-14" d="m416.98,313.41c-.37-.03-.56-.24-.72-.57-3.1-6.17-8.05-9.46-14.98-10.05-5.62-.47-11.12-.43-16.42,1.74-2.91,1.19-5.51,2.88-7.76,5.1-1.28,1.27-2.59,2.51-3.88,3.77.89-15.35,11.37-24.86,21.94-26.43,8.31-1.23,16.06.15,22.12,6.78,4.8,5.25,5.56,14.73-.31,19.66Z"/>
      <path class="cls-9" d="m89.53,228.44c6.86,11.46,14.86,22.11,22.85,32.78.78,1.05.88,1.88.47,3.11-2.15,6.39-4.22,12.8-5.25,19.48-.02.15-.13.29-.2.45-.54-.05-.66-.54-.91-.84-11.46-13.59-17.97-29.57-22.45-46.54-.25-.95-.46-1.9-.68-2.86.58-.79,1.64-.82,2.33-1.46,1-.93,1.91-1.92,2.53-3.17.23-.49.38-1.35,1.32-.95Z"/>
      <path class="cls-12" d="m71.42,155.33c3.84,1.41,7.62,2.99,11.56,4.11,7.57,2.15,15.25,3.72,23.04,4.78,5.41.74,10.86,1.07,16.31,1.39,5.27.31,10.51.14,15.74-.16,10.19-.59,20.36-1.5,30.12-4.84,3.83-1.31,7.6-2.8,11.22-4.63.53-.26,1.14-.42,1.44-1.02,1.06,1.32,2.07,2.68,3.2,3.95.76.86.63,1.2-.38,1.71-6.52,3.25-13.45,5.27-20.53,6.78-12.79,2.74-25.72,4.11-38.83,3.64-14.42-.52-28.42-2.84-41.55-9.15-3.94-1.89-7.83-3.92-11.34-6.57Z"/>
      <path class="cls-12" d="m200.56,195.18c4.72,4.42,10.15,7.76,15.96,10.56,8.42,4.06,17.27,5.93,26.59,5.18,4.38-.36,8.36-2.08,11.77-4.96,1.73-1.46,3.18-3.12,4.47-4.99,1.36-1.97,3.28-3.21,5.8-3.18.45,0,.88-.03,1.26-.29-.83,3.8-1.78,7.55-3.73,10.98-2.34,4.13-6.06,6.57-10.23,8.41-10.43,4.6-20.75,3.85-30.69-1.35-8.84-4.62-15.6-11.6-21.03-19.9-.08-.13-.12-.3-.17-.45Z"/>
      <path class="cls-12" d="m34.86,202.75c4.15,1.67,8.38,3.11,12.77,4.06,5.34,1.15,10.75,1.71,16.18,2.22,2.68.24,5.35.26,8.03.3,6.74.1,13.4-.56,19.99-2.02-2.61,6.45-6.91,11.76-11.46,16.9-.49.56-1,.46-1.62.35-9.02-1.6-17.51-4.75-25.53-9.14-6.56-3.57-12.59-7.94-18.35-12.66Z"/>
      <path class="cls-1" d="m262.22,240.94c.35,1.8.66,3.62,1.05,5.41,1.14,5.33,3.71,10.01,6.54,14.6,2.13,3.46,4.33,6.9,7.25,9.69,4.54,4.36,9.21,8.59,13.6,13.11,2.02,2.08,3.92,4.28,5.46,6.75,2.96,4.77,5.35,9.79,6.22,15.41.61,3.99.31,7.93-.89,11.79-.25.8-.55,1.55-1.35,1.97-1.69-4.8-3.4-9.6-6.26-13.85-1.74-2.59-3.28-5.21-3.98-8.33-.49-2.19-1.85-4.07-3.06-5.96-2.45-3.84-5.16-7.48-8.22-10.87-3.54-3.91-6.59-8.18-9.6-12.51-4.62-6.68-6.55-14.13-6.79-22.12-.06-1.69.02-3.39.04-5.08Z"/>
      <path class="cls-14" d="m105.09,367.09c9.05-.58,16.15,3.71,22.78,9.15,2.41,1.98,4.53,4.25,6.63,6.56.89.99.88,1.4-.4,1.7-8.64.77-17.3,1.02-25.98.95-.45,0-1.09.29-1.34-.26-.23-.48.25-.92.53-1.3,1.16-1.6,2.59-2.98,3.97-4.39.4-.41,1.02-.68,1.03-1.4-.1-.06-.26-.17-.29-.15-1.8,1.53-3.79.79-5.73.47-2.32-.39-4.65-.76-6.93-1.36-.93-.24-1-.58-.54-1.35,1.82-3.07,3.91-5.94,6.28-8.62Z"/>
      <path class="cls-15" d="m313.29,304.94c-.38-3.52-.2-7.16-1.72-10.3-1.57-3.25-1.02-5.51,1.09-8.42,5.33-7.37,8.71-15.81,11.88-24.31,1.69-4.5,3.25-9.05,4.63-14.01,1.74,15.92-7.3,48.21-15.87,57.04Z"/>
      <path class="cls-2" d="m263.55,220.9c-.57-.46-.89.09-1.25.35-4.21,2.99-8.91,4.54-14.05,4.89-5.65.39-11.02-.52-16.08-3.11.56-1.74,1.5-2.44,3.57-2.28,6.19.47,12.2-.22,17.91-3.11,4.95-2.51,9.05-5.73,11.41-11.4.27,2.85-.07,5.2-.36,7.54-.29,2.38-.77,4.74-1.16,7.11Z"/>
      <path class="cls-2" d="m269.38,289.07c2.43-1.87,4.88-3.71,6.27-6.54.41-.83.78-1.69.69-2.65,4.98,5.66,9.73,11.47,12.72,18.56-.66.18-.84-.16-1.05-.36-5.11-4.77-11.11-7.71-18.03-8.77-.21-.04-.4-.15-.61-.23Z"/>
      <path class="cls-2" d="m89.53,228.44c-.82.12-.86.9-1.14,1.44-1.13,2.07-2.61,3.69-5.05,4.15-.74-2.68-1.46-5.37-2.22-8.05-.17-.62.08-1.04.47-1.47.91-1.02,1.85-2.02,2.69-3.1.66-.84.95-.51,1.36.21,1.27,2.29,2.59,4.55,3.9,6.82Z"/>
      <path class="cls-2" d="m91.52,210.89c.08,5.35-.26,10.66-1.6,15.87-1.22-2.12-2.42-4.24-3.67-6.34-.36-.61-.32-1.07.11-1.62,1.96-2.48,3.59-5.18,5.15-7.92Z"/>
      <path class="cls-19" d="m166.43,116.37c-5.05.1-10.09-.23-15.13-.61-1.7-.13-2.46-.77-2.75-2.49-1.82-10.93-2.54-21.89-1.64-32.95.42-5.05,1.42-10.02,3.64-14.6,4.31-8.91,11.24-12.49,20.44-10.87,1.76.31,3.3,1.12,4.75,2.17,6.55,4.73,10.1,11.34,11.57,19.08,2.38,12.52,2.18,24.97-1.59,37.27-.41,1.34-.96,2.05-2.54,2.22-5.56.57-11.15.71-16.75.79Z"/>
      <path class="cls-19" d="m40.26,98.24c.08-8.67.33-17.33,2.24-25.83,1.05-4.64,2.7-9,6.31-12.4,4.4-4.15,10.44-3.17,13.1,2.29,1.95,4.01,2.52,8.38,2.91,12.75.7,7.92,1.16,15.86.7,23.82-.22,3.83-.72,7.64-1.36,11.42-.15.91-.45,1.6-1.64,1.65-6.75.27-13.48.31-20.21-.4-1.5-.16-2.1-.73-2.08-2.27.07-3.67.02-7.34.02-11.02Z"/>
      <path class="cls-6" d="m142.57,60.28c1.08-4.75,3.89-8.34,7.85-11.11-2.63,3.68-5.85,6.95-7.85,11.11Z"/>
      <path class="cls-20" d="m73.24,63.53c-.52-.93-1.06-1.85-1.55-2.79-1.16-2.24-2.43-4.4-4.03-6.36-.2-.24-.52-.5-.29-.85.2-.31.51-.15.7.06,2.59,2.84,4.77,5.9,5.67,9.7-.16.08-.33.16-.49.24Z"/>
      <path class="cls-18" d="m98.23,132.46c1.13-1.26,2.47-2.31,3.83-3.32.24-.17.53-.17.72.1.29.43.02.75-.29.98-1.28.91-2.57,1.8-3.85,2.7-.14-.15-.27-.31-.4-.46Z"/>
      <path class="cls-17" d="m81.43,131.52c-1.29-.4-2.14-1.38-3.08-2.22-.22-.2-.22-.49.03-.72.33-.3.64-.13.86.11.78.88,1.77,1.6,2.2,2.83Z"/>
      <path class="cls-12" d="m212.38,161.55c-5.44.06-10.12-2.1-14.52-5.02-.8-.53-1.07-1.37-.68-2.32,1.74-4.31,3.81-8.38,7.51-11.41,1.94-1.59,4.07-.95,6.13-.57,3.45.63,6.45,2.41,9.48,4.05,1.47.79,1.53,2.17,1.31,3.58-.7,4.36-3.53,7.58-6.02,10.95-.78,1.08-2.09.7-3.22.74Z"/>
      <path class="cls-4" d="m35.15,151.96c.41,0,.8-.08.91.34.12.5-.29.64-.66.76-1.25.4-2.51.79-3.75,1.22-2.67.91-5.06,2.36-7.46,3.79-.95.56-1.11,1.16-.49,2.13,1.97,3.05,3.94,6.08,6.22,8.9.31.38,1.03.85.45,1.37-.71.63-1.02-.29-1.35-.68-2.42-2.92-4.5-6.08-6.49-9.3-.59-.95-.79-1.94.16-2.66,3.76-2.86,7.99-4.72,12.48-5.87Z"/>
      <path class="cls-7" d="m151.67,91.14c1.08,3.18,2.14,6.1,4.24,8.61,5.62,6.67,11.66,4.65,15.98-.78,2.42-3.05,3.32-6.73,3.32-10.84,2.56,1.78,4.17,4.12,5.14,6.79,2.18,6.03,2.96,12.18.73,18.44-.37,1.04-.86,1.38-1.98,1.46-6.46.47-12.93.26-19.39.3-2.96.02-5.9-.35-8.83-.65-.53-.06-.88-.13-1.03-.78-1.67-7.25-1.84-14.4,1.23-21.37.15-.35.33-.68.59-1.18Z"/>
      <path class="cls-5" d="m167.88,65.09c.03,7.18-2.67,12.36-8.16,16.01-4.22,2.8-7.52,1.64-8.84-3.3-1.47-5.48-.65-10.67,2.86-15.25,2.03-2.65,4.41-4.83,7.87-5.57,1.86-.4,3.18.14,4.33,1.56,1.69,2.11,1.89,4.61,1.94,6.55Z"/>
      <path class="cls-5" d="m178.89,61.38c4.65,4.82,6.68,10.84,7.71,17.27,1.85,11.46,1.51,22.82-1.89,34.01-.53,1.75-.52,1.76-2.68,1.71.78-2.91,1.48-5.8,1.93-8.75,1.85-12.05,1.98-24.02-1.82-35.78-.91-2.82-2.13-5.51-3.68-8.04-.06-.35.08-.49.42-.42Z"/>
      <path class="cls-8" d="m178.89,61.38c-.14.14-.28.27-.42.41-.79-.93-1.57-1.86-2.35-2.79,1.12.59,2.08,1.34,2.77,2.38Z"/>
      <path class="cls-7" d="m61.47,91.32c2.14,1.68,2.54,3.91,2.72,6.13.33,4.12-.54,8.17-1.08,12.22-.1.81-.51,1.18-1.42,1.17-5.05-.06-10.08-.06-15.13-.05-1.13,0-1.8-.27-1.88-1.62-.24-3.87-.73-7.73.16-11.57.55-2.38,1.61-4.48,3.82-6.06.2,2.54.45,4.91,1.71,7.05,2.33,3.97,6.25,4.03,8.68.09,1.34-2.19,1.66-4.72,2.42-7.35Z"/>
      <path class="cls-5" d="m56.33,70.73c-.17,3.45-.26,7.57-2.98,11.04-.98,1.25-2.1,2.06-3.78,1.76-1.22-.22-2.09-.91-2.75-1.9-1.56-2.31-2.27-4.84-1.83-7.62.61-3.81.74-7.76,2.93-11.14.44-.68.98-1.33,1.6-1.86,1.88-1.62,4.2-1.12,5.3,1.1,1.15,2.31,1.54,4.4,1.5,8.63Z"/>
      <path class="cls-16" d="m43.52,76.61c-.45,8.94-.55,17.88-.35,26.83.05,2.03.23,4.06.32,6.08.01.37.26,1.02-.51.91-.54-.08-1.26.1-1.5-.68-.05-.15-.01-.33-.01-.49,0-11.57-.4-23.17,1.73-34.63.88.54.31,1.3.32,1.98Z"/>
      <path class="cls-8" d="m43.52,76.61c-.33-.62.31-1.41-.32-1.98-.01-1.15.43-2.2.82-3.28-.03,1.77-.08,3.53-.49,5.26Z"/>
    </g>
  </g>
</svg>