<?xml version="1.0" encoding="utf-8"?>
<!-- Generator: $$$/GeneralStr/196=Adobe Illustrator 27.6.0, SVG Export Plug-In . SVG Version: 6.00 Build 0)  -->
<svg version="1.1" xmlns="http://www.w3.org/2000/svg" xmlns:xlink="http://www.w3.org/1999/xlink" x="0px" y="0px"
	 viewBox="0 0 828.25 1062.6" style="enable-background:new 0 0 828.25 1062.6;" xml:space="preserve">
<style type="text/css">
	.st0{fill:#1D1D1B;}
	.st1{fill:#DB0A2F;}
	.st2{fill:#8A1823;}
	.st3{fill:#EB6E81;}
	.st4{fill:#F2F2F2;}
	.st5{fill:#46A2DA;}
	.st6{fill:#126CA3;}
	.st7{fill:#A6D8F6;}
	.st8{fill:#E6E6E6;}
	.st9{fill:#808080;stroke:#000000;stroke-width:2;stroke-miterlimit:10;}
	.st10{fill:#DEDFDE;stroke:#000000;stroke-width:2;stroke-miterlimit:10;}
	.st11{fill:#FFFFFF;stroke:#000000;stroke-width:2;stroke-miterlimit:10;}
	.st12{fill:#5C5C5C;}
	.st13{fill:#E11405;}
	.st14{fill:#910D03;}
	.st15{fill:#FF6363;}
	.st16{fill:#FFC905;}
	.st17{fill:#FF9203;}
	.st18{fill:#FFE590;}
	.st19{fill:#00B81C;}
	.st20{fill:#008C15;}
	.st21{fill:#75D984;}
	.st22{fill:#FFCB05;}
	.st23{fill:#FFFFFF;}
	.st24{fill:none;}
</style>
<g id="CARCASA">
	<g>
		<path class="st0" d="M642.2,1.56c0,0,161.08-1.56,167.32-1.56s15.61,0.94,15.61,14.05s3.12,536.3,3.12,539.11
			c0,2.81-1.25,6.24-6.87,10.93c-5.62,4.68-26.85,21.85-31.84,24.97s-10.93,4.68-26.53,4.68c-15.61,0-55.88,2.19-55.88,2.19
			s3.43,152.96,3.43,164.82c0,11.86,0,20.29-13.42,33.4c-13.42,13.11-50.57,48.07-59.31,58.69c-8.74,10.61-16.54,15.3-16.54,31.22
			c0,15.92-1.56,165.45-1.56,165.45s0.31,2.81-2.19,5.31s-13.42,7.8-13.42,7.8s-3.75,0-9.05,0s-550.66-0.31-555.34-0.31
			s-11.55-2.81-11.55-16.54c0-13.74-2.19-457.01-2.19-457.01s-13.74,0.94-22.48-22.79s1.56-40.89,1.56-40.89S6.33,69.3,6.01,62.12
			S11.01,46.2,18.5,39.64s20.29-20.91,24.97-22.48s584.06-3.43,584.06-3.43L642.2,1.56z"/>
		<path class="st1" d="M645.95,6.51c0,0,154.83-2.5,160.45-2.5c5.62,0,15.61-0.94,15.61,13.11s3.75,525.37,3.75,530.37
			s-1.25,15.61-13.74,15.61s-88.03,1.56-88.03,1.56s4.68-181.05,4.99-199.47c0.31-18.42-0.62-23.41-15.61-36.84
			c-14.98-13.42-45.26-35.91-53.69-44.02s-11.86-13.42-11.86-38.39S645.95,6.51,645.95,6.51z"/>
		<path class="st2" d="M642.2,7.45l-12.49,9.36c0,0,4.37,230.38,4.06,246.61c-0.31,16.23,2.5,21.54,15.3,32.46
			s54.63,44.02,59.31,49.32c4.68,5.31,7.8,8.12,7.8,27.78c0,19.67-2.81,139.54-2.81,139.54s2.81,3.43,4.68,7.18s3.75,6.87,3.75,6.87
			s4.68-155.77,4.06-168.57s-1.25-15.92-24.97-34.96s-45.26-33.71-51.51-45.26c-6.24-11.55-5.31-17.79-5.93-40.27
			S642.2,7.45,642.2,7.45z"/>
		<path class="st1" d="M712.13,373.61c0-16.86-1.56-20.91-8.12-26.53s-39.64-33.71-56.19-47.45c-16.54-13.74-18.11-23.1-18.11-32.62
			s-2.81-232.09-2.81-240.83c0-8.74-2.19-8.12-4.68-8.12s-4.68,0-14.67,0c0,0-289.69-0.31-309.04-0.01
			c-19.35,0.3-229.46,1.26-245.36,1.26S34.42,30.23,34.42,34.92c0,4.68-1.25,65.87,0,128.61s1.87,341.19,2.81,341.19
			s670.53,2.81,672.09,2.81C710.88,507.53,712.13,390.47,712.13,373.61z M70.5,494.71c-13.3,0.23-14.45,0.46-19.72-3.9
			c-5.27-4.36-4.36-18.34-4.36-28.89S43.9,53.29,43.67,45.95s2.52-16.28,17.89-16.28S468.58,27.6,490.6,27.6
			c22.01,0,108.01,0,113.74,0s12.38,0.69,12.38,10.78c0,9.87,3.44,208.83,3.67,224.35c0.23,15.51-0.69,21.93,16.97,38.22
			c17.66,16.28,57.79,48.84,62.14,51.82c4.36,2.98,7.34,5.04,7.34,21.1c0,16.05-1.38,99.98-1.83,108.01s0,7.11,0,9.17
			s-0.46,9.4-8.71,9.4S83.8,494.48,70.5,494.71z"/>
		<path class="st1" d="M612.13,38.26c0,0,3.51,214.91,3.51,225.77s-1.76,21.65,17.56,38.71c19.32,17.06,59.47,48.93,62.98,51.94
			c3.51,3.01,7.03,5.27,7.03,19.07c0,13.8-2.26,112.67-2.26,116.43s-0.5,6.27-7.53,6.27s-621.29-5.52-628.32-5.27
			c-7.03,0.25-15.31-1.25-15.31-15.81S47.8,50.05,47.8,43.78s3.26-10.79,17.56-10.79s532.97-2.76,537.99-2.76
			C608.37,30.23,612.13,31.23,612.13,38.26z"/>
		<path class="st2" d="M31.23,34.06c0,0,2.93,467.65,2.63,469.35c-0.3,1.7-7.31-2.58-16.45,4.13c-9.14,6.71-9.77,10.32-9.77,10.32
			s0-224.79,0-259.64S8.5,71.88,9.35,64.02s3.29-12.96,11.42-20.61S31.23,34.06,31.23,34.06z"/>
		<ellipse class="st2" cx="28.26" cy="546.9" rx="23.8" ry="39.37"/>
		<path class="st1" d="M38.24,507.53c0,0,17.85,10.75,17.85,41.13s-17.85,37.61-17.85,37.61h44.83c0,0,21.46-7.01,21.46-36.97
			s-19.97-41.77-19.97-41.77H38.24z"/>
		<path class="st1" d="M94.97,507.53l549.45,2.89c0,0,19.12,8.29,19.12,38.24s-22.52,34.21-24.22,34.21s-546.9,3.4-546.9,3.4
			s19.76-8.07,19.76-36.97C112.18,520.4,94.97,507.53,94.97,507.53z"/>
		<path class="st1" d="M652.92,510.42c0,0,18.06,9.99,18.06,37.61c0,27.62-16.57,34.63-16.57,34.63s43.56,0,46.53,0
			c2.97,0,20.18-6.82,20.18-34.42c0-27.6-18.7-37.82-18.7-37.82H652.92z"/>
		<path class="st3" d="M47.93,517.85c2.3,3.59,4.54,8.21,6.08,14.03h47.98c-1.8-5.78-4.36-10.41-6.96-14.03H47.93z"/>
		<path class="st3" d="M103.75,517.85c2.27,3.65,4.51,8.31,6.12,14.03h551.3c-1.93-6.18-4.77-10.73-7.57-14.03H103.75z"/>
		<path class="st3" d="M661.16,517.85c2.72,3.36,5.54,7.97,7.46,14.03h49.99c-2-6.05-4.92-10.66-7.74-14.03H661.16z"/>
		<path class="st2" d="M103.75,558.64H55.37c-3.32,22.03-17.13,27.63-17.13,27.63h44.83C83.07,586.27,99.92,580.75,103.75,558.64z"
			/>
		<path class="st2" d="M662.59,558.64H111.42c-3.62,21.33-19,27.63-19,27.63s545.2-3.4,546.9-3.4
			C640.81,582.87,658.29,579.61,662.59,558.64z"/>
		<path class="st2" d="M720.19,558.64h-50.14c-3.48,18.85-15.64,24.02-15.64,24.02s43.56,0,46.53,0
			C703.5,582.66,716.57,577.6,720.19,558.64z"/>
		<path class="st2" d="M814.66,566.72c0,0-19.59,14.64-25.86,19.02c-6.28,4.37-6.09,4.94-24.34,5.71
			c-18.26,0.76-57.61,1.33-57.61,1.33v-8.56c0,0,3.6-0.38,8.74-6.85c4.83-6.08,4.61-9.32,4.61-9.32L814.66,566.72z"/>
		<path class="st1" d="M609.46,1054.51c6.28,0,7.23-3.23,7.23-5.32c0-2.09,1.33-159.36,1.52-169.44
			c0.19-10.08,10.65-20.92,29.86-40.89c19.21-19.97,37.05-35.9,47.32-46.36c10.27-10.46,11.25-16.97,11.45-26.48
			c0.2-9.51-2.86-179.75-2.86-179.75s-653.81,2.7-656.05,2.7s-4.61,0-4.61,2.09c0,2.09,2.66,431.5,2.66,446.71
			c0,15.21,5.71,15.02,11.41,15.02C63.1,1052.8,603.19,1054.51,609.46,1054.51z M328.39,1044.24c-11.22,0-243.99-2.85-251.79-2.85
			c-7.8,0-19.59-0.38-19.59-20.54s2.09-402.59,2.09-407.54s2.85-13.69,25.86-13.69c23.01,0,588.96-3.61,596.57-3.61
			c7.61,0,15.78-0.19,15.78,9.89c0,7.8,1.71,136.54,1.71,147.95s-0.38,22.44-13.69,36.89c-13.31,14.45-45.26,44.88-58.57,61.62
			s-17.88,20.54-18.07,43.36s-1.14,109.73-1.33,123.8c-0.19,14.07,0.19,16.16,0,18.26c-0.19,2.09,1.14,8.94-12.36,8.94
			S339.61,1044.24,328.39,1044.24z"/>
		<path class="st1" d="M687.3,604.94c0,0,2.85,135.49,2.58,149.45c-0.27,13.96,1.78,17.7-21.71,41.19s-51.74,49.7-59.57,64.34
			c-7.83,14.64-8.85,23.49-8.85,43.91s-0.68,137.19-1.7,139.23c-1.02,2.04-12.6,1.7-17.02,1.7s-501.88-6.47-508.26-6.47
			s-12.6-1.02-12.6-21.11c0-20.09,2.38-392.85,2.38-398.64s9.19-10.21,24.17-10.21S687.3,604.94,687.3,604.94z"/>
		<path class="st2" d="M607.97,1057.23l-4.77,3.98c0,0-558.23-0.8-563-0.99c-4.77-0.2-9.35-2.39-9.35-18.1
			c0-15.72-3.38-447.42-2.59-450c0.8-2.59,1.99-3.18,5.97-3.18s5.97,0.2,5.97,3.98c0,3.78,1.79,406.64,1.99,425.53
			s0.88,23.12,1.14,28.27s3.01,9.33,16.85,9.33s453.9,1.39,466.83,1.39S607.97,1057.23,607.97,1057.23z"/>
		<path class="st2" d="M61.94,614.67c0,0,4.42-7.96,14.68-7.96s598.17-4.07,605.42-4.07c7.25,0,8.66,1.24,8.66,11.14
			s2.83,114.93,2.65,132.08c-0.18,17.15,0.01,20.86,0.01,20.86s1.76-2.12,1.05-73.38c-0.71-71.26,0.69-73.38,0.17-82.22
			c-0.52-8.84-0.7-12.91-15.37-12.91c-14.68,0-584.62,3.41-598.88,4.07C66.07,602.94,61.94,614.67,61.94,614.67z"/>
		<path class="st1" d="M692.83,770.97c0,0,0,8.49-16.44,25.99c-16.44,17.5-36.95,35.89-50.39,51.45
			c-13.44,15.56-19.1,21.93-21.4,42.08c-2.3,20.16-1.41,31.12-1.41,31.12s-6.72-47.03,16.8-71.26s42.08-42.26,54.11-54.81
			S692.83,770.97,692.83,770.97z"/>
	</g>
	<g>
		<g>
			<circle class="st4" cx="739.12" cy="87.34" r="63.16"/>
			<path d="M674.96,87.34c0-35.38,28.78-64.16,64.16-64.16s64.16,28.78,64.16,64.16s-28.78,64.16-64.16,64.16
				S674.96,122.72,674.96,87.34z M801.29,87.34c0-34.28-27.89-62.16-62.16-62.16s-62.16,27.89-62.16,62.16
				c0,34.28,27.89,62.16,62.16,62.16S801.29,121.61,801.29,87.34z"/>
		</g>
		<g>
			<g>
				<circle class="st5" cx="741.96" cy="86.4" r="52.6"/>
				<path d="M688.36,86.4c0-29.56,24.05-53.6,53.6-53.6c29.56,0,53.6,24.05,53.6,53.6c0,29.56-24.05,53.6-53.6,53.6
					C712.4,140,688.36,115.96,688.36,86.4z M793.56,86.4c0-28.45-23.15-51.6-51.6-51.6c-28.45,0-51.6,23.15-51.6,51.6
					c0,28.45,23.15,51.6,51.6,51.6C770.41,138,793.56,114.85,793.56,86.4z"/>
			</g>
			<circle class="st6" cx="739.26" cy="91.05" r="47.17"/>
			<circle class="st5" cx="755.43" cy="71.04" r="24.65"/>
			<circle class="st7" cx="760.99" cy="65.48" r="9.89"/>
		</g>
		<path class="st8" d="M792.16,112.52c-10.26,17.88-29.52,29.94-51.62,29.94c-32.85,0-59.48-26.63-59.48-59.48
			c0-9.07,2.04-17.66,5.67-25.35c-4.99,8.71-7.86,18.79-7.86,29.54c0,32.85,26.63,59.48,59.48,59.48
			C762.13,146.66,782.64,132.7,792.16,112.52z"/>
	</g>
	<path class="st9" d="M597.35,484.89l-300.9,0l-22.54-22.56l-20.43-20.41l0-382.72c0-2.67,1.18-5.07,3.04-6.71
		c1.57-1.38,3.63-2.21,5.88-2.21l334.96,0c4.92,0,8.92,3.99,8.92,8.92l0,416.77C606.27,480.9,602.27,484.89,597.35,484.89z"/>
	<path class="st10" d="M592.44,479.98l-300.9,0L269,457.42l-20.43-20.41l0-382.72c0-2.67,1.18-5.07,3.04-6.71
		c1.57-1.38,3.63-2.21,5.88-2.21l334.96,0c4.92,0,8.92,3.99,8.92,8.92l0,416.77C601.36,475.98,597.36,479.98,592.44,479.98z"/>
	<rect x="259.79" y="75.01" class="st11" width="328.61" height="352.21"/>
	<g>
		<path class="st12" d="M585.89,440.04l-42.02,0c-1.38,0-2.5-1.12-2.5-2.5l0,0c0-1.38,1.12-2.5,2.5-2.5h42.02
			c1.38,0,2.5,1.12,2.5,2.5v0C588.4,438.92,587.28,440.04,585.89,440.04z"/>
		<path class="st12" d="M585.89,449.96h-42.02c-1.38,0-2.5-1.12-2.5-2.5v0c0-1.38,1.12-2.5,2.5-2.5l42.02,0c1.38,0,2.5,1.12,2.5,2.5
			l0,0C588.4,448.84,587.28,449.96,585.89,449.96z"/>
		<path class="st12" d="M585.89,460.59l-42.02,0c-1.38,0-2.5-1.12-2.5-2.5l0,0c0-1.38,1.12-2.5,2.5-2.5h42.02
			c1.38,0,2.5,1.12,2.5,2.5v0C588.4,459.47,587.28,460.59,585.89,460.59z"/>
		<path class="st12" d="M585.89,470.94l-42.02,0c-1.38,0-2.5-1.12-2.5-2.5l0,0c0-1.38,1.12-2.5,2.5-2.5h42.02
			c1.38,0,2.5,1.12,2.5,2.5v0C588.4,469.82,587.28,470.94,585.89,470.94z"/>
	</g>
	<g>
		<g>
			<g>
				<g>
					<circle class="st13" cx="643.47" cy="637.17" r="13.85"/>
					<path d="M629.37,637.17c0-7.78,6.33-14.11,14.11-14.11c7.78,0,14.11,6.33,14.11,14.11c0,7.78-6.33,14.11-14.11,14.11
						C635.69,651.28,629.37,644.95,629.37,637.17z M657.06,637.17c0-7.49-6.09-13.58-13.58-13.58c-7.49,0-13.58,6.09-13.58,13.58
						c0,7.49,6.09,13.58,13.58,13.58C650.96,650.75,657.06,644.66,657.06,637.17z"/>
				</g>
				<circle class="st14" cx="642.76" cy="638.4" r="12.42"/>
				<circle class="st13" cx="647.02" cy="633.13" r="6.49"/>
				<circle class="st15" cx="648.48" cy="631.67" r="2.6"/>
			</g>
		</g>
		<g>
			<g>
				<g>
					<circle class="st16" cx="643.47" cy="694.14" r="13.85"/>
					<path d="M629.37,694.14c0-7.78,6.33-14.11,14.11-14.11c7.78,0,14.11,6.33,14.11,14.11c0,7.78-6.33,14.11-14.11,14.11
						C635.69,708.25,629.37,701.92,629.37,694.14z M657.06,694.14c0-7.49-6.09-13.58-13.58-13.58c-7.49,0-13.58,6.09-13.58,13.58
						c0,7.49,6.09,13.58,13.58,13.58C650.96,707.72,657.06,701.63,657.06,694.14z"/>
				</g>
				<circle class="st17" cx="642.76" cy="695.36" r="12.42"/>
				<circle class="st16" cx="647.02" cy="690.1" r="6.49"/>
				<circle class="st18" cx="648.48" cy="688.63" r="2.6"/>
			</g>
		</g>
		<g>
			<g>
				<g>
					<circle class="st19" cx="643.47" cy="751.11" r="13.85"/>
					<path d="M629.37,751.11c0-7.78,6.33-14.11,14.11-14.11c7.78,0,14.11,6.33,14.11,14.11c0,7.78-6.33,14.11-14.11,14.11
						C635.69,765.22,629.37,758.89,629.37,751.11z M657.06,751.11c0-7.49-6.09-13.58-13.58-13.58c-7.49,0-13.58,6.09-13.58,13.58
						c0,7.49,6.09,13.58,13.58,13.58C650.96,764.69,657.06,758.6,657.06,751.11z"/>
				</g>
				<circle class="st20" cx="642.76" cy="752.33" r="12.42"/>
				<circle class="st19" cx="647.02" cy="747.07" r="6.49"/>
				<circle class="st21" cx="648.48" cy="745.6" r="2.6"/>
			</g>
		</g>
	</g>
	<g>
		<path class="st22" d="M619,428.29v-7.33l6.29,0V422h1.05v3.14h-1.05v1.05h-4.19v2.1H619z M621.1,425.15h3.14V422h-3.14V425.15z"/>
		<path class="st22" d="M631.73,428.29v-1.05h-1.05V422h1.05v-1.05h5.24V422h1.05v5.24l-1.05,0v1.05H631.73z M632.78,427.24h3.14
			V422h-3.14V427.24z"/>
		<path class="st22" d="M642.37,428.29v-7.33h2.1v3.14h1.05v-1.05h1.05V422h1.05v-1.05h2.1V422h-1.05v1.05h-1.05v1.05h-1.05v1.05
			h1.05v1.05h1.05v1.05h1.05v1.05h-3.14v-1.05h-1.05v-1.05h-1.05v2.1H642.37z"/>
		<path class="st22" d="M654.05,428.29v-7.33h7.33V422h-5.24v2.1h4.19v1.05h-4.19v2.1h5.24v1.05H654.05z"/>
		<path class="st22" d="M665.74,428.29v-7.33l5.24,0V422h1.05v1.05h1.05v3.14h-1.05v1.05h-1.05v1.05H665.74z M667.83,427.24h2.1
			v-1.05h1.05v-3.14h-1.05V422h-2.1V427.24z"/>
		<path class="st22" d="M677.42,428.29v-7.33h7.33V422h-5.24v2.1h4.19v1.05h-4.19v2.1l5.24,0v1.05H677.42z"/>
		<path class="st22" d="M689.11,428.29v-2.1h1.05v-1.05h1.05v-1.05h-1.05v-1.05h-1.05v-2.1h2.1v2.1h1.05v1.05h1.05v-1.05h1.05v-2.1
			h2.1v2.1h-1.05v1.05h-1.05v1.05h1.05v1.05h1.05v2.1h-2.1v-2.1h-1.05l0-1.05h-1.05v1.05h-1.05v2.1H689.11z"/>
	</g>
	<g>
		<path class="st23" d="M648.03,397.53c1.29,0,2.57,0.03,3.86-0.01c0.49-0.02,0.7,0.2,0.86,0.58c0.38,0.92,0.97,1.65,1.79,2.21
			c2.74,1.9,7.07,0.85,8.19-2.44c0.09-0.28,0.23-0.35,0.52-0.35c2.72,0.01,5.43,0.01,8.15,0c0.27,0,0.37,0.01,0.33,0.36
			c-0.74,6.05-5.48,11.02-11.48,12.02c-3.38,0.56-6.63,0.16-9.57-1.61c-3.63-2.18-6.02-5.33-6.86-9.55
			c-0.05-0.25-0.05-0.52-0.14-0.75c-0.14-0.43,0.05-0.47,0.41-0.46C645.4,397.54,646.71,397.53,648.03,397.53
			C648.03,397.53,648.03,397.53,648.03,397.53z"/>
		<path class="st23" d="M657.6,399.19c-1.98-0.01-3.23-1.29-3.22-3.32c0.01-1.85,1.48-3.25,3.41-3.23c1.85,0.02,3.24,1.45,3.24,3.35
			C661.03,397.84,659.58,399.2,657.6,399.19z"/>
		<path class="st23" d="M667.47,395.23c-1.33,0-2.67-0.01-4,0.01c-0.33,0-0.46-0.08-0.54-0.42c-0.44-1.75-1.34-3.15-3.06-3.9
			c-2.42-1.04-6.05-0.38-7.27,3.21c-0.12,0.36-0.08,0.87-0.38,1.04c-0.3,0.17-0.75,0.05-1.14,0.05c-2.38,0-4.76,0-7.14-0.01
			c-0.13,0-0.46,0.17-0.39-0.2c0.05-0.25-0.17-0.66,0.41-0.66c2.31,0.02,4.63,0,6.95,0.02c0.42,0,0.61-0.12,0.76-0.52
			c0.6-1.55,1.5-2.9,3.05-3.64c2.7-1.28,7.39-0.83,8.86,3.53c0.16,0.46,0.34,0.64,0.86,0.63c2.3-0.04,4.6-0.01,6.9-0.01
			c0.39,0,0.66,0.4,0.51,0.76c-0.07,0.18-0.25,0.09-0.38,0.09C670.14,395.23,668.81,395.23,667.47,395.23
			C667.47,395.23,667.47,395.23,667.47,395.23z"/>
		<path class="st23" d="M671.4,392.39c-0.07,0.02-0.1,0.04-0.13,0.04c-0.85,0.04-0.85,0.04-1.14-0.77c-0.98-2.7-2.43-5.05-4.84-6.72
			c-1.8-1.25-3.82-1.93-5.97-2.25c-0.65-0.09-0.71-0.16-0.66-0.65c0.02-0.21,0.12-0.23,0.28-0.21c3.87,0.51,7.26,1.94,9.75,5.1
			C669.96,388.55,670.81,390.38,671.4,392.39z"/>
		<path class="st23" d="M643.98,392.41c0.43-1.43,0.99-2.77,1.74-4.02c1.73-2.89,4.23-4.81,7.43-5.84c1.04-0.33,2.1-0.55,3.18-0.69
			c0.13-0.02,0.38-0.15,0.34,0.14c-0.03,0.2,0.22,0.54-0.22,0.61c-0.98,0.15-1.95,0.34-2.9,0.64c-3.78,1.19-6.35,3.68-7.88,7.3
			c-0.19,0.44-0.39,0.88-0.5,1.35c-0.11,0.45-0.33,0.62-0.77,0.54C644.28,392.41,644.15,392.42,643.98,392.41z"/>
	</g>
</g>
<g id="BOTON_x5F_3D">
	<circle class="st24" cx="741.96" cy="86.4" r="52.6"/>
</g>
<g id="TIPO1_x5F_TIPO2_x5F_GENERACION">
	
		<rect x="584.59" y="318.27" transform="matrix(-1.836970e-16 1 -1 -1.836970e-16 1131.1255 -421.0544)" class="st24" width="383.01" height="73.53"/>
</g>
<g id="PUNTOS_x5F_CARRUSEL">
	<rect x="259.79" y="52.55" class="st24" width="328.61" height="18.88"/>
</g>
<g id="CARRUSEL_x5F_IMAGENES_x5F_DESCRIPCION">
	<rect x="259.79" y="75.01" class="st24" width="328.61" height="352.21"/>
</g>
<g id="BOTONES_x5F_CARRUSEL">
	<rect x="283.34" y="437.53" class="st24" width="133.28" height="28.4"/>
</g>
<g id="SONIDO_x5F_POKEMON">
	<rect x="503.24" y="437.13" class="st24" width="28.31" height="28.31"/>
</g>
<g id="EVOLUCIONES">
	
		<rect x="32.66" y="73.21" transform="matrix(-1.836970e-16 1 -1 -1.836970e-16 314.919 11.2634)" class="st24" width="238.34" height="179.77"/>
</g>
<g id="STATS">
	
		<rect x="73.55" y="280.76" transform="matrix(-1.836970e-16 1 -1 -1.836970e-16 522.4727 218.8171)" class="st24" width="156.56" height="179.77"/>
</g>
<g id="VER_x5F_HABILIDDES_x5F_VER_x5F_STATS">
	
		<rect x="61.94" y="452.33" transform="matrix(-1 -1.224647e-16 1.224647e-16 -1 303.6555 932.3201)" class="st24" width="179.77" height="27.67"/>
</g>
<g id="CONSOLA_x5F_FILTROS">
	<rect x="71" y="618.05" class="st24" width="516.72" height="253.68"/>
</g>
<g id="DROPDOWNS_x5F_FILTROS">
	<rect x="71.68" y="881.19" class="st24" width="516.72" height="110.29"/>
</g>
<g id="BUSCAR_x5F_RESET_x5F_FILTRAR">
	<rect x="71" y="999.94" class="st24" width="516.72" height="35.36"/>
</g>
</svg>
