<?xml version="1.0" encoding="utf-8"?>
<!-- Generator: $$$/GeneralStr/196=Adobe Illustrator 27.6.0, SVG Export Plug-In . SVG Version: 6.00 Build 0)  -->
<svg version="1.1" id="Capa_1" xmlns="http://www.w3.org/2000/svg" xmlns:xlink="http://www.w3.org/1999/xlink" x="0px" y="0px"
	 viewBox="0 0 387.06 387.06" style="enable-background:new 0 0 387.06 387.06;" xml:space="preserve">
<style type="text/css">
	.st0{fill:#1C1D3F;}
	.st1{fill:#FFFFFF;}
	.st2{fill:#BE1F2E;}
	.st3{fill:#1D1D1B;}
	.st4{fill:#C4B2B2;}
	.st5{fill:#FBCFA2;}
	.st6{fill:#D3A87D;}
	.st7{fill:#91789F;}
	.st8{fill:#FFFFFF;stroke:#A55199;stroke-width:0.25;stroke-miterlimit:10;}
</style>
<g>
	<circle class="st0" cx="193.53" cy="193.53" r="193.53"/>
	<circle class="st1" cx="193.53" cy="193.53" r="55.53"/>
	<g>
		<g>
			<path class="st2" d="M362.58,181.75h-92.5l-0.01-0.08c-5.75-37.39-38.65-65.58-76.54-65.58s-70.79,28.19-76.54,65.58l-0.01,0.08
				h-92.5l0.01-0.1c2.96-42.72,21.86-82.43,53.21-111.81c31.5-29.52,72.64-45.77,115.83-45.77s84.33,16.26,115.83,45.77
				c31.35,29.38,50.25,69.09,53.21,111.81L362.58,181.75z"/>
			<path class="st2" d="M270.25,181.56h92.12c-6.16-88.22-80.31-157.3-168.84-157.3S30.85,93.34,24.69,181.56h92.12
				c2.8-18.1,12.01-34.7,25.94-46.75c14.09-12.19,32.12-18.91,50.78-18.91s36.69,6.72,50.78,18.91
				C258.24,146.86,267.45,163.46,270.25,181.56z"/>
		</g>
	</g>
	<g>
		<path class="st1" d="M193.53,363c-43.13,0-84.22-16.21-115.7-45.65c-31.33-29.29-50.27-68.91-53.32-111.54l-0.01-0.1h92.54
			l0.01,0.08c6,37.77,38.17,65.19,76.48,65.19s70.47-27.42,76.48-65.19l0.01-0.08h92.54l-0.01,0.1
			c-3.05,42.64-21.99,82.25-53.32,111.54C277.75,346.79,236.66,363,193.53,363z"/>
		<path class="st1" d="M24.71,205.9c6.35,88,80.48,156.91,168.82,156.91S356,293.89,362.35,205.9h-92.16
			c-2.88,18.01-12.12,34.52-26.02,46.49c-14.07,12.11-32.05,18.79-50.64,18.79s-36.57-6.67-50.64-18.79
			c-13.9-11.97-23.13-28.48-26.02-46.49H24.71z"/>
	</g>
	<path class="st3" d="M352.07,304.53c-0.04-3.62-0.13-6.12-0.29-6.51c-0.7-1.76-6.34-18.85-8.63-22.2
		c-2.29-3.35-6.17-7.05-10.04-10.92c-3.88-3.88-7.22-10.22-8.81-14.09c-1.59-3.88-4.23-6.69-9.16-9.51
		c-4.93-2.82-29.77-10.22-41.75-13.39c-11.98-3.17-26.25-6.17-26.25-6.17l-0.35-0.88l-10.04-7.4l-14.8-8.28l-0.35-2.11
		c0,0,1.94-0.7,6.52-4.23c4.58-3.52,11.98-10.75,14.45-15.33c2.47-4.58,2.47-9.16,2.47-9.16s0,0,1.23-0.88
		c1.23-0.88,6.69-3.17,8.1-6.34c1.41-3.17,6.87-11.45,5.81-22.55s-4.76-14.45-4.76-14.45s2.29-11.1,2.99-16.38
		c0.7-5.28,1.94-31.01,0-44.22c-1.94-13.21-12.51-18.67-16.56-20.44c-4.05-1.76-24.84-7.58-32.06-9.51
		c-7.22-1.94-15.85-0.88-17.97-0.88c-2.11,0-3.35-1.59-8.46-3.35c-5.11-1.76-36.64-17.44-38.05-17.09
		c-1.41,0.35-1.06,10.75-1.06,10.75s-15.15-7.05-17.62-6.69c-2.47,0.35-1.76,3.7-2.11,7.4c-0.35,3.7-0.18,13.21-0.18,13.21
		s-4.23-0.88-5.11-0.53c-0.88,0.35-0.18,4.4-0.18,4.4l-1.41,0.88c0,0,0,0-2.64,0.53s-13.92,2.29-14.97,2.82
		c-1.06,0.53,0.53,9.16,2.99,16.38c2.47,7.22,8.81,19.38,8.81,19.38s-4.4,0.53-3.17,1.59c1.23,1.06,2.11,7.58,2.11,7.58
		s-0.7,0.18-3.17,0.18s-3.35,0.35-2.99,2.11c0.35,1.76,16.38,33.12,16.38,33.65s-0.7,1.06-0.7,1.06s-3.35,5.46-3.52,11.45
		c-0.18,5.99,1.76,15.15,2.29,16.38s4.23,9.16,7.75,11.45c3.52,2.29,5.64,1.94,5.64,1.94s0.53,3.52,0.7,5.99s4.05,7.93,7.93,12.16
		s17.44,13.92,17.44,13.92l0.18,1.59c0,0-0.7,2.11-2.11,3.7c-1.41,1.59-3.17,3.52-4.93,4.72c-1.76,1.19-7.75,6.38-11.45,8.49
		c-3.7,2.11-8.81,4.58-16.38,6.87c-7.58,2.29-38.58,12.33-44.92,14.09c-6.34,1.76-10.39,4.93-11.8,6.34
		c-1.41,1.41-10.22,20.26-15.15,30.65s-6.87,19.55-7.93,22.9c-0.58,1.85-1.65,5.15-2.49,7.74c35.44,44.9,90.35,73.73,152,73.73
		C259.11,387.06,317.07,354.44,352.07,304.53z"/>
	<path class="st4" d="M126.82,41.35c0,0-0.18-17.26,0.88-16.74s16.38,5.99,16.56,6.69c0.18,0.7,1.06,11.27,0,11.27
		S126.83,42.58,126.82,41.35z"/>
	<path class="st4" d="M147.61,22.32c0,0,32.24,14.62,35.41,15.68c3.17,1.06,6.17,2.47,9.16,2.64s15.15-0.18,17.79,0.88
		c2.64,1.06,23.08,6.17,31.01,9.69c7.93,3.52,11.8,8.29,14.97,16.91c3.17,8.62,1.06,45.1,1.06,45.1s-6.34-1.23-8.63-1.23
		s-4.23-0.35-4.23-0.35s-2.11-16.21-2.82-20.96c-0.7-4.76-1.06-9.34-5.11-10.39c-4.05-1.06-39.28-0.35-41.05-0.35
		c-1.76,0-3.7,0.18-3.35,1.41c0.35,1.23,1.41,9.87,1.59,10.39s-8.28-5.81-8.63-5.28c-0.35,0.53-0.53,15.85-1.41,16.03
		c-0.88,0.18-7.75-22.2-9.87-22.9c-2.11-0.7-29.6,0.18-31.53,0.18c-1.94,0-7.05,2.47-7.4,8.28c-0.35,5.81-3.35,23.43-2.82,30.83
		c0.53,7.4,1.23,15.5,1.23,15.5s-5.11-5.11-7.22-4.93c-2.11,0.18-2.99,1.06-2.99,1.06s-16.74-31.71-15.5-31.89s5.64,0,5.64-1.06
		s-2.64-8.98-1.94-8.81c0.7,0.18,3.52-0.35,3.52-1.41s-5.64-9.34-8.63-17.79c-2.99-8.46-4.76-16.74-2.99-16.91
		c1.76-0.18,16.03-2.99,16.03-2.99s0.35,17.09,3.35,21.49c2.99,4.4,7.22,8.46,7.93,7.93c0.7-0.53-6.52-7.4-8.1-13.56
		s-0.88-21.14-0.88-21.14s25.37,1.23,25.72,0.53C147.26,44.17,146.2,22.85,147.61,22.32z"/>
	<path class="st5" d="M244.5,135.77c0,0-1.41,8.46,0,7.4s5.28-8.46,7.22-8.81c1.94-0.35,5.11,1.41,4.76,0
		c-0.35-1.41-3.24-4.23-6.29-2.99S244.5,135.77,244.5,135.77z"/>
	<path class="st5" d="M247.85,141.76c-0.87-1.87,3.7-3.91,4.76-4.6s5.08-0.53,5.09,2.3c0.01,2.83,1.48,15.34-1.19,20.27
		s-5.14,9.51-7.43,10.22s-4.23,1.06-4.23,1.06s0.88-8.98,1.06-10.57c0.18-1.59-1.94-8.1-1.06-7.4c0.88,0.7,2.29,3.17,2.29,5.28
		s2.64,0,1.76-2.82c-0.88-2.82-3.17-3.7-3.17-5.28c0-1.59-1.06-5.81-0.35-5.81s3.52,0,4.05,2.47c0.53,2.47,2.12,6.87,1.94,3.52
		c-0.18-3.35,1.16-3.7-1.18-6.17S247.85,141.76,247.85,141.76z"/>
	<path class="st5" d="M120.84,134.36c0,0,3.35-4.48,5.46-3.3c2.11,1.19,6.52,5.76,6.52,5.76v6.44c0,0-4.93-4.86-7.22-6.44
		C123.3,135.24,120.84,134.36,120.84,134.36z"/>
	<path class="st5" d="M124.53,151.8c0,0,0.35-3.7,1.06-5.28c0.7-1.59,3.7-2.29,2.29-4.93s-5.46-4.4-7.05-3.35s-2.99,8.8-1.76,15.68
		c1.23,6.87,5.33,15.33,9.18,17.09c3.86,1.76,3.86,1.76,3.86,1.76s1.41-7.22,0-7.4s-2.47-1.06-2.99-2.29
		c-0.53-1.23,1.23-0.18,2.29-0.35c1.06-0.18,1.96-2.64,1.33-4.23c-0.63-1.59,0.08-4.19-1.33-3.15s-0.88,2.09-0.88,3.68
		c0,1.59-2.82,0.53-2.64-1.76s2.11-4.4,2.82-5.81c0.7-1.41,1.06-5.46-0.18-5.81c-1.23-0.35-1.52,1.46-3.7,3.35
		C124.64,150.87,125.77,151.63,124.53,151.8z"/>
	<path class="st5" d="M172.63,82.57c-1.79-0.2-22.9-1.41-27.31-0.88c-4.4,0.53-6.97,1.29-9.16,7.05c-3.35,8.81-2.47,79.8-2.47,84.03
		c0,4.23,2.47,12.51,5.46,15.33c2.99,2.82,10.04,9.69,20.61,16.56c10.57,6.87,13.39,10.57,28.36,10.57
		c14.97,0,16.91-1.94,30.65-11.8c13.74-9.87,23.61-18.85,23.61-23.25s0.35-25.37,0-37.52c-0.35-12.16,0.31-16.91,0.16-19.55
		c-0.16-2.64-0.16-11.8-0.69-16.74c-0.53-4.93-2.29-22.9-5.46-23.61s-10.92-1.17-24.84-1.2c-13.92-0.03-17.97,1.2-17.97,1.2
		s2.82,11.8,1.76,12.86s-8.98-6.69-9.34-5.99c-0.35,0.7-0.35,16.91-2.11,17.09C182.14,106.88,173.85,82.71,172.63,82.57z"/>
	<g>
		<g>
			<path class="st3" d="M137.39,119.04l11.27-13.21c0,0,19.38,11.8,21.32,13.21c1.94,1.41,5.81,4.93,5.99,5.64
				c0.18,0.7,0.7,5.03,0,6.39c-0.7,1.36-5.11-2.69-7.4-3.75c-2.29-1.06-3.52-1.23-3.52-1.23s1.23,19.41,0.88,22.3
				c-0.35,2.89-1.41,3.95-3.17,3.95c-1.76,0-3.52,0-4.05,0c-0.53,0-5.28,0.7-8.28-1.76s-4.4-9-4.05-13.75
				c0.35-4.75,3.35-10.03,5.11-11.27c1.76-1.23,3.52-2.29,3.52-2.29l1.85-0.35c0,0-0.79-0.7-5.55-1.76S137.39,119.04,137.39,119.04z
				"/>
			<path class="st1" d="M161.88,125.03c0,0-1.76,4.05-1.06,14.45c0.7,10.39,1.06,11.63,1.06,11.63s-2.99,0.7-5.99,0
				c-2.99-0.7-6.35-0.91-7.22-10.39c-0.87-9.48,4.4-14.8,7.22-15.68C158.71,124.15,161.88,125.03,161.88,125.03z"/>
			<ellipse class="st1" cx="163.03" cy="131.74" rx="1.15" ry="2.62"/>
			<ellipse class="st1" cx="163.45" cy="145.25" rx="0.57" ry="3.13"/>
		</g>
		<path class="st3" d="M142.15,145.25c0,0,0.53,4.54,3.52,6.16c2.99,1.62,3.52,2.5,3.52,2.5s-4.23-1.31-5.28-2.5
			C142.86,150.22,142.15,145.25,142.15,145.25z"/>
	</g>
	<g>
		<g>
			<path class="st3" d="M238.96,119.04l-11.27-13.21c0,0-19.38,11.8-21.32,13.21c-1.94,1.41-5.81,4.93-5.99,5.64
				c-0.18,0.7-0.7,5.03,0,6.39c0.7,1.36,5.11-2.69,7.4-3.75c2.29-1.06,3.52-1.23,3.52-1.23s-1.23,19.41-0.88,22.3
				c0.35,2.89,1.41,3.95,3.17,3.95c1.76,0,3.52,0,4.05,0c0.53,0,5.28,0.7,8.28-1.76c2.99-2.47,4.4-9,4.05-13.75
				c-0.35-4.75-3.35-10.03-5.11-11.27c-1.76-1.23-3.52-2.29-3.52-2.29l-1.85-0.35c0,0,0.79-0.7,5.55-1.76
				C229.8,120.09,238.96,119.04,238.96,119.04z"/>
			<path class="st1" d="M214.47,125.03c0,0,1.76,4.05,1.06,14.45s-1.06,11.63-1.06,11.63s2.99,0.7,5.99,0
				c2.99-0.7,6.35-0.91,7.22-10.39c0.87-9.48-4.4-14.8-7.22-15.68C217.64,124.15,214.47,125.03,214.47,125.03z"/>
			<ellipse class="st1" cx="213.33" cy="131.74" rx="1.15" ry="2.62"/>
			<ellipse class="st1" cx="212.9" cy="145.25" rx="0.57" ry="3.13"/>
		</g>
		<path class="st3" d="M234.2,145.25c0,0-0.53,4.54-3.52,6.16c-2.99,1.62-3.52,2.5-3.52,2.5s4.23-1.31,5.28-2.5
			C233.5,150.22,234.2,145.25,234.2,145.25z"/>
	</g>
	<path class="st3" d="M188.08,153.91c0,0-0.81,8.94-0.81,12.14c0,3.2,0.41,9.32,0.41,9.32s0.99-4.31,0.99-11.97
		S188.08,153.91,188.08,153.91z"/>
	<path class="st3" d="M161.88,177.05c0,0-4.81,4.59-5.93,7.1c-1.11,2.51-1.11,2.51-1.11,2.51s0.14,1.39,1.39,0
		c1.25-1.39,0.42-1.81,1.53-3.48S161.88,177.05,161.88,177.05z"/>
	<path class="st3" d="M214.47,177.74c0,0,3.97,2.01,5.64,4.42c1.67,2.4,1.88,4.35,1.01,4.35s-0.41-1.81-3.08-4.38
		C215.38,179.55,214.47,177.74,214.47,177.74z"/>
	<path class="st3" d="M215.94,183.73c0,0-10.3,3.06-29.92,2.78s-26.3-2.23-26.3-2.23s8.07,4.31,27,3.76
		C205.64,187.49,215.94,183.73,215.94,183.73z"/>
	<path class="st3" d="M193.53,193.47c0,0-2.09,2.17-6.06,1.97s-5.33-1.58-5.33-1.58s1.64,3.06,5.47,2.66
		S193.53,193.47,193.53,193.47z"/>
	<path class="st4" d="M243.88,114.18c0,0,6.28-0.12,8.85,0.58s3.78,1.17,3.78,1.17s-0.64,5.95-1.22,6.07
		c-0.58,0.12-3.97-1.98-5.72-2.22c-1.75-0.23-4.93,0.12-4.93,0.12S243.31,114.76,243.88,114.18z"/>
	<path class="st4" d="M244.64,121.41c0,0-0.38,4.43,0,4.9c0.38,0.47,5.62,0.7,6.74,1.63c1.11,0.93,2.4,1.18,2.4,1.18
		s1.05-3.02,0.7-4.49c-0.35-1.47-3.28-3.1-4.97-3.22C247.82,121.3,244.64,121.41,244.64,121.41z"/>
	<path class="st4" d="M248.41,128.53c0,0-2.99-0.47-3.77,0c-0.78,0.47-0.9,2.53-0.9,2.53v1.55c0,0,1.64-0.53,2.92-1.55
		C247.94,130.05,248.41,128.53,248.41,128.53z"/>
	<path class="st6" d="M163.48,209.7c0,0,8.76,7.89,24.49,7.46c15.72-0.43,21.34-5.08,25.56-7.46c4.22-2.38,4.53-3.13,4.53-3.13
		s-2.36,6.7-12.2,15.24s-11.13,8.54-13.19,12.86s-10.52,22.16-10.52,22.16s-5.58-10.7-8.61-16.86s-5.84-9.94-8-13.08
		c-2.16-3.13-2.92-7.56-2.59-10.65C163.26,213.16,163.48,209.7,163.48,209.7z"/>
	<path class="st7" d="M160.56,210.24c0,0-1.08,4.86,0,10.16s7.78,13.94,7.78,13.94s-5.4,3.68-8.97,14.92
		c-3.57,11.24-7.67,19.78-10.92,24.97c-3.24,5.19-9.62,13.62-9.62,13.62s-1.73-6.05-1.62-10.05c0.11-4,0.76-7.13,2.81-12
		c2.05-4.86,6.7-19.24,8.32-24.75s4.32-9.51,5.62-15.03c1.3-5.51,1.19-9.78,1.19-9.78L160.56,210.24z"/>
	<path class="st8" d="M135.37,229.7c-4,3.13-8.54,10.38-12,15.78c-3.46,5.4-14.92,22.38-14.16,23.67c0.76,1.3,16.11,9.4,16.11,10.81
		c0,1.41-5.4,4.43-7.46,5.51c-2.05,1.08-18.27,9.3-18.81,9.62c-0.54,0.32,0.97,18.05,1.51,23.56c0.54,5.51,1.84,32.43,2.59,38.16
		c0.36,2.72,0.38,5.67,0.3,8.04c4.19,2.21,8.48,4.27,12.84,6.17c0.03-0.86,0.05-1.84,0.05-2.96c0-5.4,4.54-24.97,6.81-38.81
		c2.27-13.84,11.89-55.56,11.89-55.56s1.19-2.05,7.03-18.59c5.84-16.54,11.24-36.97,11.24-36.97s-1.41,1.08-6.05,4
		C142.62,225.05,139.37,226.56,135.37,229.7z"/>
	<path class="st8" d="M131.48,230.67c0,0-1.62,0.11-2.92,1.03s-21.62,6.86-26.05,8.38c-4.43,1.51-24.43,7.13-28.65,9.51
		c-4.22,2.38-7.13,6.7-9.3,10.49c-2.16,3.78-4.22,8.54-5.62,11.57s-6.49,12.97-8.32,17.19c-1.84,4.22-3.24,9.08-4,12.32
		c-0.49,2.09-2.32,9.25-3.57,14.08c8.4,10.37,17.84,19.86,28.18,28.3c0.55-4.66,1.31-10.96,1.87-15.25
		c0.97-7.57,3.35-12.97,3.89-15.35c0.54-2.38,0.22-7.46,0.11-8.76c-0.11-1.3-1.51-3.78-1.84-5.3c-0.32-1.51-2.81-13.3-3.03-16.32
		S69,267.64,69,263.21c0-4.43,1.19-8.65,1.19-8.65s-0.43,7.13-0.43,10.92s2.7,13.3,2.92,15.24c0.22,1.95,1.73,11.67,2.16,13.73
		c0.43,2.05,3.89,10.59,4.32,12.54s-4.11,15.46-5.08,25.73c-0.47,4.95-0.91,9.11-1.25,12.1c8.88,7.09,18.38,13.42,28.43,18.89
		c-0.29-5.34-0.79-13.95-1.46-22.45c-1.08-13.73-4.32-43.78-3.24-46.26c1.08-2.49,23.02-12.86,25.08-14.59
		c2.05-1.73-9.51-5.19-12.76-8.11s-2.59-0.86,2.49-11.35C116.46,250.45,131.48,230.67,131.48,230.67z"/>
	<path class="st7" d="M196.21,233.8c0,0,12.12-10.81,13.31-12.11c1.19-1.3,8.65-8.97,9.19-10.27c0.54-1.3,2.27-5.19,2.92-4.32
		s1.3,1.73,1.3,6.81s-0.54,28.43-0.54,41.51c0,13.08,1.19,19.78,0.54,20.75c-0.65,0.97-2.81,6.59-3.03,7.24
		c-0.22,0.65-0.32,2.38-3.03-1.73c-2.7-4.11-8.32-14.16-10.16-19.13s-4.11-13.94-4.22-16.43s-2.16-8.86-2.81-9.84
		C199.04,235.32,196.21,233.8,196.21,233.8z"/>
	<path class="st7" d="M193.53,387.06c13.35,0,26.39-1.35,38.98-3.93c-0.22-2.24-0.45-4.7-0.5-5.89c-0.11-2.49-3.35-32.75-4.11-36.75
		c-0.76-4-4-46.37-4-48.53c0-2.16-1.08-8-0.78-10.27c0.3-2.27-3.33,8.43-4.19,8.76c-0.86,0.32-2.81-2.7-3.78-5.19
		c-0.97-2.49-9.73-18.27-11.57-24.75c-1.84-6.49-5.08-22.59-6.92-24c-1.84-1.41-4.54,4.43-5.3,6.16
		c-0.76,1.73-5.84,13.08-7.67,15.46c-1.84,2.38-9.62,13.4-11.67,16.32c-2.05,2.92-1.95,15.78-2.05,18.81s-3.57,38.59-3.89,42.48
		c-0.32,3.89-0.19,44.22-0.19,44.22s-0.67-8.44-0.35-14.27c0.32-5.84,0-20.11,0-29.08c0-8.97,2.92-59.34,2.81-61.4
		c-0.11-2.05,11.67-16,11.89-16.65s0-2.92-2.81-7.13s-8.32-14.92-8.32-14.92s-2.81,2.59-4.22,5.08c-1.41,2.49-4.11,8.54-4.86,12.11
		c-0.76,3.57-5.84,14.16-9.84,20.43c-4,6.27-10.81,17.73-11.78,17.62c-0.97-0.11-2.16-8.97-2.59-11.03
		c-0.43-2.05-4.76,15.24-5.62,19.13c-0.86,3.89-3.68,19.67-5.19,28.21c-1.47,8.27-7.19,41.4-7.55,43.46
		C140.8,381.52,166.52,387.06,193.53,387.06z"/>
	<path class="st8" d="M224.77,208.19c0.86-0.22,12.32,7.57,14.7,8.76c2.38,1.19,4.11,2.59,4.43,4.32
		c0.32,1.73,2.16,15.67,4.86,25.94c2.7,10.27,7.13,21.62,6.81,22.48c-0.32,0.86-19.13,6.27-20.54,6.27c-1.41,0-5.08-1.62-6.7-2.38
		c-1.62-0.76-3.57-2.59-3.57-2.59s0.22-36.21,0-41.51C224.55,224.18,224.77,208.19,224.77,208.19z"/>
	<path class="st8" d="M248.98,287.85c-2.49-2.05-23.78-14.48-23.78-14.48s0.22,12.21,0.54,16.65s2.59,42.7,3.13,47.35
		c0.54,4.65,5.19,42.91,5.19,42.91l1,2.31c3-0.66,5.98-1.38,8.93-2.18c0.09-3.48,0.4-8.7,1.31-15.26
		c1.73-12.43,14.48-69.4,14.59-69.83C260.01,294.88,251.47,289.91,248.98,287.85z"/>
	<path class="st8" d="M350.49,306.76l0.21-1.07c0,0-0.65-5.73-1.41-8.11c-0.76-2.38-4.86-14.92-6.81-18.7s-7.89-10.81-10.05-12.65
		c-2.16-1.84-5.51-5.62-7.24-10.16c-1.73-4.54-4.65-9.51-8-11.78s-18.59-7.03-24.43-8.65c-5.84-1.62-27.56-8.22-32.86-9.62
		c-5.3-1.41-13.84-3.24-13.84-3.24s2.05,12.86,3.35,19.29c1.3,6.43,9.19,27.51,9.19,28.81c0,1.3-18.48,5.51-19.78,6.27
		c-1.3,0.76,2.27,2.16,4.76,4.22c2.49,2.05,19.02,12.54,19.24,13.08c0.22,0.54-0.43,2.7-1.08,5.08c-0.65,2.38-4.65,14.38-5.62,18.59
		c-0.97,4.22-3.35,17.51-4.22,22.48c-0.86,4.97-6.16,32.64-6.38,34.7c-0.12,1.12,0.18,3.04,0.48,4.56
		c22.28-6.26,42.92-16.41,61.16-29.67l0.29-1.37c0,0-1.41-9.19-2.59-14.38c-1.19-5.19-4.43-17.4-4.54-18.48
		c-0.11-1.08,0.86-10.92,0.65-13.73c-0.22-2.81,5.4-19.57,8.22-26.27c2.81-6.7,3.78-17.73,3.78-17.73s0.43,1.95,0.11,5.73
		c-0.32,3.78-2.16,9.73-4,16.75c-1.84,7.03-5.95,16.43-6.59,20c-0.65,3.57,0,15.24,0.32,18.05c0.32,2.81,5.62,22.48,6.05,24.97
		c0.2,1.16,1.15,2.5,2.11,3.61C326.05,335.83,339.37,322.14,350.49,306.76z"/>
</g>
</svg>
